<svg width="512" height="512" viewBox="0 0 512 512" fill="none" xmlns="http://www.w3.org/2000/svg">
<rect width="512" height="512" fill="#353535"/>
<path d="M256 56C145.6 56 56 145.6 56 256C56 366.4 145.6 456 256 456H356V416H256C169.2 416 96 342.8 96 256C96 169.2 169.2 96 256 96C342.8 96 416 169.2 416 256V284.6C416 300.4 401.8 316 386 316C370.2 316 356 300.4 356 284.6V256C356 200.8 311.2 156 256 156C200.8 156 156 200.8 156 256C156 311.2 200.8 356 256 356C283.6 356 308.8 344.8 326.8 326.6C339.8 344.4 362.2 356 386 356C425.4 356 456 324 456 284.6V256C456 145.6 366.4 56 256 56V56ZM256 316C222.8 316 196 289.2 196 256C196 222.8 222.8 196 256 196C289.2 196 316 222.8 316 256C316 289.2 289.2 316 256 316Z" fill="#ECECEC"/>
</svg>
