<svg width="512" height="512" viewBox="0 0 512 512" fill="none" xmlns="http://www.w3.org/2000/svg">
<rect width="512" height="512" fill="#353535"/>
<path d="M256 86C162.16 86 86 162.16 86 256C86 349.84 162.16 426 256 426H341V392H256C182.22 392 120 329.78 120 256C120 182.22 182.22 120 256 120C329.78 120 392 182.22 392 256V280.31C392 293.74 379.93 307 366.5 307C353.07 307 341 293.74 341 280.31V256C341 209.08 302.92 171 256 171C209.08 171 171 209.08 171 256C171 302.92 209.08 341 256 341C279.46 341 300.88 331.48 316.18 316.01C327.23 331.14 346.27 341 366.5 341C399.99 341 426 313.8 426 280.31V256C426 162.16 349.84 86 256 86V86ZM256 307C227.78 307 205 284.22 205 256C205 227.78 227.78 205 256 205C284.22 205 307 227.78 307 256C307 284.22 284.22 307 256 307Z" fill="#ECECEC"/>
</svg>
