<svg width="512" height="512" viewBox="0 0 512 512" fill="none" xmlns="http://www.w3.org/2000/svg">
<rect width="512" height="512" fill="#353535"/>
<path d="M256 66C150.995 66 66 150.978 66 256C66 361.005 150.978 446 256 446C292.892 446 329.044 435.167 359.74 415.184C368.937 409.197 370.945 396.576 363.994 388.084L356.197 378.559C350.32 371.38 339.971 369.621 332.161 374.63C309.568 389.12 283.055 396.968 256 396.968C178.27 396.968 115.032 333.73 115.032 256C115.032 178.27 178.27 115.032 256 115.032C332.719 115.032 396.968 159.176 396.968 237.613C396.968 267.328 380.808 298.706 352.402 301.733C339.11 301.385 339.447 291.882 342.078 278.73L360.03 185.944C362.226 174.599 353.534 164.065 341.979 164.065H307.518C304.973 164.064 302.518 165.001 300.62 166.696C298.722 168.39 297.514 170.724 297.227 173.253L297.219 173.323C285.959 159.609 266.231 156.641 251.274 156.641C194.136 156.641 145.677 204.32 145.677 272.679C145.677 322.709 173.859 353.789 219.226 353.789C239.899 353.789 263.178 341.809 276.679 324.421C283.974 350.549 307.793 350.548 330.852 350.548C414.289 350.548 446 295.684 446 237.613C446 133.154 361.743 66 256 66ZM239.39 299.233C222.345 299.233 211.756 287.263 211.756 267.997C211.756 233.526 235.337 212.277 256.674 212.277C273.753 212.277 283.949 223.954 283.949 243.512C283.949 278.035 257.997 299.233 239.39 299.233Z" fill="#F3F3F3"/>
</svg>
