<svg width="512" height="512" viewBox="0 0 512 512" fill="none" xmlns="http://www.w3.org/2000/svg">
<rect width="512" height="512" fill="url(#paint0_linear)"/>
<path d="M256.038 168.828C207.797 168.828 168.886 207.748 168.886 256C168.886 304.252 207.797 343.172 256.038 343.172C304.279 343.172 343.19 304.252 343.19 256C343.19 207.748 304.279 168.828 256.038 168.828ZM256.038 312.673C224.863 312.673 199.378 287.257 199.378 256C199.378 224.743 224.788 199.327 256.038 199.327C287.288 199.327 312.698 224.743 312.698 256C312.698 287.257 287.212 312.673 256.038 312.673V312.673ZM367.083 165.263C367.083 176.567 357.981 185.595 346.755 185.595C335.453 185.595 326.427 176.491 326.427 165.263C326.427 154.034 335.529 144.93 346.755 144.93C357.981 144.93 367.083 154.034 367.083 165.263ZM424.805 185.898C423.516 158.662 417.296 134.536 397.347 114.659C377.475 94.7817 353.354 88.5605 326.124 87.1949C298.059 85.6017 213.941 85.6017 185.876 87.1949C158.722 88.4847 134.601 94.7058 114.653 114.583C94.7038 134.46 88.56 158.586 87.1946 185.823C85.6018 213.894 85.6018 298.031 87.1946 326.102C88.4841 353.338 94.7038 377.464 114.653 397.341C134.601 417.218 158.646 423.439 185.876 424.805C213.941 426.398 298.059 426.398 326.124 424.805C353.354 423.515 377.475 417.294 397.347 397.341C417.22 377.464 423.44 353.338 424.805 326.102C426.398 298.031 426.398 213.969 424.805 185.898V185.898ZM388.549 356.221C382.632 371.091 371.179 382.547 356.236 388.54C333.861 397.417 280.765 395.369 256.038 395.369C231.311 395.369 178.139 397.341 155.839 388.54C140.973 382.623 129.519 371.167 123.527 356.221C114.653 333.84 116.701 280.733 116.701 256C116.701 231.267 114.728 178.084 123.527 155.779C129.443 140.909 140.897 129.453 155.839 123.46C178.215 114.583 231.311 116.631 256.038 116.631C280.765 116.631 333.936 114.659 356.236 123.46C371.103 129.377 382.557 140.833 388.549 155.779C397.423 178.16 395.375 231.267 395.375 256C395.375 280.733 397.423 333.916 388.549 356.221Z" fill="white"/>
<defs>
<linearGradient id="paint0_linear" x1="0" y1="256" x2="512" y2="256" gradientUnits="userSpaceOnUse">
<stop stop-color="#833AB4"/>
<stop offset="0.5" stop-color="#FD1D1D"/>
<stop offset="1" stop-color="#FCB045"/>
</linearGradient>
</defs>
</svg>
