<svg width="456" height="456" viewBox="0 0 456 456" fill="none" xmlns="http://www.w3.org/2000/svg">
<g clip-path="url(#clip0)">
<rect width="455.73" height="455.73" fill="white"/>
<path d="M227.86 182.55C202.88 182.55 182.54 202.88 182.54 227.86C182.54 252.85 202.88 273.19 227.86 273.19C252.85 273.19 273.18 252.85 273.18 227.86C273.18 202.88 252.85 182.55 227.86 182.55ZM227.86 182.55C202.88 182.55 182.54 202.88 182.54 227.86C182.54 252.85 202.88 273.19 227.86 273.19C252.85 273.19 273.18 252.85 273.18 227.86C273.18 202.88 252.85 182.55 227.86 182.55ZM303.36 108.66H152.37C128.27 108.66 108.66 128.27 108.66 152.37V303.36C108.66 327.46 128.27 347.07 152.37 347.07H303.36C327.46 347.07 347.07 327.46 347.07 303.36V152.37C347.07 128.27 327.46 108.66 303.36 108.66ZM227.86 306.35C184.59 306.35 149.38 271.14 149.38 227.86C149.38 184.59 184.59 149.38 227.86 149.38C271.14 149.38 306.35 184.59 306.35 227.86C306.35 271.14 271.14 306.35 227.86 306.35ZM308.87 165.61C298.63 165.61 290.3 157.28 290.3 147.04C290.3 136.8 298.63 128.47 308.87 128.47C319.11 128.47 327.44 136.8 327.44 147.04C327.44 157.28 319.11 165.61 308.87 165.61ZM227.86 182.55C202.88 182.55 182.54 202.88 182.54 227.86C182.54 252.85 202.88 273.19 227.86 273.19C252.85 273.19 273.18 252.85 273.18 227.86C273.18 202.88 252.85 182.55 227.86 182.55ZM303.36 108.66H152.37C128.27 108.66 108.66 128.27 108.66 152.37V303.36C108.66 327.46 128.27 347.07 152.37 347.07H303.36C327.46 347.07 347.07 327.46 347.07 303.36V152.37C347.07 128.27 327.46 108.66 303.36 108.66ZM227.86 306.35C184.59 306.35 149.38 271.14 149.38 227.86C149.38 184.59 184.59 149.38 227.86 149.38C271.14 149.38 306.35 184.59 306.35 227.86C306.35 271.14 271.14 306.35 227.86 306.35ZM308.87 165.61C298.63 165.61 290.3 157.28 290.3 147.04C290.3 136.8 298.63 128.47 308.87 128.47C319.11 128.47 327.44 136.8 327.44 147.04C327.44 157.28 319.11 165.61 308.87 165.61ZM227.86 182.55C202.88 182.55 182.54 202.88 182.54 227.86C182.54 252.85 202.88 273.19 227.86 273.19C252.85 273.19 273.18 252.85 273.18 227.86C273.18 202.88 252.85 182.55 227.86 182.55ZM0 0V455.73H455.73V0H0ZM380.23 303.36C380.23 345.75 345.75 380.23 303.36 380.23H152.37C109.98 380.23 75.5 345.75 75.5 303.36V152.37C75.5 109.98 109.98 75.5 152.37 75.5H303.36C345.75 75.5 380.23 109.98 380.23 152.37V303.36ZM303.36 108.66H152.37C128.27 108.66 108.66 128.27 108.66 152.37V303.36C108.66 327.46 128.27 347.07 152.37 347.07H303.36C327.46 347.07 347.07 327.46 347.07 303.36V152.37C347.07 128.27 327.46 108.66 303.36 108.66ZM227.86 306.35C184.59 306.35 149.38 271.14 149.38 227.86C149.38 184.59 184.59 149.38 227.86 149.38C271.14 149.38 306.35 184.59 306.35 227.86C306.35 271.14 271.14 306.35 227.86 306.35ZM308.87 165.61C298.63 165.61 290.3 157.28 290.3 147.04C290.3 136.8 298.63 128.47 308.87 128.47C319.11 128.47 327.44 136.8 327.44 147.04C327.44 157.28 319.11 165.61 308.87 165.61ZM227.86 182.55C202.88 182.55 182.54 202.88 182.54 227.86C182.54 252.85 202.88 273.19 227.86 273.19C252.85 273.19 273.18 252.85 273.18 227.86C273.18 202.88 252.85 182.55 227.86 182.55ZM227.86 182.55C202.88 182.55 182.54 202.88 182.54 227.86C182.54 252.85 202.88 273.19 227.86 273.19C252.85 273.19 273.18 252.85 273.18 227.86C273.18 202.88 252.85 182.55 227.86 182.55ZM227.86 182.55C202.88 182.55 182.54 202.88 182.54 227.86C182.54 252.85 202.88 273.19 227.86 273.19C252.85 273.19 273.18 252.85 273.18 227.86C273.18 202.88 252.85 182.55 227.86 182.55ZM303.36 108.66H152.37C128.27 108.66 108.66 128.27 108.66 152.37V303.36C108.66 327.46 128.27 347.07 152.37 347.07H303.36C327.46 347.07 347.07 327.46 347.07 303.36V152.37C347.07 128.27 327.46 108.66 303.36 108.66ZM227.86 306.35C184.59 306.35 149.38 271.14 149.38 227.86C149.38 184.59 184.59 149.38 227.86 149.38C271.14 149.38 306.35 184.59 306.35 227.86C306.35 271.14 271.14 306.35 227.86 306.35ZM308.87 165.61C298.63 165.61 290.3 157.28 290.3 147.04C290.3 136.8 298.63 128.47 308.87 128.47C319.11 128.47 327.44 136.8 327.44 147.04C327.44 157.28 319.11 165.61 308.87 165.61ZM227.86 182.55C202.88 182.55 182.54 202.88 182.54 227.86C182.54 252.85 202.88 273.19 227.86 273.19C252.85 273.19 273.18 252.85 273.18 227.86C273.18 202.88 252.85 182.55 227.86 182.55ZM227.86 182.55C202.88 182.55 182.54 202.88 182.54 227.86C182.54 252.85 202.88 273.19 227.86 273.19C252.85 273.19 273.18 252.85 273.18 227.86C273.18 202.88 252.85 182.55 227.86 182.55ZM227.86 182.55C202.88 182.55 182.54 202.88 182.54 227.86C182.54 252.85 202.88 273.19 227.86 273.19C252.85 273.19 273.18 252.85 273.18 227.86C273.18 202.88 252.85 182.55 227.86 182.55ZM303.36 108.66H152.37C128.27 108.66 108.66 128.27 108.66 152.37V303.36C108.66 327.46 128.27 347.07 152.37 347.07H303.36C327.46 347.07 347.07 327.46 347.07 303.36V152.37C347.07 128.27 327.46 108.66 303.36 108.66ZM227.86 306.35C184.59 306.35 149.38 271.14 149.38 227.86C149.38 184.59 184.59 149.38 227.86 149.38C271.14 149.38 306.35 184.59 306.35 227.86C306.35 271.14 271.14 306.35 227.86 306.35ZM308.87 165.61C298.63 165.61 290.3 157.28 290.3 147.04C290.3 136.8 298.63 128.47 308.87 128.47C319.11 128.47 327.44 136.8 327.44 147.04C327.44 157.28 319.11 165.61 308.87 165.61ZM227.86 182.55C202.88 182.55 182.54 202.88 182.54 227.86C182.54 252.85 202.88 273.19 227.86 273.19C252.85 273.19 273.18 252.85 273.18 227.86C273.18 202.88 252.85 182.55 227.86 182.55Z" fill="#C536A4"/>
</g>
<defs>
<clipPath id="clip0">
<rect width="455.73" height="455.73" fill="white"/>
</clipPath>
</defs>
</svg>
