<svg width="512" height="512" viewBox="0 0 512 512" fill="none" xmlns="http://www.w3.org/2000/svg">
<rect width="512" height="512" fill="url(#paint0_linear)"/>
<path d="M331.338 87.0908C348.593 87.8842 360.522 90.42 371.543 94.6983C381.994 98.6057 391.455 104.768 399.253 112.747C407.232 120.545 413.394 130.006 417.302 140.457C421.58 151.493 424.116 163.407 424.909 180.662C425.887 202.053 426 209.59 426 256C426 302.41 425.887 309.947 424.909 331.338C424.116 348.593 421.58 360.522 417.302 371.558C413.393 382.003 407.23 391.459 399.253 399.253C391.455 407.232 381.994 413.395 371.543 417.302C360.508 421.58 348.593 424.116 331.338 424.909C309.947 425.887 302.424 426 256 426C209.576 426 202.039 425.887 180.662 424.909C163.407 424.116 151.478 421.58 140.443 417.302C129.997 413.393 120.541 407.231 112.747 399.253C104.768 391.455 98.6057 381.994 94.6983 371.543C90.42 360.508 87.8842 348.593 87.0908 331.338C86.1133 309.975 86 302.438 86 256C86 209.576 86.1133 202.025 87.0908 180.662C87.8842 163.407 90.42 151.478 94.6983 140.457C98.6057 130.006 104.768 120.545 112.747 112.747C120.541 104.77 129.997 98.6075 140.443 94.6983C151.493 90.42 163.407 87.8842 180.662 87.0908C202.025 86.1133 209.562 86 256 86C302.424 86 309.975 86.1133 331.338 87.0908V87.0908ZM256 123.783C210.1 123.783 203.073 123.882 182.376 124.831C169.243 125.426 161.367 127.097 154.128 129.917C147.965 132.325 144.041 134.875 139.451 139.451C134.861 144.041 132.311 147.965 129.917 154.128C127.112 161.353 125.426 169.243 124.831 182.376C123.882 203.073 123.783 210.1 123.783 256C123.783 301.9 123.882 308.927 124.831 329.624C125.426 342.757 127.097 350.633 129.917 357.858C132.325 364.035 134.875 367.959 139.451 372.549C144.041 377.139 147.965 379.689 154.128 382.083C161.353 384.888 169.243 386.574 182.376 387.169C203.088 388.118 210.114 388.218 256 388.218C301.9 388.218 308.913 388.118 329.624 387.169C342.757 386.574 350.633 384.903 357.873 382.083C364.035 379.675 367.959 377.125 372.549 372.549C377.139 367.959 379.689 364.035 382.083 357.873C384.888 350.648 386.574 342.757 387.169 329.624C388.118 308.913 388.218 301.886 388.218 256C388.218 210.114 388.118 203.088 387.169 182.376C386.574 169.243 384.903 161.367 382.083 154.142C380.08 148.575 376.817 143.547 372.549 139.451C368.453 135.183 363.425 131.919 357.858 129.917C350.633 127.112 342.742 125.426 329.61 124.831C308.912 123.882 301.886 123.783 255.986 123.783H256ZM256 344.145C232.622 344.145 210.202 334.858 193.672 318.328C177.142 301.798 167.855 279.378 167.855 256C167.855 232.622 177.142 210.202 193.672 193.672C210.202 177.142 232.622 167.855 256 167.855C279.378 167.855 301.798 177.142 318.328 193.672C334.858 210.202 344.145 232.622 344.145 256C344.145 279.378 334.858 301.798 318.328 318.328C301.798 334.858 279.378 344.145 256 344.145V344.145ZM256 306.377C269.361 306.377 282.174 301.069 291.622 291.622C301.069 282.174 306.377 269.361 306.377 256C306.377 242.639 301.069 229.826 291.622 220.378C282.174 210.931 269.361 205.623 256 205.623C242.639 205.623 229.826 210.931 220.378 220.378C210.931 229.826 205.623 242.639 205.623 256C205.623 269.361 210.931 282.174 220.378 291.622C229.826 301.069 242.639 306.377 256 306.377V306.377ZM344.145 186.739C339.135 186.739 334.33 184.749 330.787 181.206C327.244 177.663 325.254 172.858 325.254 167.848C325.254 162.838 327.244 158.033 330.787 154.49C334.33 150.947 339.135 148.957 344.145 148.957C349.155 148.957 353.96 150.947 357.503 154.49C361.046 158.033 363.036 162.838 363.036 167.848C363.036 172.858 361.046 177.663 357.503 181.206C353.96 184.749 349.155 186.739 344.145 186.739Z" fill="white"/>
<defs>
<linearGradient id="paint0_linear" x1="0" y1="256" x2="512" y2="256" gradientUnits="userSpaceOnUse">
<stop stop-color="#833AB4"/>
<stop offset="0.5" stop-color="#FD1D1D"/>
<stop offset="1" stop-color="#FCB045"/>
</linearGradient>
</defs>
</svg>
