<svg width="22" height="22" viewBox="0 0 22 22" fill="none" xmlns="http://www.w3.org/2000/svg">
<path d="M18.189 17.1813V1.40835C18.189 0.889812 17.8012 0.469482 17.3229 0.469482H1.29925C0.820877 0.469482 0.433105 0.889812 0.433105 1.40835V17.1813H18.189Z" fill="white"/>
<path d="M2.16553 6.10254H8.22852V13.0032H2.16553V6.10254Z" fill="#8481E2"/>
<path d="M0.433105 4.22494V1.40835C0.433105 0.889812 0.820877 0.469482 1.29925 0.469482H17.3229C17.8012 0.469482 18.189 0.889812 18.189 1.40835V4.22494H0.433105Z" fill="#80B6FF"/>
<path d="M20.951 15.9301L20.43 16.193C19.9648 16.4279 19.4169 16.1742 19.2457 15.6498C19.0045 14.9107 19.0045 14.1001 19.2457 13.3611C19.4169 12.8367 19.9647 12.5829 20.43 12.8178L20.951 13.0808C21.2381 13.2257 21.5668 12.9985 21.5668 12.6552V10.6561C21.5668 10.3968 21.373 10.1867 21.1338 10.1867H18.6866C18.3696 10.1867 18.16 9.82961 18.2943 9.51838L18.5348 8.96098C18.7527 8.45606 18.5182 7.86049 18.0332 7.67548C17.3506 7.41514 16.6021 7.41514 15.9196 7.67548C15.4345 7.86049 15.2001 8.45606 15.4179 8.96098L15.6584 9.51838C15.7927 9.82961 15.5831 10.1867 15.2661 10.1867H12.8188C12.5796 10.1867 12.3857 10.3968 12.3857 10.6561V12.6552C12.3857 12.9985 12.7145 13.2257 13.0016 13.0808L13.5226 12.8178C13.9878 12.583 14.5357 12.8367 14.7069 13.3611C14.9481 14.1001 14.9481 14.9107 14.7069 15.6498C14.5357 16.1742 13.9879 16.4279 13.5226 16.193L13.0016 15.9301C12.7145 15.7852 12.3857 16.0124 12.3857 16.3556V18.3547C12.3857 18.614 12.5796 18.8242 12.8188 18.8242H15.266C15.583 18.8242 15.7926 19.1812 15.6583 19.4924L15.4178 20.0499C15.2 20.5548 15.4344 21.1503 15.9195 21.3353C16.602 21.5957 17.3505 21.5957 18.0331 21.3353C18.5181 21.1503 18.7526 20.5548 18.5347 20.0499L18.2943 19.4924C18.16 19.1812 18.3696 18.8242 18.6865 18.8242H21.1338C21.373 18.8242 21.5668 18.614 21.5668 18.3547V16.3556C21.5668 16.0123 21.2381 15.7852 20.951 15.9301Z" fill="#FFF2A0"/>
<path d="M2.59843 2.34716C2.59843 2.60643 2.40454 2.81659 2.16535 2.81659C1.92617 2.81659 1.73228 2.60643 1.73228 2.34716C1.73228 2.08789 1.92617 1.87773 2.16535 1.87773C2.40454 1.87773 2.59843 2.08789 2.59843 2.34716ZM4.54724 2.34716C4.54724 2.60643 4.35336 2.81659 4.11417 2.81659C3.87499 2.81659 3.6811 2.60643 3.6811 2.34716C3.6811 2.08789 3.87499 1.87773 4.11417 1.87773C4.35336 1.87773 4.54724 2.08789 4.54724 2.34716ZM6.49606 2.34716C6.49606 2.60643 6.30218 2.81659 6.06299 2.81659C5.82381 2.81659 5.62992 2.60643 5.62992 2.34716C5.62992 2.08789 5.82381 1.87773 6.06299 1.87773C6.30218 1.87773 6.49606 2.08789 6.49606 2.34716ZM9.31102 16.7118C9.07193 16.7118 8.87795 16.9226 8.87795 17.1812C8.87795 17.4399 9.07193 17.6506 9.31102 17.6506C9.54965 17.6506 9.74409 17.4399 9.74409 17.1812C9.74409 16.9226 9.54965 16.7118 9.31102 16.7118ZM8.66142 6.10262V13.0033C8.66142 13.2625 8.46749 13.4727 8.22835 13.4727H2.16535C1.92621 13.4727 1.73228 13.2625 1.73228 13.0033V6.10262C1.73228 5.8434 1.92621 5.63318 2.16535 5.63318H8.22835C8.46749 5.63318 8.66142 5.8434 8.66142 6.10262ZM7.79528 6.57205H2.59843V12.5338H7.79528V6.57205ZM9.96063 6.90065H14.4213C14.6604 6.90065 14.8543 6.69044 14.8543 6.43122C14.8543 6.172 14.6604 5.96179 14.4213 5.96179H9.96063C9.72149 5.96179 9.52756 6.172 9.52756 6.43122C9.52756 6.69044 9.72149 6.90065 9.96063 6.90065ZM9.96063 8.77838H13.5551C13.7943 8.77838 13.9882 8.56817 13.9882 8.30895C13.9882 8.04973 13.7943 7.83951 13.5551 7.83951H9.96063C9.72149 7.83951 9.52756 8.04973 9.52756 8.30895C9.52756 8.56817 9.72149 8.77838 9.96063 8.77838ZM2.16535 14.4116C1.92621 14.4116 1.73228 14.6218 1.73228 14.881C1.73228 15.1402 1.92621 15.3504 2.16535 15.3504H5.19685C5.43599 15.3504 5.62992 15.1402 5.62992 14.881C5.62992 14.6218 5.43599 14.4116 5.19685 14.4116H2.16535ZM19.6541 13.5178C19.4475 14.1524 19.4483 14.8552 19.6541 15.4931C19.7355 15.7457 19.9953 15.8879 20.2591 15.7616L20.7502 15.5138C21.3309 15.2218 22 15.6396 22 16.3555V18.3548C22 18.8733 21.6122 19.2937 21.1339 19.2937H18.6866L18.9269 19.8509C19.276 20.655 18.866 21.524 18.1769 21.7784C17.3801 22.0724 16.5503 22.0754 15.7758 21.7782C15.0899 21.5149 14.6769 20.655 15.0256 19.8511L15.2661 19.2936L12.8189 19.2937C12.3413 19.2937 11.9528 18.8725 11.9528 18.3548V17.6506H11.2598C11.0207 17.6506 10.8268 17.4399 10.8268 17.1812C10.8268 16.9226 11.0207 16.7118 11.2598 16.7118H11.9528V16.3557C11.9528 15.6396 12.6219 15.2217 13.2024 15.5136L13.6937 15.7615C13.9575 15.888 14.2173 15.7456 14.2987 15.4932C14.5044 14.8554 14.5051 14.1526 14.2987 13.5176C14.2251 13.2912 13.9672 13.1153 13.7056 13.2433L13.1846 13.5064C12.6219 13.7801 11.9528 13.3743 11.9528 12.6338V10.6561C11.9528 10.1376 12.3405 9.71724 12.8189 9.71724H15.2661L15.0256 9.15984C14.6448 8.18023 15.2276 7.44942 15.7758 7.23268C16.6886 6.87187 17.4995 7.04129 17.7559 7.10246V4.69432H0.866142V16.7118H7.3467C7.57705 16.7118 7.77865 16.8996 7.79428 17.1486C7.81143 17.4219 7.61079 17.6506 7.36225 17.6506H0.433071C0.193886 17.6506 0 17.4405 0 17.1812V1.4083C0 0.630494 0.581657 0 1.29921 0H17.3228C18.0404 0 18.622 0.630494 18.622 1.4083V7.52542C18.9759 7.87317 19.2019 8.45311 18.9269 9.16003L18.6866 9.71724H21.1339C21.6122 9.71724 22 10.1376 22 10.6561V12.6338C22 13.3741 21.3309 13.7802 20.7683 13.5065L20.2474 13.2431C19.9854 13.1155 19.7277 13.291 19.6541 13.5178V13.5178ZM17.7559 3.75546V1.4083C17.7559 1.14945 17.5616 0.938864 17.3228 0.938864H1.29921C1.06042 0.938864 0.866142 1.14945 0.866142 1.4083V3.75546H17.7559ZM18.8373 13.2047C19.1266 12.3174 20.0317 12.0808 20.6129 12.3921L21.1339 12.6554V10.6561H18.6866C18.0101 10.6561 17.6476 9.89046 17.9023 9.31963L18.1426 8.76195C18.2574 8.46198 18.1053 8.20478 17.8893 8.11836C17.3172 7.88951 16.6174 7.90312 16.0633 8.11831C15.8468 8.20243 15.6953 8.46193 15.8102 8.76214L16.0507 9.31954C16.3051 9.89065 15.9426 10.6562 15.2661 10.6562H12.8189V12.6553L13.3399 12.3923C13.9211 12.0811 14.8264 12.3173 15.1153 13.2046C15.3885 14.0437 15.3929 14.969 15.1153 15.8064C14.8934 16.4756 14.1586 17.0086 13.3399 16.6187L12.8189 16.3557L12.8189 18.3548H15.2661C15.9412 18.3548 16.3072 19.1195 16.0507 19.6914L15.8102 20.2488C15.687 20.5399 15.8547 20.824 16.0633 20.8926C16.6956 21.1002 17.1957 21.1275 17.8893 20.8926C18.0975 20.822 18.2656 20.54 18.1426 20.249L17.9023 19.6913C17.6455 19.1195 18.0114 18.3548 18.6866 18.3548H21.1339V16.3555L20.6129 16.6189C19.7939 17.0085 19.0594 16.4757 18.8373 15.8063C18.5597 14.9688 18.5644 14.0435 18.8373 13.2047Z" fill="black"/>
</svg>
