<svg width="22" height="22" viewBox="0 0 22 22" fill="none" xmlns="http://www.w3.org/2000/svg">
<g clip-path="url(#clip0)">
<path d="M13.3235 22.0713H8.67676L9.08612 18.9497H12.9141L13.3235 22.0713Z" fill="#DAD8DB"/>
<path d="M13.0152 19.7231L12.9138 18.9497H9.08578L8.98438 19.7231H13.0152Z" fill="#C8C5C9"/>
<path d="M20.3672 18.9499H1.63281C0.920863 18.9499 0.34375 18.3728 0.34375 17.6608V4.63037C0.34375 3.91846 0.920863 3.34131 1.63281 3.34131H20.3672C21.0791 3.34131 21.6562 3.91846 21.6562 4.63037V17.6608C21.6562 18.3728 21.0791 18.9499 20.3672 18.9499Z" fill="#BED8FB"/>
<path d="M0.34375 16.2317V17.6609C0.34375 18.3728 0.920863 18.9499 1.63281 18.9499H20.3672C21.0791 18.9499 21.6562 18.3728 21.6562 17.6609V16.2317H0.34375Z" fill="#ECEAEC"/>
<path d="M0.34375 15.4583H21.6562V16.2317H0.34375V15.4583Z" fill="#A3CAF7"/>
<path d="M20.3672 18.1763H1.63281C0.920863 18.1763 0.34375 17.5992 0.34375 16.8872V17.6606C0.34375 18.3726 0.920863 18.9497 1.63281 18.9497H20.3672C21.0791 18.9497 21.6562 18.3726 21.6562 17.6606V16.8872C21.6562 17.5992 21.0791 18.1763 20.3672 18.1763Z" fill="#DAD8DB"/>
<path d="M2.5332 7.91797H19.4665V16.2317H2.5332V7.91797Z" fill="#ECEAEC"/>
<path d="M2.5332 15.4583H19.4665V16.2317H2.5332V15.4583Z" fill="#DAD8DB"/>
<path d="M18.8219 5.36499H3.17773C2.82178 5.36499 2.5332 5.65357 2.5332 6.00952V7.9179H19.4665V6.00952C19.4665 5.65357 19.1779 5.36499 18.8219 5.36499Z" fill="#434D59"/>
<path d="M4.74463 9.56934H17.2546V13.0416H4.74463V9.56934Z" fill="#DF667C"/>
<path d="M4.74463 12.2683H17.2546V13.0417H4.74463V12.2683Z" fill="#DC4857"/>
<path d="M4.74463 14.4729H10.2285V16.2317H4.74463V14.4729Z" fill="#EDC963"/>
<path d="M11.7715 14.4729H17.2554V16.2317H11.7715V14.4729Z" fill="#EDC963"/>
<path d="M4.74463 15.4583H10.2285V16.2317H4.74463V15.4583Z" fill="#E7B93E"/>
<path d="M11.7715 15.4583H17.2554V16.2317H11.7715V15.4583Z" fill="#E7B93E"/>
<path d="M20.3855 3.00004H13.3492C13.1708 3.00004 13.0263 3.14463 13.0263 3.32295C13.0263 3.50127 13.1708 3.64586 13.3492 3.64586H20.3855C20.9196 3.64586 21.3542 4.08041 21.3542 4.61455V15.9156H19.8061L19.8061 5.99643C19.8061 5.46228 19.3715 5.02774 18.8374 5.02774H3.16259C2.62844 5.02774 2.1939 5.46228 2.1939 5.99643V15.9156H0.645777V4.61451C0.645777 4.08036 1.08036 3.64582 1.61446 3.64582H12.0576C12.236 3.64582 12.3805 3.50123 12.3805 3.32291C12.3805 3.14459 12.236 3 12.0576 3H1.61446C0.724238 3.00004 0 3.72428 0 4.61451V17.6705C0 18.5607 0.724238 19.2849 1.61446 19.2849H8.71423L8.38879 21.7669H7.24144C7.06307 21.7669 6.91853 21.9114 6.91853 22.0898C6.91853 22.2681 7.06307 22.4127 7.24144 22.4127H14.7585C14.9369 22.4127 15.0814 22.2681 15.0814 22.0898C15.0814 21.9114 14.9369 21.7669 14.7585 21.7669H13.6112L13.2858 19.2849H16.7073C16.8857 19.2849 17.0302 19.1404 17.0302 18.962C17.0302 18.7837 16.8857 18.6391 16.7073 18.6391H1.61446C1.08036 18.6391 0.645777 18.2046 0.645777 17.6704V16.5614H21.3542V17.6704C21.3542 18.2046 20.9196 18.6391 20.3855 18.6391H17.9989C17.8205 18.6391 17.676 18.7837 17.676 18.962C17.676 19.1404 17.8205 19.2849 17.9989 19.2849H20.3855C21.2757 19.2849 22 18.5607 22 17.6705V4.61451C22 3.72428 21.2758 3.00004 20.3855 3.00004V3.00004ZM12.9599 21.7669H9.04015L9.3656 19.2849H12.6344L12.9599 21.7669ZM2.83968 5.99638C2.83968 5.81832 2.98452 5.67347 3.16259 5.67347H18.8374C19.0155 5.67347 19.1603 5.81832 19.1603 5.99638V7.58558H2.83968V5.99638ZM2.83968 8.2314H19.1603V15.9156H17.5905V14.4762C17.5905 14.2979 17.446 14.1533 17.2676 14.1533H11.773C11.5946 14.1533 11.4501 14.2979 11.4501 14.4762V15.9156H10.5499V14.4762C10.5499 14.2979 10.4054 14.1533 10.227 14.1533H4.73241C4.55404 14.1533 4.4095 14.2979 4.4095 14.4762V15.9156H2.83968V8.2314ZM16.9447 15.9156H12.0959V14.7991H16.9447V15.9156ZM9.90413 15.9156H5.05532V14.7991H9.90413V15.9156Z" fill="black"/>
<path d="M4.07114 6.10864C3.79769 6.10864 3.5752 6.33113 3.5752 6.60463C3.5752 6.87813 3.79769 7.10058 4.07114 7.10058C4.34459 7.10058 4.56709 6.87808 4.56709 6.60463C4.56713 6.33118 4.34464 6.10864 4.07114 6.10864V6.10864Z" fill="black"/>
<path d="M5.66294 6.10864C5.38948 6.10864 5.16699 6.33113 5.16699 6.60463C5.16699 6.87813 5.38948 7.10058 5.66294 7.10058C5.93639 7.10058 6.15888 6.87808 6.15888 6.60463C6.15888 6.33118 5.93639 6.10864 5.66294 6.10864V6.10864Z" fill="black"/>
<path d="M7.25473 6.10864C6.98128 6.10864 6.75879 6.33113 6.75879 6.60463C6.75879 6.87813 6.98128 7.10058 7.25473 7.10058C7.52823 7.10058 7.75072 6.87808 7.75072 6.60463C7.75072 6.33118 7.52823 6.10864 7.25473 6.10864V6.10864Z" fill="black"/>
<path d="M4.73209 13.3651H7.08115C7.25951 13.3651 7.40406 13.2205 7.40406 13.0422C7.40406 12.8639 7.25951 12.7193 7.08115 12.7193H5.05496V9.88601H16.9437V12.7193H8.3727C8.19434 12.7193 8.04979 12.8639 8.04979 13.0422C8.04979 13.2205 8.19434 13.3651 8.3727 13.3651H17.2665C17.4449 13.3651 17.5895 13.2205 17.5895 13.0422V9.56314C17.5895 9.38482 17.4449 9.24023 17.2665 9.24023H4.73209C4.55373 9.24023 4.40918 9.38482 4.40918 9.56314V13.0422C4.40918 13.2206 4.55373 13.3651 4.73209 13.3651V13.3651Z" fill="black"/>
</g>
<defs>
<clipPath id="clip0">
<rect width="22" height="22" fill="white"/>
</clipPath>
</defs>
</svg>
