<svg width="22" height="22" viewBox="0 0 22 22" fill="none" xmlns="http://www.w3.org/2000/svg">
<path d="M15.4172 7.25656C14.8453 9.25813 14.8752 11.3837 15.5031 13.3684C16.7578 17.2047 15.6922 20.7591 10.7181 20.9619C7.21875 21.1062 2.92188 18.3047 2.92188 11C2.92188 3.69531 7.21875 1.03125 10.7181 1.03125C13.5609 1.03125 16.5 3.33781 15.4172 7.25656Z" fill="#5C3B51"/>
<path d="M10.7181 2.0625C13.0075 2.0625 15.3519 3.56125 15.62 6.1875C15.9397 2.92188 13.2928 1.03125 10.7181 1.03125C7.21875 1.03125 2.92188 3.68844 2.92188 11C2.92188 11.1765 2.92188 11.3483 2.92188 11.5156C3.13156 4.59594 7.30813 2.0625 10.7181 2.0625Z" fill="#4A2E42"/>
<path d="M10.0513 6.1875C11.0005 6.1875 11.77 5.41799 11.77 4.46875C11.77 3.51951 11.0005 2.75 10.0513 2.75C9.10203 2.75 8.33252 3.51951 8.33252 4.46875C8.33252 5.41799 9.10203 6.1875 10.0513 6.1875Z" fill="#F74B50"/>
<path d="M9.76562 4.02881C9.95547 4.02881 10.1094 3.87491 10.1094 3.68506C10.1094 3.49521 9.95547 3.34131 9.76562 3.34131C9.57578 3.34131 9.42188 3.49521 9.42188 3.68506C9.42188 3.87491 9.57578 4.02881 9.76562 4.02881Z" fill="#D13F44"/>
<path d="M6.61377 10.0615C7.56301 10.0615 8.33252 9.29201 8.33252 8.34277C8.33252 7.39353 7.56301 6.62402 6.61377 6.62402C5.66453 6.62402 4.89502 7.39353 4.89502 8.34277C4.89502 9.29201 5.66453 10.0615 6.61377 10.0615Z" fill="#FFE94F"/>
<path d="M6.61377 15.125C7.56301 15.125 8.33252 14.3555 8.33252 13.4062C8.33252 12.457 7.56301 11.6875 6.61377 11.6875C5.66453 11.6875 4.89502 12.457 4.89502 13.4062C4.89502 14.3555 5.66453 15.125 6.61377 15.125Z" fill="#45D4D9"/>
<path d="M10.0303 18.9062C10.9795 18.9062 11.749 18.1367 11.749 17.1875C11.749 16.2383 10.9795 15.4688 10.0303 15.4688C9.08103 15.4688 8.31152 16.2383 8.31152 17.1875C8.31152 18.1367 9.08103 18.9062 10.0303 18.9062Z" fill="#8BD94F"/>
<path d="M18.0469 4.125C18.2292 4.125 18.4041 4.19743 18.533 4.32636C18.6619 4.4553 18.7344 4.63016 18.7344 4.8125V14.4375H17.3594V4.8125C17.3594 4.63016 17.4318 4.4553 17.5607 4.32636C17.6897 4.19743 17.8645 4.125 18.0469 4.125V4.125Z" fill="#F74B50"/>
<path d="M18.0466 17.875L17.115 15.6716C16.9986 15.4005 16.9839 15.0966 17.0738 14.8156C17.1187 14.7237 17.1827 14.6424 17.2615 14.5772C17.3404 14.512 17.4322 14.4643 17.531 14.4375H18.5622C18.661 14.4643 18.7528 14.512 18.8317 14.5772C18.9105 14.6424 18.9745 14.7237 19.0194 14.8156C19.1093 15.0966 19.0946 15.4005 18.9782 15.6716L18.0466 17.875Z" fill="#5C3B51"/>
<path d="M6.3252 8.12305C6.51504 8.12305 6.66895 7.96914 6.66895 7.7793C6.66895 7.58945 6.51504 7.43555 6.3252 7.43555C6.13535 7.43555 5.98145 7.58945 5.98145 7.7793C5.98145 7.96914 6.13535 8.12305 6.3252 8.12305Z" fill="#DEB142"/>
<path d="M6.3252 13.4062C6.51504 13.4062 6.66895 13.2523 6.66895 13.0625C6.66895 12.8727 6.51504 12.7188 6.3252 12.7188C6.13535 12.7188 5.98145 12.8727 5.98145 13.0625C5.98145 13.2523 6.13535 13.4062 6.3252 13.4062Z" fill="#2D95B5"/>
<path d="M9.92383 17.5312C10.1137 17.5312 10.2676 17.3773 10.2676 17.1875C10.2676 16.9977 10.1137 16.8438 9.92383 16.8438C9.73398 16.8438 9.58008 16.9977 9.58008 17.1875C9.58008 17.3773 9.73398 17.5312 9.92383 17.5312Z" fill="#5FBF39"/>
<path d="M12.3301 8.9375C12.5199 8.9375 12.6738 8.7836 12.6738 8.59375C12.6738 8.4039 12.5199 8.25 12.3301 8.25C12.1402 8.25 11.9863 8.4039 11.9863 8.59375C11.9863 8.7836 12.1402 8.9375 12.3301 8.9375Z" fill="#2C2A3D"/>
<path d="M12.8457 11.6875C13.0356 11.6875 13.1895 11.5336 13.1895 11.3438C13.1895 11.1539 13.0356 11 12.8457 11C12.6559 11 12.502 11.1539 12.502 11.3438C12.502 11.5336 12.6559 11.6875 12.8457 11.6875Z" fill="#2C2A3D"/>
<path d="M10.4395 9.96875C10.4395 10.0367 10.4596 10.1032 10.4974 10.1597C10.5352 10.2163 10.5888 10.2603 10.6517 10.2863C10.7145 10.3124 10.7836 10.3192 10.8503 10.3059C10.9169 10.2926 10.9782 10.2599 11.0263 10.2118C11.0743 10.1637 11.1071 10.1025 11.1203 10.0358C11.1336 9.96913 11.1268 9.90001 11.1008 9.8372C11.0748 9.77439 11.0307 9.7207 10.9742 9.68293C10.9177 9.64516 10.8512 9.625 10.7832 9.625C10.692 9.625 10.6046 9.66122 10.5401 9.72568C10.4757 9.79015 10.4395 9.87758 10.4395 9.96875Z" fill="#2C2A3D"/>
<path d="M15.7506 7.34938C16.3625 5.115 15.6956 3.6025 15.0287 2.72938C14.5137 2.08267 13.8574 1.56244 13.1102 1.20851C12.3631 0.854588 11.5448 0.676368 10.7181 0.687503C6.66531 0.687503 2.57812 3.87407 2.57812 11C2.57812 15.5066 4.18 17.9884 5.52062 19.2775C6.84807 20.5642 8.61858 21.2926 10.4672 21.3125H10.7319C12.9456 21.2231 14.5406 20.4978 15.4722 19.1572C16.4725 17.7134 16.5997 15.6234 15.8159 13.2688C15.2129 11.3449 15.1902 9.28604 15.7506 7.34938V7.34938ZM14.905 18.7584C14.0937 19.9134 12.6912 20.5391 10.7044 20.625C9.83671 20.6474 8.97334 20.496 8.16512 20.1795C7.35691 19.8631 6.62021 19.3881 5.99844 18.7825C4.75063 17.5828 3.26562 15.2591 3.26562 11C3.26562 6.21157 5.56875 1.375 10.7181 1.375C11.4409 1.36719 12.1561 1.52227 12.8107 1.82875C13.4653 2.13523 14.0425 2.58522 14.4994 3.14532C15.3209 4.22469 15.5306 5.61344 15.1044 7.16719C14.5153 9.23311 14.5463 11.4266 15.1937 13.475C15.8778 15.62 15.7816 17.4969 14.905 18.7584Z" fill="#2C2A3D"/>
<path d="M10.0513 6.53125C10.4592 6.53125 10.858 6.41029 11.1971 6.18366C11.5363 5.95703 11.8007 5.63491 11.9568 5.25804C12.1129 4.88116 12.1537 4.46646 12.0741 4.06638C11.9946 3.66629 11.7981 3.29879 11.5097 3.01034C11.2212 2.7219 10.8537 2.52546 10.4536 2.44588C10.0536 2.3663 9.63886 2.40714 9.26199 2.56325C8.88511 2.71936 8.56299 2.98371 8.33636 3.32289C8.10973 3.66206 7.98877 4.06083 7.98877 4.46875C7.98877 5.01576 8.20607 5.54036 8.59286 5.92716C8.97966 6.31395 9.50426 6.53125 10.0513 6.53125ZM10.0513 3.09375C10.3232 3.09375 10.5891 3.17439 10.8152 3.32548C11.0413 3.47657 11.2175 3.69131 11.3216 3.94256C11.4257 4.19381 11.4529 4.47028 11.3998 4.737C11.3468 5.00372 11.2158 5.24873 11.0235 5.44102C10.8312 5.63332 10.5862 5.76428 10.3195 5.81733C10.0528 5.87039 9.77633 5.84316 9.52508 5.73909C9.27383 5.63501 9.05909 5.45878 8.908 5.23266C8.75691 5.00654 8.67627 4.7407 8.67627 4.46875C8.67627 4.10408 8.82114 3.75434 9.079 3.49648C9.33686 3.23862 9.6866 3.09375 10.0513 3.09375Z" fill="#2C2A3D"/>
<path d="M6.61377 10.4053C7.02169 10.4053 7.42046 10.2843 7.75963 10.0577C8.09881 9.83105 8.36316 9.50893 8.51927 9.13206C8.67538 8.75519 8.71622 8.34049 8.63664 7.9404C8.55706 7.54031 8.36062 7.17281 8.07218 6.88437C7.78373 6.59592 7.41623 6.39949 7.01614 6.3199C6.61606 6.24032 6.20136 6.28117 5.82448 6.43727C5.44761 6.59338 5.12549 6.85773 4.89886 7.19691C4.67223 7.53609 4.55127 7.93485 4.55127 8.34277C4.55127 8.88978 4.76857 9.41439 5.15536 9.80118C5.54216 10.188 6.06676 10.4053 6.61377 10.4053V10.4053ZM6.61377 6.96777C6.88572 6.96777 7.15156 7.04842 7.37768 7.1995C7.6038 7.35059 7.78003 7.56534 7.8841 7.81658C7.98817 8.06783 8.0154 8.3443 7.96235 8.61102C7.90929 8.87775 7.77834 9.12275 7.58604 9.31505C7.39374 9.50734 7.14874 9.6383 6.88202 9.69135C6.61529 9.74441 6.33883 9.71718 6.08758 9.61311C5.83633 9.50904 5.62159 9.3328 5.4705 9.10668C5.31941 8.88057 5.23877 8.61472 5.23877 8.34277C5.23877 7.9781 5.38364 7.62836 5.6415 7.3705C5.89936 7.11264 6.2491 6.96777 6.61377 6.96777Z" fill="#2C2A3D"/>
<path d="M8.67627 13.4063C8.67627 12.9983 8.55531 12.5996 8.32868 12.2604C8.10205 11.9212 7.77993 11.6569 7.40306 11.5007C7.02618 11.3446 6.61148 11.3038 6.2114 11.3834C5.81131 11.463 5.44381 11.6594 5.15536 11.9478C4.86692 12.2363 4.67048 12.6038 4.5909 13.0039C4.51132 13.404 4.55216 13.8187 4.70827 14.1955C4.86437 14.5724 5.12873 14.8945 5.46791 15.1212C5.80708 15.3478 6.20585 15.4687 6.61377 15.4687C7.16078 15.4687 7.68538 15.2515 8.07218 14.8647C8.45897 14.4779 8.67627 13.9533 8.67627 13.4063V13.4063ZM6.61377 14.7813C6.34182 14.7813 6.07598 14.7006 5.84986 14.5495C5.62374 14.3984 5.44751 14.1837 5.34344 13.9324C5.23937 13.6812 5.21214 13.4047 5.26519 13.138C5.31825 12.8713 5.4492 12.6263 5.6415 12.434C5.8338 12.2417 6.0788 12.1107 6.34552 12.0577C6.61225 12.0046 6.88871 12.0318 7.13996 12.1359C7.39121 12.24 7.60595 12.4162 7.75704 12.6423C7.90813 12.8685 7.98877 13.1343 7.98877 13.4063C7.98877 13.7709 7.84391 14.1207 7.58604 14.3785C7.32818 14.6364 6.97844 14.7813 6.61377 14.7813Z" fill="#2C2A3D"/>
<path d="M10.0303 15.125C9.62235 15.125 9.22359 15.246 8.88441 15.4726C8.54523 15.6992 8.28088 16.0213 8.12477 16.3982C7.96867 16.7751 7.92782 17.1898 8.0074 17.5899C8.08699 17.99 8.28342 18.3575 8.57187 18.6459C8.86031 18.9344 9.22781 19.1308 9.6279 19.2104C10.028 19.29 10.4427 19.2491 10.8196 19.093C11.1964 18.9369 11.5185 18.6725 11.7452 18.3334C11.9718 17.9942 12.0928 17.5954 12.0928 17.1875C12.0928 16.6405 11.8755 16.1159 11.4887 15.7291C11.1019 15.3423 10.5773 15.125 10.0303 15.125ZM10.0303 18.5625C9.75832 18.5625 9.49248 18.4819 9.26637 18.3308C9.04025 18.1797 8.86401 17.9649 8.75994 17.7137C8.65587 17.4624 8.62864 17.186 8.68169 16.9193C8.73475 16.6525 8.8657 16.4075 9.058 16.2152C9.2503 16.0229 9.4953 15.892 9.76202 15.8389C10.0287 15.7859 10.3052 15.8131 10.5565 15.9172C10.8077 16.0212 11.0225 16.1975 11.1735 16.4236C11.3246 16.6497 11.4053 16.9156 11.4053 17.1875C11.4053 17.5522 11.2604 17.9019 11.0025 18.1598C10.7447 18.4176 10.3949 18.5625 10.0303 18.5625Z" fill="#2C2A3D"/>
<path d="M19.3461 14.7125C19.2941 14.5638 19.2011 14.4327 19.078 14.3344V4.8125C19.078 4.539 18.9694 4.27669 18.776 4.0833C18.5826 3.8899 18.3203 3.78125 18.0468 3.78125C17.7733 3.78125 17.511 3.8899 17.3176 4.0833C17.1242 4.27669 17.0155 4.539 17.0155 4.8125V14.3378C16.8938 14.4361 16.8012 14.5656 16.7474 14.7125C16.6319 15.0735 16.6502 15.4639 16.799 15.8125L17.7305 18.0159C17.7568 18.0781 17.8009 18.1311 17.8571 18.1684C17.9133 18.2057 17.9793 18.2256 18.0468 18.2256C18.1142 18.2256 18.1802 18.2057 18.2364 18.1684C18.2927 18.1311 18.3367 18.0781 18.363 18.0159L19.2946 15.8125C19.4452 15.4644 19.4635 15.0732 19.3461 14.7125V14.7125ZM17.703 13.4063H18.3905V14.0938H17.703V13.4063ZM18.0468 4.46875C18.1379 4.46875 18.2254 4.50497 18.2898 4.56943C18.3543 4.6339 18.3905 4.72133 18.3905 4.8125V12.7188H17.703V4.8125C17.703 4.72133 17.7392 4.6339 17.8037 4.56943C17.8682 4.50497 17.9556 4.46875 18.0468 4.46875ZM18.6621 15.5375L18.0468 16.9916L17.4315 15.5375C17.3479 15.3439 17.3369 15.1267 17.4005 14.9256C17.4449 14.864 17.504 14.8143 17.5724 14.7813H18.5211C18.5886 14.8143 18.6474 14.8625 18.693 14.9222C18.7585 15.1242 18.7474 15.3431 18.6621 15.5375V15.5375Z" fill="#2C2A3D"/>
</svg>
