<svg width="22" height="21" viewBox="0 0 22 21" fill="none" xmlns="http://www.w3.org/2000/svg">
<path d="M14.0938 5.84375H1.71875C1.33905 5.84375 1.03125 6.15155 1.03125 6.53125V9.28125C1.03125 9.66095 1.33905 9.96875 1.71875 9.96875H14.0938C14.4734 9.96875 14.7812 9.66095 14.7812 9.28125V6.53125C14.7812 6.15155 14.4734 5.84375 14.0938 5.84375Z" fill="#57A4FF"/>
<path d="M14.7812 6.53125V9.28125C14.7807 9.46342 14.7081 9.63797 14.5793 9.76679C14.4505 9.8956 14.2759 9.96821 14.0938 9.96875H12.7188C12.9009 9.96821 13.0755 9.8956 13.2043 9.76679C13.3331 9.63797 13.4057 9.46342 13.4062 9.28125V6.53125C13.4057 6.34908 13.3331 6.17453 13.2043 6.04571C13.0755 5.9169 12.9009 5.84429 12.7188 5.84375H14.0938C14.2759 5.84429 14.4505 5.9169 14.5793 6.04571C14.7081 6.17453 14.7807 6.34908 14.7812 6.53125Z" fill="#2488FF"/>
<path d="M11.3438 9.96875H13.4062V11.3438H11.3438V9.96875Z" fill="#ACABB1"/>
<path d="M11.3438 4.46875H13.4062V5.84375H11.3438V4.46875Z" fill="#ACABB1"/>
<path d="M12.375 4.46875H13.4062V5.84375H12.375V4.46875Z" fill="#898890"/>
<path d="M12.375 9.96875H13.4062V11.3438H12.375V9.96875Z" fill="#898890"/>
<path d="M14.0938 11.3438H1.71875C1.33905 11.3438 1.03125 11.6516 1.03125 12.0312V14.7812C1.03125 15.1609 1.33905 15.4688 1.71875 15.4688H14.0938C14.4734 15.4688 14.7812 15.1609 14.7812 14.7812V12.0312C14.7812 11.6516 14.4734 11.3438 14.0938 11.3438Z" fill="#57A4FF"/>
<path d="M14.7812 12.0312V14.7812C14.7807 14.9634 14.7081 15.138 14.5793 15.2668C14.4505 15.3956 14.2759 15.4682 14.0938 15.4688H12.7188C12.9009 15.4682 13.0755 15.3956 13.2043 15.2668C13.3331 15.138 13.4057 14.9634 13.4062 14.7812V12.0312C13.4057 11.8491 13.3331 11.6745 13.2043 11.5457C13.0755 11.4169 12.9009 11.3443 12.7188 11.3438H14.0938C14.2759 11.3443 14.4505 11.4169 14.5793 11.5457C14.7081 11.6745 14.7807 11.8491 14.7812 12.0312V12.0312Z" fill="#2488FF"/>
<path d="M5.15625 12.7188H6.53125V14.0938H5.15625V12.7188Z" fill="#00B6BD"/>
<path d="M5.15625 7.21875H6.53125V8.59375H5.15625V7.21875Z" fill="#00B6BD"/>
<path d="M14.0938 0.34375H1.71875C1.33905 0.34375 1.03125 0.651554 1.03125 1.03125V3.78125C1.03125 4.16095 1.33905 4.46875 1.71875 4.46875H14.0938C14.4734 4.46875 14.7812 4.16095 14.7812 3.78125V1.03125C14.7812 0.651554 14.4734 0.34375 14.0938 0.34375Z" fill="#57A4FF"/>
<path d="M14.7812 1.03125V3.78125C14.7807 3.96342 14.7081 4.13797 14.5793 4.26678C14.4505 4.3956 14.2759 4.46821 14.0938 4.46875H12.7188C12.9009 4.46821 13.0755 4.3956 13.2043 4.26678C13.3331 4.13797 13.4057 3.96342 13.4062 3.78125V1.03125C13.4057 0.849081 13.3331 0.674529 13.2043 0.545715C13.0755 0.416902 12.9009 0.344294 12.7188 0.34375H14.0938C14.2759 0.344294 14.4505 0.416902 14.5793 0.545715C14.7081 0.674529 14.7807 0.849081 14.7812 1.03125V1.03125Z" fill="#2488FF"/>
<path d="M5.15625 1.71875H6.53125V3.09375H5.15625V1.71875Z" fill="#00B6BD"/>
<path d="M2.40625 9.96875H4.46875V11.3438H2.40625V9.96875Z" fill="#ACABB1"/>
<path d="M2.40625 4.46875H4.46875V5.84375H2.40625V4.46875Z" fill="#ACABB1"/>
<path d="M3.4375 4.46875H4.46875V5.84375H3.4375V4.46875Z" fill="#898890"/>
<path d="M3.4375 9.96875H4.46875V11.3438H3.4375V9.96875Z" fill="#898890"/>
<path d="M2.40625 12.7188H3.78125V14.0938H2.40625V12.7188Z" fill="#FF7956"/>
<path d="M2.40625 7.21875H3.78125V8.59375H2.40625V7.21875Z" fill="#FF7956"/>
<path d="M2.40625 1.71875H3.78125V3.09375H2.40625V1.71875Z" fill="#FF7956"/>
<path d="M20.9688 15.125V18.5625C20.9688 19.5112 18.1981 20.2812 14.7812 20.2812C11.3644 20.2812 8.59375 19.5112 8.59375 18.5625V15.125C8.59375 16.0737 11.3644 16.8438 14.7812 16.8438C18.1981 16.8438 20.9688 16.0737 20.9688 15.125Z" fill="#FFDE55"/>
<path d="M20.9688 11.6875V15.125C20.9688 16.0737 18.1981 16.8438 14.7812 16.8438C11.3644 16.8438 8.59375 16.0737 8.59375 15.125V11.6875C8.59375 12.6362 11.3644 13.4062 14.7812 13.4062C18.1981 13.4062 20.9688 12.6362 20.9688 11.6875Z" fill="#FFDE55"/>
<path d="M20.9688 8.25V11.6875C20.9688 12.6362 18.1981 13.4062 14.7812 13.4062C11.3644 13.4062 8.59375 12.6362 8.59375 11.6875V8.25C8.59375 9.19875 11.3644 9.96875 14.7812 9.96875C18.1981 9.96875 20.9688 9.19875 20.9688 8.25Z" fill="#FFDE55"/>
<path d="M14.7812 9.96875C18.1985 9.96875 20.9688 9.19924 20.9688 8.25C20.9688 7.30076 18.1985 6.53125 14.7812 6.53125C11.364 6.53125 8.59375 7.30076 8.59375 8.25C8.59375 9.19924 11.364 9.96875 14.7812 9.96875Z" fill="#FFCD00"/>
<path d="M20.9688 15.125V18.5625C20.9688 19.5112 18.1981 20.2812 14.7812 20.2812C14.5475 20.2812 14.3206 20.2778 14.0938 20.2675C17.1875 20.1747 19.5938 19.4459 19.5938 18.5625V16.2044C20.4531 15.9087 20.9688 15.5341 20.9688 15.125Z" fill="#FFCD00"/>
<path d="M20.9688 11.6875V15.125C20.9688 15.5341 20.4531 15.9087 19.5938 16.2044C18.0319 16.6634 16.4087 16.879 14.7812 16.8437C14.5475 16.8437 14.3206 16.8403 14.0938 16.83C17.1875 16.7372 19.5938 16.0084 19.5938 15.125V12.7669C20.4531 12.4712 20.9688 12.0966 20.9688 11.6875Z" fill="#FFCD00"/>
<path d="M20.9688 8.25V11.6875C20.9688 12.0966 20.4531 12.4712 19.5938 12.7669C18.0319 13.2259 16.4087 13.4415 14.7812 13.4062C14.5475 13.4062 14.3206 13.4028 14.0938 13.3925C17.1875 13.2997 19.5938 12.5709 19.5938 11.6875V9.32937C20.4531 9.03375 20.9688 8.65906 20.9688 8.25Z" fill="#FFCD00"/>
<path d="M20.9688 8.25C20.9688 8.65906 20.4531 9.03374 19.5938 9.32937C18.0319 9.78836 16.4087 10.004 14.7812 9.96874C14.5475 9.96874 14.3206 9.9653 14.0938 9.95499C17.1875 9.86218 19.5938 9.13343 19.5938 8.25C19.5938 7.36656 17.1875 6.63781 14.0938 6.545C14.3206 6.53469 14.5475 6.53125 14.7812 6.53125C18.1981 6.53125 20.9688 7.30125 20.9688 8.25Z" fill="#EBBF00"/>
<path d="M19.5938 15.125V16.2044C18.0319 16.6634 16.4087 16.879 14.7812 16.8437C14.5475 16.8437 14.3206 16.8403 14.0938 16.83C17.1875 16.7372 19.5938 16.0084 19.5938 15.125Z" fill="#FFDE55"/>
<path d="M19.5938 11.6875V12.7669C18.0319 13.2259 16.4087 13.4415 14.7812 13.4062C14.5475 13.4062 14.3206 13.4028 14.0938 13.3925C17.1875 13.2997 19.5938 12.5709 19.5938 11.6875Z" fill="#FFDE55"/>
<path d="M15.0631 6.19094C14.9934 5.98931 14.8626 5.81442 14.6888 5.69059C14.5151 5.56676 14.3071 5.50014 14.0938 5.5H13.75V4.8125H14.0938C14.367 4.81168 14.6288 4.70277 14.8221 4.50955C15.0153 4.31633 15.1242 4.0545 15.125 3.78125V1.03125C15.1242 0.757997 15.0153 0.496168 14.8221 0.302948C14.6288 0.109727 14.367 0.000816094 14.0938 0H1.71875C1.4455 0.000816094 1.18367 0.109727 0.990448 0.302948C0.797227 0.496168 0.688316 0.757997 0.6875 1.03125V3.78125C0.688316 4.0545 0.797227 4.31633 0.990448 4.50955C1.18367 4.70277 1.4455 4.81168 1.71875 4.8125H2.0625V5.5H1.71875C1.4455 5.50082 1.18367 5.60973 0.990448 5.80295C0.797227 5.99617 0.688316 6.258 0.6875 6.53125V9.28125C0.688316 9.5545 0.797227 9.81633 0.990448 10.0096C1.18367 10.2028 1.4455 10.3117 1.71875 10.3125H2.0625V11H1.71875C1.4455 11.0008 1.18367 11.1097 0.990448 11.3029C0.797227 11.4962 0.688316 11.758 0.6875 12.0312V14.7812C0.688316 15.0545 0.797227 15.3163 0.990448 15.5096C1.18367 15.7028 1.4455 15.8117 1.71875 15.8125H8.25V18.5625C8.25 19.9169 11.5363 20.625 14.7812 20.625C18.0262 20.625 21.3125 19.9169 21.3125 18.5625V8.25C21.3125 6.93344 18.2153 6.23219 15.0631 6.19094V6.19094ZM1.71875 4.125C1.62758 4.125 1.54015 4.08878 1.47568 4.02432C1.41122 3.95985 1.375 3.87242 1.375 3.78125V1.03125C1.375 0.940082 1.41122 0.852648 1.47568 0.788182C1.54015 0.723716 1.62758 0.6875 1.71875 0.6875H14.0938C14.1849 0.6875 14.2724 0.723716 14.3368 0.788182C14.4013 0.852648 14.4375 0.940082 14.4375 1.03125V3.78125C14.4375 3.87242 14.4013 3.95985 14.3368 4.02432C14.2724 4.08878 14.1849 4.125 14.0938 4.125H1.71875ZM13.0625 4.8125V5.5H11.6875V4.8125H13.0625ZM11 4.8125V5.5H4.8125V4.8125H11ZM4.125 4.8125V5.5H2.75V4.8125H4.125ZM8.25 15.125H1.71875C1.62758 15.125 1.54015 15.0888 1.47568 15.0243C1.41122 14.9599 1.375 14.8724 1.375 14.7812V12.0312C1.375 11.9401 1.41122 11.8526 1.47568 11.7882C1.54015 11.7237 1.62758 11.6875 1.71875 11.6875H8.25V15.125ZM2.75 11V10.3125H4.125V11H2.75ZM8.25 11H4.8125V10.3125H8.25V11ZM8.25 8.25V9.625H1.71875C1.62758 9.625 1.54015 9.58878 1.47568 9.52432C1.41122 9.45985 1.375 9.37242 1.375 9.28125V6.53125C1.375 6.44008 1.41122 6.35265 1.47568 6.28818C1.54015 6.22372 1.62758 6.1875 1.71875 6.1875H14.0938C14.1101 6.18928 14.1262 6.19274 14.1419 6.19781C11.1169 6.28375 8.25 6.985 8.25 8.25ZM20.625 18.5625C20.625 19.03 18.5625 19.9375 14.7812 19.9375C11 19.9375 8.9375 19.03 8.9375 18.5625V16.0944C10.0684 16.8128 12.43 17.1875 14.7812 17.1875C17.1325 17.1875 19.4941 16.8128 20.625 16.0944V18.5625ZM20.625 15.125C20.625 15.5925 18.5625 16.5 14.7812 16.5C11 16.5 8.9375 15.5925 8.9375 15.125V12.6569C10.0684 13.3753 12.43 13.75 14.7812 13.75C17.1325 13.75 19.4941 13.3753 20.625 12.6569V15.125ZM20.625 11.6875C20.625 12.155 18.5625 13.0625 14.7812 13.0625C11 13.0625 8.9375 12.155 8.9375 11.6875V9.21937C10.0684 9.93781 12.43 10.3125 14.7812 10.3125C17.1325 10.3125 19.4941 9.93781 20.625 9.21937V11.6875ZM14.7812 9.625C11 9.625 8.9375 8.7175 8.9375 8.25C8.9375 7.7825 11 6.875 14.7812 6.875C18.5625 6.875 20.625 7.7825 20.625 8.25C20.625 8.7175 18.5625 9.625 14.7812 9.625Z" fill="black"/>
<path d="M14.4375 11.3438H15.125V12.0312H14.4375V11.3438Z" fill="black"/>
<path d="M14.4375 15.125H15.125V15.8125H14.4375V15.125Z" fill="black"/>
<path d="M14.4375 18.2188H15.125V18.9062H14.4375V18.2188Z" fill="black"/>
<path d="M3.78125 6.875H2.40625C2.31508 6.875 2.22765 6.91122 2.16318 6.97568C2.09872 7.04015 2.0625 7.12758 2.0625 7.21875V8.59375C2.0625 8.68492 2.09872 8.77235 2.16318 8.83682C2.22765 8.90128 2.31508 8.9375 2.40625 8.9375H3.78125C3.87242 8.9375 3.95985 8.90128 4.02432 8.83682C4.08878 8.77235 4.125 8.68492 4.125 8.59375V7.21875C4.125 7.12758 4.08878 7.04015 4.02432 6.97568C3.95985 6.91122 3.87242 6.875 3.78125 6.875ZM3.4375 8.25H2.75V7.5625H3.4375V8.25Z" fill="black"/>
<path d="M6.53125 6.875H5.15625C5.06508 6.875 4.97765 6.91122 4.91318 6.97568C4.84872 7.04015 4.8125 7.12758 4.8125 7.21875V8.59375C4.8125 8.68492 4.84872 8.77235 4.91318 8.83682C4.97765 8.90128 5.06508 8.9375 5.15625 8.9375H6.53125C6.62242 8.9375 6.70985 8.90128 6.77432 8.83682C6.83878 8.77235 6.875 8.68492 6.875 8.59375V7.21875C6.875 7.12758 6.83878 7.04015 6.77432 6.97568C6.70985 6.91122 6.62242 6.875 6.53125 6.875ZM6.1875 8.25H5.5V7.5625H6.1875V8.25Z" fill="black"/>
<path d="M3.78125 1.375H2.40625C2.31508 1.375 2.22765 1.41122 2.16318 1.47568C2.09872 1.54015 2.0625 1.62758 2.0625 1.71875V3.09375C2.0625 3.18492 2.09872 3.27235 2.16318 3.33682C2.22765 3.40128 2.31508 3.4375 2.40625 3.4375H3.78125C3.87242 3.4375 3.95985 3.40128 4.02432 3.33682C4.08878 3.27235 4.125 3.18492 4.125 3.09375V1.71875C4.125 1.62758 4.08878 1.54015 4.02432 1.47568C3.95985 1.41122 3.87242 1.375 3.78125 1.375ZM3.4375 2.75H2.75V2.0625H3.4375V2.75Z" fill="black"/>
<path d="M6.53125 1.375H5.15625C5.06508 1.375 4.97765 1.41122 4.91318 1.47568C4.84872 1.54015 4.8125 1.62758 4.8125 1.71875V3.09375C4.8125 3.18492 4.84872 3.27235 4.91318 3.33682C4.97765 3.40128 5.06508 3.4375 5.15625 3.4375H6.53125C6.62242 3.4375 6.70985 3.40128 6.77432 3.33682C6.83878 3.27235 6.875 3.18492 6.875 3.09375V1.71875C6.875 1.62758 6.83878 1.54015 6.77432 1.47568C6.70985 1.41122 6.62242 1.375 6.53125 1.375ZM6.1875 2.75H5.5V2.0625H6.1875V2.75Z" fill="black"/>
<path d="M7.5625 1.375H12.375V2.0625H7.5625V1.375Z" fill="black"/>
<path d="M13.0625 1.375H13.75V2.0625H13.0625V1.375Z" fill="black"/>
<path d="M7.5625 2.75H12.375V3.4375H7.5625V2.75Z" fill="black"/>
<path d="M13.0625 2.75H13.75V3.4375H13.0625V2.75Z" fill="black"/>
<path d="M3.78125 12.375H2.40625C2.31508 12.375 2.22765 12.4112 2.16318 12.4757C2.09872 12.5401 2.0625 12.6276 2.0625 12.7188V14.0938C2.0625 14.1849 2.09872 14.2724 2.16318 14.3368C2.22765 14.4013 2.31508 14.4375 2.40625 14.4375H3.78125C3.87242 14.4375 3.95985 14.4013 4.02432 14.3368C4.08878 14.2724 4.125 14.1849 4.125 14.0938V12.7188C4.125 12.6276 4.08878 12.5401 4.02432 12.4757C3.95985 12.4112 3.87242 12.375 3.78125 12.375ZM3.4375 13.75H2.75V13.0625H3.4375V13.75Z" fill="black"/>
<path d="M6.53125 12.375H5.15625C5.06508 12.375 4.97765 12.4112 4.91318 12.4757C4.84872 12.5401 4.8125 12.6276 4.8125 12.7188V14.0938C4.8125 14.1849 4.84872 14.2724 4.91318 14.3368C4.97765 14.4013 5.06508 14.4375 5.15625 14.4375H6.53125C6.62242 14.4375 6.70985 14.4013 6.77432 14.3368C6.83878 14.2724 6.875 14.1849 6.875 14.0938V12.7188C6.875 12.6276 6.83878 12.5401 6.77432 12.4757C6.70985 12.4112 6.62242 12.375 6.53125 12.375ZM6.1875 13.75H5.5V13.0625H6.1875V13.75Z" fill="black"/>
</svg>
