<svg width="32" height="32" viewBox="0 0 32 32" fill="none" xmlns="http://www.w3.org/2000/svg">
<path d="M32 14.2596V27.4369C32 29.7893 30.0928 31.6965 27.7404 31.6965H4.25962C1.90719 31.6965 0 29.7893 0 27.4369V14.2596C0 11.9072 1.90719 10 4.25962 10H27.7404C30.0928 10 32 11.9072 32 14.2596Z" fill="#D32E2A"/>
<path d="M4.25962 30.0802C2.80212 30.0802 1.61624 28.8944 1.61624 27.4369V14.2596C1.61624 12.8021 2.80205 11.6162 4.25962 11.6162H27.7404C29.1979 11.6162 30.3838 12.8021 30.3838 14.2596V27.4369C30.3838 28.8944 29.198 30.0802 27.7404 30.0802H4.25962Z" fill="#F14336"/>
<path d="M20.7493 20.9089L12.5614 25.6364V16.1814L20.7493 20.9089Z" fill="#F2F2F2"/>
</svg>
