<svg width="22" height="22" viewBox="0 0 22 22" fill="none" xmlns="http://www.w3.org/2000/svg">
<g clip-path="url(#clip0)">
<path d="M1.99999 0.000976562H19.9995C21.1041 0.000976562 21.9995 0.896417 21.9995 2.00096V18.0009C21.9995 19.1054 21.1041 20.0008 19.9995 20.0008H1.99999C0.89544 20.0008 0 19.1054 0 18.0009V2.00096C0 0.896417 0.89544 0.000976562 1.99999 0.000976562Z" fill="#F0EAF9"/>
<path d="M0.99997 4.00049H20.9996C21.5518 4.00049 21.9995 4.44819 21.9995 5.00046V5.00051C21.9995 5.55278 21.5518 6.00048 20.9996 6.00048H0.99997C0.447697 6.00048 0 5.55278 0 5.00051V5.00046C0 4.44819 0.447697 4.00049 0.99997 4.00049Z" fill="#E1D5F3"/>
<path d="M1.99999 0.000976562H19.9997C21.1043 0.000976562 21.9997 0.896417 21.9997 2.00096V5.00092H0V2.00096C0 0.896417 0.89544 0.000976562 1.99999 0.000976562Z" fill="#5628B4"/>
<path d="M1.99997 0H19.9999C20.5522 0 20.9999 0.447697 20.9999 0.99997V1.00002C20.9999 1.55229 20.5522 1.99999 19.9999 1.99999H1.99997C1.4477 1.99999 1 1.55229 1 1.00002V0.99997C1 0.447697 1.4477 0 1.99997 0Z" fill="#6F48BF"/>
<path d="M1.50001 4.00049H20.4999C20.776 4.00049 20.9999 4.22436 20.9999 4.5005C20.9999 4.77663 20.776 5.00051 20.4999 5.00051H1.50001C1.22387 5.00051 1 4.77663 1 4.5005C1 4.22436 1.22387 4.00049 1.50001 4.00049Z" fill="#421198"/>
<path d="M21.4994 7C21.2233 7 20.9994 7.22382 20.9994 7.49996C20.9994 7.49996 20.9994 7.49996 20.9994 7.50001V17.9999C20.9994 18.5521 20.5517 18.9998 19.9994 18.9998H14.4995C14.2234 18.9998 13.9995 19.2237 13.9995 19.4998C13.9995 19.776 14.2234 19.9998 14.4995 19.9998H19.9994C21.104 19.9998 21.9994 19.1044 21.9994 17.9999V7.50001C21.9994 7.22382 21.7755 7 21.4994 7Z" fill="#D9C9EF"/>
<path d="M0.500009 8.99951C0.776145 8.99951 1.00002 9.22338 1.00002 9.49952V17.4994C1.00002 17.7755 0.776145 17.9994 0.500009 17.9994C0.223872 17.9994 0 17.7755 0 17.4994V9.49952C0 9.22338 0.223872 8.99951 0.500009 8.99951Z" fill="#DFD2F2"/>
<path d="M2.50001 3.0005C2.77616 3.0005 3.00002 2.77664 3.00002 2.5005C3.00002 2.22435 2.77616 2.00049 2.50001 2.00049C2.22386 2.00049 2 2.22435 2 2.5005C2 2.77664 2.22386 3.0005 2.50001 3.0005Z" fill="#F7B236"/>
<path d="M4.49952 3.0005C4.77567 3.0005 4.99953 2.77664 4.99953 2.5005C4.99953 2.22435 4.77567 2.00049 4.49952 2.00049C4.22337 2.00049 3.99951 2.22435 3.99951 2.5005C3.99951 2.77664 4.22337 3.0005 4.49952 3.0005Z" fill="#B39DDD"/>
<path d="M6.50001 3.0005C6.77615 3.0005 7.00002 2.77664 7.00002 2.5005C7.00002 2.22435 6.77615 2.00049 6.50001 2.00049C6.22386 2.00049 6 2.22435 6 2.5005C6 2.77664 6.22386 3.0005 6.50001 3.0005Z" fill="#D80E70"/>
<path d="M18.9999 14.0002H8.99997C8.4477 14.0002 8 13.5525 8 13.0003V8.00046C8 7.44819 8.4477 7.00049 8.99997 7.00049H18.9999C19.5521 7.00049 19.9998 7.44819 19.9998 8.00046V13.0003C19.9998 13.5525 19.5521 14.0002 18.9999 14.0002Z" fill="#B39DDD"/>
<path d="M4.99982 11.0003H2.99997C2.4477 11.0003 2 10.5526 2 10.0003V8.00046C2 7.44819 2.4477 7.00049 2.99997 7.00049H4.99982C5.55209 7.00049 5.99979 7.44819 5.99979 8.00046V10.0003C5.99979 10.5526 5.55209 11.0003 4.99982 11.0003Z" fill="#B39DDD"/>
<path d="M4.99982 17.9998H2.99997C2.4477 17.9998 2 17.5521 2 16.9998V15C2 14.4477 2.4477 14 2.99997 14H4.99982C5.55209 14 5.99979 14.4477 5.99979 15V16.9998C5.99979 17.5521 5.55209 17.9998 4.99982 17.9998Z" fill="#B39DDD"/>
<path d="M8.50001 15H11.4998C11.7759 15 11.9998 15.2239 11.9998 15.5C11.9998 15.7761 11.7759 16 11.4998 16H8.50001C8.22387 16 8 15.7761 8 15.5C8 15.2239 8.22387 15 8.50001 15Z" fill="#B39DDD"/>
<path d="M18.4995 15H19.4995C19.7756 15 19.9995 15.2239 19.9995 15.5C19.9995 15.7761 19.7756 16 19.4995 16H18.4995C18.2234 16 17.9995 15.7761 17.9995 15.5C17.9995 15.2239 18.2234 15 18.4995 15Z" fill="#B39DDD"/>
<path d="M13.5 15H16.4998C16.7759 15 16.9998 15.2239 16.9998 15.5C16.9998 15.7761 16.7759 16 16.4998 16H13.5C13.2239 16 13 15.7761 13 15.5C13 15.2239 13.2239 15 13.5 15Z" fill="#B39DDD"/>
<path d="M8.50001 17H12.5001C12.7762 17 13.0001 17.2239 13.0001 17.5C13.0001 17.7761 12.7762 18 12.5001 18H8.50001C8.22387 18 8 17.7761 8 17.5C8 17.2239 8.22387 17 8.50001 17Z" fill="#B39DDD"/>
<path d="M14.5 17H15.5C15.7761 17 16 17.2239 16 17.5C16 17.7761 15.7761 18 15.5 18H14.5C14.2239 18 14 17.7761 14 17.5C14 17.2239 14.2239 17 14.5 17Z" fill="#B39DDD"/>
<path d="M5.49978 13.0005H2.50001C2.22387 13.0005 2 12.7766 2 12.5005C2 12.2244 2.22387 12.0005 2.50001 12.0005H5.49978C5.77592 12.0005 5.99979 12.2244 5.99979 12.5005C5.99979 12.7766 5.77592 13.0005 5.49978 13.0005Z" fill="#B39DDD"/>
<path d="M10.9999 15H10C7.23866 15 5.00008 17.2385 5.00008 19.9999C5.00008 20 5.00008 20 5.00008 20V20.0265C5.00364 20.5728 4.52154 21 3.97531 21H3.50001C3.22387 21 3 21.2238 3 21.5C3 21.7761 3.22387 22 3.50001 22H6.99997C9.76134 21.9999 11.9999 19.7614 11.9999 17V15H10.9999V15Z" fill="#F7B236"/>
<path d="M11.9999 17V15H10.9999C10.9999 17.7614 8.76137 19.9999 5.99996 19.9999H5.00013V20.0265C5.00369 20.5727 4.52154 20.9999 3.97536 20.9999H3.50001C3.22387 20.9999 3 21.2238 3 21.4999C3 21.7761 3.22387 21.9999 3.50001 21.9999H6.99997C9.76134 21.9999 11.9999 19.7614 11.9999 17Z" fill="#F58B04"/>
<path d="M21.6647 5.33512C21.3583 5.02871 20.905 4.92169 20.494 5.05875C16.9695 6.30406 14.0658 8.86832 12.3942 12.2116L12 12.9999V14.9999H14L14.7882 14.6057C18.1315 12.9341 20.6958 10.0303 21.9411 6.50595C22.0782 6.09477 21.9712 5.64154 21.6647 5.33512Z" fill="#D80E70"/>
<path d="M17.881 8.11939C17.4905 7.72888 16.3317 8.25455 15.2927 9.29351C14.2538 10.3325 13.7281 11.4913 14.1186 11.8818C14.5091 12.2723 15.6679 11.7466 16.7069 10.7077C17.7458 9.66871 18.2715 8.50989 17.881 8.11939Z" fill="#E976AF"/>
<path d="M20.4939 5.05871C20.3208 5.11988 20.1565 5.19868 19.9865 5.26608C19.8562 9.74966 16.4555 13.4584 12 13.9759V14.9999H14L14.7882 14.6057C18.1315 12.934 20.6958 10.0303 21.9412 6.50591C22.1409 5.90643 21.8169 5.25849 21.2174 5.05871C20.9826 4.98043 20.7288 4.98043 20.4939 5.05871Z" fill="#A60068"/>
<path d="M11 14.9999L12 16L14 14.9999L12 13L11 14.9999Z" fill="#5628B4"/>
<path d="M11.5407 15.5406L12.0001 16L14.0001 15.0001L13.0406 14.0407C12.6264 13.6264 11.9549 13.6264 11.5407 14.0407C11.46 14.1213 11.393 14.2143 11.342 14.3163C11.1378 14.7247 11.2178 15.2179 11.5407 15.5406Z" fill="#420F9B"/>
<path d="M8.93688 16.1086C8.6327 15.8044 7.75633 16.1876 6.97945 16.9645C6.20257 17.7413 5.81937 18.6177 6.12355 18.9219C6.42773 19.2261 7.3041 18.8429 8.08098 18.066C8.85786 17.2891 9.24106 16.4127 8.93688 16.1086Z" fill="#FBDA9E"/>
</g>
<defs>
<clipPath id="clip0">
<rect width="22" height="22" fill="white"/>
</clipPath>
</defs>
</svg>
