<svg width="22" height="22" viewBox="0 0 22 22" fill="none" xmlns="http://www.w3.org/2000/svg">
<path d="M16.7082 21.4047H5.51054C5.06367 21.4047 4.70273 21.0438 4.70273 20.5969V5.33868C4.70273 4.89181 5.06367 4.53087 5.51054 4.53087H16.7082C17.1551 4.53087 17.516 4.89181 17.516 5.33868V20.5926C17.516 21.0395 17.1551 21.4047 16.7082 21.4047Z" fill="#E7D0A9"/>
<path d="M5.8543 21.4047H5.47188C5.025 21.4047 4.66406 21.0438 4.66406 20.5969V5.33868C4.66406 4.89181 5.025 4.53087 5.47188 4.53087H5.8543V21.4047Z" fill="white"/>
<path d="M15.6555 21.4047H6.22383C5.77695 21.4047 5.41602 21.0438 5.41602 20.5969V5.33868C5.41602 4.89181 5.77695 4.53087 6.22383 4.53087H15.6555C16.1023 4.53087 16.4633 4.89181 16.4633 5.33868V20.5926C16.4633 21.0395 16.1023 21.4047 15.6555 21.4047Z" fill="#FFE4B8"/>
<path d="M16.2828 5.575H5.85429V20.2273H16.2828V5.575Z" fill="white"/>
<path d="M18.6418 15.6555C18.3969 15.6555 18.1992 15.4578 18.1992 15.2129C18.1992 14.968 18.3969 14.7703 18.6418 14.7703C18.8867 14.7703 19.0844 14.968 19.0844 15.2129C19.0844 15.4578 18.8867 15.6555 18.6418 15.6555ZM18.6418 15.0711C18.5645 15.0711 18.5 15.1355 18.5 15.2129C18.5 15.2902 18.5645 15.3547 18.6418 15.3547C18.7191 15.3547 18.7836 15.2902 18.7836 15.2129C18.7836 15.1355 18.7191 15.0711 18.6418 15.0711Z" fill="#F16723"/>
<path d="M17.516 2.73047C17.5659 2.73047 17.6063 2.69007 17.6063 2.64024C17.6063 2.5904 17.5659 2.55 17.516 2.55C17.4662 2.55 17.4258 2.5904 17.4258 2.64024C17.4258 2.69007 17.4662 2.73047 17.516 2.73047Z" fill="black"/>
<path d="M19.6215 20.0211C19.6713 20.0211 19.7117 19.9807 19.7117 19.9309C19.7117 19.881 19.6713 19.8406 19.6215 19.8406C19.5716 19.8406 19.5312 19.881 19.5312 19.9309C19.5312 19.9807 19.5716 20.0211 19.6215 20.0211Z" fill="black"/>
<path d="M18.4398 11.2727C18.4897 11.2727 18.5301 11.2323 18.5301 11.1824C18.5301 11.1326 18.4897 11.0922 18.4398 11.0922C18.39 11.0922 18.3496 11.1326 18.3496 11.1824C18.3496 11.2323 18.39 11.2727 18.4398 11.2727Z" fill="black"/>
<path d="M2.09023 13.3824C2.14007 13.3824 2.18047 13.342 2.18047 13.2922C2.18047 13.2423 2.14007 13.202 2.09023 13.202C2.0404 13.202 2 13.2423 2 13.2922C2 13.342 2.0404 13.3824 2.09023 13.3824Z" fill="black"/>
<path d="M5.41601 3.43946C5.46584 3.43946 5.50624 3.39906 5.50624 3.34922C5.50624 3.29939 5.46584 3.25899 5.41601 3.25899C5.36617 3.25899 5.32578 3.29939 5.32578 3.34922C5.32578 3.39906 5.36617 3.43946 5.41601 3.43946Z" fill="black"/>
<path d="M3.52968 18.3711H3.37929V18.2207C3.37929 18.1391 3.31054 18.0703 3.2289 18.0703C3.14726 18.0703 3.07851 18.1391 3.07851 18.2207V18.3711H2.92812C2.84648 18.3711 2.77773 18.4398 2.77773 18.5215C2.77773 18.6031 2.84648 18.6719 2.92812 18.6719H3.07851V18.8223C3.07851 18.9039 3.14726 18.9727 3.2289 18.9727C3.31054 18.9727 3.37929 18.9039 3.37929 18.8223V18.6719H3.52968C3.61132 18.6719 3.68007 18.6031 3.68007 18.5215C3.68007 18.4398 3.61132 18.3711 3.52968 18.3711Z" fill="#F16723"/>
<path d="M16.4633 3.57267C16.5368 3.57267 16.5965 3.51303 16.5965 3.43946C16.5965 3.3659 16.5368 3.30626 16.4633 3.30626C16.3897 3.30626 16.3301 3.3659 16.3301 3.43946C16.3301 3.51303 16.3897 3.57267 16.4633 3.57267Z" fill="black"/>
<path d="M3.25898 12.5961C3.33255 12.5961 3.39218 12.5365 3.39218 12.4629C3.39218 12.3893 3.33255 12.3297 3.25898 12.3297C3.18542 12.3297 3.12578 12.3893 3.12578 12.4629C3.12578 12.5365 3.18542 12.5961 3.25898 12.5961Z" fill="black"/>
<path d="M19.1402 10.6367C19.2138 10.6367 19.2734 10.5771 19.2734 10.5035C19.2734 10.43 19.2138 10.3703 19.1402 10.3703C19.0667 10.3703 19.007 10.43 19.007 10.5035C19.007 10.5771 19.0667 10.6367 19.1402 10.6367Z" fill="black"/>
<path d="M18.3496 17.4516C18.4232 17.4516 18.4828 17.3919 18.4828 17.3184C18.4828 17.2448 18.4232 17.1852 18.3496 17.1852C18.276 17.1852 18.2164 17.2448 18.2164 17.3184C18.2164 17.3919 18.276 17.4516 18.3496 17.4516Z" fill="black"/>
<path d="M3.03124 5.55781C2.74765 5.55781 2.51991 5.33008 2.51991 5.04648C2.51991 4.76289 2.74765 4.53516 3.03124 4.53516C3.31484 4.53516 3.54257 4.76289 3.54257 5.04648C3.54257 5.33008 3.31484 5.55781 3.03124 5.55781ZM3.03124 4.83594C2.91523 4.83594 2.82069 4.93047 2.82069 5.04648C2.82069 5.1625 2.91523 5.25703 3.03124 5.25703C3.14726 5.25703 3.24179 5.1625 3.24179 5.04648C3.24179 4.93047 3.14726 4.83594 3.03124 4.83594Z" fill="#FBD20A"/>
<path d="M4.66406 15.9176C4.52227 15.9176 4.40625 15.8016 4.40625 15.6598V12.3426C4.40625 12.2008 4.52227 12.0848 4.66406 12.0848C4.80586 12.0848 4.92188 12.2008 4.92188 12.3426V15.6598C4.92188 15.8016 4.80586 15.9176 4.66406 15.9176Z" fill="black"/>
<path d="M16.6695 21.6625H5.47188C4.8832 21.6625 4.40625 21.1855 4.40625 20.5969V16.3086C4.40625 16.1668 4.52227 16.0508 4.66406 16.0508C4.80586 16.0508 4.92188 16.1668 4.92188 16.3086V20.5969C4.92188 20.902 5.1668 21.1469 5.47188 21.1469H16.6695C16.9746 21.1469 17.2195 20.902 17.2195 20.5969V11.0234C17.2195 10.8816 17.3355 10.7656 17.4773 10.7656C17.6191 10.7656 17.7352 10.8816 17.7352 11.0234V20.5969C17.7352 21.1855 17.2582 21.6625 16.6695 21.6625Z" fill="black"/>
<path d="M17.4774 10.6324C17.3356 10.6324 17.2195 10.5164 17.2195 10.3746V9.65274C17.2195 9.51094 17.3356 9.39493 17.4774 9.39493C17.6192 9.39493 17.7352 9.51094 17.7352 9.65274V10.3746C17.7352 10.5164 17.6192 10.6324 17.4774 10.6324Z" fill="black"/>
<path d="M4.66406 11.9859C4.52227 11.9859 4.40625 11.8699 4.40625 11.7281V5.33868C4.40625 4.75001 4.8832 4.27306 5.47188 4.27306H16.6695C17.2582 4.27306 17.7352 4.75001 17.7352 5.33868V8.99532C17.7352 9.13712 17.6191 9.25313 17.4773 9.25313C17.3355 9.25313 17.2195 9.13712 17.2195 8.99532V5.33868C17.2195 5.0336 16.9746 4.78868 16.6695 4.78868H5.47188C5.1668 4.78868 4.92188 5.0336 4.92188 5.33868V11.7281C4.92188 11.8699 4.80586 11.9859 4.66406 11.9859Z" fill="black"/>
<path d="M16.2828 20.4852H5.85429C5.7125 20.4852 5.59648 20.3691 5.59648 20.2273V5.575C5.59648 5.4332 5.7125 5.31718 5.85429 5.31718H16.2828C16.4246 5.31718 16.5406 5.4332 16.5406 5.575V20.2273C16.5406 20.3691 16.4246 20.4852 16.2828 20.4852ZM6.11211 19.9695H16.025V5.83281H6.11211V19.9695Z" fill="black"/>
<path d="M14.766 10.2801H7.3754C7.2336 10.2801 7.11758 10.1641 7.11758 10.0223C7.11758 9.88047 7.2336 9.76445 7.3754 9.76445H14.766C14.9078 9.76445 15.0238 9.88047 15.0238 10.0223C15.0238 10.1641 14.9078 10.2801 14.766 10.2801Z" fill="black"/>
<path d="M12.3727 8.39375H7.3754C7.2336 8.39375 7.11758 8.27774 7.11758 8.13594C7.11758 7.99414 7.2336 7.87813 7.3754 7.87813H12.3727C12.5145 7.87813 12.6305 7.99414 12.6305 8.13594C12.6305 8.27774 12.5145 8.39375 12.3727 8.39375Z" fill="black"/>
<path d="M14.766 11.4402H7.3754C7.2336 11.4402 7.11758 11.3242 7.11758 11.1824C7.11758 11.0406 7.2336 10.9246 7.3754 10.9246H14.766C14.9078 10.9246 15.0238 11.0406 15.0238 11.1824C15.0238 11.3242 14.9078 11.4402 14.766 11.4402Z" fill="black"/>
<path d="M14.766 12.6004H7.3754C7.2336 12.6004 7.11758 12.4844 7.11758 12.3426C7.11758 12.2008 7.2336 12.0848 7.3754 12.0848H14.766C14.9078 12.0848 15.0238 12.2008 15.0238 12.3426C15.0238 12.4844 14.9078 12.6004 14.766 12.6004Z" fill="black"/>
<path d="M14.766 13.7605H7.3754C7.2336 13.7605 7.11758 13.6445 7.11758 13.5027C7.11758 13.3609 7.2336 13.2449 7.3754 13.2449H14.766C14.9078 13.2449 15.0238 13.3609 15.0238 13.5027C15.0238 13.6445 14.9078 13.7605 14.766 13.7605Z" fill="black"/>
<path d="M14.766 14.9207H7.3754C7.2336 14.9207 7.11758 14.8047 7.11758 14.6629C7.11758 14.5211 7.2336 14.4051 7.3754 14.4051H14.766C14.9078 14.4051 15.0238 14.5211 15.0238 14.6629C15.0238 14.8047 14.9078 14.9207 14.766 14.9207Z" fill="black"/>
<path d="M14.766 16.0809H7.3754C7.2336 16.0809 7.11758 15.9648 7.11758 15.823C7.11758 15.6812 7.2336 15.5652 7.3754 15.5652H14.766C14.9078 15.5652 15.0238 15.6812 15.0238 15.823C15.0238 15.9648 14.9078 16.0809 14.766 16.0809Z" fill="black"/>
<path d="M14.766 17.2453H7.3754C7.2336 17.2453 7.11758 17.1293 7.11758 16.9875C7.11758 16.8457 7.2336 16.7297 7.3754 16.7297H14.766C14.9078 16.7297 15.0238 16.8457 15.0238 16.9875C15.0238 17.1293 14.9078 17.2453 14.766 17.2453Z" fill="black"/>
<path d="M12.3727 18.4055H7.3754C7.2336 18.4055 7.11758 18.2895 7.11758 18.1477C7.11758 18.0059 7.2336 17.8898 7.3754 17.8898H12.3727C12.5145 17.8898 12.6305 18.0059 12.6305 18.1477C12.6305 18.2895 12.5145 18.4055 12.3727 18.4055Z" fill="black"/>
<path d="M13.2793 3.62422H12.059V3.24609C12.059 2.70039 11.6164 2.25781 11.0707 2.25781C10.525 2.25781 10.0824 2.70039 10.0824 3.24609V3.62422H8.86211C8.08868 3.62422 7.46133 4.25156 7.46133 5.025V5.36875C7.46133 5.67383 7.70626 5.91875 8.01133 5.91875H14.1301C14.4352 5.91875 14.6801 5.67383 14.6801 5.36875V5.025C14.6801 4.25156 14.0527 3.62422 13.2793 3.62422Z" fill="#4EA33E"/>
<path d="M12.3856 3.62422H11.3543V3.24609C11.3543 2.70039 10.9805 2.25781 10.5164 2.25781C10.0523 2.25781 9.67852 2.70039 9.67852 3.24609V3.62422H8.64727C7.98985 3.62422 7.46133 4.25156 7.46133 5.025V5.36875C7.46133 5.67383 7.66758 5.91875 7.9254 5.91875H13.1074C13.3652 5.91875 13.5715 5.67383 13.5715 5.36875V5.025C13.5715 4.25156 13.0387 3.62422 12.3856 3.62422Z" fill="white"/>
<path d="M12.6133 3.61133H12.1406V3.2332C12.1406 2.6875 11.4832 2.24492 11.0707 2.24492C10.6582 2.24492 10.0824 2.6875 10.0824 3.2332V3.61133H9.27461C8.69024 3.61133 8.21329 4.23867 8.21329 5.01211V5.35586C8.21329 5.66093 8.39805 5.90586 8.63008 5.90586H13.2535C13.4813 5.90586 13.6703 5.66093 13.6703 5.35586V5.01211C13.6703 4.23867 13.1977 3.61133 12.6133 3.61133Z" fill="#7FC344"/>
<path d="M14.1301 6.17656H8.01133C7.56446 6.17656 7.20352 5.81562 7.20352 5.36875V5.025C7.20352 4.10977 7.94688 3.36641 8.86211 3.36641H9.82461V3.24609C9.82461 2.55859 10.3832 2 11.0707 2C11.7582 2 12.3168 2.55859 12.3168 3.24609V3.36641H13.2793C14.1945 3.36641 14.9379 4.10977 14.9379 5.025V5.36875C14.9379 5.81562 14.577 6.17656 14.1301 6.17656ZM8.86211 3.88203C8.23047 3.88203 7.71915 4.39336 7.71915 5.025V5.36875C7.71915 5.53203 7.84805 5.66094 8.01133 5.66094H14.1301C14.2934 5.66094 14.4223 5.53203 14.4223 5.36875V5.025C14.4223 4.39336 13.9109 3.88203 13.2793 3.88203H12.059C11.9172 3.88203 11.8012 3.76602 11.8012 3.62422V3.24609C11.8012 2.84219 11.4746 2.51562 11.0707 2.51562C10.6668 2.51562 10.3402 2.84219 10.3402 3.24609V3.62422C10.3402 3.76602 10.2242 3.88203 10.0824 3.88203H8.86211Z" fill="black"/>
<path d="M8.43243 5.4289C8.35079 5.4289 8.28204 5.36015 8.28204 5.27851C8.28204 4.6125 8.82345 4.07109 9.48947 4.07109C9.57111 4.07109 9.63986 4.13984 9.63986 4.22148C9.63986 4.30312 9.57111 4.37187 9.48947 4.37187C8.99103 4.37187 8.58282 4.78007 8.58282 5.27851C8.58282 5.36015 8.51407 5.4289 8.43243 5.4289Z" fill="white"/>
<path d="M9.26172 2.48985H9.11133V2.33946C9.11133 2.25782 9.04258 2.18907 8.96094 2.18907C8.8793 2.18907 8.81055 2.25782 8.81055 2.33946V2.48985H8.66016C8.57852 2.48985 8.50977 2.5586 8.50977 2.64024C8.50977 2.72188 8.57852 2.79063 8.66016 2.79063H8.81055V2.94103C8.81055 3.02267 8.8793 3.09142 8.96094 3.09142C9.04258 3.09142 9.11133 3.02267 9.11133 2.94103V2.79063H9.26172C9.34336 2.79063 9.41211 2.72188 9.41211 2.64024C9.41211 2.5586 9.34336 2.48985 9.26172 2.48985Z" fill="#FBD20A"/>
</svg>
