<svg width="22" height="22" viewBox="0 0 22 22" fill="none" xmlns="http://www.w3.org/2000/svg">
<path d="M16.5988 20.4488H5.40117C4.95429 20.4488 4.59335 20.0879 4.59335 19.641V4.38282C4.59335 3.93595 4.95429 3.57501 5.40117 3.57501H16.5988C17.0457 3.57501 17.4066 3.93595 17.4066 4.38282V19.6367C17.4066 20.0836 17.0457 20.4488 16.5988 20.4488Z" fill="#E7D0A9"/>
<path d="M5.74492 20.4488H5.3625C4.91563 20.4488 4.55469 20.0879 4.55469 19.641V4.38282C4.55469 3.93595 4.91563 3.57501 5.3625 3.57501H5.74492V20.4488Z" fill="white"/>
<path d="M15.5461 20.4488H6.11445C5.66758 20.4488 5.30664 20.0879 5.30664 19.641V4.38282C5.30664 3.93595 5.66758 3.57501 6.11445 3.57501H15.5461C15.993 3.57501 16.3539 3.93595 16.3539 4.38282V19.6367C16.3539 20.0836 15.993 20.4488 15.5461 20.4488Z" fill="#FFE4B8"/>
<path d="M16.1734 4.61914H5.74492V19.2715H16.1734V4.61914Z" fill="white"/>
<path d="M18.5324 14.6996C18.2875 14.6996 18.0898 14.502 18.0898 14.257C18.0898 14.0121 18.2875 13.8145 18.5324 13.8145C18.7773 13.8145 18.975 14.0121 18.975 14.257C18.975 14.502 18.7773 14.6996 18.5324 14.6996ZM18.5324 14.1152C18.4551 14.1152 18.3906 14.1797 18.3906 14.257C18.3906 14.3344 18.4551 14.3988 18.5324 14.3988C18.6098 14.3988 18.6742 14.3344 18.6742 14.257C18.6742 14.1797 18.6098 14.1152 18.5324 14.1152Z" fill="#F16723"/>
<path d="M17.4066 1.77462C17.4565 1.77462 17.4969 1.73422 17.4969 1.68438C17.4969 1.63455 17.4565 1.59415 17.4066 1.59415C17.3568 1.59415 17.3164 1.63455 17.3164 1.68438C17.3164 1.73422 17.3568 1.77462 17.4066 1.77462Z" fill="black"/>
<path d="M19.5121 19.0652C19.5619 19.0652 19.6023 19.0248 19.6023 18.975C19.6023 18.9252 19.5619 18.8848 19.5121 18.8848C19.4623 18.8848 19.4219 18.9252 19.4219 18.975C19.4219 19.0248 19.4623 19.0652 19.5121 19.0652Z" fill="black"/>
<path d="M18.3305 10.3168C18.3803 10.3168 18.4207 10.2764 18.4207 10.2266C18.4207 10.1767 18.3803 10.1363 18.3305 10.1363C18.2806 10.1363 18.2402 10.1767 18.2402 10.2266C18.2402 10.2764 18.2806 10.3168 18.3305 10.3168Z" fill="black"/>
<path d="M1.98086 12.4266C2.03069 12.4266 2.07109 12.3862 2.07109 12.3363C2.07109 12.2865 2.03069 12.2461 1.98086 12.2461C1.93102 12.2461 1.89062 12.2865 1.89062 12.3363C1.89062 12.3862 1.93102 12.4266 1.98086 12.4266Z" fill="black"/>
<path d="M5.30663 2.4836C5.35647 2.4836 5.39687 2.4432 5.39687 2.39337C5.39687 2.34353 5.35647 2.30313 5.30663 2.30313C5.2568 2.30313 5.2164 2.34353 5.2164 2.39337C5.2164 2.4432 5.2568 2.4836 5.30663 2.4836Z" fill="black"/>
<path d="M3.4203 17.4152H3.26991V17.2648C3.26991 17.1832 3.20116 17.1145 3.11952 17.1145C3.03788 17.1145 2.96913 17.1832 2.96913 17.2648V17.4152H2.81874C2.7371 17.4152 2.66835 17.484 2.66835 17.5656C2.66835 17.6473 2.7371 17.716 2.81874 17.716H2.96913V17.8664C2.96913 17.948 3.03788 18.0168 3.11952 18.0168C3.20116 18.0168 3.26991 17.948 3.26991 17.8664V17.716H3.4203C3.50194 17.716 3.57069 17.6473 3.57069 17.5656C3.57069 17.484 3.50194 17.4152 3.4203 17.4152Z" fill="#F16723"/>
<path d="M16.3539 2.61681C16.4275 2.61681 16.4871 2.55717 16.4871 2.48361C16.4871 2.41004 16.4275 2.3504 16.3539 2.3504C16.2803 2.3504 16.2207 2.41004 16.2207 2.48361C16.2207 2.55717 16.2803 2.61681 16.3539 2.61681Z" fill="black"/>
<path d="M3.14961 11.6402C3.22317 11.6402 3.28281 11.5806 3.28281 11.507C3.28281 11.4335 3.22317 11.3738 3.14961 11.3738C3.07604 11.3738 3.0164 11.4335 3.0164 11.507C3.0164 11.5806 3.07604 11.6402 3.14961 11.6402Z" fill="black"/>
<path d="M19.0308 9.68087C19.1044 9.68087 19.1641 9.62123 19.1641 9.54766C19.1641 9.4741 19.1044 9.41446 19.0308 9.41446C18.9573 9.41446 18.8976 9.4741 18.8976 9.54766C18.8976 9.62123 18.9573 9.68087 19.0308 9.68087Z" fill="black"/>
<path d="M18.2402 16.4957C18.3138 16.4957 18.3734 16.4361 18.3734 16.3625C18.3734 16.2889 18.3138 16.2293 18.2402 16.2293C18.1667 16.2293 18.107 16.2889 18.107 16.3625C18.107 16.4361 18.1667 16.4957 18.2402 16.4957Z" fill="black"/>
<path d="M2.92187 4.60195C2.63827 4.60195 2.41054 4.37422 2.41054 4.09063C2.41054 3.80703 2.63827 3.5793 2.92187 3.5793C3.20546 3.5793 3.43319 3.80703 3.43319 4.09063C3.43319 4.37422 3.20546 4.60195 2.92187 4.60195ZM2.92187 3.88008C2.80585 3.88008 2.71132 3.97461 2.71132 4.09063C2.71132 4.20664 2.80585 4.30117 2.92187 4.30117C3.03788 4.30117 3.13241 4.20664 3.13241 4.09063C3.13241 3.97461 3.03788 3.88008 2.92187 3.88008Z" fill="#FBD20A"/>
<path d="M4.55469 14.9617C4.41289 14.9617 4.29688 14.8457 4.29688 14.7039V11.3867C4.29688 11.2449 4.41289 11.1289 4.55469 11.1289C4.69648 11.1289 4.8125 11.2449 4.8125 11.3867V14.7039C4.8125 14.8457 4.69648 14.9617 4.55469 14.9617Z" fill="black"/>
<path d="M16.5602 20.7066H5.3625C4.77383 20.7066 4.29688 20.2297 4.29688 19.641V15.3527C4.29688 15.2109 4.41289 15.0949 4.55469 15.0949C4.69648 15.0949 4.8125 15.2109 4.8125 15.3527V19.641C4.8125 19.9461 5.05742 20.191 5.3625 20.191H16.5602C16.8652 20.191 17.1102 19.9461 17.1102 19.641V10.0676C17.1102 9.92578 17.2262 9.80977 17.368 9.80977C17.5098 9.80977 17.6258 9.92578 17.6258 10.0676V19.641C17.6258 20.2297 17.1488 20.7066 16.5602 20.7066Z" fill="black"/>
<path d="M17.368 9.67657C17.2262 9.67657 17.1102 9.56055 17.1102 9.41876V8.69688C17.1102 8.55509 17.2262 8.43907 17.368 8.43907C17.5098 8.43907 17.6258 8.55509 17.6258 8.69688V9.41876C17.6258 9.56055 17.5098 9.67657 17.368 9.67657Z" fill="black"/>
<path d="M4.55469 11.0301C4.41289 11.0301 4.29688 10.9141 4.29688 10.7723V4.38282C4.29688 3.79415 4.77383 3.3172 5.3625 3.3172H16.5602C17.1488 3.3172 17.6258 3.79415 17.6258 4.38282V8.03946C17.6258 8.18126 17.5098 8.29728 17.368 8.29728C17.2262 8.29728 17.1102 8.18126 17.1102 8.03946V4.38282C17.1102 4.07775 16.8652 3.83282 16.5602 3.83282H5.3625C5.05742 3.83282 4.8125 4.07775 4.8125 4.38282V10.7723C4.8125 10.9141 4.69648 11.0301 4.55469 11.0301Z" fill="black"/>
<path d="M16.1734 19.5293H5.74492C5.60312 19.5293 5.48711 19.4133 5.48711 19.2715V4.61914C5.48711 4.47734 5.60312 4.36133 5.74492 4.36133H16.1734C16.3152 4.36133 16.4312 4.47734 16.4312 4.61914V19.2715C16.4312 19.4133 16.3152 19.5293 16.1734 19.5293ZM6.00273 19.0137H15.9156V4.87695H6.00273V19.0137Z" fill="black"/>
<path d="M14.6566 9.32422H7.26602C7.12422 9.32422 7.00821 9.2082 7.00821 9.06641C7.00821 8.92461 7.12422 8.80859 7.26602 8.80859H14.6566C14.7984 8.80859 14.9145 8.92461 14.9145 9.06641C14.9145 9.2082 14.7984 9.32422 14.6566 9.32422Z" fill="black"/>
<path d="M12.2633 7.4379H7.26602C7.12422 7.4379 7.00821 7.32188 7.00821 7.18008C7.00821 7.03829 7.12422 6.92227 7.26602 6.92227H12.2633C12.4051 6.92227 12.5211 7.03829 12.5211 7.18008C12.5211 7.32188 12.4051 7.4379 12.2633 7.4379Z" fill="black"/>
<path d="M14.6566 10.4844H7.26602C7.12422 10.4844 7.00821 10.3684 7.00821 10.2266C7.00821 10.0848 7.12422 9.96875 7.26602 9.96875H14.6566C14.7984 9.96875 14.9145 10.0848 14.9145 10.2266C14.9145 10.3684 14.7984 10.4844 14.6566 10.4844Z" fill="black"/>
<path d="M14.6566 11.6445H7.26602C7.12422 11.6445 7.00821 11.5285 7.00821 11.3867C7.00821 11.2449 7.12422 11.1289 7.26602 11.1289H14.6566C14.7984 11.1289 14.9145 11.2449 14.9145 11.3867C14.9145 11.5285 14.7984 11.6445 14.6566 11.6445Z" fill="black"/>
<path d="M14.6566 12.8047H7.26602C7.12422 12.8047 7.00821 12.6887 7.00821 12.5469C7.00821 12.4051 7.12422 12.2891 7.26602 12.2891H14.6566C14.7984 12.2891 14.9145 12.4051 14.9145 12.5469C14.9145 12.6887 14.7984 12.8047 14.6566 12.8047Z" fill="black"/>
<path d="M14.6566 13.9648H7.26602C7.12422 13.9648 7.00821 13.8488 7.00821 13.707C7.00821 13.5652 7.12422 13.4492 7.26602 13.4492H14.6566C14.7984 13.4492 14.9145 13.5652 14.9145 13.707C14.9145 13.8488 14.7984 13.9648 14.6566 13.9648Z" fill="black"/>
<path d="M14.6566 15.125H7.26602C7.12422 15.125 7.00821 15.009 7.00821 14.8672C7.00821 14.7254 7.12422 14.6094 7.26602 14.6094H14.6566C14.7984 14.6094 14.9145 14.7254 14.9145 14.8672C14.9145 15.009 14.7984 15.125 14.6566 15.125Z" fill="black"/>
<path d="M14.6566 16.2895H7.26602C7.12422 16.2895 7.00821 16.1734 7.00821 16.0316C7.00821 15.8898 7.12422 15.7738 7.26602 15.7738H14.6566C14.7984 15.7738 14.9145 15.8898 14.9145 16.0316C14.9145 16.1734 14.7984 16.2895 14.6566 16.2895Z" fill="black"/>
<path d="M12.2633 17.4496H7.26602C7.12422 17.4496 7.00821 17.3336 7.00821 17.1918C7.00821 17.05 7.12422 16.934 7.26602 16.934H12.2633C12.4051 16.934 12.5211 17.05 12.5211 17.1918C12.5211 17.3336 12.4051 17.4496 12.2633 17.4496Z" fill="black"/>
<path d="M13.1699 2.66836H11.9496V2.29024C11.9496 1.74453 11.507 1.30196 10.9613 1.30196C10.4156 1.30196 9.97305 1.74453 9.97305 2.29024V2.66836H8.75274C7.9793 2.66836 7.35196 3.29571 7.35196 4.06914V4.41289C7.35196 4.71797 7.59688 4.96289 7.90196 4.96289H14.0207C14.3258 4.96289 14.5707 4.71797 14.5707 4.41289V4.06914C14.5707 3.29571 13.9434 2.66836 13.1699 2.66836Z" fill="#4EA33E"/>
<path d="M12.2762 2.66836H11.2449V2.29024C11.2449 1.74453 10.8711 1.30196 10.407 1.30196C9.94297 1.30196 9.56915 1.74453 9.56915 2.29024V2.66836H8.5379C7.88047 2.66836 7.35196 3.29571 7.35196 4.06914V4.41289C7.35196 4.71797 7.55821 4.96289 7.81602 4.96289H12.9981C13.2559 4.96289 13.4621 4.71797 13.4621 4.41289V4.06914C13.4621 3.29571 12.9293 2.66836 12.2762 2.66836Z" fill="white"/>
<path d="M12.5039 2.65547H12.0313V2.27734C12.0313 1.73164 11.3738 1.28906 10.9613 1.28906C10.5488 1.28906 9.97305 1.73164 9.97305 2.27734V2.65547H9.16524C8.58087 2.65547 8.10391 3.28281 8.10391 4.05625V4.4C8.10391 4.70508 8.28868 4.95 8.52071 4.95H13.1441C13.3719 4.95 13.5609 4.70508 13.5609 4.4V4.05625C13.5609 3.28281 13.0883 2.65547 12.5039 2.65547Z" fill="#7FC344"/>
<path d="M14.0207 5.22071H7.90196C7.45508 5.22071 7.09415 4.85977 7.09415 4.41289V4.06914C7.09415 3.15391 7.83751 2.41055 8.75274 2.41055H9.71524V2.29024C9.71524 1.60274 10.2738 1.04414 10.9613 1.04414C11.6488 1.04414 12.2074 1.60274 12.2074 2.29024V2.41055H13.1699C14.0852 2.41055 14.8285 3.15391 14.8285 4.06914V4.41289C14.8285 4.85977 14.4676 5.22071 14.0207 5.22071ZM8.75274 2.92617C8.1211 2.92617 7.60977 3.4375 7.60977 4.06914V4.41289C7.60977 4.57617 7.73868 4.70508 7.90196 4.70508H14.0207C14.184 4.70508 14.3129 4.57617 14.3129 4.41289V4.06914C14.3129 3.4375 13.8016 2.92617 13.1699 2.92617H11.9496C11.8078 2.92617 11.6918 2.81016 11.6918 2.66836V2.29024C11.6918 1.88633 11.3652 1.55977 10.9613 1.55977C10.5574 1.55977 10.2309 1.88633 10.2309 2.29024V2.66836C10.2309 2.81016 10.1148 2.92617 9.97305 2.92617H8.75274Z" fill="black"/>
<path d="M8.32306 4.47305C8.24142 4.47305 8.17267 4.4043 8.17267 4.32266C8.17267 3.65664 8.71408 3.11523 9.38009 3.11523C9.46173 3.11523 9.53048 3.18398 9.53048 3.26562C9.53048 3.34727 9.46173 3.41602 9.38009 3.41602C8.88165 3.41602 8.47345 3.82422 8.47345 4.32266C8.47345 4.4043 8.4047 4.47305 8.32306 4.47305Z" fill="white"/>
<path d="M9.15234 1.534H9.00195V1.38361C9.00195 1.30197 8.9332 1.23322 8.85156 1.23322C8.76992 1.23322 8.70117 1.30197 8.70117 1.38361V1.534H8.55078C8.46914 1.534 8.40039 1.60275 8.40039 1.68439C8.40039 1.76603 8.46914 1.83478 8.55078 1.83478H8.70117V1.98517C8.70117 2.06681 8.76992 2.13556 8.85156 2.13556C8.9332 2.13556 9.00195 2.06681 9.00195 1.98517V1.83478H9.15234C9.23398 1.83478 9.30273 1.76603 9.30273 1.68439C9.30273 1.60275 9.23398 1.534 9.15234 1.534Z" fill="#FBD20A"/>
</svg>
