<svg width="16" height="16" viewBox="0 0 16 16" fill="none" xmlns="http://www.w3.org/2000/svg">
<path d="M3.02824 11.3189H6.21695L4.22407 8.04617L6.21695 4.77344H3.02824L1.03516 8.04617L3.02824 11.3189Z" fill="#FF9F00"/>
<path d="M6.84577 11.0058L5.0625 8.04775L6.84577 5.08984L8.62887 8.04775L6.84577 11.0058Z" fill="#FF9F00"/>
<path d="M14.6739 11.8808L13.0953 8.87891L11.2331 11.928L7.52734 11.9247L9.10364 14.9592H12.8524L14.6739 11.8808Z" fill="#FF9F00"/>
<path d="M12.6806 8.22266L10.9426 11.2787L7.51953 11.2924L9.33735 8.22266H12.6806Z" fill="#FF9F00"/>
<path d="M9.48634 1.1875L7.69531 3.93006L11.5453 3.9248L13.2685 7.16396L15.0699 4.33384L13.2866 1.1875H9.48634Z" fill="#FF9F00"/>
<path d="M7.50781 4.60938H10.8645L12.6896 7.67658H9.28006L7.50781 4.60938Z" fill="#FF9F00"/>
</svg>
