<svg width="22" height="22" viewBox="0 0 22 22" fill="none" xmlns="http://www.w3.org/2000/svg">
<path d="M17.1875 13.953V15.8127H15.125V15.1252C15.125 14.7471 14.8156 14.4377 14.4375 14.4377H7.5625C7.18437 14.4377 6.875 14.7471 6.875 15.1252V15.8127H4.8125V14.4377C6.33188 14.4377 7.5625 13.2071 7.5625 11.6877C7.5625 11.3302 7.49375 10.9899 7.37 10.6771C7.54188 10.6255 7.72062 10.5842 7.89937 10.5602L8.635 10.4536L9.28125 12.7189L11 11.6877L12.7188 12.7189L13.365 10.4536L14.1006 10.5602C14.5509 10.6221 14.9841 10.7733 15.3759 10.9967C15.5306 11.0861 15.675 11.1824 15.8125 11.2889V12.7189C15.8125 12.908 15.9672 13.0627 16.1562 13.0627H17.1875V13.953Z" fill="#FF826E"/>
<path d="M11.0003 11.6875L9.2815 12.7188L8.63525 10.4534L9.62525 10.3125L11.0003 11.6875Z" fill="#FC6E51"/>
<path d="M13.365 10.4534L12.7188 12.7188L11 11.6875L12.375 10.3125L13.365 10.4534Z" fill="#FC6E51"/>
<path d="M21.3125 10.6562V12.7188C21.3125 12.9078 21.1578 13.0625 20.9688 13.0625H19.25L18.0159 14.2966C17.9266 14.3859 17.8028 14.4375 17.6722 14.4375C17.4041 14.4375 17.1875 14.2209 17.1875 13.9528V13.0625H16.1562C15.9672 13.0625 15.8125 12.9078 15.8125 12.7188V11.2888V10.6562C15.8125 10.4672 15.9672 10.3125 16.1562 10.3125H20.9688C21.1578 10.3125 21.3125 10.4672 21.3125 10.6562V10.6562Z" fill="#E6E9ED"/>
<path d="M15.1246 7.5625H13.3062C13.3715 7.34594 13.4058 7.11562 13.4058 6.875H13.7496C14.0349 6.875 14.2927 6.75813 14.4783 6.5725C14.664 6.38688 14.7808 6.12906 14.7808 5.84375C14.7808 5.55156 14.6605 5.28688 14.4646 5.10125C14.5127 5.00844 14.554 4.90875 14.5883 4.8125C14.7155 4.47219 14.7808 4.11125 14.7808 3.74687L14.7637 3.4375H14.7671H19.5933C19.7824 3.4375 19.9371 3.59219 19.9371 3.78125V7.21875C19.9371 7.40781 19.7824 7.5625 19.5933 7.5625H16.4996L15.929 8.70375C15.8568 8.84812 15.709 8.9375 15.5508 8.9375C15.3137 8.9375 15.1246 8.74844 15.1246 8.51125V7.5625Z" fill="#E6E9ED"/>
<path d="M9.96875 3.78125L9.63531 3.86375C9.15406 3.9875 8.78281 4.35531 8.64875 4.8125H8.25C7.97156 4.8125 7.72063 4.9225 7.535 5.10125C7.32531 4.67844 7.21875 4.21781 7.21875 3.74687C7.21875 3.45125 7.26 3.16594 7.33906 2.89781C7.70688 1.61906 8.8825 0.6875 10.2781 0.6875H11.7219C12.5675 0.6875 13.3306 1.03125 13.8875 1.58125C14.3688 2.06937 14.6919 2.71563 14.7641 3.4375L14.7812 3.74687C14.7812 4.11125 14.7159 4.47219 14.5887 4.8125C14.5544 4.90875 14.5131 5.00844 14.465 5.10125C14.2794 4.9225 14.0284 4.8125 13.75 4.8125H13.4062H11C10.7147 4.8125 10.4569 4.69562 10.2712 4.51C10.0856 4.32437 9.96875 4.06656 9.96875 3.78125V3.78125Z" fill="#656D78"/>
<path d="M7.535 5.10125C7.425 5.20781 7.33563 5.33844 7.28406 5.48625H7.28063C6.75469 6.70656 5.54125 7.5625 4.125 7.5625C2.2275 7.5625 0.6875 6.0225 0.6875 4.125C0.6875 2.2275 2.2275 0.6875 4.125 0.6875C5.59281 0.6875 6.84406 1.60531 7.33906 2.89781C7.26 3.16594 7.21875 3.45125 7.21875 3.74687C7.21875 4.21781 7.32531 4.67844 7.535 5.10125Z" fill="#FCD770"/>
<path d="M7.37 10.6769C7.49375 10.9897 7.5625 11.33 7.5625 11.6875C7.5625 13.2069 6.33188 14.4375 4.8125 14.4375C3.29312 14.4375 2.0625 13.2069 2.0625 11.6875C2.0625 10.1681 3.29312 8.9375 4.8125 8.9375C5.97438 8.9375 6.96781 9.65937 7.37 10.6769Z" fill="#FCD770"/>
<path d="M15.125 19.9375V20.2812C15.125 20.8519 14.6644 21.3125 14.0938 21.3125H7.90625C7.33563 21.3125 6.875 20.8519 6.875 20.2812V19.9375H15.125Z" fill="#AAB2BD"/>
<path d="M15.125 19.9375H6.875V19.25V17.1875V15.8125V15.125C6.875 14.7469 7.18437 14.4375 7.5625 14.4375H14.4375C14.8156 14.4375 15.125 14.7469 15.125 15.125V15.8125V17.1875V19.25V19.9375Z" fill="#CCD1D9"/>
<path d="M11 17.875C11.3797 17.875 11.6875 17.5672 11.6875 17.1875C11.6875 16.8078 11.3797 16.5 11 16.5C10.6203 16.5 10.3125 16.8078 10.3125 17.1875C10.3125 17.5672 10.6203 17.875 11 17.875Z" fill="#69D6F4"/>
<path d="M17.1875 15.8125V17.875C17.1875 18.6347 16.5722 19.25 15.8125 19.25H15.125V17.1875V15.8125H17.1875Z" fill="#F0D0B4"/>
<path d="M6.875 17.1875V19.25H6.1875C5.42781 19.25 4.8125 18.6347 4.8125 17.875V15.8125H6.875V17.1875Z" fill="#F0D0B4"/>
<path d="M12.0347 9.04736L12.375 10.3124L11 11.6874L9.625 10.3124L9.96531 9.04736C10.2781 9.19861 10.6287 9.28111 11 9.28111C11.3713 9.28111 11.7219 9.19861 12.0347 9.04736Z" fill="#F0D0B4"/>
<path d="M14.7812 5.84375C14.7812 6.12906 14.6644 6.38688 14.4787 6.5725C14.2931 6.75813 14.0353 6.875 13.75 6.875H13.4062V4.8125H13.75C14.0284 4.8125 14.2794 4.9225 14.465 5.10125C14.6609 5.28688 14.7812 5.55156 14.7812 5.84375Z" fill="#F0D0B4"/>
<path d="M11 4.8125H13.4062V6.875C13.4062 7.11562 13.3719 7.34594 13.3066 7.5625C13.1106 8.21906 12.6431 8.75875 12.0347 9.0475C11.7219 9.19875 11.3713 9.28125 11 9.28125C10.6287 9.28125 10.2781 9.19875 9.96531 9.0475C9.71781 8.93062 9.49094 8.76906 9.29844 8.57656C8.86187 8.14 8.59375 7.54188 8.59375 6.875V5.1975C8.59375 5.06344 8.61437 4.93625 8.64875 4.8125C8.78281 4.35531 9.15406 3.9875 9.63531 3.86375L9.96875 3.78125C9.96875 4.06656 10.0856 4.32437 10.2712 4.51C10.4569 4.69562 10.7147 4.8125 11 4.8125V4.8125Z" fill="#F0D0B4"/>
<path d="M8.25 4.8125H8.64875C8.61438 4.93625 8.59375 5.06344 8.59375 5.1975V6.875H8.25C7.96469 6.875 7.70687 6.75813 7.52125 6.5725C7.33562 6.38688 7.21875 6.12906 7.21875 5.84375C7.21875 5.71656 7.24281 5.59625 7.28406 5.48625C7.33563 5.33844 7.425 5.20781 7.535 5.10125C7.72063 4.9225 7.97156 4.8125 8.25 4.8125Z" fill="#F0D0B4"/>
<path d="M12.3022 7.44513L12.3382 7.3726L11.7233 7.06494L11.6872 7.13782C11.5562 7.39975 11.2929 7.56269 10.9997 7.56269C10.7065 7.56269 10.4432 7.39975 10.3122 7.13782L10.2761 7.06528L9.66113 7.37294L9.69723 7.44547C9.94541 7.94185 10.4445 8.25019 10.9997 8.25019C11.5548 8.25019 12.054 7.94185 12.3022 7.44513V7.44513Z" fill="black"/>
<path d="M9.96875 6.53125C10.1586 6.53125 10.3125 6.37735 10.3125 6.1875C10.3125 5.99765 10.1586 5.84375 9.96875 5.84375C9.7789 5.84375 9.625 5.99765 9.625 6.1875C9.625 6.37735 9.7789 6.53125 9.96875 6.53125Z" fill="black"/>
<path d="M12.0312 6.53125C12.2211 6.53125 12.375 6.37735 12.375 6.1875C12.375 5.99765 12.2211 5.84375 12.0312 5.84375C11.8414 5.84375 11.6875 5.99765 11.6875 6.1875C11.6875 6.37735 11.8414 6.53125 12.0312 6.53125Z" fill="black"/>
<path d="M11 16.1562C10.4314 16.1562 9.96875 16.6189 9.96875 17.1875C9.96875 17.7561 10.4314 18.2188 11 18.2188C11.5686 18.2188 12.0312 17.7561 12.0312 17.1875C12.0312 16.6189 11.5686 16.1562 11 16.1562ZM11 17.5312C10.8103 17.5312 10.6562 17.3772 10.6562 17.1875C10.6562 16.9978 10.8103 16.8438 11 16.8438C11.1897 16.8438 11.3438 16.9978 11.3438 17.1875C11.3438 17.3772 11.1897 17.5312 11 17.5312Z" fill="black"/>
<path d="M4.46875 2.4695V1.71875H3.78125V2.40625H3.09375V3.4375C3.09375 4.00606 3.55644 4.46875 4.125 4.46875C4.31475 4.46875 4.46875 4.62275 4.46875 4.8125V5.15625H4.125C3.93525 5.15625 3.78125 5.00225 3.78125 4.8125V4.46875H3.09375V4.8125C3.09375 5.26006 3.38216 5.63819 3.78125 5.7805V6.53125H4.46875V5.84375H5.15625V4.8125C5.15625 4.24394 4.69356 3.78125 4.125 3.78125C3.93525 3.78125 3.78125 3.62725 3.78125 3.4375V3.09375H4.125C4.31475 3.09375 4.46875 3.24775 4.46875 3.4375V3.78125H5.15625V3.4375C5.15625 2.98994 4.86784 2.61181 4.46875 2.4695Z" fill="black"/>
<path d="M5.84375 13.4062V12.375C5.84375 11.8064 5.38106 11.3438 4.8125 11.3438C4.62275 11.3438 4.46875 11.1897 4.46875 11V10.6562H4.8125C5.00225 10.6562 5.15625 10.8103 5.15625 11V11.3438H5.84375V11C5.84375 10.4314 5.38106 9.96875 4.8125 9.96875H3.78125V11C3.78125 11.5686 4.24394 12.0312 4.8125 12.0312C5.00225 12.0312 5.15625 12.1853 5.15625 12.375V12.7188H4.8125C4.62275 12.7188 4.46875 12.5647 4.46875 12.375V12.0312H3.78125V12.375C3.78125 12.9436 4.24394 13.4062 4.8125 13.4062H5.84375Z" fill="black"/>
<path d="M19.5938 11.3438H20.2812V12.0312H19.5938V11.3438Z" fill="black"/>
<path d="M18.2188 11.3438H18.9062V12.0312H18.2188V11.3438Z" fill="black"/>
<path d="M16.8438 11.3438H17.5312V12.0312H16.8438V11.3438Z" fill="black"/>
<path d="M20.9688 9.96875H16.1562C15.7771 9.96875 15.4688 10.2771 15.4688 10.6562V10.658C15.0576 10.4349 14.6152 10.285 14.1508 10.2187L12.6479 10.0042L12.4355 9.21594C12.9326 8.91 13.3255 8.45247 13.5475 7.90625H14.7812V8.51262C14.7812 8.93647 15.126 9.28125 15.5499 9.28125C15.8428 9.28125 16.1057 9.11831 16.2374 8.85637L16.7124 7.90625H19.5938C19.9729 7.90625 20.2812 7.59791 20.2812 7.21875V3.78125C20.2812 3.40209 19.9729 3.09375 19.5938 3.09375H15.0607C14.7551 1.52866 13.3753 0.34375 11.7222 0.34375H10.2781C9.00316 0.34375 7.89147 1.04947 7.30847 2.08966C6.62166 1.023 5.42197 0.34375 4.125 0.34375C2.04016 0.34375 0.34375 2.04016 0.34375 4.125C0.34375 6.20984 2.04016 7.90625 4.125 7.90625C5.28103 7.90625 6.34906 7.38031 7.05581 6.51234C7.29162 6.93172 7.73575 7.21875 8.25 7.21875H8.27372C8.37994 8.06369 8.87012 8.78866 9.56416 9.21594L9.35172 10.0042L7.84884 10.2187C7.75191 10.2324 7.65531 10.2499 7.55975 10.2712C7.04516 9.27644 6.00806 8.59375 4.8125 8.59375C3.10647 8.59375 1.71875 9.98147 1.71875 11.6875C1.71875 13.2773 2.92428 14.5894 4.46875 14.761V17.875C4.46875 18.8227 5.23978 19.5938 6.1875 19.5938H6.53125V20.2812C6.53125 21.0396 7.14794 21.6562 7.90625 21.6562H14.0938C14.8521 21.6562 15.4688 21.0396 15.4688 20.2812V19.5938H15.8125C16.7602 19.5938 17.5312 18.8227 17.5312 17.875V14.7692C17.7856 14.8136 18.0716 14.7273 18.2603 14.5382L19.3923 13.4062H20.9688C21.3479 13.4062 21.6562 13.0979 21.6562 12.7188V10.6562C21.6562 10.2771 21.3479 9.96875 20.9688 9.96875V9.96875ZM12.9271 10.7387L12.5111 12.1935L11.5541 11.6194L12.4963 10.6772L12.9271 10.7387ZM14.4375 5.84375C14.4375 6.22291 14.1292 6.53125 13.75 6.53125V5.15625C14.1292 5.15625 14.4375 5.46459 14.4375 5.84375ZM19.5938 7.21875H16.2876L15.6228 8.54838C15.5884 8.61644 15.4688 8.58825 15.4688 8.51262V7.21875H13.75C14.2567 7.21875 14.6953 6.94031 14.9339 6.53125H18.9062V5.84375H15.125C15.125 5.59213 15.0521 5.35941 14.9339 5.15625H18.9062V4.46875H15.0446C15.0937 4.24291 15.1209 4.01225 15.1233 3.78125H19.5938V7.21875ZM4.125 7.21875C2.41897 7.21875 1.03125 5.83103 1.03125 4.125C1.03125 2.41897 2.41897 1.03125 4.125 1.03125C5.368 1.03125 6.49928 1.79506 6.97641 2.93734C6.91247 3.19722 6.875 3.46741 6.875 3.74653C6.875 4.18997 6.9685 4.63203 7.13728 5.04213C7.06853 5.137 7.0125 5.24081 6.96987 5.35184L6.96678 5.35047C6.47659 6.48553 5.36112 7.21875 4.125 7.21875V7.21875ZM7.5625 5.84375C7.5625 5.46459 7.87084 5.15625 8.25 5.15625H8.25344C8.25309 5.17069 8.25 5.18409 8.25 5.19853V6.53125C7.87084 6.53125 7.5625 6.22291 7.5625 5.84375ZM8.41775 4.46875H8.25C8.05406 4.46875 7.86809 4.51138 7.69931 4.58563C7.61131 4.31475 7.5625 4.03116 7.5625 3.74653C7.5625 2.2495 8.78075 1.03125 10.2778 1.03125H11.7219C13.2192 1.03125 14.4375 2.2495 14.4375 3.74653C14.4375 4.03081 14.3887 4.31475 14.3007 4.58563C14.1319 4.51138 13.9459 4.46875 13.75 4.46875H11C10.6208 4.46875 10.3125 4.16041 10.3125 3.78125C10.3125 3.40209 10.6208 3.09375 11 3.09375V2.40625C10.3359 2.40625 9.78072 2.87925 9.65284 3.50591L9.55213 3.531C9.03788 3.65991 8.63225 4.01328 8.41775 4.46875ZM8.9375 6.875V5.19853C8.9375 4.73172 9.24997 4.32678 9.69856 4.20475C9.87834 4.75509 10.3905 5.15625 11 5.15625H13.0625V6.875C13.0625 8.01247 12.1375 8.9375 11 8.9375C9.86253 8.9375 8.9375 8.01247 8.9375 6.875ZM11 9.625C11.2788 9.625 11.5476 9.58272 11.8013 9.50503L11.9914 10.2101L11 11.2014L10.0086 10.2101L10.1987 9.50503C10.4524 9.58272 10.7212 9.625 11 9.625V9.625ZM9.50331 10.6772L10.4455 11.6194L9.48853 12.1935L9.07259 10.7387L9.50331 10.6772ZM7.94647 10.8996L8.38578 10.8367L9.07362 13.244L11 12.0883L12.9264 13.244L13.6142 10.8367L14.0535 10.8996C14.4612 10.9577 14.849 11.0911 15.2065 11.2953C15.2979 11.3475 15.3825 11.4108 15.4688 11.4716V12.7188C15.4688 13.0979 15.7771 13.4062 16.1562 13.4062H16.8438V15.4688H15.4688V15.125C15.4688 14.5564 15.0061 14.0938 14.4375 14.0938H7.5625C6.99394 14.0938 6.53125 14.5564 6.53125 15.125V15.4688H5.15625V14.761C6.70072 14.5894 7.90625 13.2773 7.90625 11.6875C7.90625 11.4259 7.87016 11.1729 7.80862 10.9299C7.85503 10.9213 7.90006 10.9062 7.94647 10.8996V10.8996ZM14.7812 19.5938H7.21875V15.125C7.21875 14.9353 7.37275 14.7812 7.5625 14.7812H14.4375C14.6272 14.7812 14.7812 14.9353 14.7812 15.125V19.5938ZM2.40625 11.6875C2.40625 10.361 3.48597 9.28125 4.8125 9.28125C6.13903 9.28125 7.21875 10.361 7.21875 11.6875C7.21875 13.014 6.13903 14.0938 4.8125 14.0938C3.48597 14.0938 2.40625 13.014 2.40625 11.6875ZM6.1875 18.9062C5.61894 18.9062 5.15625 18.4436 5.15625 17.875V16.1562H6.53125V16.8438H5.84375V17.5312H6.53125V18.9062H6.1875ZM14.0938 20.9688H7.90625C7.52709 20.9688 7.21875 20.6604 7.21875 20.2812H14.7812C14.7812 20.6604 14.4729 20.9688 14.0938 20.9688ZM15.8125 18.9062H15.4688V17.5312H16.1562V16.8438H15.4688V16.1562H16.8438V17.875C16.8438 18.4436 16.3811 18.9062 15.8125 18.9062ZM20.9688 12.7188H19.1077L17.7743 14.0522C17.6921 14.134 17.5312 14.0676 17.5312 13.9514V12.7188H16.1562V10.6562H20.9688V12.7188Z" fill="black"/>
</svg>
