<svg width="22" height="22" viewBox="0 0 22 22" fill="none" xmlns="http://www.w3.org/2000/svg">
<path d="M13.9335 3.66675H13.2002V5.86675H13.9335V3.66675Z" fill="#BA9BC9"/>
<path d="M19.0668 3.66675H18.3335V5.86675H19.0668V3.66675Z" fill="#BA9BC9"/>
<path d="M22 5.8667H0V20.5334H22V5.8667Z" fill="#838BC5"/>
<path d="M22 19.0667H0V20.5333H22V19.0667Z" fill="#BA9BC9"/>
<path d="M3.66673 20.5334V22.0001H0.733398V20.5334" fill="#8F6C56"/>
<path d="M21.2668 20.5334V22.0001H18.3335V20.5334" fill="#8F6C56"/>
<path d="M20.5334 7.33325H11.7334V19.0666H20.5334V7.33325Z" fill="#65C8D0"/>
<path d="M10.2665 7.33325H3.6665V19.0666H10.2665V7.33325Z" fill="#F4ECCE"/>
<path d="M3.6668 11.3666H1.4668V9.8999H3.6668" fill="#FCDD7C"/>
<path d="M3.6668 16.1334H1.4668V14.6667H3.6668" fill="#FCDD7C"/>
<path d="M22 18.7H0V19.4333H22V18.7Z" fill="#8F6C56"/>
<path d="M14.2998 11.3704L15.3998 11.737L15.0331 13.937L17.2331 11.3704L16.1331 11.0037L17.9665 8.80005H15.7665L14.2998 11.3704Z" fill="#FCDD7C"/>
<path d="M19.4335 15.7666H12.8335V16.4999H19.4335V15.7666Z" fill="#F4ECCE"/>
<path d="M19.4335 17.2334H12.8335V17.9667H19.4335V17.2334Z" fill="#F4ECCE"/>
<path d="M8.79997 8.80005H5.1333V11H8.79997V8.80005Z" fill="#65C8D0"/>
<path d="M9.1666 15.7666H4.7666V16.4999H9.1666V15.7666Z" fill="#65C8D0"/>
<path d="M9.1666 14.3H4.7666V15.0334H9.1666V14.3Z" fill="#65C8D0"/>
<path d="M6.23327 17.2334H4.7666V17.9667H6.23327V17.2334Z" fill="#65C8D0"/>
<path d="M9.16686 17.2334H7.7002V17.9667H9.16686V17.2334Z" fill="#65C8D0"/>
<path d="M19.4335 1.83325H12.8335V4.03325H19.4335V1.83325Z" fill="#FCDD7C"/>
<path d="M21.2664 3.3H19.4331V2.56667H20.8998V0H21.6331V2.93333C21.6331 3.03058 21.5945 3.12384 21.5257 3.19261C21.4569 3.26137 21.3637 3.3 21.2664 3.3Z" fill="#BA9BC9"/>
</svg>
