<svg width="22" height="22" viewBox="0 0 22 22" fill="none" xmlns="http://www.w3.org/2000/svg">
<path fill-rule="evenodd" clip-rule="evenodd" d="M15.0526 18.5791C14.7448 18.8103 14.3621 18.9474 13.9474 18.9474C12.93 18.9474 12.1053 18.1226 12.1053 17.1053C12.1053 16.0879 12.93 15.2632 13.9474 15.2632C14.3621 15.2632 14.7448 15.4002 15.0526 15.6314V15.2632H15.7895V18.9474H15.0526V18.5791ZM9.84211 16.7368L10.6316 18.9474H11.3684L9.15789 13.0526H8.42105L6.21053 18.9474H6.94737L7.73684 16.7368H9.84211ZM9.57895 16L8.78947 13.7895L8 16H9.57895ZM12.8421 2H5.47997C4.66261 2 4 2.66193 4 3.47909V20.4157C4 21.2325 4.65647 21.8947 5.47178 21.8947H16.5282C17.3411 21.8947 18 21.2383 18 20.423V7.89474H14.3202C13.5038 7.89474 12.8421 7.24137 12.8421 6.42245V2ZM13.5789 2V6.41889C13.5789 6.82703 13.9112 7.15789 14.309 7.15789H18L13.5789 2ZM13.9474 18.2105C14.5578 18.2105 15.0526 17.7157 15.0526 17.1053C15.0526 16.4948 14.5578 16 13.9474 16C13.3369 16 12.8421 16.4948 12.8421 17.1053C12.8421 17.7157 13.3369 18.2105 13.9474 18.2105Z" fill="#157EFB"/>
</svg>
