<svg width="22" height="22" viewBox="0 0 22 22" fill="none" xmlns="http://www.w3.org/2000/svg">
<g clip-path="url(#clip0)">
<rect width="22" height="22" fill="url(#paint0_linear)"/>
<g clip-path="url(#clip1)">
<path fill-rule="evenodd" clip-rule="evenodd" d="M1.33964 8.84478L2.07078 10.6478L0.365942 11.5853L0.128894 11.1542L1.45055 10.4274L0.883741 9.02965L1.33964 8.84478Z" fill="white"/>
<path fill-rule="evenodd" clip-rule="evenodd" d="M1.62207 11.6626L3.01276 12.1567L2.84806 12.6203L1.45737 12.1262L1.62207 11.6626Z" fill="white"/>
</g>
<g clip-path="url(#clip2)">
<path fill-rule="evenodd" clip-rule="evenodd" d="M21.5902 9.09882C21.6811 8.8428 21.9624 8.70899 22.2184 8.79996L23.8409 9.37642C24.0969 9.46739 24.2307 9.74867 24.1398 10.0047L23.5633 11.6272C23.4723 11.8832 23.1911 12.017 22.935 11.926L21.3126 11.3496C21.0566 11.2586 20.9228 10.9773 21.0137 10.7213L21.5902 9.09882ZM23.6762 9.83999L22.0537 9.26352L21.4773 10.886L23.0997 11.4625L23.6762 9.83999Z" fill="white"/>
<path fill-rule="evenodd" clip-rule="evenodd" d="M24.377 9.33332L22.5228 8.67451L22.6875 8.21094L24.5418 8.86975C24.9258 9.0062 25.1265 9.42813 24.99 9.81216L24.3399 11.642L23.8763 11.4773L24.5265 9.64745C24.572 9.51944 24.5051 9.3788 24.377 9.33332Z" fill="white"/>
</g>
<g clip-path="url(#clip3)">
<path fill-rule="evenodd" clip-rule="evenodd" d="M-0.774749 2.9798C-0.865713 3.23581 -1.147 3.36962 -1.40302 3.27866L-3.25727 2.61984C-3.51329 2.52887 -3.64709 2.24759 -3.55613 1.99157L-2.73261 -0.326246C-2.64164 -0.582264 -2.36036 -0.716068 -2.10434 -0.625105L-0.617644 -0.0968808L-0.0818213 1.02954L-0.774749 2.9798ZM-1.23831 2.81509L-0.661848 1.19262L-1.35719 0.945564L-1.11014 0.250219L-2.26905 -0.161541L-3.09257 2.15628L-1.23831 2.81509Z" fill="white"/>
</g>
<g clip-path="url(#clip4)">
<path fill-rule="evenodd" clip-rule="evenodd" d="M20.6817 -0.0997873L18.8275 -0.758605L18.9922 -1.22217L20.8464 -0.563351C21.1025 -0.472387 21.2363 -0.191102 21.1453 0.064917L20.3218 2.38273C20.2308 2.63875 19.9495 2.77256 19.6935 2.68159L17.8393 2.02277L18.004 1.55921L19.8582 2.21803L20.6817 -0.0997873Z" fill="white"/>
<path fill-rule="evenodd" clip-rule="evenodd" d="M18.7689 -0.423893L19.0196 -0.000597273L18.3694 0.384418L18.6309 1.09333L18.1693 1.26356L17.766 0.170021L18.7689 -0.423893Z" fill="white"/>
<path fill-rule="evenodd" clip-rule="evenodd" d="M18.0338 0.00326168L19.4245 0.497374L19.2598 0.960938L17.8691 0.466825L18.0338 0.00326168Z" fill="white"/>
</g>
<g clip-path="url(#clip5)">
<path fill-rule="evenodd" clip-rule="evenodd" d="M14.2666 13.5449L15.6573 14.039L15.4926 14.5026L14.1019 14.0085L14.2666 13.5449Z" fill="white"/>
<path fill-rule="evenodd" clip-rule="evenodd" d="M12.9805 15.6978L14.3712 16.1919L14.2065 16.6554L12.8158 16.1613L12.9805 15.6978Z" fill="white"/>
<path fill-rule="evenodd" clip-rule="evenodd" d="M15.0058 13.8127C15.1224 13.8824 15.1605 14.0334 15.0908 14.15L13.8037 16.3031C13.734 16.4197 13.5829 16.4578 13.4663 16.3881C13.3497 16.3184 13.3117 16.1673 13.3814 16.0507L14.6685 13.8976C14.7382 13.781 14.8892 13.743 15.0058 13.8127Z" fill="white"/>
</g>
<g clip-path="url(#clip6)">
<path fill-rule="evenodd" clip-rule="evenodd" d="M3.16622 4.37942L3.86157 4.62648L3.69686 5.09004L3.00152 4.84298C2.7455 4.75202 2.6117 4.47073 2.70266 4.21472L3.52618 1.8969C3.61714 1.64088 3.89843 1.50708 4.15445 1.59804L5.64115 2.12626L6.17697 3.25268L5.8958 4.04403L5.43224 3.87933L5.59694 3.41577L4.9016 3.16871L5.14865 2.47336L3.98974 2.0616L3.16622 4.37942Z" fill="white"/>
<path fill-rule="evenodd" clip-rule="evenodd" d="M5.4838 5.20328L4.09311 4.70917L4.25781 4.24561L5.6485 4.73972L5.4838 5.20328Z" fill="white"/>
<path fill-rule="evenodd" clip-rule="evenodd" d="M4.39291 5.3378L4.88702 3.94711L5.35059 4.11182L4.85647 5.50251L4.39291 5.3378Z" fill="white"/>
</g>
<g clip-path="url(#clip7)">
<path fill-rule="evenodd" clip-rule="evenodd" d="M9.42404 6.60354L9.8876 6.76825L9.7229 7.23181L9.25933 7.0671C9.00331 6.97614 8.86951 6.69486 8.96047 6.43884L9.78399 4.12102C9.87496 3.865 10.1562 3.7312 10.4123 3.82216L11.899 4.35039L12.4348 5.4768L12.1948 6.15226L11.7312 5.98756L11.8548 5.63989L11.1594 5.39283L11.4065 4.69749L10.2476 4.28572L9.42404 6.60354Z" fill="white"/>
<path fill-rule="evenodd" clip-rule="evenodd" d="M10.2231 6.82633L10.6464 6.57566L11.0314 7.22579L11.7403 6.96433L11.9105 7.42589L10.817 7.82922L10.2231 6.82633Z" fill="white"/>
<path fill-rule="evenodd" clip-rule="evenodd" d="M10.6497 7.56046L11.1439 6.16977L11.6074 6.33447L11.1133 7.72516L10.6497 7.56046Z" fill="white"/>
</g>
<g clip-path="url(#clip8)">
<path fill-rule="evenodd" clip-rule="evenodd" d="M13.8986 0.622646L13.3009 -0.633889L13.7451 -0.845215L14.3428 0.41132L13.8986 0.622646Z" fill="white"/>
</g>
<g clip-path="url(#clip9)">
<path fill-rule="evenodd" clip-rule="evenodd" d="M8.23993 11.404L7.25171 14.1853L6.78814 14.0206L7.77637 11.2393L8.23993 11.404Z" fill="white"/>
<path fill-rule="evenodd" clip-rule="evenodd" d="M8.65532 12.0736L7.84408 11.7853L8.00879 11.3218L8.82002 11.61C9.26806 11.7692 9.50221 12.2614 9.34303 12.7095C9.18384 13.1575 8.69159 13.3917 8.24356 13.2325L7.54822 12.9854L7.71292 12.5219L8.40826 12.7689C8.60028 12.8371 8.81124 12.7368 8.87947 12.5448C8.94769 12.3528 8.84733 12.1418 8.65532 12.0736Z" fill="white"/>
<path fill-rule="evenodd" clip-rule="evenodd" d="M8.47533 13.3144L7.20053 12.8615L7.36523 12.3979L8.64003 12.8509C9.08807 13.0101 9.32222 13.5023 9.16304 13.9504C9.00385 14.3984 8.5116 14.6325 8.06357 14.4734L7.05366 14.1145L7.21837 13.651L8.22827 14.0098C8.42029 14.078 8.63125 13.9777 8.69947 13.7856C8.7677 13.5936 8.66734 13.3827 8.47533 13.3144Z" fill="white"/>
</g>
<g clip-path="url(#clip10)">
<path fill-rule="evenodd" clip-rule="evenodd" d="M20.0602 15.6032L19.072 18.3846L18.6085 18.2199L19.5967 15.4385L20.0602 15.6032Z" fill="white"/>
<path fill-rule="evenodd" clip-rule="evenodd" d="M21.2204 16.0148L20.2322 18.7962L19.7686 18.6315L20.7568 15.8501L21.2204 16.0148Z" fill="white"/>
<path fill-rule="evenodd" clip-rule="evenodd" d="M20.7262 17.4056C20.6808 17.5336 20.5401 17.6005 20.4121 17.555L19.485 17.2256C19.357 17.1801 19.2901 17.0395 19.3356 16.9115C19.381 16.7835 19.5217 16.7166 19.6497 16.7621L20.5768 17.0915C20.7048 17.137 20.7717 17.2776 20.7262 17.4056Z" fill="white"/>
<path fill-rule="evenodd" clip-rule="evenodd" d="M21.1211 17.0239L22.0482 17.3533L21.3894 19.2076L20.9258 19.0429L21.42 17.6522L20.9564 17.4875L21.1211 17.0239Z" fill="white"/>
</g>
<g clip-path="url(#clip11)">
<path fill-rule="evenodd" clip-rule="evenodd" d="M-1.26529 16.1185L-1.49707 16.0361L-1.66177 16.4997L-1.42999 16.582L-0.864089 16.7831L-1.02587 19.1454L-1.03862 19.3315L-0.862824 19.394L0.0643031 19.7234L0.296085 19.8057L0.460789 19.3422L0.229007 19.2598L-0.522322 18.9929L-0.360537 16.6306L-0.34779 16.4445L-0.523587 16.382L-1.26529 16.1185ZM0.357183 16.6949L0.125401 16.6126L-0.0393028 17.0762L0.192479 17.1585L0.887824 17.4056L1.11961 17.4879L1.28431 17.0244L1.05253 16.942L0.357183 16.6949Z" fill="white"/>
</g>
<g clip-path="url(#clip12)">
<path fill-rule="evenodd" clip-rule="evenodd" d="M4.37015 18.6236C4.50335 18.2487 4.91523 18.0528 5.29012 18.186L5.34233 18.2046C5.72636 18.341 5.92707 18.7629 5.79062 19.147L5.72003 19.3456L6.6115 19.6624L6.4468 20.1259L5.55533 19.8092L5.21416 20.7694L4.75059 20.6047L5.09177 19.6445L4.80777 19.5436C4.43288 19.4104 4.23696 18.9985 4.37015 18.6236ZM5.25647 19.1809L5.32706 18.9822C5.37254 18.8542 5.30564 18.7136 5.17763 18.6681L5.12541 18.6496C5.00655 18.6073 4.87595 18.6695 4.83372 18.7883C4.79148 18.9072 4.85361 19.0378 4.97247 19.08L5.25647 19.1809Z" fill="white"/>
<path fill-rule="evenodd" clip-rule="evenodd" d="M7.61527 19.7769C7.74847 19.402 7.55254 18.9902 7.17766 18.857L7.1611 18.8511C6.77707 18.7146 6.35514 18.9153 6.2187 19.2994L5.64223 20.9218L6.1058 21.0866L6.44697 20.1263L6.69531 20.2145C7.07019 20.3477 7.48207 20.1518 7.61527 19.7769ZM6.61167 19.6628L6.68226 19.4641C6.72774 19.3361 6.86839 19.2692 6.9964 19.3147L7.01295 19.3205C7.13182 19.3628 7.19394 19.4934 7.15171 19.6122C7.10947 19.7311 6.97888 19.7932 6.86001 19.751L6.61167 19.6628Z" fill="white"/>
<path fill-rule="evenodd" clip-rule="evenodd" d="M6.95018 21.6479C6.81374 22.0319 6.39181 22.2327 6.00778 22.0962L5.97212 22.0835C5.58809 21.9471 5.38739 21.5252 5.52383 21.1411L5.60618 20.9094L4.71472 20.5926L4.87942 20.1291L6.50189 20.7055C6.88592 20.842 7.08663 21.2639 6.95018 21.6479ZM6.06975 21.0741L5.9874 21.3058C5.94191 21.4338 6.00882 21.5745 6.13683 21.62L6.17248 21.6326C6.30049 21.6781 6.44114 21.6112 6.48662 21.4832C6.5321 21.3552 6.4652 21.2146 6.33719 21.1691L6.06975 21.0741Z" fill="white"/>
<path fill-rule="evenodd" clip-rule="evenodd" d="M3.70604 20.4951C3.5696 20.8791 3.7703 21.301 4.15433 21.4375C4.53836 21.5739 4.96029 21.3732 5.09673 20.9892L5.34379 20.2939L4.64844 20.0468C4.26441 19.9104 3.84249 20.1111 3.70604 20.4951ZM4.31903 20.9739C4.19102 20.9284 4.12412 20.7878 4.1696 20.6598C4.21509 20.5318 4.35573 20.4649 4.48374 20.5104L4.71552 20.5927L4.63317 20.8245C4.58769 20.9525 4.44704 21.0194 4.31903 20.9739Z" fill="white"/>
</g>
<path fill-rule="evenodd" clip-rule="evenodd" d="M13.4861 21.62L13.5685 21.3882L13.1049 21.2235L13.0225 21.4553L12.4461 23.0778L11.1514 22.6178L11.5575 22.4246L11.7797 22.3189L11.5683 21.8747L11.3462 21.9803L10.4038 22.4286L10.1817 22.5343L10.2873 22.7564L10.7356 23.6988L10.8413 23.9209L11.2855 23.7096L11.1799 23.4875L10.9867 23.0813L12.5132 23.6237L12.7449 23.706L12.8273 23.4743L13.4861 21.62Z" fill="white"/>
<g clip-path="url(#clip13)">
<path fill-rule="evenodd" clip-rule="evenodd" d="M17.5655 7.93L16.1748 7.43588L15.6807 8.82657L17.0714 9.32069L17.5655 7.93ZM15.876 6.80762L15.2172 8.66187C15.1262 8.91789 15.26 9.19917 15.516 9.29014L16.9067 9.78425C17.1627 9.87521 17.444 9.74141 17.535 9.48539L18.1938 7.63114L15.876 6.80762Z" fill="white"/>
<path fill-rule="evenodd" clip-rule="evenodd" d="M17.7318 7.46625L16.3412 6.97214L16.5059 6.50857L17.8966 7.00269L17.7318 7.46625ZM15.7129 7.271L16.0423 6.34387C16.1333 6.08785 16.4145 5.95405 16.6706 6.04501L18.0613 6.53912C18.3173 6.63009 18.4511 6.91137 18.3601 7.16739L18.0307 8.09452L15.7129 7.271Z" fill="white"/>
<path d="M15.4131 6.64258L18.658 7.79551L18.4933 8.25907L15.2484 7.10614L15.4131 6.64258Z" fill="white"/>
<path d="M17.1865 7.53369L16.5277 9.38794L16.0641 9.22324L16.723 7.36899L17.1865 7.53369Z" fill="white"/>
</g>
</g>
<defs>
<linearGradient id="paint0_linear" x1="0" y1="11" x2="22" y2="11" gradientUnits="userSpaceOnUse">
<stop stop-color="#EC008C"/>
<stop offset="1" stop-color="#FC6767"/>
</linearGradient>
<clipPath id="clip0">
<rect width="22" height="22" fill="white"/>
</clipPath>
<clipPath id="clip1">
<rect width="4.91954" height="4.91954" fill="white" transform="translate(0.457031 7.59424) rotate(19.5601)"/>
</clipPath>
<clipPath id="clip2">
<rect width="4.91954" height="4.91954" fill="white" transform="translate(21.5527 6.99707) rotate(19.5601)"/>
</clipPath>
<clipPath id="clip3">
<rect width="4.91954" height="4.91954" fill="white" transform="translate(-3.24707 -1.81494) rotate(19.5601)"/>
</clipPath>
<clipPath id="clip4">
<rect width="4.91954" height="4.91954" fill="white" transform="translate(17.8467 -2.41162) rotate(19.5601)"/>
</clipPath>
<clipPath id="clip5">
<rect width="4.91954" height="4.91954" fill="white" transform="translate(12.7422 11.959) rotate(19.5601)"/>
</clipPath>
<clipPath id="clip6">
<rect width="4.91954" height="4.91954" fill="white" transform="translate(3.00977 0.40918) rotate(19.5601)"/>
</clipPath>
<clipPath id="clip7">
<rect width="4.91954" height="4.91954" fill="white" transform="translate(9.26855 2.63232) rotate(19.5601)"/>
</clipPath>
<clipPath id="clip8">
<rect width="4.91954" height="4.91954" fill="white" transform="translate(11.8223 -4.55225) rotate(19.5601)"/>
</clipPath>
<clipPath id="clip9">
<rect width="4.91954" height="4.91954" fill="white" transform="translate(6.71484 9.81787) rotate(19.5601)"/>
</clipPath>
<clipPath id="clip10">
<rect width="4.91954" height="4.91954" fill="white" transform="translate(19 14.1821) rotate(19.5601)"/>
</clipPath>
<clipPath id="clip11">
<rect width="4.91954" height="4.91954" fill="white" transform="translate(-2.0957 14.7793) rotate(19.5601)"/>
</clipPath>
<clipPath id="clip12">
<rect width="4.91954" height="4.91954" fill="white" transform="translate(4.16406 17.0024) rotate(19.5601)"/>
</clipPath>
<clipPath id="clip13">
<rect width="4.91954" height="4.91954" fill="white" transform="translate(15.2939 4.77295) rotate(19.5601)"/>
</clipPath>
</defs>
</svg>
