<svg width="22" height="22" viewBox="0 0 22 22" fill="none" xmlns="http://www.w3.org/2000/svg">
<g clip-path="url(#clip0)">
<path d="M14.761 21.5657H7.38379C7.28879 21.5657 7.21191 21.4888 7.21191 21.3938V19.6782C7.21191 19.2986 7.51958 18.9907 7.89941 18.9907H14.2454C14.625 18.9907 14.9329 19.2986 14.9329 19.6782V21.3938C14.9329 21.4888 14.8558 21.5657 14.761 21.5657Z" fill="#2EC8E3"/>
<path d="M9.56598 18.999L6.35742 14.9022L11.0759 5.26245L15.7943 14.9022L12.5771 18.9958L9.56598 18.999Z" fill="#EFEFEF"/>
<path d="M21.4312 12.2097H19.2012C19.1067 12.2097 19.0293 12.1323 19.0293 12.0378V9.80664C19.0293 9.71198 19.1067 9.63477 19.2012 9.63477H21.4312C21.526 9.63477 21.6031 9.71164 21.6031 9.80664V12.0378C21.6031 12.1323 21.5257 12.2097 21.4312 12.2097Z" fill="#2EC8E3"/>
<path d="M12.1874 3.01488H9.95752C9.86302 3.01488 9.78564 2.9375 9.78564 2.843V0.611816C9.78564 0.517319 9.86302 0.439941 9.95752 0.439941H12.1874C12.282 0.439941 12.3592 0.517319 12.3592 0.611816V2.843C12.3592 2.9375 12.282 3.01488 12.1874 3.01488Z" fill="#FF5691"/>
<path d="M19.6425 2.80703C19.1913 2.52286 18.9592 1.97182 19.0681 1.44999C19.1786 0.921606 19.6232 0.513571 20.1571 0.441901C20.6904 0.370062 21.2244 0.647849 21.4697 1.12722C21.7142 1.60541 21.6348 2.20127 21.2679 2.5947C20.9037 2.98495 20.3134 3.11033 19.8223 2.90102C19.76 2.8745 19.6997 2.84295 19.6425 2.80703V2.80703Z" fill="#2EC8E3"/>
<path d="M1.75954 3.00413C1.05173 3.00413 0.472656 2.42506 0.472656 1.71742V1.71591C0.472656 1.00827 1.05173 0.429199 1.75954 0.429199C2.46718 0.429199 3.04625 1.00827 3.04625 1.71591V1.71742C3.04625 2.42506 2.46718 3.00413 1.75954 3.00413Z" fill="#2EC8E3"/>
<path d="M2.91148 12.2314H0.681641C0.587143 12.2314 0.509766 12.154 0.509766 12.0595V9.82812C0.509766 9.73363 0.587143 9.65625 0.681641 9.65625H2.91148C3.00649 9.65625 3.08336 9.73329 3.08336 9.82812V12.0595C3.08336 12.154 3.00615 12.2314 2.91148 12.2314Z" fill="#2EC8E3"/>
<path d="M10.1518 16.0378C9.65731 15.531 9.66687 14.7118 10.1733 14.2171C10.4975 13.9002 10.9501 13.7903 11.3633 13.8853C11.5954 13.9385 11.8151 14.0565 11.9931 14.2386C12.4875 14.7453 12.4778 15.5646 11.9714 16.0594C11.465 16.5541 10.6463 16.5443 10.1518 16.0378V16.0378Z" fill="white"/>
<path d="M12.3008 13.9389C12.0816 13.714 11.8062 13.5552 11.5024 13.4775V10.418C11.5024 10.181 11.31 9.98877 11.0727 9.98877C10.8352 9.98877 10.643 10.181 10.643 10.418V13.4766C10.3573 13.5496 10.0918 13.6968 9.87308 13.91C9.19632 14.5713 9.1834 15.6603 9.84421 16.3371C10.1635 16.6645 10.5928 16.8478 11.052 16.8529C11.0594 16.8534 11.0663 16.8534 11.0732 16.8534C11.5252 16.8534 11.95 16.6808 12.2719 16.3663C12.9487 15.7048 12.9616 14.616 12.3008 13.9389V13.9389ZM11.6712 15.7525C11.5084 15.9112 11.2927 15.998 11.0624 15.995C10.9473 15.9937 10.8364 15.9702 10.7346 15.9263C10.6322 15.8829 10.5391 15.8194 10.4595 15.7379C10.1287 15.3993 10.1356 14.8546 10.4738 14.5238C10.6353 14.3659 10.8493 14.2808 11.0707 14.2808C11.136 14.2808 11.2016 14.2882 11.2674 14.3031C11.4268 14.34 11.5717 14.4211 11.6855 14.5379C12.0163 14.877 12.0099 15.4216 11.6712 15.7525V15.7525Z" fill="black"/>
<path d="M16.177 14.7084L11.4587 5.06898C11.3865 4.92162 11.2369 4.82812 11.0728 4.82812C10.9086 4.82812 10.7588 4.92162 10.6866 5.06898L5.96841 14.7084C5.89623 14.8561 5.9147 15.032 6.01608 15.1613L8.68266 18.5667H7.90267C7.28701 18.5667 6.78565 19.0671 6.78565 19.6826V21.3991C6.78565 21.7305 7.05538 22 7.38722 22H14.7647C15.0964 22 15.3663 21.7305 15.3663 21.3991V19.6826C15.3663 19.0671 14.8648 18.5667 14.2491 18.5667H13.4534L16.129 15.1621C16.2307 15.0325 16.2497 14.8565 16.177 14.7084V14.7084ZM14.2491 19.4251C14.3913 19.4251 14.5069 19.5406 14.5069 19.6826V21.1416H7.64486V19.6826C7.64486 19.5406 7.76101 19.4251 7.90267 19.4251H14.2491ZM12.361 18.5667H9.774L6.85867 14.844L11.073 6.23451L15.2868 14.8437L12.361 18.5667Z" fill="black"/>
<path d="M21.4313 9.20572H20.7653C20.7044 8.49455 20.4869 6.99753 19.7153 5.48607C19.1151 4.3098 18.1009 2.99438 16.4028 2.157H18.6691C18.7765 2.56268 19.0316 2.92993 19.4142 3.17029C19.9232 3.49071 20.5775 3.51588 21.1128 3.24246C21.5636 3.01201 21.8953 2.5798 22.0035 2.08549C22.1022 1.63499 22.0117 1.15277 21.7575 0.768066C21.4612 0.31958 20.956 0.0298767 20.4185 0.00285339C19.871 -0.0246735 19.3291 0.215179 18.9866 0.644028C18.9459 0.695221 18.9079 0.748764 18.8732 0.804321C18.7747 0.960922 18.7052 1.12743 18.6625 1.29779H12.7894V0.611633C12.7894 0.280304 12.519 0.0107422 12.1879 0.0107422H9.95767C9.62601 0.0107422 9.35611 0.280304 9.35611 0.611633V1.31978H3.43011C3.25102 0.563965 2.5699 0 1.75954 0C0.813049 0 0.0429688 0.769073 0.0429688 1.71455V1.71892C0.0429688 2.66423 0.813049 3.4333 1.75954 3.4333C2.54707 3.4333 3.21225 2.90123 3.41333 2.17798H5.73364C4.03117 3.01537 3.01385 4.33078 2.41179 5.50705C1.63785 7.01901 1.42049 8.51604 1.35905 9.22704H0.681961C0.350128 9.22704 0.0803986 9.4966 0.0803986 9.82793V12.0596C0.0803986 12.3909 0.350128 12.6605 0.681961 12.6605H2.91147C3.2433 12.6605 3.51303 12.3909 3.51303 12.0596V9.82793C3.51303 9.4966 3.2433 9.22704 2.91147 9.22704H2.22279C2.28725 8.56236 2.49689 7.22681 3.177 5.89813C3.73006 4.81703 4.48318 3.95732 5.41557 3.34283C6.48946 2.63469 7.81326 2.24663 9.35628 2.18671V2.84332C9.35628 3.17465 9.62601 3.44405 9.95784 3.44405H12.1879C12.5192 3.44405 12.7894 3.17465 12.7894 2.84332V2.16556C14.3198 2.22514 15.6348 2.61018 16.7021 3.31195C17.631 3.92174 18.3826 4.77625 18.936 5.85046C19.6218 7.18216 19.8344 8.53484 19.9001 9.20572H19.2015C18.8697 9.20572 18.5999 9.47511 18.5999 9.80644V12.0381C18.5999 12.3695 18.8697 12.639 19.2015 12.639H21.4315C21.7632 12.639 22.0331 12.3695 22.0331 12.0381V9.80644C22.0329 9.47511 21.7632 9.20572 21.4313 9.20572V9.20572ZM19.6015 1.26003C19.8126 0.923492 20.2473 0.77327 20.6213 0.9104C20.9392 1.02705 21.1614 1.32767 21.1823 1.66487C21.2037 2.01181 21.0062 2.34666 20.6901 2.49303C20.3405 2.65483 19.9153 2.56319 19.6684 2.2661C19.4338 1.98395 19.4063 1.57071 19.6015 1.26003C19.7225 1.06683 19.3497 1.66084 19.6015 1.26003V1.26003ZM2.61673 1.71892C2.61673 2.1909 2.23219 2.5751 1.75954 2.5751C1.28688 2.5751 0.902344 2.1909 0.902344 1.71892V1.71455C0.902344 1.2424 1.28688 0.858368 1.75954 0.858368C2.23219 0.858368 2.61673 1.2424 2.61673 1.71455V1.71892ZM2.65366 10.0854V11.8021H0.939774V10.0854H2.65366ZM11.93 2.58568H10.2155V0.86911H11.93V2.58568ZM21.1737 11.7807H19.4591V10.0639H21.1737V11.7807Z" fill="black"/>
<path d="M11.0736 9.13058C10.8362 9.13058 10.6436 8.9384 10.6436 8.7014C10.6436 8.4644 10.8357 8.27222 11.0731 8.27222H11.0736C11.3107 8.27222 11.5033 8.4644 11.5033 8.7014C11.5033 8.9384 11.3109 9.13058 11.0736 9.13058Z" fill="black"/>
</g>
<defs>
<clipPath id="clip0">
<rect width="22" height="22" fill="white"/>
</clipPath>
</defs>
</svg>
