<svg width="22" height="22" viewBox="0 0 22 22" fill="none" xmlns="http://www.w3.org/2000/svg">
<path d="M0 0V21.9999L8.95349 13.0465L11.7674 15.8604L16.3721 11.2558L22 16.372V0H0Z" fill="#EFF3F6"/>
<path d="M5.62805 8.1858C6.75831 8.1858 7.67457 7.26954 7.67457 6.13928C7.67457 5.00903 6.75831 4.09277 5.62805 4.09277C4.4978 4.09277 3.58154 5.00903 3.58154 6.13928C3.58154 7.26954 4.4978 8.1858 5.62805 8.1858Z" fill="#FCD884"/>
<path d="M22.0001 16.3721V22H17.6513V21.7442L11.7676 15.8605L16.3722 11.2559L22.0001 16.3721Z" fill="#70993F"/>
<path d="M17.6512 21.7441V21.9999H0L8.95349 13.0464L11.7674 15.8603L17.6512 21.7441Z" fill="#80AF52"/>
</svg>
