<svg width="20" height="22" viewBox="0 0 20 22" fill="none" xmlns="http://www.w3.org/2000/svg">
<g clip-path="url(#clip0)">
<path d="M1.85498 19.776L-0.00146484 0.00244141L19.9983 0.00998846L18.1574 19.7609L9.9828 21.9949L1.85498 19.776ZM16.652 18.6968L18.2042 1.76093H10.014L10.0764 20.4402L16.652 18.6968V18.6968ZM9.24958 4.24395H7.26053L7.23713 14.3798L3.37602 13.3609L3.38382 15.6779L9.24958 17.21V4.24395V4.24395Z" fill="#D4B830"/>
<path opacity="0.986" d="M3.38475 15.6764L3.37695 13.3594C3.37695 13.3594 5.84182 14.0311 7.23806 14.3783L7.26146 4.25H9.25051V17.2085L3.38475 15.6764V15.6764Z" fill="#EBEBEB" fill-opacity="0.9216"/>
<path d="M10.0151 1.75195H18.2054L16.6531 18.6878L10.0151 20.4312V1.75195ZM16.2319 15.8501L16.7701 9.51799L12.792 9.94818V6.56705L17.0353 6.55195L17.2069 4.24252L10.803 4.27271L10.8888 12.6803L14.7577 12.0387L14.7031 13.9104L10.803 14.9142L10.842 17.2086L16.2319 15.8501Z" fill="#FDD83C"/>
</g>
<defs>
<clipPath id="clip0">
<rect width="20" height="22" fill="white"/>
</clipPath>
</defs>
</svg>
