<svg width="22" height="22" viewBox="0 0 22 22" fill="none" xmlns="http://www.w3.org/2000/svg">
<g clip-path="url(#clip0)">
<path d="M15.8125 21.9688H12.7188V17.8438H18.2188H18.2222C18.2462 18.0706 18.3803 18.27 18.5866 18.3731L18.9062 18.5312V18.875V21.9688H15.8125Z" fill="#969FAA"/>
<path d="M12.7188 13.6569L11.8044 14.1553C11.5019 14.3203 11.165 14.4062 10.8212 14.4062C10.2747 14.4062 9.75219 14.1897 9.36719 13.8047L6.53125 10.9688L7.90625 9.59375L10.6562 12.3438C10.6562 12.3438 11.6875 11.3125 12.7188 10.9688C13.1313 10.8312 13.5438 10.7487 13.8875 10.7006L14.4375 13.7188L15.8125 12L17.1875 13.7188L17.7306 10.735C17.7375 10.7384 17.7409 10.7384 17.7478 10.7384L18.7206 10.8588C19.2878 10.9309 19.8138 11.1887 20.2159 11.5909C20.6972 12.0722 20.9688 12.7253 20.9688 13.4059V16.8125H18.9062L18.4147 17.3041C18.2875 17.4313 18.2188 17.5997 18.2188 17.775C18.2188 17.7991 18.2187 17.8231 18.2222 17.8438H18.2188H12.7188V13.6569Z" fill="#B4DD7F"/>
<path d="M17.7306 10.7349L17.1875 13.7186L15.8125 11.9999L17.0259 10.3018C17.1875 10.5321 17.4384 10.6936 17.7306 10.7349Z" fill="#A0D468"/>
<path d="M14.585 10.2847L15.8122 12L14.4372 13.7187L13.8872 10.7006C13.8941 10.6972 13.8975 10.6972 13.9044 10.6972C14.1863 10.6559 14.4269 10.5012 14.585 10.2847V10.2847Z" fill="#A0D468"/>
<path d="M13.4062 5.8125V7.1875C13.4062 7.30438 13.4131 7.42125 13.4338 7.53125H13.4303L12.7703 7.05344C12.3063 6.70625 12.0312 6.15969 12.0312 5.57875C12.0312 4.86375 12.3887 4.20031 12.98 3.805L13.0625 3.75C13.4784 2.71188 14.4822 2.03125 15.6028 2.03125H16.0222C16.5825 2.03125 17.1119 2.20312 17.5553 2.50219C17.9987 2.80125 18.3562 3.23094 18.5625 3.75L18.645 3.805C18.9406 4.00437 19.1778 4.26563 19.3394 4.57156C19.5044 4.8775 19.5938 5.22125 19.5938 5.57875C19.5938 6.15969 19.3187 6.70625 18.8547 7.05344L18.1947 7.53125H18.1912C18.2119 7.42125 18.2188 7.30438 18.2188 7.1875V5.8125L18.1088 5.77469C17.5038 5.57531 16.9538 5.235 16.5 4.78125C16.0531 5.11813 15.5581 5.3725 15.0356 5.54781C14.5131 5.72312 13.9631 5.8125 13.4062 5.8125V5.8125Z" fill="#B27946"/>
<path d="M6.53109 16.8125C6.53109 17.3144 6.37641 17.7784 6.11172 18.1669L5.56172 18.0569C5.49297 18.0362 5.43109 18.0122 5.36922 17.9778C5.10109 17.8437 4.90859 17.5928 4.83984 17.3006V17.2972C5.14234 17.115 5.36578 16.8194 5.45516 16.4687H5.84359C6.03266 16.4687 6.20453 16.3931 6.32828 16.2659C6.45547 16.1422 6.53109 15.9703 6.53109 15.7812V16.8125Z" fill="#656D78"/>
<path d="M3.15219 17.0978C3.23125 17.1734 3.31719 17.2422 3.41 17.2972V17.3006C3.34125 17.5928 3.14875 17.8437 2.88063 17.9812C2.81875 18.0122 2.75687 18.0362 2.68812 18.0569L2.13812 18.1669C1.87344 17.7784 1.71875 17.3144 1.71875 16.8125V15.7812C1.71875 15.9703 1.79438 16.1422 1.92156 16.2659C2.04531 16.3931 2.21719 16.4687 2.40625 16.4687H2.79469C2.85656 16.7094 2.98375 16.9259 3.15219 17.0978V17.0978Z" fill="#656D78"/>
<path d="M6.53125 14.75V15.7812C6.53125 15.4031 6.22188 15.0938 5.84375 15.0938H5.5V14.75C5.04625 14.75 4.60281 14.6434 4.19719 14.4441L4.125 14.4062L4.05281 14.4441C3.64719 14.6434 3.20375 14.75 2.75 14.75V15.0938H2.40625C2.02812 15.0938 1.71875 15.4031 1.71875 15.7812V14.75C1.71875 13.4197 2.79469 12.3438 4.125 12.3438C5.45531 12.3438 6.53125 13.4197 6.53125 14.75Z" fill="#656D78"/>
<path d="M2.88063 17.981L3.23813 19.5622L3.78125 21.9685H0.34375V19.655C0.34375 19.0019 0.804375 18.4381 1.44719 18.3075L2.13812 18.1666L2.68812 18.0566C2.75687 18.036 2.81875 18.0119 2.88063 17.981V17.981Z" fill="#FF826E"/>
<path d="M6.11188 18.1666L6.80281 18.3075C7.44563 18.4382 7.90625 19.0019 7.90625 19.655V21.9685H4.46875L5.01187 19.5622L5.36938 17.9775C5.43125 18.0119 5.49313 18.036 5.56188 18.0566L6.11188 18.1666Z" fill="#FF826E"/>
<path d="M5.01203 19.5625L4.46891 21.9688H3.78141L3.23828 19.5625H5.01203Z" fill="#FFEAA7"/>
<path d="M4.83974 17.3008C4.90849 17.593 5.10099 17.8439 5.36911 17.978L5.01161 19.5627H3.23787L2.88037 17.9814C3.1485 17.8439 3.34099 17.593 3.40974 17.3008V17.2974C3.61943 17.428 3.86349 17.5002 4.12474 17.5002C4.38599 17.5002 4.63005 17.428 4.83974 17.2974V17.3008Z" fill="#F0D0B4"/>
<path d="M6.5315 15.7812C6.5315 15.9703 6.45588 16.1422 6.32869 16.2659C6.20494 16.3931 6.03307 16.4688 5.844 16.4688H5.45557C5.4865 16.3588 5.50025 16.2453 5.50025 16.125V15.0938H5.844C6.22213 15.0938 6.5315 15.4031 6.5315 15.7812Z" fill="#F0D0B4"/>
<path d="M2.75 15.0938V16.125C2.75 16.2453 2.76375 16.3588 2.79469 16.4688H2.40625C2.21719 16.4688 2.04531 16.3931 1.92156 16.2659C1.79438 16.1422 1.71875 15.9703 1.71875 15.7812C1.71875 15.4031 2.02812 15.0938 2.40625 15.0938H2.75Z" fill="#F0D0B4"/>
<path d="M5.5 15.0938V16.125C5.5 16.2453 5.48625 16.3588 5.45531 16.4688C5.36594 16.8194 5.1425 17.115 4.84 17.2972C4.63031 17.4278 4.38625 17.5 4.125 17.5C3.86375 17.5 3.61969 17.4278 3.41 17.2972C3.31719 17.2422 3.23125 17.1734 3.15219 17.0978C2.98375 16.9259 2.85656 16.7094 2.79469 16.4688C2.76375 16.3588 2.75 16.2453 2.75 16.125V15.0938V14.75C3.20375 14.75 3.64719 14.6434 4.05281 14.4441L4.125 14.4062L4.19719 14.4441C4.60281 14.6434 5.04625 14.75 5.5 14.75V15.0938Z" fill="#F0D0B4"/>
<path d="M20.9688 16.8125V18.875C20.9688 19.2531 20.6594 19.5625 20.2812 19.5625H19.5938C19.2156 19.5625 18.9062 19.2531 18.9062 18.875V18.5312L18.5866 18.3731C18.3803 18.27 18.2462 18.0706 18.2222 17.8438C18.2187 17.8231 18.2188 17.7991 18.2188 17.775C18.2188 17.5997 18.2875 17.4313 18.4147 17.3041L18.9062 16.8125H20.9688Z" fill="#F0D0B4"/>
<path d="M7.90625 9.59375L6.53125 10.9688H4.8125C4.43437 10.9688 4.125 10.6594 4.125 10.2812V9.59375C4.125 9.21562 4.43437 8.90625 4.8125 8.90625H5.15625L5.225 8.77219C5.39344 8.43188 5.74062 8.21875 6.11875 8.21875C6.38344 8.21875 6.63781 8.32531 6.82344 8.51094L7.90625 9.59375Z" fill="#F0D0B4"/>
<path d="M16.8439 9.3633V9.71393C16.8439 9.93049 16.9126 10.1333 17.0261 10.3017L15.8126 11.9999L14.5854 10.2846C14.7092 10.1161 14.7814 9.90299 14.7814 9.67955V9.3633V9.35986L15.8126 9.59361C16.1804 9.59361 16.5311 9.51111 16.8439 9.35986V9.3633Z" fill="#F0D0B4"/>
<path d="M18.2188 5.8125V7.1875C18.2188 7.30438 18.2119 7.42125 18.1912 7.53125C18.0778 8.3425 17.5587 9.02312 16.8438 9.36C16.5309 9.51125 16.1803 9.59375 15.8125 9.59375L14.7812 9.36C14.5303 9.24312 14.3034 9.08156 14.1109 8.88906C13.75 8.52813 13.5059 8.06062 13.4338 7.53125C13.4131 7.42125 13.4062 7.30438 13.4062 7.1875V5.8125C13.9631 5.8125 14.5131 5.72312 15.0356 5.54781C15.5581 5.3725 16.0531 5.11813 16.5 4.78125C16.9538 5.235 17.5038 5.57531 18.1088 5.77469L18.2188 5.8125Z" fill="#F0D0B4"/>
<path d="M7.90625 2.375V4.49594C7.90625 5.03219 7.46969 5.46875 6.93344 5.46875H6.53125V6.35906C6.53125 6.62719 6.31469 6.84375 6.04656 6.84375C5.91594 6.84375 5.79219 6.79219 5.70281 6.70281L4.46875 5.46875H2.00406C1.46781 5.46875 1.03125 5.03219 1.03125 4.49594V2.375C1.03125 1.80438 1.49188 1.34375 2.0625 1.34375H6.875C7.44562 1.34375 7.90625 1.80438 7.90625 2.375Z" fill="#E6E9ED"/>
<path d="M20.4597 11.3486C20.0042 10.8931 19.4013 10.5982 18.7622 10.5184L17.7897 10.3968C17.4463 10.3538 17.1875 10.0606 17.1875 9.71475V9.56556C17.8585 9.17609 18.3514 8.513 18.5085 7.72856L19.0623 7.32844C19.6102 6.91731 19.9375 6.26281 19.9375 5.57772C19.9375 4.74997 19.5271 3.98134 18.8392 3.52141C18.3466 2.40353 17.2532 1.6875 16.0239 1.6875H15.6014C14.3722 1.6875 13.2787 2.40353 12.7861 3.52141C12.0979 3.98134 11.6875 4.74997 11.6875 5.57772C11.6875 6.26281 12.0148 6.91731 12.5678 7.33222L13.1165 7.72856C13.2736 8.513 13.7665 9.17609 14.4375 9.56556V9.67831C14.4375 10.0186 14.1883 10.3105 13.8576 10.3569C13.4093 10.4201 12.9896 10.5164 12.6098 10.6429C11.8181 10.9069 11.0488 11.526 10.6648 11.8666L7.90625 9.10769L7.06681 8.26825C6.81313 8.01456 6.47625 7.875 6.11737 7.875C5.62616 7.875 5.18272 8.13694 4.94519 8.5625H4.8125C4.24394 8.5625 3.78125 9.02519 3.78125 9.59375V10.2812C3.78125 10.8498 4.24394 11.3125 4.8125 11.3125H6.38894L9.12416 14.0477C9.57687 14.5004 10.1791 14.75 10.8199 14.75C11.22 14.75 11.617 14.6489 11.968 14.4571L12.375 14.2354V22.3125H19.25V19.843C19.3579 19.8815 19.4728 19.9062 19.5938 19.9062H20.2812C20.8498 19.9062 21.3125 19.4436 21.3125 18.875V13.4073C21.3125 12.6298 21.0097 11.8986 20.4597 11.3486ZM17.0734 10.8261C17.1548 10.8849 17.2432 10.9337 17.337 10.9739L16.984 12.9144L16.2432 11.9883L17.0734 10.8261ZM12.375 5.57772C12.375 4.97891 12.6723 4.42341 13.1704 4.091L13.342 3.97653L13.3818 3.87753C13.7469 2.96488 14.618 2.375 15.6011 2.375H16.0236C17.0067 2.375 17.8781 2.96487 18.2432 3.87787L18.283 3.97687L18.4546 4.09134C18.9527 4.42306 19.25 4.97891 19.25 5.57772C19.25 6.04763 19.0255 6.49656 18.6546 6.77466L18.5625 6.84134V5.56466L18.2188 5.45019C17.6657 5.26559 17.1555 4.95038 16.7434 4.53822L16.5327 4.3275L16.2938 4.50625C15.466 5.12672 14.4406 5.46875 13.4062 5.46875H13.0625V6.84134L12.9755 6.77844C12.5995 6.49656 12.375 6.04763 12.375 5.57772V5.57772ZM13.75 7.1875V6.14525C14.7177 6.08338 15.664 5.763 16.4701 5.22366C16.8819 5.58425 17.3611 5.86922 17.875 6.05828V7.1875C17.875 8.32497 16.95 9.25 15.8125 9.25C14.675 9.25 13.75 8.32497 13.75 7.1875ZM15.8125 9.9375C16.0545 9.9375 16.2882 9.90278 16.512 9.844C16.5265 9.99525 16.5639 10.1389 16.6238 10.2727L15.8125 11.4084L14.9906 10.2579C15.0514 10.1283 15.092 9.98941 15.1099 9.84297C15.3347 9.90278 15.5691 9.9375 15.8125 9.9375V9.9375ZM15.3818 11.9883L14.6407 12.9147L14.2818 10.9419C14.3715 10.9041 14.4557 10.8577 14.5344 10.8024L15.3818 11.9883ZM4.46875 10.2812V9.59375C4.46875 9.40434 4.62309 9.25 4.8125 9.25H5.36869L5.53128 8.92481C5.643 8.70138 5.86747 8.5625 6.11737 8.5625C6.28959 8.5625 6.45872 8.63263 6.58075 8.75431L7.42019 9.59375L6.38894 10.625H4.8125C4.62309 10.625 4.46875 10.4707 4.46875 10.2812V10.2812ZM11.639 13.8535C11.3884 13.9903 11.1052 14.0625 10.8199 14.0625C10.3627 14.0625 9.933 13.8844 9.60987 13.5613L7.01731 10.9688L7.90625 10.0798L10.3737 12.5472L10.6923 13.1849L11.3073 12.8772L11.0784 12.419C11.4046 12.1258 12.1261 11.528 12.8274 11.2946C13.069 11.2142 13.3354 11.1523 13.6118 11.0997L14.2343 14.5228L15.8125 12.5503L17.3907 14.5231L18.0097 11.1172L18.677 11.2004C19.1651 11.2616 19.6257 11.4868 19.9736 11.8347C20.3937 12.2547 20.625 12.8133 20.625 13.4073V16.4688H19.25V13.5173C19.25 13.299 19.3387 13.0849 19.493 12.9305L19.007 12.4445C18.7203 12.7308 18.5625 13.112 18.5625 13.5173V16.6702L18.1706 17.0621C18.0472 17.1855 17.964 17.3367 17.9176 17.5H13.0625V13.5173C13.0625 13.112 12.9047 12.7308 12.618 12.4445L12.132 12.9305C12.2715 13.0701 12.3537 13.2592 12.3688 13.4558L11.639 13.8535ZM18.5625 21.625H16.1562V20.6494C16.1562 20.1476 16.4763 19.7038 16.9524 19.545L16.7348 18.8929C16.3525 19.0204 16.0346 19.2634 15.8122 19.5756C15.5901 19.2638 15.2718 19.0204 14.8895 18.8929L14.6719 19.545C15.1487 19.7038 15.4688 20.1476 15.4688 20.6494V21.625H13.0625V18.1875H17.962C18.0551 18.3972 18.2188 18.5718 18.4333 18.6791L18.5625 18.7437V18.875V21.625ZM20.2812 19.2188H19.5938C19.4043 19.2188 19.25 19.0644 19.25 18.875V18.5312V18.3188L18.7406 18.0641C18.6309 18.0091 18.5625 17.8988 18.5625 17.776C18.5625 17.6901 18.5962 17.609 18.6567 17.5481L19.0486 17.1562H20.625V18.875C20.625 19.0644 20.4707 19.2188 20.2812 19.2188Z" fill="black"/>
<path d="M6.87156 17.9716L6.63506 17.9242C6.78975 17.5756 6.875 17.1999 6.875 16.8125V14.75C6.875 13.2337 5.64128 12 4.125 12C2.60872 12 1.375 13.2337 1.375 14.75V16.8125C1.375 17.1996 1.46025 17.5753 1.61494 17.9238L1.37844 17.9716C0.579906 18.1328 0 18.8413 0 19.6563V22.3125H8.25V19.6563C8.25 18.8413 7.67009 18.1328 6.87156 17.9716V17.9716ZM5.65469 17.7269C5.48213 17.6777 5.3405 17.5622 5.2525 17.4117C5.44088 17.2463 5.59591 17.0449 5.698 16.8125H5.84375C5.96475 16.8125 6.07956 16.7878 6.1875 16.7493V16.8125C6.1875 17.1552 6.09916 17.4859 5.93897 17.7839L5.65469 17.7269ZM5.15625 16.125C5.15625 16.6936 4.69356 17.1562 4.125 17.1562C3.55644 17.1562 3.09375 16.6936 3.09375 16.125V15.0752C3.45022 15.037 3.80016 14.9401 4.125 14.7888C4.44984 14.9397 4.79978 15.037 5.15625 15.0752V16.125ZM4.73687 19.2188H3.51278L3.26838 18.1366C3.40038 18.0304 3.51038 17.8991 3.59563 17.7516C3.76372 17.8066 3.93937 17.8438 4.125 17.8438C4.31097 17.8438 4.48663 17.8066 4.65472 17.7516C4.73928 17.897 4.84928 18.0266 4.98231 18.1332L4.73687 19.2188ZM4.58184 19.9062L4.19375 21.625H4.05625L3.66816 19.9062H4.58184ZM5.84375 15.4375C6.03316 15.4375 6.1875 15.5918 6.1875 15.7812C6.1875 15.9707 6.03316 16.125 5.84375 16.125V15.4375ZM4.125 12.6875C5.26247 12.6875 6.1875 13.6125 6.1875 14.75V14.8132C6.07956 14.7747 5.96475 14.75 5.84375 14.75V14.4062H5.5C5.10331 14.4062 4.70594 14.3124 4.35119 14.135L4.125 14.0219L3.89881 14.135C3.54406 14.3124 3.14669 14.4062 2.75 14.4062H2.40625V14.75C2.28525 14.75 2.17044 14.7747 2.0625 14.8132V14.75C2.0625 13.6125 2.98753 12.6875 4.125 12.6875ZM2.40625 16.125C2.21684 16.125 2.0625 15.9707 2.0625 15.7812C2.0625 15.5918 2.21684 15.4375 2.40625 15.4375V16.125ZM2.0625 16.8125V16.7493C2.17044 16.7878 2.28525 16.8125 2.40625 16.8125H2.552C2.65409 17.0452 2.80947 17.2467 2.99784 17.412C2.91122 17.5619 2.77475 17.676 2.62144 17.7203L2.31069 17.7833C2.1505 17.4852 2.0625 17.1549 2.0625 16.8125ZM0.6875 19.6563C0.6875 19.1675 1.03538 18.7423 1.51456 18.6454L2.62763 18.4195L3.35122 21.625H0.6875V19.6563ZM7.5625 21.625H4.89878L5.62203 18.4206L6.73544 18.6454C7.21462 18.7423 7.5625 19.1675 7.5625 19.6563V21.625Z" fill="black"/>
<path d="M2.0625 2.375H6.875V3.0625H2.0625V2.375Z" fill="black"/>
<path d="M2.0625 3.75H5.5V4.4375H2.0625V3.75Z" fill="black"/>
<path d="M6.1875 3.75H6.875V4.4375H6.1875V3.75Z" fill="black"/>
<path d="M2.00544 5.8125H4.32644L5.45841 6.94447C5.61516 7.10122 5.82347 7.1875 6.04519 7.1875C6.50272 7.1875 6.875 6.81522 6.875 6.35769V5.8125H6.93206C7.65875 5.8125 8.25 5.22125 8.25 4.49456V2.375C8.25 1.61669 7.63331 1 6.875 1H2.0625C1.30419 1 0.6875 1.61669 0.6875 2.375V4.49456C0.6875 5.22125 1.27875 5.8125 2.00544 5.8125V5.8125ZM1.375 2.375C1.375 1.99584 1.68334 1.6875 2.0625 1.6875H6.875C7.25416 1.6875 7.5625 1.99584 7.5625 2.375V4.49456C7.5625 4.84209 7.27959 5.125 6.93206 5.125H6.1875V6.35769C6.1875 6.47388 6.02628 6.54022 5.94447 6.45841L4.61106 5.125H2.00544C1.65791 5.125 1.375 4.84209 1.375 4.49456V2.375Z" fill="black"/>
</g>
<defs>
<clipPath id="clip0">
<rect width="22" height="22" fill="white"/>
</clipPath>
</defs>
</svg>
