<svg width="22" height="22" viewBox="0 0 22 22" fill="none" xmlns="http://www.w3.org/2000/svg">
<g clip-path="url(#clip0)">
<path d="M14.9657 4.44853C14.8939 4.31537 14.7583 4.23291 14.6114 4.23291C13.8737 4.23291 9.42807 4.23291 8.67878 4.23291C7.93074 4.23291 3.48648 4.23291 2.74759 4.23291C2.59973 4.23291 2.46348 4.31584 2.39121 4.44977L0.503418 7.95009C0.653809 7.77911 0.869555 7.67118 1.11014 7.67118H3.59266H13.7647H16.2473C16.4878 7.67118 16.7036 7.77911 16.854 7.95009L14.9657 4.44853Z" fill="#F8A748"/>
<path d="M4.07416 4.44977C4.12117 4.31584 4.2099 4.23291 4.30615 4.23291C3.76277 4.23291 3.30073 4.23291 2.74755 4.23291C2.59969 4.23291 2.46344 4.31584 2.39116 4.44977L0.503418 7.95009C0.653809 7.77911 0.869555 7.67118 1.11014 7.67118H2.94318L4.07416 4.44977Z" fill="#F38D1A"/>
<path d="M17.0256 8.362C17.0256 7.91048 16.6596 7.54443 16.2081 7.54443H13.7406H3.63018H1.16278C0.711223 7.54443 0.345215 7.91048 0.345215 8.362C0.345215 8.93606 0.345215 20.403 0.345215 21.0333C0.345215 21.4848 0.711266 21.8509 1.16278 21.8509H16.2081C16.6596 21.8509 17.0256 21.4848 17.0256 21.0333C17.0256 20.4065 17.0256 8.93477 17.0256 8.362Z" fill="#FAC149"/>
<path d="M2.17852 21.0333C2.17852 20.4066 2.17852 8.93477 2.17852 8.362C2.17852 7.91048 2.54457 7.54443 2.99609 7.54443H1.16278C0.711223 7.54443 0.345215 7.91048 0.345215 8.362C0.345215 8.93606 0.345215 20.403 0.345215 21.0333C0.345215 21.4848 0.711266 21.8509 1.16278 21.8509H2.99617C2.54457 21.8509 2.17852 21.4848 2.17852 21.0333Z" fill="#F8A748"/>
<path d="M6.81641 4.23291V7.54159H10.5548V4.23295C10.1029 4.23291 7.27132 4.23291 6.81641 4.23291Z" fill="#DDDDDD"/>
<path d="M6.81641 4.23291V7.54159H8.68559V4.23295C8.03234 4.23291 7.46962 4.23291 6.81641 4.23291Z" fill="#CECCCA"/>
<path d="M21.6779 5.55516C21.6779 5.18705 21.2439 4.8906 21.1558 4.56073C21.0649 4.22038 21.2888 3.7451 21.1113 3.4383C20.9318 3.12798 20.4048 3.08334 20.1608 2.83936C19.9158 2.59448 19.8735 2.06919 19.5619 1.88885C19.255 1.71135 18.7793 1.93526 18.4394 1.84438C18.1096 1.75625 17.8126 1.32227 17.4449 1.32227C17.0767 1.32227 16.7803 1.75621 16.4504 1.84438C16.1104 1.93534 15.6351 1.7113 15.328 1.88885C15.0175 2.0685 14.9731 2.59534 14.7291 2.83932C14.4842 3.08424 13.9585 3.12717 13.7785 3.4383C13.601 3.7451 13.8249 4.22081 13.734 4.56073C13.6462 4.8894 13.2119 5.18812 13.2119 5.5552C13.2119 5.92336 13.6459 6.21976 13.734 6.54967C13.8248 6.88912 13.6013 7.36586 13.7785 7.67214C13.958 7.98246 14.4851 8.02711 14.7291 8.27109C14.9741 8.51601 15.0163 9.04126 15.328 9.2216C15.6354 9.39944 16.11 9.17498 16.4504 9.26607C16.7793 9.35394 17.0777 9.78818 17.4449 9.78818C17.8131 9.78818 18.1095 9.35424 18.4394 9.26607C18.7793 9.17506 19.255 9.39919 19.5619 9.2216C19.8724 9.04194 19.9167 8.51511 20.1608 8.27113C20.4056 8.02621 20.9313 7.98332 21.1113 7.67219C21.2888 7.36539 21.065 6.88968 21.1558 6.54976C21.2439 6.2198 21.6779 5.92293 21.6779 5.55516Z" fill="#48AEF9"/>
<path d="M19.871 8.80462C18.1247 9.17738 16.2634 8.41125 15.3224 6.78127C14.3813 5.15125 14.6485 3.15617 15.8446 1.83015C15.6734 1.81219 15.5038 1.80575 15.365 1.86947C15.3534 1.876 15.3418 1.88223 15.3303 1.88885C15.3178 1.89607 15.3056 1.90363 15.2931 1.91093C15.0126 2.10971 14.9649 2.60316 14.7292 2.8388C14.4941 3.07393 13.9976 3.12343 13.8002 3.40414C13.7865 3.42747 13.773 3.45098 13.7598 3.47452C13.6185 3.78188 13.8213 4.23434 13.7342 4.56021C13.6494 4.87724 13.2427 5.16594 13.2137 5.51575C13.2134 5.54016 13.2133 5.56457 13.2135 5.58901C13.2392 5.94132 13.649 6.23071 13.7342 6.54919C13.8208 6.87326 13.6209 7.32126 13.7573 7.62913C13.7652 7.64318 13.7729 7.65727 13.7809 7.67124C13.7887 7.68469 13.7968 7.69784 13.8047 7.71116C14.0056 7.98757 14.495 8.03639 14.7291 8.27057C14.9713 8.51261 15.0124 9.0141 15.3066 9.20746C15.3229 9.21695 15.3393 9.22623 15.3556 9.23556C15.6635 9.38552 16.1214 9.17751 16.4505 9.26559C16.7793 9.35346 17.0779 9.78771 17.445 9.78771C17.8132 9.78771 18.1096 9.35376 18.4395 9.26559C18.7794 9.17458 19.255 9.39871 19.562 9.22112C19.7076 9.13682 19.7951 8.97521 19.871 8.80462Z" fill="#3997EE"/>
<path d="M7.46334 11.584C8.0662 11.584 8.06619 12.0267 8.66909 12.0267C9.27203 12.0267 9.27203 11.584 9.87501 11.584C10.1374 11.584 10.2857 11.6678 10.4191 11.7625C10.4761 11.803 10.5548 11.7624 10.5548 11.6925V7.54199H6.81641V11.6717C6.81641 11.7402 6.89289 11.7801 6.94948 11.7416C7.07551 11.6558 7.22053 11.584 7.46334 11.584Z" fill="#EFEFEF"/>
<path d="M8.70321 7.54199H6.81641V11.6717C6.81641 11.7402 6.89289 11.7801 6.94948 11.7416C7.07551 11.6559 7.22053 11.5841 7.46334 11.5841C8.0662 11.5841 8.0662 12.0267 8.66909 12.0267C8.68082 12.0267 8.69195 12.0262 8.70321 12.0259V7.54199V7.54199Z" fill="#DDDDDD"/>
<path d="M14.5846 16.9951H10.0386C9.647 16.9951 9.32959 16.6777 9.32959 16.2861C9.32959 15.8946 9.647 15.5771 10.0386 15.5771H14.5845C14.9761 15.5771 15.2935 15.8946 15.2935 16.2861C15.2936 16.6777 14.9761 16.9951 14.5846 16.9951Z" fill="#F8A748"/>
<path d="M11.163 16.2861C11.163 15.8946 11.4804 15.5771 11.872 15.5771H10.0386C9.647 15.5771 9.32959 15.8946 9.32959 16.2861C9.32959 16.6777 9.647 16.9951 10.0386 16.9951H11.872C11.4804 16.9951 11.163 16.6777 11.163 16.2861Z" fill="#F38D1A"/>
<path d="M17.0047 6.97233C16.8584 6.97233 16.7182 6.91423 16.6147 6.81076L15.8525 6.04854C15.6371 5.83314 15.6371 5.48389 15.8525 5.26853C16.0679 5.05317 16.4171 5.05317 16.6325 5.26853L17.0047 5.64072L18.0805 4.56487C18.2959 4.34947 18.6451 4.34947 18.8605 4.56487C19.0759 4.78027 19.0759 5.12948 18.8605 5.34488L17.3947 6.81072C17.2913 6.91423 17.151 6.97233 17.0047 6.97233Z" fill="#EFEFEF"/>
<path d="M18.8605 4.56529C18.841 4.54578 18.8201 4.52868 18.7986 4.5127C18.798 4.63653 18.7505 4.7602 18.6561 4.85468L17.3617 6.14903C17.1717 6.33908 16.8631 6.33921 16.673 6.14903L15.9999 5.47597C15.9354 5.41143 15.8933 5.33323 15.8726 5.25068C15.8659 5.25674 15.8589 5.26241 15.8525 5.26886C15.6371 5.48426 15.6371 5.83347 15.8525 6.04887L16.6146 6.81109C16.8299 7.02637 17.1793 7.02645 17.3947 6.81109L18.8605 5.34526C19.0759 5.1299 19.0759 4.78065 18.8605 4.56529Z" fill="#DDDDDD"/>
<path d="M17.8544 4.33374L17.0032 5.18504L16.8576 5.0395C16.5163 4.6982 15.9608 4.6982 15.6194 5.0395C15.2773 5.38175 15.2773 5.93557 15.6194 6.27773L16.384 7.04241C16.7261 7.38448 17.28 7.38465 17.6223 7.04236L19.0927 5.57193C19.434 5.23058 19.434 4.67512 19.0927 4.33365C18.7512 3.99231 18.1958 3.99226 17.8544 4.33374ZM18.6369 5.1162L17.1664 6.58664C17.0762 6.67696 16.93 6.67696 16.8397 6.58668L16.0751 5.82201C15.985 5.73194 15.985 5.58538 16.0751 5.49531C16.1652 5.40525 16.3117 5.40521 16.4018 5.49531L16.7752 5.86871C16.901 5.99444 17.1051 5.99457 17.231 5.86867L18.3101 4.78951C18.4001 4.69936 18.5467 4.6994 18.6368 4.78946C18.727 4.87953 18.727 5.02609 18.6369 5.1162Z" fill="black"/>
<path d="M9.34619 18.731H15.2044C15.3824 18.731 15.5267 18.5867 15.5267 18.4087C15.5267 18.2307 15.3824 18.0864 15.2044 18.0864H9.34619C9.16817 18.0864 9.02393 18.2307 9.02393 18.4087C9.02393 18.5867 9.16817 18.731 9.34619 18.731Z" fill="black"/>
<path d="M9.34619 20.1914H15.2044C15.3824 20.1914 15.5267 20.0472 15.5267 19.8691C15.5267 19.6911 15.3824 19.5469 15.2044 19.5469H9.34619C9.16817 19.5469 9.02393 19.6911 9.02393 19.8691C9.02393 20.0471 9.16817 20.1914 9.34619 20.1914Z" fill="black"/>
<path d="M10.0511 17.3113H14.5711C15.1375 17.3113 15.5984 16.8505 15.5984 16.2841C15.5984 15.7177 15.1375 15.2568 14.5711 15.2568H10.0512C9.48477 15.2568 9.02393 15.7177 9.02393 16.2841C9.02393 16.8505 9.48472 17.3113 10.0511 17.3113ZM10.0511 15.9014H14.5711C14.7821 15.9014 14.9538 16.0731 14.9538 16.2841C14.9538 16.4951 14.7821 16.6668 14.5711 16.6668H10.0512C9.84016 16.6668 9.6685 16.4951 9.6685 16.2841C9.66846 16.0731 9.84012 15.9014 10.0511 15.9014Z" fill="black"/>
<path d="M22 5.5552C22 5.05866 21.5313 4.72359 21.4656 4.47789C21.3712 4.12473 21.8178 3.36049 20.9908 2.91757C20.834 2.83343 20.6386 2.89252 20.5546 3.04939C20.4705 3.20623 20.5296 3.40157 20.6864 3.48561C20.7632 3.52678 20.8123 3.56515 20.8322 3.59961C20.9241 3.75829 20.7381 4.25218 20.8429 4.64422C20.9455 5.02836 21.3555 5.35677 21.3555 5.55512C21.3555 5.7612 20.9487 6.07036 20.8429 6.46601C20.7396 6.85256 20.9233 7.35323 20.8322 7.51071C20.7355 7.67799 20.2207 7.75318 19.9317 8.04211C19.6478 8.32604 19.5641 8.84781 19.4003 8.94256C19.2418 9.03451 18.7476 8.84833 18.3557 8.95321C17.9716 9.05587 17.6432 9.46583 17.4448 9.46583C17.3399 9.46583 17.1628 9.32627 17.0683 9.25529C16.6368 8.93117 16.4737 8.87849 15.9038 8.94595C15.7448 8.96482 15.5646 8.98613 15.4892 8.94256C15.3261 8.84811 15.2423 8.32652 14.9579 8.04211C14.6379 7.7222 14.0856 7.68327 14.0406 7.45941L14.0406 7.45923C13.9958 7.23623 14.1448 6.83301 14.0467 6.46605H14.0467C13.9441 6.082 13.5341 5.75329 13.5341 5.55516C13.5341 5.29907 14.0986 4.97938 14.0799 4.31289C14.0717 4.03707 13.9917 3.71296 14.0574 3.59965C14.1541 3.43233 14.6689 3.35718 14.9578 3.06826C15.2417 2.78432 15.3254 2.26255 15.4892 2.1678C15.6481 2.07598 16.1417 2.26195 16.5338 2.15715C16.918 2.0545 17.2464 1.64453 17.4447 1.64453C17.651 1.64453 17.9592 2.05114 18.3556 2.15719C18.7423 2.26036 19.2427 2.0768 19.4003 2.1678C19.4315 2.18589 19.4657 2.22732 19.502 2.29091C19.5901 2.4456 19.7869 2.49944 19.9415 2.41139C20.0962 2.32327 20.1501 2.12651 20.062 1.97187C19.6194 1.19521 18.8691 1.62739 18.5221 1.53449C18.2763 1.46883 17.9413 1 17.4448 1C16.9482 1 16.6131 1.4687 16.3674 1.53449C16.1071 1.60401 15.5866 1.36704 15.1664 1.60994C14.7443 1.85418 14.6856 2.42914 14.5021 2.61253C14.3163 2.79846 13.7447 2.85311 13.4994 3.27696C13.383 3.47822 13.3771 3.6987 13.3946 3.90782C8.50816 3.90782 7.73016 3.90782 2.76852 3.90782C2.50516 3.90782 2.26162 4.05057 2.13293 4.28032L0.272551 7.60211C0.102781 7.80122 0 8.05908 0 8.34065V21.0319C0 21.6605 0.511457 22.172 1.14022 22.172H11.5854C11.7634 22.172 11.9077 22.0278 11.9077 21.8498C11.9077 21.6717 11.7634 21.5275 11.5854 21.5275H1.14022C0.866937 21.5275 0.644574 21.3052 0.644574 21.0319V8.34065C0.644574 8.06492 0.87218 7.84509 1.14022 7.84509H6.47367V8.83239C6.47367 9.01041 6.61792 9.15465 6.79594 9.15465C6.97396 9.15465 7.1182 9.01041 7.1182 8.83239V7.84509H10.2154V11.291C10.1139 11.261 9.99668 11.2426 9.85729 11.2426C9.15853 11.2426 9.08093 11.6853 8.6503 11.6853C8.21816 11.6853 8.14395 11.2426 7.44343 11.2426C7.31878 11.2426 7.21145 11.2581 7.1182 11.2826V10.3362C7.1182 10.1582 6.97396 10.014 6.79594 10.014C6.61792 10.014 6.47367 10.1582 6.47367 10.3362V11.6526C6.47367 11.9792 6.83972 12.1729 7.11017 11.989C7.19211 11.9333 7.27375 11.8872 7.44343 11.8872C7.87557 11.8872 7.94978 12.3298 8.6503 12.3298C9.34394 12.3298 9.42915 11.8872 9.85729 11.8872C10.0339 11.8872 10.1172 11.9365 10.2157 12.0064C10.4858 12.1979 10.8599 12.0046 10.8599 11.6734V7.84505H13.5062C13.7514 8.25227 14.3239 8.3199 14.502 8.49788C14.6881 8.68389 14.7433 9.25563 15.1664 9.50051C15.5846 9.74234 16.1094 9.50682 16.3674 9.57596C16.452 9.59856 16.5684 9.686 16.6809 9.77057C16.6836 9.77259 16.6863 9.77461 16.689 9.77663V21.0319C16.689 21.3051 16.4667 21.5275 16.1934 21.5275H13.0893C12.9113 21.5275 12.767 21.6717 12.767 21.8497C12.767 22.0277 12.9113 22.172 13.0893 22.172H16.1934C16.8221 22.172 17.3336 21.6605 17.3336 21.0318V10.1026C17.8933 10.1808 18.2577 9.64673 18.5221 9.57596C18.7831 9.5067 19.3035 9.74315 19.7231 9.50051C20.1452 9.25627 20.2039 8.68131 20.3874 8.49792C20.5732 8.31199 21.1448 8.25734 21.3901 7.83349C21.6329 7.41395 21.396 6.89252 21.4656 6.63252C21.5312 6.38682 22 6.05184 22 5.5552ZM6.47367 7.20048H1.2363L2.69534 4.59524C2.71017 4.56877 2.73823 4.55231 2.76856 4.55231H6.47371L6.47367 7.20048ZM10.2154 7.20048H7.1182V4.55231H10.2154V7.20048ZM13.3947 7.20048H10.86V4.55231H13.3928C13.2605 4.80338 12.8896 5.11258 12.8896 5.55525C12.8896 6.05179 13.3582 6.38661 13.424 6.63256C13.458 6.76005 13.4127 6.98623 13.3947 7.20048Z" fill="black"/>
</g>
<defs>
<clipPath id="clip0">
<rect width="22" height="22" fill="white"/>
</clipPath>
</defs>
</svg>
