<svg width="22" height="22" viewBox="0 0 22 22" fill="none" xmlns="http://www.w3.org/2000/svg">
<path d="M17.2074 2.54896V20.0885C17.2074 20.9407 16.5164 21.6375 15.6584 21.6375H4.34926C3.49704 21.6375 2.80029 20.9465 2.80029 20.0885V6.01542L7.82147 1H15.6584C16.5164 1 17.2074 1.69099 17.2074 2.54896Z" fill="#F1F2F1"/>
<path d="M2.80664 6.01542L7.82206 1V4.47797C7.82206 5.33019 7.13107 6.02118 6.27885 6.02118L2.80664 6.01542Z" fill="#D1D3D0"/>
<path d="M17.208 14.377V19.6342H7.58021L4.33257 18.7762H2.80664V15.2407H4.33257V15.2349L7.58021 14.377H17.208Z" fill="#D1D3D0"/>
<path d="M7.57959 13.7544H18.7563C19.4415 13.7544 20.0001 14.3129 20.0001 14.9982V17.7679C20.0001 18.4531 19.4415 19.0117 18.7563 19.0117H7.57959V13.7544Z" fill="#AD35E9"/>
<path d="M7.57967 19.0117L4.33203 18.1479V14.6124L7.57967 13.7544V19.0117Z" fill="#941DCF"/>
<path d="M4.33784 14.6182H2V18.1537H4.33784V14.6182Z" fill="#AD35E9"/>
<path d="M2 14.6176L2.80615 14.1396V14.6176H2Z" fill="#8E1CC4"/>
<path d="M2 18.1484L2.80615 18.6321V18.1484H2Z" fill="#8E1CC4"/>
<path d="M9.47998 18.1309V14.7681H10.5798C10.7122 14.7681 10.8332 14.7738 10.9368 14.7796C11.0289 14.7853 11.1211 14.8026 11.2132 14.8199C11.2881 14.8372 11.3629 14.866 11.432 14.9005C11.4954 14.9351 11.5587 14.9754 11.6105 15.0214C11.7372 15.1251 11.8409 15.2575 11.9042 15.4072C11.9733 15.5685 12.0078 15.7354 12.0078 15.914C12.0078 16.0809 11.9791 16.2479 11.91 16.4034C11.8524 16.5474 11.766 16.6798 11.6508 16.7892C11.5357 16.8986 11.4032 16.9735 11.2535 17.0138C11.0635 17.0598 10.8677 17.0829 10.6662 17.0771H10.2977V18.1309H9.47998ZM10.3034 16.3228H10.6489C11.0059 16.3228 11.1844 16.1903 11.1844 15.9255C11.1844 15.7815 11.1384 15.6836 11.052 15.6203C10.9656 15.5569 10.8159 15.5282 10.6144 15.5282H10.3034V16.3228Z" fill="white"/>
<path d="M12.3936 18.1309V14.7681H13.2515V16.0291H14.3514V14.7681H15.2093V18.1309H14.3514V16.7892H13.2515V18.1366L12.3936 18.1309Z" fill="white"/>
<path d="M15.7798 18.1309V14.7681H16.8796C17.012 14.7681 17.133 14.7738 17.2366 14.7796C17.3287 14.7853 17.4209 14.8026 17.513 14.8199C17.5879 14.8372 17.6627 14.866 17.7318 14.9005C17.7952 14.9351 17.8585 14.9754 17.9103 15.0214C18.037 15.1251 18.1407 15.2575 18.204 15.4072C18.2731 15.5685 18.3076 15.7412 18.3076 15.914C18.3076 16.0809 18.2789 16.2479 18.2098 16.4034C18.1522 16.5474 18.0658 16.6798 17.9506 16.7892C17.8355 16.8986 17.703 16.9735 17.5533 17.0138C17.3633 17.0598 17.1675 17.0829 16.966 17.0771H16.5975V18.1309H15.7798ZM16.6032 16.3228H16.9487C17.3057 16.3228 17.4842 16.1903 17.4842 15.9255C17.4842 15.7815 17.4382 15.6836 17.3518 15.6203C17.2654 15.5569 17.1157 15.5282 16.9142 15.5282H16.6032V16.3228Z" fill="white"/>
</svg>
