<svg width="18" height="18" viewBox="0 0 18 18" fill="none" xmlns="http://www.w3.org/2000/svg">
<path fill-rule="evenodd" clip-rule="evenodd" d="M17 9.00192C17 7.96052 15.6732 6.97414 13.638 6.36133C14.1081 4.32331 13.8984 2.70237 12.9792 2.18295C12.7669 2.06141 12.5195 2.00384 12.2487 2.00384V2.719C12.3984 2.719 12.5195 2.74842 12.6211 2.80216C13.0651 3.05163 13.2565 4.00347 13.1068 5.22782C13.0703 5.52847 13.0117 5.84575 12.9401 6.16942C12.3008 6.0159 11.6029 5.89692 10.8698 5.82016C10.4297 5.22782 9.97266 4.68921 9.51302 4.2184C10.5755 3.24609 11.5729 2.71516 12.2513 2.71516V2C11.3542 2 10.181 2.62816 8.99349 3.71818C7.80599 2.63456 6.63281 2.01279 5.73568 2.01279V2.72795C6.41016 2.72795 7.41146 3.25633 8.47526 4.22096C8.01823 4.69177 7.5625 5.22654 7.12891 5.82016C6.39193 5.89692 5.69401 6.0159 5.05469 6.17198C4.97917 5.85214 4.92448 5.54126 4.88542 5.24317C4.73177 4.01882 4.92188 3.06698 5.36198 2.81367C5.45964 2.7561 5.58724 2.73051 5.73698 2.73051V2.01663C5.46354 2.01663 5.21484 2.0742 5 2.19574C4.08333 2.71516 3.8776 4.33355 4.35156 6.36516C2.32031 6.97926 1 7.96308 1 9.00192C1 10.0433 2.32682 11.0297 4.36198 11.6425C3.89193 13.6805 4.10156 15.3015 5.02083 15.8209C5.23307 15.9424 5.48047 16 5.75521 16C6.65234 16 7.82552 15.3718 9.01302 14.2818C10.2005 15.3654 11.3737 15.9872 12.2708 15.9872C12.5443 15.9872 12.793 15.9296 13.0078 15.8081C13.9245 15.2887 14.1302 13.6703 13.6563 11.6387C15.6797 11.0271 17 10.0395 17 9.00192ZM10.487 9.00192C10.487 8.19337 9.82031 7.53706 8.99609 7.53706C8.17318 7.53706 7.50521 8.19209 7.50521 9.00192C7.50521 9.81175 8.17188 10.4668 8.99609 10.4668C9.82031 10.4655 10.487 9.81047 10.487 9.00192ZM12.7539 6.86411C12.6328 7.27735 12.4831 7.70337 12.3138 8.1294C12.1797 7.87353 12.0404 7.61638 11.8867 7.3605C11.737 7.10463 11.5768 6.85388 11.4167 6.6108C11.8802 6.67861 12.3268 6.76177 12.7539 6.86411ZM11.2604 10.2774C11.0065 10.7099 10.7448 11.1205 10.474 11.5018C9.98828 11.544 9.49609 11.5657 9 11.5657C8.50781 11.5657 8.01563 11.5427 7.53255 11.5043C7.26172 11.1231 6.9974 10.7163 6.74349 10.2864C6.49609 9.86676 6.27083 9.44074 6.0651 9.01087C6.26693 8.58101 6.49609 8.15243 6.73958 7.7328C6.99349 7.30037 7.25521 6.8897 7.52604 6.50845C8.01172 6.46623 8.50391 6.44449 9 6.44449C9.49219 6.44449 9.98438 6.46751 10.4674 6.50589C10.7383 6.88714 11.0026 7.29398 11.2565 7.72384C11.5039 8.14347 11.7292 8.5695 11.9349 8.99936C11.7292 9.42794 11.5052 9.85653 11.2604 10.2774ZM12.3138 9.86037C12.4896 10.2902 12.6393 10.7188 12.7643 11.1359C12.3372 11.2382 11.8867 11.3252 11.4206 11.3918C11.5807 11.1448 11.7396 10.8915 11.8906 10.6318C12.0391 10.3759 12.1797 10.1162 12.3138 9.86037ZM9.00651 13.2788C8.70313 12.9718 8.39974 12.6289 8.10026 12.254C8.39323 12.2668 8.69401 12.2771 8.9974 12.2771C9.30339 12.2771 9.60677 12.2707 9.90365 12.254C9.60938 12.6289 9.30599 12.9718 9.00651 13.2788ZM6.58073 11.3918C6.11719 11.324 5.67057 11.2408 5.24349 11.1384C5.36458 10.7252 5.51432 10.2992 5.68359 9.87316C5.81771 10.129 5.95703 10.3862 6.11068 10.6421C6.26432 10.8992 6.42057 11.1487 6.58073 11.3918ZM8.98958 4.72375C9.29297 5.0308 9.59635 5.37366 9.89583 5.74851C9.60287 5.73572 9.30208 5.72549 8.9987 5.72549C8.69271 5.72549 8.38932 5.73188 8.09245 5.74851C8.38672 5.37366 8.6901 5.0308 8.98958 4.72375ZM6.57682 6.6108C6.41667 6.85772 6.25781 7.11103 6.10677 7.37074C5.95703 7.62661 5.81641 7.88376 5.68229 8.13963C5.50651 7.70977 5.35677 7.28118 5.23177 6.86411C5.66016 6.76432 6.11068 6.67861 6.57682 6.6108ZM3.625 10.6229C2.47005 10.1393 1.72396 9.50471 1.72396 9.00192C1.72396 8.49913 2.47135 7.86073 3.625 7.38097C3.90495 7.26199 4.21224 7.15709 4.52865 7.0573C4.71484 7.68546 4.95964 8.33921 5.26302 9.00832C4.96354 9.67486 4.72135 10.3248 4.53906 10.9504C4.21615 10.8506 3.90885 10.7418 3.625 10.6229ZM5.38021 15.2017C4.9362 14.9522 4.74479 14.0004 4.89453 12.776C4.93099 12.4754 4.98958 12.1581 5.0612 11.8344C5.70052 11.9879 6.39844 12.1069 7.13151 12.1837C7.57162 12.776 8.02865 13.3146 8.48828 13.7854C7.42448 14.7565 6.42708 15.2887 5.7487 15.2887C5.60156 15.2848 5.47786 15.2567 5.38021 15.2017ZM13.1159 12.7607C13.2695 13.985 13.0794 14.9369 12.6393 15.1902C12.5417 15.2477 12.4141 15.2733 12.2643 15.2733C11.5898 15.2733 10.5885 14.745 9.52474 13.7803C9.98177 13.3095 10.4375 12.7747 10.8711 12.1811C11.6081 12.1044 12.306 11.9854 12.9453 11.828C13.0208 12.1517 13.0794 12.4626 13.1159 12.7607ZM14.3711 10.6229C14.0911 10.7418 13.7839 10.8468 13.4674 10.9465C13.2813 10.3184 13.0365 9.66463 12.7331 8.99552C13.0326 8.32898 13.2747 7.67906 13.457 7.05346C13.7799 7.15325 14.0859 7.26199 14.3737 7.37969C15.5286 7.86329 16.2747 8.49785 16.2747 9.00064C16.2721 9.50471 15.526 10.1418 14.3711 10.6229Z" fill="#00D8FF"/>
</svg>
