<svg width="16" height="16" viewBox="0 0 16 16" fill="none" xmlns="http://www.w3.org/2000/svg">
<path d="M8 16C12.4183 16 16 12.4183 16 8C16 3.58172 12.4183 0 8 0C3.58172 0 0 3.58172 0 8C0 12.4183 3.58172 16 8 16Z" fill="#FFD400"/>
<path d="M16 8C16 7.84375 15.995 7.68866 15.9862 7.53463L11.5227 3.07109L11.3125 3.6875L10.6472 3.65625L8.99137 2L2 8.99137L3.65625 10.6472L4.46884 12.9204L7.53463 15.9862C7.68866 15.995 7.84375 16 8 16C12.4183 16 16 12.4183 16 8Z" fill="#FF9F00"/>
<path d="M14 8.99137V7.00859L12.3734 6.68516C12.282 6.38984 12.1695 6.10859 12.0218 5.83437L12.9289 4.47734L11.5227 3.07109L10.1656 3.97816C9.89141 3.8305 9.61013 3.71797 9.31484 3.62659L8.99137 2H7.00859L6.68516 3.62659C6.38984 3.71797 6.10859 3.8305 5.83437 3.97816L4.47734 3.07109L3.07109 4.47734L3.97816 5.83437C3.8305 6.10859 3.71797 6.38988 3.62659 6.68516L2 7.00863V8.99141L3.62659 9.31484C3.71797 9.61016 3.8305 9.89141 3.97816 10.1656L3.07109 11.5227L4.47734 12.9289L5.83437 12.0218C6.10859 12.1695 6.38988 12.282 6.68516 12.3734L7.00863 14H8.99141L9.31484 12.3734C9.61016 12.282 9.89141 12.1695 10.1656 12.0218L11.5227 12.9289L12.9289 11.5227L12.0218 10.1656C12.1695 9.89141 12.282 9.61013 12.3734 9.31484L14 8.99137ZM8 10.4609C6.64297 10.4609 5.53906 9.35703 5.53906 8C5.53906 6.64297 6.64297 5.53906 8 5.53906C9.35703 5.53906 10.4609 6.64297 10.4609 8C10.4609 9.35703 9.35703 10.4609 8 10.4609Z" fill="#5A5A5A"/>
<path d="M12.3734 9.31484C12.282 9.61016 12.1695 9.89141 12.0218 10.1656L12.9289 11.5227L11.5227 12.9289L10.1656 12.0218C9.89141 12.1695 9.61013 12.282 9.31484 12.3734L8.99137 14H8V10.4609C9.35703 10.4609 10.4609 9.35703 10.4609 8C10.4609 6.64297 9.35703 5.53906 8 5.53906V2H8.99137L9.31481 3.62659C9.61013 3.71797 9.89138 3.8305 10.1656 3.97816L11.5226 3.07109L12.9289 4.47734L12.0218 5.83437C12.1695 6.10859 12.282 6.38988 12.3734 6.68516L14 7.00863V8.99141L12.3734 9.31484Z" fill="#444444"/>
</svg>
