<svg width="22" height="22" viewBox="0 0 22 22" fill="none" xmlns="http://www.w3.org/2000/svg">
<path d="M17.2476 11.6271C16.0451 9.54905 13.8425 8.88325 12.2343 8.39701C11.8319 8.27541 11.1929 8.08222 10.7665 7.89625C10.3082 7.69628 10.1392 7.26392 10.1993 6.84021H8.03966V11.3771L12.1274 14.1031C13.1171 14.5345 12.7623 16.0468 11.6602 16.2224L9.06966 18.6833L11.4475 21.6777C15.141 21.6777 18.146 18.6728 18.146 14.9793C18.146 13.8019 17.8354 12.6428 17.2476 11.6271V11.6271Z" fill="#9EA2E3"/>
<path d="M11.2381 5.77707C11.7755 5.6928 12.277 5.937 12.5407 6.39242C13.2929 7.69223 14.9563 8.13609 16.2561 7.38401C17.5559 6.63189 17.9999 4.96839 17.2477 3.66859C16.675 2.67898 15.8656 1.86975 14.9159 1.29474H10.2634V6.58595C10.4072 6.19361 10.7493 5.85372 11.2381 5.77707V5.77707Z" fill="#9EA2E3"/>
<path d="M10.1993 6.8402C10.2114 6.75439 10.233 6.66905 10.2634 6.58595C10.9069 4.20299 12.621 2.24318 14.9159 1.29473C13.8847 0.670398 12.6881 0.322266 11.4475 0.322266C7.754 0.322266 4.74907 3.3272 4.74907 7.02071C4.74907 8.19771 5.05956 9.35657 5.64699 10.3721C6.84947 12.4506 9.05217 13.1165 10.6606 13.6027C11.0627 13.7243 11.7009 13.9172 12.1273 14.1031C10.3463 12.1919 9.57824 9.48286 10.1993 6.8402V6.8402Z" fill="#8288CB"/>
<path d="M11.6602 16.2224C11.1218 16.3081 10.6187 16.0639 10.3545 15.6076C9.60256 14.3078 7.93937 13.8636 6.63909 14.6158C5.33933 15.368 4.89529 17.0315 5.6475 18.3313C6.84194 20.3954 9.06433 21.6777 11.4475 21.6777C10.3978 20.0168 10.6105 17.8833 11.6602 16.2224V16.2224Z" fill="#8288CB"/>
<path d="M6.66148 3.80271L5.8281 3.68093L5.45539 2.92146C5.16745 2.33472 4.33227 2.33141 4.04275 2.92146L3.67004 3.68093L2.83666 3.80271C2.19058 3.89715 1.93264 4.6956 2.4001 5.1539L3.00312 5.74507L2.86077 6.57982C2.75042 7.22693 3.42576 7.72043 4.0036 7.41488L4.74898 7.02077C5.4226 7.37694 5.2008 7.25968 5.49436 7.41488C6.0722 7.72043 6.74759 7.22693 6.6372 6.57982L6.49484 5.74507L7.09791 5.1539C7.56549 4.6956 7.30751 3.89711 6.66148 3.80271V3.80271Z" fill="#FFCE71"/>
<path d="M18.9755 17.7028C18.7659 17.5744 18.536 17.4759 18.2918 17.4131C18.229 17.1689 18.1304 16.9391 18.0021 16.7294C17.8459 16.4741 17.4801 16.4741 17.3239 16.7294C17.1956 16.9391 17.0971 17.1689 17.0342 17.4131C16.7901 17.476 16.5602 17.5744 16.3505 17.7028C16.0953 17.8589 16.0953 18.2247 16.3505 18.381C16.5602 18.5093 16.7901 18.6082 17.0343 18.6711C17.0972 18.9152 17.1956 19.1447 17.3239 19.3543C17.4801 19.6096 17.8459 19.6096 18.0021 19.3543C18.1304 19.1447 18.2288 18.9152 18.2917 18.6711C18.5358 18.6082 18.7659 18.5093 18.9755 18.381C19.2307 18.2247 19.2308 17.859 18.9755 17.7028V17.7028Z" fill="#FCE3A0"/>
<path d="M5.92645 18.1699C5.25326 17.0066 5.67539 15.5459 6.80048 14.8948C7.96429 14.2216 9.42466 14.6438 10.0756 15.769C10.4109 16.348 11.0468 16.6463 11.7109 16.5406C13.1196 16.3163 13.5486 14.3709 12.2561 13.8077C11.8124 13.6143 11.1755 13.4217 10.7539 13.2943C9.19702 12.8236 7.06474 12.1791 5.92602 10.2108C5.4584 9.40238 5.17596 8.49832 5.09583 7.5686L5.34388 7.69979C6.15629 8.12926 7.11123 7.4415 6.95508 6.52562L6.84104 5.85716L7.32371 5.38403C7.97718 4.74336 7.62471 3.6178 6.7081 3.48386H6.70814L6.19625 3.40905C7.39087 1.67226 9.33026 0.644531 11.4475 0.644531C12.612 0.644531 13.7577 0.967184 14.7609 1.57768C14.9129 1.67015 15.1112 1.62198 15.2038 1.46988C15.2963 1.31785 15.248 1.11959 15.096 1.02704C13.9918 0.355137 12.7302 0 11.4475 0C10.23 0 9.02965 0.318012 7.97619 0.91966C7.11991 1.40869 6.37294 2.07698 5.78925 2.87018L5.74474 2.77943C5.33894 1.95254 4.1607 1.94958 3.75344 2.77943L3.4555 3.38654L2.79008 3.48378C1.87292 3.6178 1.52147 4.74362 2.17456 5.38398L2.65714 5.85707L2.54318 6.52545C2.38721 7.43815 3.33918 8.1305 4.15434 7.6997L4.44717 7.54488C4.52589 8.59633 4.83973 9.62023 5.36803 10.5334C6.63436 12.7223 8.90754 13.4094 10.5674 13.9112C10.9497 14.0268 11.5896 14.2203 11.9986 14.3985C12.6887 14.6993 12.3954 15.7789 11.6095 15.9041C11.1961 15.97 10.8263 15.7792 10.6335 15.4461C9.80734 14.0182 7.95406 13.4829 6.47766 14.3369C5.04749 15.1646 4.51579 17.0193 5.36859 18.4926C5.7294 19.1162 6.18354 19.679 6.71819 20.1652C6.77998 20.2214 6.85754 20.2491 6.93493 20.2491C7.02254 20.2491 7.10981 20.2135 7.17345 20.1436C7.2932 20.012 7.28353 19.8081 7.15183 19.6884C6.66633 19.2469 6.25405 18.736 5.92645 18.1699V18.1699ZM3.85309 7.12993C3.51161 7.31036 3.11278 7.01766 3.17852 6.63395L3.32087 5.79919C3.33862 5.69508 3.3042 5.58882 3.22875 5.51487L2.62577 4.92375C2.34617 4.64961 2.50395 4.17699 2.88328 4.12156L3.7167 3.99979C3.8218 3.98441 3.9126 3.91823 3.95939 3.82289L4.3321 3.06341C4.50342 2.71425 4.99519 2.71507 5.16608 3.06341C5.59908 3.94578 5.48186 3.70683 5.53879 3.82289C5.58563 3.91823 5.67638 3.98441 5.78148 3.99979L6.61486 4.12156H6.6149C6.99393 4.17695 7.15214 4.64952 6.87245 4.9237L6.26939 5.51487C6.19393 5.58882 6.15952 5.69504 6.17726 5.79919L6.31966 6.63403C6.38489 7.01675 5.98695 7.31066 5.64509 7.12993C4.87308 6.72173 4.89649 6.73436 4.89649 6.73436C4.79878 6.684 4.68354 6.68877 4.5949 6.73771L3.85309 7.12993Z" fill="black"/>
<path d="M8.81757 10.8375V11.3531C8.81757 11.5311 8.96181 11.6753 9.13983 11.6753C9.31785 11.6753 9.4621 11.5311 9.4621 11.3531V10.8375C9.4621 10.6595 9.31785 10.5152 9.13983 10.5152C8.96181 10.5152 8.81757 10.6595 8.81757 10.8375V10.8375Z" fill="black"/>
<path d="M12.5147 11.5616C12.6317 11.4275 12.6177 11.2239 12.4835 11.107C12.3492 10.99 12.1457 11.004 12.0288 11.1382C11.7639 11.4422 11.2931 11.4419 11.0285 11.1382C10.9116 11.004 10.708 10.9901 10.5738 11.107C10.4397 11.2239 10.4257 11.4275 10.5426 11.5616C11.0644 12.1604 11.9935 12.1598 12.5147 11.5616V11.5616Z" fill="black"/>
<path d="M13.7419 11.3387C13.7419 11.187 13.8653 11.0635 14.0171 11.0635C14.1689 11.0635 14.2924 11.187 14.2924 11.3387C14.2924 11.5167 14.4366 11.661 14.6146 11.661C14.7927 11.661 14.9369 11.5167 14.9369 11.3387C14.9369 10.8316 14.5243 10.4189 14.0171 10.4189C13.5099 10.4189 13.0973 10.8316 13.0973 11.3387C13.0973 11.5167 13.2416 11.661 13.4196 11.661C13.5976 11.661 13.7419 11.5167 13.7419 11.3387Z" fill="black"/>
<path d="M19.1437 17.4279C18.957 17.3136 18.7584 17.2216 18.5514 17.1535C18.4849 16.9515 18.3953 16.7576 18.2848 16.5747C18.6892 14.8413 18.4194 13.0087 17.5266 11.4657C16.2603 9.27756 13.9875 8.59036 12.3276 8.08848C11.945 7.9729 11.3048 7.77945 10.8954 7.60079C10.5599 7.45448 10.5098 7.16397 10.5098 7.00386C10.5098 6.57272 10.8518 6.08279 11.4475 6.08279C11.7866 6.08279 12.091 6.25887 12.2617 6.55372C13.0893 7.98394 14.9437 8.51551 16.4174 7.66283C17.8476 6.8353 18.3794 4.98051 17.5266 3.50707C17.1659 2.88389 16.7115 2.32113 16.176 1.83447C16.0443 1.71471 15.8404 1.72451 15.7207 1.85621C15.601 1.98791 15.6107 2.19175 15.7425 2.31142C16.2288 2.75335 16.6414 3.26425 16.9687 3.82989C17.6419 4.99314 17.2198 6.45391 16.0946 7.10493C14.9335 7.77683 13.472 7.35836 12.8195 6.23081C12.5321 5.73452 12.0193 5.43821 11.4474 5.43821C10.4911 5.43821 9.86523 6.2257 9.86523 7.00382C9.86523 7.53655 10.154 7.98054 10.6376 8.19152C11.0819 8.38535 11.7193 8.57794 12.1414 8.70547C13.6981 9.17611 15.83 9.82068 16.9687 11.7884C17.7209 13.0884 18.0096 14.66 17.7025 16.2168C17.4334 16.2023 17.1874 16.3347 17.049 16.5611C16.9348 16.7478 16.8428 16.9463 16.7746 17.1534C16.5676 17.2215 16.3691 17.3135 16.1824 17.4277C15.7212 17.71 15.7221 18.3741 16.1823 18.6557C16.2923 18.7231 16.4067 18.7816 16.5238 18.8331C15.3181 20.4199 13.4501 21.3555 11.4475 21.3555C10.2819 21.3555 9.13584 21.0329 8.13312 20.4226C7.98114 20.3301 7.78284 20.3783 7.69029 20.5303C7.59773 20.6823 7.64598 20.8806 7.79801 20.9731C8.90175 21.6449 10.1637 22 11.4475 22C13.6036 22 15.6176 21.0151 16.9468 19.3388C16.9789 19.401 17.0124 19.4626 17.0491 19.5226C17.3314 19.9837 17.9956 19.9827 18.277 19.5225C18.3913 19.3358 18.4832 19.1374 18.5513 18.9306C18.7579 18.8625 18.9565 18.7704 19.1438 18.6558C19.6049 18.3736 19.604 17.7095 19.1437 17.4279V17.4279ZM18.8073 18.1061C18.621 18.22 18.4206 18.3051 18.2113 18.359C18.0976 18.3883 18.0089 18.477 17.9796 18.5907C17.9256 18.8003 17.8407 19.0007 17.7273 19.1861C17.6965 19.2363 17.6295 19.2363 17.5988 19.1861C17.4853 19.0007 17.4005 18.8005 17.3465 18.5907C17.3172 18.4775 17.2276 18.388 17.1147 18.359C16.9055 18.3052 16.705 18.22 16.5188 18.1061C16.4689 18.0755 16.4683 18.0085 16.5188 17.9777C16.7042 17.8642 16.9046 17.7792 17.1145 17.7252C17.2282 17.6959 17.317 17.6072 17.3463 17.4935C17.4004 17.2835 17.4853 17.083 17.5989 16.8975C17.6295 16.8474 17.6966 16.8475 17.7273 16.8976C17.8408 17.0831 17.9257 17.2836 17.9797 17.4934C18.009 17.6071 18.0978 17.6959 18.2115 17.7252C18.4215 17.7792 18.6219 17.8642 18.8073 17.9777C18.8073 17.9777 18.8073 17.9777 18.8073 17.9777C18.8574 18.0083 18.8575 18.0753 18.8073 18.1061V18.1061Z" fill="black"/>
<path d="M19.8386 8.50171H19.5808C19.4028 8.50171 19.2585 8.646 19.2585 8.82397C19.2585 9.00195 19.4028 9.14624 19.5808 9.14624H19.8386C20.0166 9.14624 20.1609 9.00195 20.1609 8.82397C20.1609 8.646 20.0166 8.50171 19.8386 8.50171Z" fill="black"/>
<path d="M17.7976 8.82397C17.7976 9.00195 17.9419 9.14624 18.1198 9.14624H18.3777C18.5556 9.14624 18.6999 9.00195 18.6999 8.82397C18.6999 8.646 18.5556 8.50171 18.3777 8.50171H18.1198C17.9419 8.50171 17.7976 8.646 17.7976 8.82397Z" fill="black"/>
<path d="M18.657 9.42554V9.68335C18.657 9.86133 18.8012 10.0056 18.9792 10.0056C19.1572 10.0056 19.3015 9.86133 19.3015 9.68335V9.42554C19.3015 9.24756 19.1572 9.10327 18.9792 9.10327C18.8012 9.10327 18.657 9.24756 18.657 9.42554Z" fill="black"/>
<path d="M18.9792 8.54468C19.1572 8.54468 19.3015 8.40039 19.3015 8.22241V7.9646C19.3015 7.78662 19.1572 7.64233 18.9792 7.64233C18.8012 7.64233 18.657 7.78662 18.657 7.9646V8.22241C18.657 8.40039 18.8012 8.54468 18.9792 8.54468Z" fill="black"/>
<path d="M5.2292 13.4432C5.40718 13.4432 5.55147 13.2989 5.55147 13.1209C5.55147 12.9429 5.40718 12.7986 5.2292 12.7986H4.97139C4.79341 12.7986 4.64912 12.9429 4.64912 13.1209C4.64912 13.2989 4.79341 13.4432 4.97139 13.4432H5.2292Z" fill="black"/>
<path d="M3.76826 12.7986H3.51045C3.33248 12.7986 3.18819 12.9429 3.18819 13.1209C3.18819 13.2989 3.33248 13.4432 3.51045 13.4432H3.76826C3.94624 13.4432 4.09053 13.2989 4.09053 13.1209C4.09053 12.9429 3.94624 12.7986 3.76826 12.7986Z" fill="black"/>
<path d="M4.36983 13.4002C4.19185 13.4002 4.04756 13.5445 4.04756 13.7225V13.9803C4.04756 14.1583 4.19185 14.3026 4.36983 14.3026C4.5478 14.3026 4.69209 14.1583 4.69209 13.9803V13.7225C4.69209 13.5445 4.5478 13.4002 4.36983 13.4002Z" fill="black"/>
<path d="M4.36983 12.8416C4.5478 12.8416 4.69209 12.6973 4.69209 12.5193V12.2615C4.69209 12.0836 4.5478 11.9393 4.36983 11.9393C4.19185 11.9393 4.04756 12.0836 4.04756 12.2615V12.5193C4.04756 12.6973 4.19185 12.8416 4.36983 12.8416Z" fill="black"/>
</svg>
