<svg width="22" height="22" viewBox="0 0 22 22" fill="none" xmlns="http://www.w3.org/2000/svg">
<g clip-path="url(#clip0)">
<path d="M1.61857 18.0803C2.68823 21.6409 8.26526 20.4082 11.1749 20.4082C14.8006 20.4082 17.6294 20.4845 19.0517 19.4863C20.9278 18.1696 20.7654 15.6781 20.7654 13.0335C20.7654 7.1859 21.7931 5.66579 19.9812 3.11109C18.4236 0.915271 15.2528 1.32721 11.7786 1.29098C8.15691 1.25333 5.68117 1.06675 4.37034 1.61863C1.18196 2.96003 1.12958 5.68149 1.12958 8.7558C1.12972 12.0159 0.545901 14.509 1.61857 18.0803Z" fill="#2FACDF"/>
<path d="M17.8507 5.75366C17.2402 8.63356 16.1343 14.6957 15.6951 16.1398C15.4046 17.0952 14.5225 17.3554 13.636 16.7665C11.8405 15.5738 8.45164 13.3305 8.45164 13.3305L7.17839 12.1259C7.17839 12.1259 3.93875 11.7553 3.04971 11.4305C2.05086 11.0656 2.31435 9.90337 3.0487 9.52408C5.8858 8.05888 13.4973 5.38365 15.8264 4.51568C16.9641 4.0916 18.121 4.47845 17.8507 5.75366Z" fill="white"/>
<path d="M15.2615 7.03772L7.17853 12.1257L8.4348 16.3767L8.789 13.3828C8.789 13.3828 15.2971 7.58401 15.5639 7.33726C15.8306 7.09066 15.2615 7.03772 15.2615 7.03772Z" fill="#C5E5EB"/>
<path d="M8.82896 13.4507L8.45496 16.7302C8.73587 16.8974 10.4181 14.7549 10.4181 14.7549L8.82896 13.4507Z" fill="#A9C2CC"/>
<path d="M21.9896 16.7718C21.9379 15.1368 21.8953 13.5001 21.8386 11.8649C21.8042 10.8716 21.7783 9.87738 21.769 8.88346C21.7573 7.62479 21.8674 6.37371 21.8857 5.11619C21.9009 4.06891 21.8811 3.11293 21.2718 2.20188C20.6705 1.3031 19.6773 0.623128 18.6011 0.420863C17.7383 0.258679 16.7969 0.343979 15.9263 0.327861C14.6989 0.305038 13.4709 0.286494 12.2446 0.228297C11.0622 0.172096 9.89361 -0.01077 8.70794 0.000498711C7.49595 0.0120526 6.28616 0.114612 5.07721 0.190354C3.88567 0.264956 2.72449 0.283499 1.72794 1.02923C0.819466 1.70906 0.293923 2.78814 0.232187 3.90602C0.11145 6.09214 0.100657 8.28114 0.0891447 10.4698C0.0859788 11.0661 0.0773445 11.6623 0.0625221 12.2583C0.0341726 13.4038 0.104974 14.5492 0.0629538 15.6929C0.0301433 16.5847 -0.0661296 17.5365 0.0734587 18.4236C0.245427 19.517 0.989849 20.4722 1.89315 21.088C2.88106 21.7614 3.94754 21.8105 5.10555 21.859C6.34804 21.9109 7.59268 21.9349 8.83616 21.9418C11.2527 21.9553 13.7105 22.0833 16.1218 21.9104C16.6996 21.869 17.2771 21.7929 17.8562 21.7744C18.2509 21.7617 18.6265 21.7365 19.0108 21.6252C20.0483 21.3248 20.9853 20.6384 21.5119 19.694C22.0113 18.7983 22.0211 17.7709 21.9896 16.7718ZM21.1945 14.9738C21.1667 15.9871 21.0748 16.9989 21.0034 18.0098C20.941 18.8936 20.5053 19.6824 19.8094 20.2363C18.9967 20.8832 18.0923 20.961 17.097 20.9969C15.9134 21.0395 14.7342 21.0153 13.5508 21.0805C12.2862 21.15 11.014 21.0688 9.74868 21.0468C8.4964 21.025 7.24398 21.0372 5.99158 21.0209C4.90696 21.0066 3.65729 21.1268 2.66751 20.615C1.72996 20.1303 0.906242 19.2138 0.784926 18.1439C0.677432 17.1965 0.744783 16.2046 0.771258 15.2537C0.801907 14.1569 0.859327 13.0612 0.891853 11.9646C0.943656 10.2193 0.916458 8.46883 0.955027 6.71619C0.978484 5.65166 0.890986 4.48999 1.09462 3.44115C1.2945 2.41114 2.0005 1.55172 2.99403 1.18157C3.52259 0.984582 4.06742 0.973885 4.6239 0.941504C5.26644 0.904131 5.90869 0.869186 6.55152 0.838805C7.7924 0.780175 9.04166 0.68375 10.2834 0.749079C12.7377 0.878027 15.1916 1.00455 17.6478 1.09328C19.4169 1.15718 21.0121 2.38646 21.0215 4.23752C21.0339 6.65044 21.0604 9.05506 21.1536 11.4663C21.199 12.6364 21.2266 13.8029 21.1945 14.9738Z" fill="black"/>
<path d="M18.0431 4.08975C17.6987 3.99175 17.3855 4.09802 17.0574 4.19473C16.5957 4.33081 16.1402 4.4756 15.6925 4.65276C14.6464 5.06698 13.6194 5.52544 12.5754 5.94494C11.7316 6.284 10.8472 6.51351 9.99158 6.82233C8.82813 7.24214 7.67656 7.6919 6.52059 8.13107C5.43368 8.54385 4.28559 8.91558 3.25638 9.45761C2.69529 9.75316 1.97533 10.1254 2.29351 10.9049C2.48317 11.3696 2.94108 11.5175 3.37683 11.6757C3.96238 11.8883 4.54836 12.1035 5.14356 12.288C5.44907 12.3828 6.15536 12.4639 6.35999 12.6988C6.47253 12.8277 6.46836 13.0486 6.50232 13.2175C6.56463 13.5272 6.63197 13.836 6.7058 14.1431C6.94293 15.1302 7.34979 16.0665 7.56374 17.0557C7.70564 17.7117 8.49916 18.0877 9.02784 17.5856C9.37311 17.2577 9.71906 16.9303 10.0594 16.5971C10.2545 16.4061 10.4398 16.2056 10.6274 16.0071C10.6996 15.9307 10.7729 15.8551 10.8446 15.7779C11.0327 15.5749 11.0138 15.5953 11.2348 15.7609C12.2168 16.4975 13.2448 17.1711 14.228 17.9054C15.0222 18.4985 16.03 18.217 16.2837 17.2642C16.5956 16.0934 16.8629 14.9115 17.113 13.726C17.6172 11.3362 18.1754 8.95821 18.6107 6.55245C18.7516 5.77234 19.1198 4.39614 18.0431 4.08975ZM7.60376 15.1075C7.47884 14.6007 7.36402 14.0915 7.24763 13.5827C7.19923 13.3714 7.15021 13.1603 7.10326 12.9488C7.08181 12.8521 6.99848 12.7481 7.04083 12.6583C7.10312 12.5267 7.29981 12.5217 7.42824 12.4513C8.35004 11.944 9.21966 11.348 10.102 10.7777C11.2606 10.0288 12.4584 9.34836 13.6223 8.61033C13.1726 9.0537 12.7221 9.49501 12.264 9.92978C11.8723 10.3015 11.4238 10.5882 11.0087 10.93C10.4777 11.3673 9.96999 11.83 9.44894 12.2791C9.16198 12.5263 8.87515 12.7735 8.58826 13.0206C8.28314 13.2835 8.29236 13.8367 8.30329 14.2058C8.32831 15.048 8.17534 15.8786 8.05015 16.7115C7.8802 16.1818 7.73686 15.6474 7.60376 15.1075ZM9.68035 16.0459C9.37249 16.3538 9.05892 16.6559 8.75229 16.9647C8.89014 15.9983 8.95882 15.025 9.07349 14.0557C9.54862 14.4451 10.0328 14.8242 10.513 15.2076C10.2354 15.487 9.95879 15.7675 9.68035 16.0459ZM18.1893 5.05614C18.0496 6.63647 17.65 8.24417 17.2944 9.78616C16.8673 11.638 16.508 13.5048 16.0658 15.353C15.9625 15.7849 15.8555 16.216 15.7479 16.6469C15.6773 16.93 15.6626 17.2532 15.4421 17.4601C15.1625 17.7222 14.7859 17.5007 14.5304 17.3132C14.1293 17.0189 13.7079 16.759 13.2885 16.4916C12.9133 16.2524 12.5475 15.9989 12.1842 15.7421C11.8232 15.4869 11.5504 15.141 11.2094 14.8654C10.5863 14.3621 9.92998 13.8905 9.26689 13.4406C9.69843 13.0586 10.1295 12.6759 10.5654 12.2988C10.7904 12.1041 11.0256 11.9217 11.2459 11.7212C11.6727 11.3328 13.871 9.19759 14.5963 8.56729C14.9807 8.23317 15.287 7.90599 15.6351 7.53542C16.0269 7.11832 15.6643 6.56971 15.0349 6.95909C14.2913 7.41917 12.704 8.21179 11.547 8.94851C10.5667 9.57249 9.5852 10.1948 8.60393 10.8173C7.93747 11.2401 7.26661 11.6553 6.59528 12.0701C6.51916 12.1172 6.17723 11.9061 6.0847 11.8681C5.76264 11.7358 5.43727 11.6158 5.11003 11.4968C4.49541 11.2736 3.75948 11.1692 3.18457 10.9566C2.79315 10.812 2.6904 10.4882 3.06168 10.2662C3.73328 9.86474 4.55542 9.61937 5.28041 9.32712C7.01203 8.62889 8.75044 7.93651 10.5086 7.30628C11.323 7.01444 12.1618 6.81406 12.9637 6.48684C13.7833 6.15248 14.5822 5.77006 15.4021 5.43714C16.0573 5.17126 16.7107 4.93005 17.3875 4.72451C17.6389 4.64819 18.2299 4.59727 18.1893 5.05614Z" fill="black"/>
</g>
<defs>
<clipPath id="clip0">
<rect width="22" height="22" fill="white"/>
</clipPath>
</defs>
</svg>
