<svg width="32" height="32" viewBox="0 0 32 32" fill="none" xmlns="http://www.w3.org/2000/svg">
<path d="M2.35429 26.2986C3.91015 31.4777 12.0222 29.6846 16.2544 29.6846C21.5282 29.6846 25.6427 29.7956 27.7116 28.3437C30.4405 26.4285 30.2042 22.8045 30.2042 18.9578C30.2042 10.4522 31.6991 8.24114 29.0636 4.52521C26.798 1.33129 22.1859 1.93048 17.1325 1.87778C11.8646 1.82301 8.26353 1.55163 6.35686 2.35436C1.71922 4.30549 1.64303 8.26397 1.64303 12.7357C1.64324 17.4777 0.794041 21.104 2.35429 26.2986Z" fill="#2FACDF"/>
<path d="M25.9647 8.36895C25.0767 12.5579 23.4681 21.3756 22.8293 23.4761C22.4067 24.8658 21.1236 25.2442 19.8342 24.3877C17.2225 22.6528 12.2933 19.3898 12.2933 19.3898L10.4413 17.6376C10.4413 17.6376 5.7291 17.0986 4.43594 16.6262C2.98307 16.0954 3.36633 14.4049 4.43448 13.8532C8.56117 11.722 19.6324 7.83075 23.0202 6.56825C24.6751 5.95141 26.3578 6.5141 25.9647 8.36895Z" fill="white"/>
<path d="M22.1986 10.2367L10.4415 17.6374L12.2688 23.8207L12.784 19.4659C12.784 19.4659 22.2503 11.0313 22.6384 10.6724C23.0263 10.3137 22.1986 10.2367 22.1986 10.2367Z" fill="#C5E5EB"/>
<path d="M12.8421 19.5647L12.2981 24.3348C12.7067 24.578 15.1536 21.4616 15.1536 21.4616L12.8421 19.5647Z" fill="#A9C2CC"/>
<path d="M31.9848 24.3954C31.9097 22.0171 31.8477 19.6365 31.7653 17.2581C31.7152 15.8133 31.6776 14.3671 31.664 12.9214C31.647 11.0906 31.8071 9.27085 31.8337 7.44173C31.8559 5.91842 31.827 4.5279 30.9408 3.20274C30.0662 1.89542 28.6215 0.906368 27.0561 0.612164C25.8012 0.376261 24.4318 0.500333 23.1655 0.476888C21.3802 0.443692 19.5941 0.416719 17.8103 0.332068C16.0905 0.250322 14.3907 -0.0156654 12.6661 0.000725397C10.9032 0.0175311 9.1435 0.166708 7.38503 0.276879C5.65188 0.38539 3.96289 0.412362 2.51337 1.49706C1.19195 2.4859 0.427524 4.05547 0.337726 5.68148C0.162109 8.86129 0.14641 12.0453 0.129665 15.2288C0.12506 16.0961 0.112501 16.9633 0.0909412 17.8302C0.0497056 19.4964 0.15269 21.1625 0.0915691 22.826C0.0438447 24.1232 -0.0961886 25.5077 0.106849 26.798C0.356984 28.3883 1.43978 29.7778 2.75367 30.6735C4.19063 31.653 5.74188 31.7244 7.42626 31.7949C9.23351 31.8704 11.0439 31.9053 12.8526 31.9154C16.3675 31.935 19.9426 32.1211 23.4499 31.8696C24.2903 31.8094 25.1303 31.6988 25.9726 31.6719C26.5468 31.6534 27.0931 31.6167 27.652 31.4548C29.1612 31.0179 30.524 30.0195 31.2901 28.6458C32.0165 27.343 32.0307 25.8486 31.9848 24.3954ZM30.8284 21.7801C30.788 23.2539 30.6542 24.7257 30.5504 26.1961C30.4596 27.4816 29.8259 28.629 28.8137 29.4346C27.6315 30.3755 26.3161 30.4888 24.8683 30.5409C23.1468 30.6029 21.4315 30.5677 19.7103 30.6625C17.8708 30.7637 16.0204 30.6455 14.1799 30.6135C12.3584 30.5818 10.5367 30.5996 8.71503 30.5758C7.1374 30.555 5.31969 30.7299 3.88001 29.9855C2.5163 29.2805 1.31817 27.9474 1.14171 26.3911C0.985355 25.0131 1.08332 23.5703 1.12183 22.1872C1.16641 20.5919 1.24993 18.9981 1.29724 17.403C1.37259 14.8645 1.33303 12.3183 1.38913 9.76901C1.42325 8.2206 1.29598 6.5309 1.59217 5.00531C1.88291 3.50711 2.90982 2.25705 4.35495 1.71865C5.12377 1.43212 5.91625 1.41656 6.72568 1.36946C7.66028 1.3151 8.59446 1.26427 9.52948 1.22008C11.3344 1.1348 13.1515 0.994546 14.9577 1.08957C18.5276 1.27713 22.0969 1.46116 25.6695 1.59022C28.2427 1.68317 30.563 3.47121 30.5768 6.16366C30.5948 9.67336 30.6333 13.171 30.7689 16.6782C30.8349 18.3802 30.875 20.0769 30.8284 21.7801Z" fill="black"/>
<path d="M26.2445 5.94871C25.7436 5.80617 25.288 5.96074 24.8107 6.10141C24.1392 6.29935 23.4767 6.50994 22.8255 6.76763C21.3038 7.37014 19.8101 8.03698 18.2915 8.64717C17.0641 9.14035 15.7778 9.47418 14.5332 9.92337C12.8409 10.534 11.1659 11.1882 9.48449 11.827C7.90352 12.4274 6.23358 12.9681 4.73654 13.7565C3.92041 14.1864 2.8732 14.7279 3.336 15.8616C3.61188 16.5376 4.27793 16.7527 4.91174 16.9828C5.76345 17.292 6.61579 17.605 7.48153 17.8735C7.92591 18.0113 8.95324 18.1293 9.25089 18.4709C9.41458 18.6584 9.40851 18.9798 9.45791 19.2255C9.54854 19.6759 9.6465 20.1251 9.75388 20.5718C10.0988 22.0075 10.6906 23.3694 11.0018 24.8083C11.2082 25.7625 12.3624 26.3094 13.1314 25.5791C13.6336 25.1021 14.1368 24.6259 14.6318 24.1412C14.9156 23.8634 15.1852 23.5717 15.458 23.2831C15.5631 23.1719 15.6696 23.0619 15.7739 22.9497C16.0476 22.6544 16.02 22.6841 16.3415 22.925C17.7699 23.9964 19.2651 24.9761 20.6953 26.0442C21.8505 26.9069 23.3164 26.4974 23.6854 25.1116C24.139 23.4086 24.5279 21.6895 24.8917 19.9651C25.625 16.489 26.4369 13.0301 27.0701 9.53082C27.275 8.39612 27.8106 6.39437 26.2445 5.94871ZM11.06 21.9745C10.8783 21.2374 10.7113 20.4967 10.542 19.7566C10.4716 19.4493 10.4003 19.1423 10.332 18.8346C10.3008 18.6939 10.1796 18.5426 10.2412 18.4121C10.3318 18.2206 10.6179 18.2134 10.8047 18.1109C12.1455 17.3731 13.4104 16.5062 14.6938 15.6767C16.379 14.5873 18.1213 13.5976 19.8143 12.5241C19.1602 13.169 18.5048 13.8109 17.8386 14.4433C17.2688 14.984 16.6164 15.401 16.0127 15.8981C15.2403 16.5343 14.5018 17.2073 13.7439 17.8605C13.3265 18.22 12.9093 18.5796 12.492 18.9391C12.0482 19.3215 12.0616 20.1261 12.0775 20.6629C12.1139 21.888 11.8914 23.0962 11.7093 24.3076C11.4621 23.5371 11.2536 22.7598 11.06 21.9745ZM14.0805 23.3395C13.6327 23.7873 13.1766 24.2267 12.7306 24.6759C12.9311 23.2702 13.031 21.8546 13.1978 20.4446C13.8889 21.011 14.5931 21.5625 15.2916 22.1202C14.8878 22.5266 14.4855 22.9345 14.0805 23.3395ZM26.4572 7.35437C26.254 9.65303 25.6727 11.9915 25.1555 14.2344C24.5342 16.928 24.0117 19.6433 23.3685 22.3316C23.2182 22.9599 23.0625 23.5869 22.9061 24.2136C22.8034 24.6255 22.782 25.0956 22.4613 25.3965C22.0546 25.7778 21.5068 25.4556 21.1351 25.1828C20.5517 24.7547 19.9388 24.3767 19.3287 23.9877C18.783 23.6398 18.2509 23.2711 17.7224 22.8976C17.1974 22.5264 16.8006 22.0233 16.3045 21.6224C15.3983 20.8903 14.4436 20.2043 13.4791 19.5499C14.1068 18.9943 14.7338 18.4377 15.3678 17.8891C15.6951 17.6059 16.0372 17.3407 16.3576 17.049C16.9785 16.484 20.176 13.3783 21.231 12.4615C21.7901 11.9755 22.2357 11.4996 22.742 10.9606C23.3118 10.3539 22.7845 9.55593 21.869 10.1223C20.7874 10.7915 18.4786 11.9444 16.7957 13.016C15.3697 13.9236 13.9421 14.8288 12.5148 15.7342C11.5454 16.3492 10.5696 16.9531 9.59313 17.5565C9.4824 17.625 8.98506 17.3179 8.85047 17.2627C8.38202 17.0702 7.90875 16.8957 7.43276 16.7226C6.53877 16.3979 5.46832 16.2461 4.63209 15.9369C4.06275 15.7265 3.9133 15.2556 4.45334 14.9327C5.43022 14.3487 6.62605 13.9918 7.68059 13.5667C10.1993 12.5511 12.7279 11.544 15.2853 10.6273C16.4698 10.2028 17.6899 9.91134 18.8563 9.43538C20.0485 8.94905 21.2105 8.3928 22.4031 7.90855C23.356 7.52181 24.3065 7.17096 25.2909 6.87199C25.6566 6.76099 26.5162 6.68692 26.4572 7.35437Z" fill="black"/>
</svg>
