<svg width="908" height="58" viewBox="0 0 908 58" fill="none" xmlns="http://www.w3.org/2000/svg">
<g filter="url(#filter0_d)">
<rect width="904" height="54" fill="url(#paint0_linear)"/>
<path d="M30.76 35.24C28.488 35.24 26.704 34.688 25.408 33.584C24.128 32.48 23.488 30.824 23.488 28.616V18.824C23.488 18.648 23.544 18.504 23.656 18.392C23.768 18.264 23.912 18.2 24.088 18.2H27.376C27.552 18.2 27.696 18.264 27.808 18.392C27.936 18.504 28 18.648 28 18.824V28.568C28 29.56 28.232 30.304 28.696 30.8C29.176 31.296 29.856 31.544 30.736 31.544C31.616 31.544 32.288 31.296 32.752 30.8C33.232 30.288 33.472 29.544 33.472 28.568V18.824C33.472 18.648 33.528 18.504 33.64 18.392C33.768 18.264 33.92 18.2 34.096 18.2H37.36C37.536 18.2 37.68 18.264 37.792 18.392C37.92 18.504 37.984 18.648 37.984 18.824V28.616C37.984 30.824 37.344 32.48 36.064 33.584C34.784 34.688 33.016 35.24 30.76 35.24ZM46.0129 35C45.8529 35 45.7089 34.944 45.5809 34.832C45.4689 34.704 45.4129 34.56 45.4129 34.4V29.288L39.8689 18.968C39.8209 18.888 39.7969 18.8 39.7969 18.704C39.7969 18.576 39.8449 18.464 39.9409 18.368C40.0529 18.256 40.1729 18.2 40.3009 18.2H43.4689C43.6929 18.2 43.8769 18.256 44.0209 18.368C44.1649 18.48 44.2689 18.6 44.3329 18.728L47.6689 24.752L51.0049 18.728C51.0689 18.6 51.1729 18.48 51.3169 18.368C51.4609 18.256 51.6449 18.2 51.8689 18.2H55.0369C55.1649 18.2 55.2769 18.256 55.3729 18.368C55.4849 18.464 55.5409 18.576 55.5409 18.704C55.5409 18.8 55.5169 18.888 55.4689 18.968L49.9249 29.288V34.4C49.9249 34.576 49.8609 34.72 49.7329 34.832C49.6209 34.944 49.4769 35 49.3009 35H46.0129ZM54.6179 35C54.4899 35 54.3699 34.952 54.2579 34.856C54.1619 34.744 54.1139 34.624 54.1139 34.496C54.1139 34.4 54.1219 34.328 54.1379 34.28L59.7299 18.896C59.8899 18.432 60.2099 18.2 60.6899 18.2H64.4339C64.9139 18.2 65.2339 18.432 65.3939 18.896L70.9859 34.28C71.0019 34.328 71.0099 34.4 71.0099 34.496C71.0099 34.624 70.9539 34.744 70.8419 34.856C70.7459 34.952 70.6339 35 70.5059 35H67.3859C67.0019 35 66.7299 34.824 66.5699 34.472L65.7059 32.144H59.4179L58.5539 34.472C58.3939 34.824 58.1219 35 57.7379 35H54.6179ZM60.4259 28.544H64.6979L62.5619 22.424L60.4259 28.544ZM73.4273 35C73.2673 35 73.1233 34.944 72.9953 34.832C72.8833 34.704 72.8273 34.56 72.8273 34.4V18.824C72.8273 18.648 72.8833 18.504 72.9953 18.392C73.1073 18.264 73.2513 18.2 73.4273 18.2H80.0273C82.1393 18.2 83.7873 18.68 84.9713 19.64C86.1713 20.6 86.7713 21.952 86.7713 23.696C86.7713 24.816 86.5073 25.768 85.9793 26.552C85.4673 27.336 84.7553 27.944 83.8433 28.376L87.0833 34.232C87.1313 34.328 87.1553 34.416 87.1553 34.496C87.1553 34.624 87.1073 34.744 87.0113 34.856C86.9153 34.952 86.7953 35 86.6513 35H83.2673C82.8033 35 82.4753 34.784 82.2833 34.352L79.6433 29.144H77.3393V34.4C77.3393 34.576 77.2753 34.72 77.1473 34.832C77.0353 34.944 76.8913 35 76.7153 35H73.4273ZM80.0033 25.616C80.6913 25.616 81.2113 25.448 81.5633 25.112C81.9313 24.76 82.1153 24.28 82.1153 23.672C82.1153 23.064 81.9313 22.576 81.5633 22.208C81.2113 21.84 80.6913 21.656 80.0033 21.656H77.3393V25.616H80.0033ZM90.1148 35C89.9548 35 89.8108 34.944 89.6828 34.832C89.5708 34.704 89.5148 34.56 89.5148 34.4V18.8C89.5148 18.624 89.5708 18.48 89.6828 18.368C89.8108 18.256 89.9548 18.2 90.1148 18.2H93.5468C93.7228 18.2 93.8668 18.256 93.9788 18.368C94.0908 18.48 94.1468 18.624 94.1468 18.8V34.4C94.1468 34.56 94.0908 34.704 93.9788 34.832C93.8668 34.944 93.7228 35 93.5468 35H90.1148ZM102.764 26.6C102.604 26.6 102.46 26.544 102.332 26.432C102.22 26.304 102.164 26.16 102.164 26V22.976C102.164 22.8 102.22 22.656 102.332 22.544C102.46 22.432 102.604 22.376 102.764 22.376H105.932C106.108 22.376 106.252 22.432 106.364 22.544C106.492 22.656 106.556 22.8 106.556 22.976V26C106.556 26.176 106.492 26.32 106.364 26.432C106.252 26.544 106.108 26.6 105.932 26.6H102.764ZM102.764 35C102.604 35 102.46 34.944 102.332 34.832C102.22 34.704 102.164 34.56 102.164 34.4V31.376C102.164 31.2 102.22 31.056 102.332 30.944C102.46 30.832 102.604 30.776 102.764 30.776H105.932C106.108 30.776 106.252 30.832 106.364 30.944C106.492 31.056 106.556 31.2 106.556 31.376V34.4C106.556 34.576 106.492 34.72 106.364 34.832C106.252 34.944 106.108 35 105.932 35H102.764ZM116.253 35C116.093 35 115.957 34.944 115.845 34.832C115.733 34.72 115.677 34.584 115.677 34.424V18.8C115.677 18.624 115.725 18.48 115.821 18.368C115.933 18.256 116.077 18.2 116.253 18.2H123.213C125.085 18.2 126.485 18.616 127.413 19.448C128.341 20.264 128.805 21.384 128.805 22.808C128.805 23.64 128.597 24.352 128.181 24.944C127.781 25.52 127.309 25.936 126.765 26.192C127.437 26.496 128.005 26.992 128.469 27.68C128.933 28.368 129.165 29.152 129.165 30.032C129.165 31.52 128.661 32.72 127.653 33.632C126.645 34.544 125.237 35 123.429 35H116.253ZM122.781 25.088C123.597 25.088 124.221 24.888 124.653 24.488C125.101 24.088 125.325 23.552 125.325 22.88C125.325 22.208 125.109 21.688 124.677 21.32C124.245 20.952 123.613 20.768 122.781 20.768H119.061V25.088H122.781ZM123.021 32.432C123.853 32.432 124.501 32.208 124.965 31.76C125.429 31.296 125.661 30.712 125.661 30.008C125.661 29.304 125.421 28.728 124.941 28.28C124.477 27.816 123.837 27.584 123.021 27.584H119.061V32.432H123.021ZM136.497 35.24C135.025 35.24 133.865 34.76 133.017 33.8C132.169 32.84 131.745 31.52 131.745 29.84V23.096C131.745 22.92 131.801 22.784 131.913 22.688C132.025 22.576 132.161 22.52 132.321 22.52H134.481C134.641 22.52 134.777 22.576 134.889 22.688C135.001 22.8 135.057 22.936 135.057 23.096V29.696C135.057 31.664 135.913 32.648 137.625 32.648C138.457 32.648 139.113 32.384 139.593 31.856C140.089 31.328 140.337 30.608 140.337 29.696V23.096C140.337 22.92 140.393 22.784 140.505 22.688C140.617 22.576 140.753 22.52 140.913 22.52H143.049C143.225 22.52 143.361 22.576 143.457 22.688C143.569 22.784 143.625 22.92 143.625 23.096V34.424C143.625 34.584 143.569 34.72 143.457 34.832C143.361 34.944 143.225 35 143.049 35H141.057C140.897 35 140.761 34.944 140.649 34.832C140.537 34.72 140.481 34.584 140.481 34.424V33.44C139.601 34.64 138.273 35.24 136.497 35.24ZM152.832 35C152.672 35 152.536 34.944 152.424 34.832C152.312 34.72 152.256 34.584 152.256 34.424V23.12C152.256 22.944 152.312 22.8 152.424 22.688C152.536 22.576 152.672 22.52 152.832 22.52H154.8C154.976 22.52 155.12 22.576 155.232 22.688C155.344 22.8 155.4 22.944 155.4 23.12V24.104C156.2 23.048 157.352 22.52 158.856 22.52H159.864C160.04 22.52 160.176 22.576 160.272 22.688C160.384 22.784 160.44 22.92 160.44 23.096V24.848C160.44 25.008 160.384 25.144 160.272 25.256C160.176 25.368 160.04 25.424 159.864 25.424H157.968C157.216 25.424 156.624 25.64 156.192 26.072C155.76 26.504 155.544 27.096 155.544 27.848V34.424C155.544 34.584 155.488 34.72 155.376 34.832C155.264 34.944 155.128 35 154.968 35H152.832ZM167.547 35.24C165.755 35.24 164.331 34.728 163.275 33.704C162.235 32.68 161.683 31.224 161.619 29.336L161.595 28.736C161.595 26.736 162.115 25.16 163.155 24.008C164.211 22.856 165.667 22.28 167.523 22.28C169.427 22.28 170.891 22.856 171.915 24.008C172.955 25.16 173.475 26.696 173.475 28.616V29.12C173.475 29.28 173.419 29.416 173.307 29.528C173.195 29.64 173.051 29.696 172.875 29.696H164.907V29.888C164.939 30.784 165.179 31.528 165.627 32.12C166.091 32.696 166.723 32.984 167.523 32.984C168.435 32.984 169.179 32.616 169.755 31.88C169.899 31.704 170.011 31.6 170.091 31.568C170.171 31.52 170.307 31.496 170.499 31.496H172.611C172.755 31.496 172.875 31.536 172.971 31.616C173.083 31.696 173.139 31.808 173.139 31.952C173.139 32.336 172.907 32.792 172.443 33.32C171.995 33.832 171.347 34.28 170.499 34.664C169.651 35.048 168.667 35.24 167.547 35.24ZM170.163 27.656V27.608C170.163 26.664 169.923 25.912 169.443 25.352C168.979 24.776 168.339 24.488 167.523 24.488C166.707 24.488 166.067 24.776 165.603 25.352C165.139 25.912 164.907 26.664 164.907 27.608V27.656H170.163ZM176.622 39.56C176.462 39.56 176.326 39.504 176.214 39.392C176.102 39.296 176.046 39.16 176.046 38.984V23.096C176.046 22.92 176.102 22.784 176.214 22.688C176.326 22.576 176.462 22.52 176.622 22.52H178.542C178.718 22.52 178.862 22.576 178.974 22.688C179.086 22.8 179.142 22.936 179.142 23.096V24.056C179.99 22.872 181.262 22.28 182.958 22.28C184.574 22.28 185.814 22.792 186.678 23.816C187.542 24.824 188.006 26.184 188.07 27.896C188.086 28.088 188.094 28.376 188.094 28.76C188.094 29.144 188.086 29.432 188.07 29.624C188.022 31.304 187.558 32.664 186.678 33.704C185.814 34.728 184.574 35.24 182.958 35.24C181.358 35.24 180.134 34.672 179.286 33.536V38.984C179.286 39.16 179.23 39.296 179.118 39.392C179.022 39.504 178.886 39.56 178.71 39.56H176.622ZM182.046 32.648C183.758 32.648 184.67 31.592 184.782 29.48C184.798 29.32 184.806 29.08 184.806 28.76C184.806 28.44 184.798 28.2 184.782 28.04C184.67 25.928 183.758 24.872 182.046 24.872C181.134 24.872 180.454 25.168 180.006 25.76C179.558 26.352 179.318 27.072 179.286 27.92C179.27 28.112 179.262 28.416 179.262 28.832C179.262 29.248 179.27 29.56 179.286 29.768C179.318 30.568 179.566 31.248 180.03 31.808C180.494 32.368 181.166 32.648 182.046 32.648ZM196.308 35.24C194.42 35.24 192.964 34.76 191.94 33.8C190.916 32.84 190.364 31.512 190.284 29.816L190.26 28.76L190.284 27.704C190.364 26.024 190.924 24.704 191.964 23.744C193.004 22.768 194.452 22.28 196.308 22.28C198.148 22.28 199.588 22.768 200.628 23.744C201.668 24.704 202.228 26.024 202.308 27.704C202.324 27.896 202.332 28.248 202.332 28.76C202.332 29.272 202.324 29.624 202.308 29.816C202.228 31.512 201.676 32.84 200.652 33.8C199.628 34.76 198.18 35.24 196.308 35.24ZM196.308 32.816C197.156 32.816 197.804 32.552 198.252 32.024C198.716 31.496 198.964 30.72 198.996 29.696C199.012 29.536 199.02 29.224 199.02 28.76C199.02 28.296 199.012 27.984 198.996 27.824C198.964 26.8 198.716 26.024 198.252 25.496C197.788 24.952 197.14 24.68 196.308 24.68C195.46 24.68 194.804 24.952 194.34 25.496C193.876 26.024 193.628 26.8 193.596 27.824L193.572 28.76L193.596 29.696C193.628 30.72 193.876 31.496 194.34 32.024C194.804 32.552 195.46 32.816 196.308 32.816ZM217.387 35.24C215.723 35.24 214.451 34.672 213.571 33.536V34.424C213.571 34.584 213.515 34.72 213.403 34.832C213.291 34.944 213.147 35 212.971 35H211.051C210.891 35 210.755 34.944 210.643 34.832C210.531 34.72 210.475 34.584 210.475 34.424V18.536C210.475 18.36 210.531 18.224 210.643 18.128C210.755 18.016 210.891 17.96 211.051 17.96H213.139C213.315 17.96 213.451 18.016 213.547 18.128C213.659 18.224 213.715 18.36 213.715 18.536V23.864C214.611 22.808 215.835 22.28 217.387 22.28C219.003 22.28 220.243 22.808 221.107 23.864C221.987 24.904 222.451 26.272 222.499 27.968C222.515 28.16 222.523 28.424 222.523 28.76C222.523 29.08 222.515 29.344 222.499 29.552C222.435 31.28 221.971 32.664 221.107 33.704C220.243 34.728 219.003 35.24 217.387 35.24ZM216.475 32.648C218.187 32.648 219.099 31.592 219.211 29.48C219.227 29.32 219.235 29.08 219.235 28.76C219.235 28.44 219.227 28.2 219.211 28.04C219.099 25.928 218.187 24.872 216.475 24.872C215.595 24.872 214.923 25.152 214.459 25.712C213.995 26.272 213.747 26.952 213.715 27.752C213.699 27.944 213.691 28.256 213.691 28.688C213.691 29.104 213.699 29.408 213.715 29.6C213.747 30.448 213.987 31.168 214.435 31.76C214.883 32.352 215.563 32.648 216.475 32.648ZM230.593 35.24C228.801 35.24 227.377 34.728 226.321 33.704C225.281 32.68 224.729 31.224 224.665 29.336L224.641 28.736C224.641 26.736 225.161 25.16 226.201 24.008C227.257 22.856 228.713 22.28 230.569 22.28C232.473 22.28 233.937 22.856 234.961 24.008C236.001 25.16 236.521 26.696 236.521 28.616V29.12C236.521 29.28 236.465 29.416 236.353 29.528C236.241 29.64 236.097 29.696 235.921 29.696H227.953V29.888C227.985 30.784 228.225 31.528 228.673 32.12C229.137 32.696 229.769 32.984 230.569 32.984C231.481 32.984 232.225 32.616 232.801 31.88C232.945 31.704 233.057 31.6 233.137 31.568C233.217 31.52 233.353 31.496 233.545 31.496H235.657C235.801 31.496 235.921 31.536 236.017 31.616C236.129 31.696 236.185 31.808 236.185 31.952C236.185 32.336 235.953 32.792 235.489 33.32C235.041 33.832 234.393 34.28 233.545 34.664C232.697 35.048 231.713 35.24 230.593 35.24ZM233.209 27.656V27.608C233.209 26.664 232.969 25.912 232.489 25.352C232.025 24.776 231.385 24.488 230.569 24.488C229.753 24.488 229.113 24.776 228.649 25.352C228.185 25.912 227.953 26.664 227.953 27.608V27.656H233.209ZM239.644 35C239.484 35 239.348 34.944 239.236 34.832C239.124 34.72 239.068 34.584 239.068 34.424V23.096C239.068 22.92 239.124 22.784 239.236 22.688C239.348 22.576 239.484 22.52 239.644 22.52H241.636C241.812 22.52 241.948 22.576 242.044 22.688C242.156 22.784 242.212 22.92 242.212 23.096V24.08C243.188 22.88 244.524 22.28 246.22 22.28C247.692 22.28 248.86 22.76 249.724 23.72C250.588 24.68 251.02 26 251.02 27.68V34.424C251.02 34.584 250.964 34.72 250.852 34.832C250.756 34.944 250.62 35 250.444 35H248.284C248.124 35 247.988 34.944 247.876 34.832C247.764 34.72 247.708 34.584 247.708 34.424V27.824C247.708 26.896 247.476 26.176 247.012 25.664C246.564 25.136 245.916 24.872 245.068 24.872C244.252 24.872 243.596 25.136 243.1 25.664C242.604 26.192 242.356 26.912 242.356 27.824V34.424C242.356 34.584 242.3 34.72 242.188 34.832C242.092 34.944 241.956 35 241.78 35H239.644ZM265.073 35.24C263.185 35.24 261.729 34.76 260.705 33.8C259.681 32.84 259.129 31.512 259.049 29.816L259.025 28.76L259.049 27.704C259.129 26.024 259.689 24.704 260.729 23.744C261.769 22.768 263.217 22.28 265.073 22.28C266.913 22.28 268.353 22.768 269.393 23.744C270.433 24.704 270.993 26.024 271.073 27.704C271.089 27.896 271.097 28.248 271.097 28.76C271.097 29.272 271.089 29.624 271.073 29.816C270.993 31.512 270.441 32.84 269.417 33.8C268.393 34.76 266.945 35.24 265.073 35.24ZM265.073 32.816C265.921 32.816 266.569 32.552 267.017 32.024C267.481 31.496 267.729 30.72 267.761 29.696C267.777 29.536 267.785 29.224 267.785 28.76C267.785 28.296 267.777 27.984 267.761 27.824C267.729 26.8 267.481 26.024 267.017 25.496C266.553 24.952 265.905 24.68 265.073 24.68C264.225 24.68 263.569 24.952 263.105 25.496C262.641 26.024 262.393 26.8 262.361 27.824L262.337 28.76L262.361 29.696C262.393 30.72 262.641 31.496 263.105 32.024C263.569 32.552 264.225 32.816 265.073 32.816ZM261.905 20.264C261.745 20.264 261.617 20.216 261.521 20.12C261.425 20.024 261.377 19.896 261.377 19.736V17.96C261.377 17.8 261.425 17.672 261.521 17.576C261.617 17.464 261.745 17.408 261.905 17.408H263.681C263.841 17.408 263.969 17.464 264.065 17.576C264.177 17.672 264.233 17.8 264.233 17.96V19.736C264.233 19.896 264.177 20.024 264.065 20.12C263.969 20.216 263.841 20.264 263.681 20.264H261.905ZM266.441 20.264C266.281 20.264 266.153 20.216 266.057 20.12C265.961 20.024 265.913 19.896 265.913 19.736V17.96C265.913 17.8 265.961 17.672 266.057 17.576C266.153 17.464 266.281 17.408 266.441 17.408H268.217C268.377 17.408 268.505 17.464 268.601 17.576C268.713 17.672 268.769 17.8 268.769 17.96V19.736C268.769 19.896 268.713 20.024 268.601 20.12C268.505 20.216 268.377 20.264 268.217 20.264H266.441ZM279.396 40.28C277.972 40.28 276.82 40.04 275.94 39.56C275.06 39.096 274.436 38.56 274.068 37.952C273.7 37.344 273.516 36.824 273.516 36.392C273.516 36.232 273.572 36.096 273.684 35.984C273.796 35.888 273.932 35.84 274.092 35.84H276.228C276.372 35.84 276.492 35.872 276.588 35.936C276.7 36.016 276.788 36.152 276.852 36.344C277.028 36.76 277.292 37.112 277.644 37.4C277.996 37.704 278.54 37.856 279.276 37.856C280.236 37.856 280.94 37.64 281.388 37.208C281.836 36.792 282.06 36.056 282.06 35V33.368C281.196 34.392 279.972 34.904 278.388 34.904C276.724 34.904 275.468 34.4 274.62 33.392C273.788 32.384 273.34 31.008 273.276 29.264L273.252 28.616L273.276 27.968C273.34 26.256 273.796 24.88 274.644 23.84C275.492 22.8 276.74 22.28 278.388 22.28C279.236 22.28 279.98 22.44 280.62 22.76C281.26 23.08 281.788 23.512 282.204 24.056V23.12C282.204 22.944 282.26 22.8 282.372 22.688C282.5 22.576 282.644 22.52 282.804 22.52H284.772C284.932 22.52 285.068 22.576 285.18 22.688C285.292 22.8 285.348 22.944 285.348 23.12L285.372 34.688C285.372 36.464 284.876 37.84 283.884 38.816C282.892 39.792 281.396 40.28 279.396 40.28ZM279.3 32.36C280.196 32.36 280.868 32.072 281.316 31.496C281.764 30.92 282.012 30.216 282.06 29.384C282.076 29.256 282.084 29 282.084 28.616C282.084 28.232 282.076 27.976 282.06 27.848C282.012 27.016 281.764 26.312 281.316 25.736C280.868 25.16 280.196 24.872 279.3 24.872C277.572 24.872 276.66 25.928 276.564 28.04L276.54 28.616C276.54 31.112 277.46 32.36 279.3 32.36ZM279.3 20.84C278.212 20.84 277.396 20.544 276.852 19.952C276.324 19.344 276.06 18.576 276.06 17.648C276.06 17.52 276.1 17.416 276.18 17.336C276.26 17.24 276.372 17.192 276.516 17.192H277.668C277.812 17.192 277.924 17.24 278.004 17.336C278.084 17.416 278.124 17.52 278.124 17.648C278.124 18.64 278.516 19.136 279.3 19.136C280.1 19.136 280.5 18.64 280.5 17.648C280.5 17.52 280.54 17.416 280.62 17.336C280.7 17.24 280.812 17.192 280.956 17.192H282.108C282.252 17.192 282.364 17.24 282.444 17.336C282.524 17.416 282.564 17.52 282.564 17.648C282.564 18.576 282.292 19.344 281.748 19.952C281.22 20.544 280.404 20.84 279.3 20.84ZM289.121 35C288.961 35 288.825 34.944 288.713 34.832C288.601 34.72 288.545 34.584 288.545 34.424V23.12C288.545 22.944 288.601 22.8 288.713 22.688C288.825 22.576 288.961 22.52 289.121 22.52H291.089C291.265 22.52 291.409 22.576 291.521 22.688C291.633 22.8 291.689 22.944 291.689 23.12V24.104C292.489 23.048 293.641 22.52 295.145 22.52H296.153C296.329 22.52 296.465 22.576 296.561 22.688C296.673 22.784 296.729 22.92 296.729 23.096V24.848C296.729 25.008 296.673 25.144 296.561 25.256C296.465 25.368 296.329 25.424 296.153 25.424H294.257C293.505 25.424 292.913 25.64 292.481 26.072C292.049 26.504 291.833 27.096 291.833 27.848V34.424C291.833 34.584 291.777 34.72 291.665 34.832C291.553 34.944 291.417 35 291.257 35H289.121ZM303.836 35.24C302.044 35.24 300.62 34.728 299.564 33.704C298.524 32.68 297.972 31.224 297.908 29.336L297.884 28.736C297.884 26.736 298.404 25.16 299.444 24.008C300.5 22.856 301.956 22.28 303.812 22.28C305.716 22.28 307.18 22.856 308.204 24.008C309.244 25.16 309.764 26.696 309.764 28.616V29.12C309.764 29.28 309.708 29.416 309.596 29.528C309.484 29.64 309.34 29.696 309.164 29.696H301.196V29.888C301.228 30.784 301.468 31.528 301.916 32.12C302.38 32.696 303.012 32.984 303.812 32.984C304.724 32.984 305.468 32.616 306.044 31.88C306.188 31.704 306.3 31.6 306.38 31.568C306.46 31.52 306.596 31.496 306.788 31.496H308.9C309.044 31.496 309.164 31.536 309.26 31.616C309.372 31.696 309.428 31.808 309.428 31.952C309.428 32.336 309.196 32.792 308.732 33.32C308.284 33.832 307.636 34.28 306.788 34.664C305.94 35.048 304.956 35.24 303.836 35.24ZM306.452 27.656V27.608C306.452 26.664 306.212 25.912 305.732 25.352C305.268 24.776 304.628 24.488 303.812 24.488C302.996 24.488 302.356 24.776 301.892 25.352C301.428 25.912 301.196 26.664 301.196 27.608V27.656H306.452ZM312.887 35C312.727 35 312.591 34.944 312.479 34.832C312.367 34.72 312.311 34.584 312.311 34.424V23.096C312.311 22.92 312.367 22.784 312.479 22.688C312.591 22.576 312.727 22.52 312.887 22.52H314.879C315.055 22.52 315.191 22.576 315.287 22.688C315.399 22.784 315.455 22.92 315.455 23.096V24.08C316.431 22.88 317.767 22.28 319.463 22.28C320.935 22.28 322.103 22.76 322.967 23.72C323.831 24.68 324.263 26 324.263 27.68V34.424C324.263 34.584 324.207 34.72 324.095 34.832C323.999 34.944 323.863 35 323.687 35H321.527C321.367 35 321.231 34.944 321.119 34.832C321.007 34.72 320.951 34.584 320.951 34.424V27.824C320.951 26.896 320.719 26.176 320.255 25.664C319.807 25.136 319.159 24.872 318.311 24.872C317.495 24.872 316.839 25.136 316.343 25.664C315.847 26.192 315.599 26.912 315.599 27.824V34.424C315.599 34.584 315.543 34.72 315.431 34.832C315.335 34.944 315.199 35 315.023 35H312.887ZM327.887 35C327.727 35 327.591 34.944 327.479 34.832C327.367 34.72 327.311 34.584 327.311 34.424V23.096C327.311 22.92 327.367 22.784 327.479 22.688C327.591 22.576 327.727 22.52 327.887 22.52H329.783C329.959 22.52 330.095 22.576 330.191 22.688C330.303 22.784 330.359 22.92 330.359 23.096V23.912C331.223 22.824 332.383 22.28 333.839 22.28C335.615 22.28 336.855 22.992 337.559 24.416C337.943 23.776 338.487 23.264 339.191 22.88C339.895 22.48 340.655 22.28 341.471 22.28C342.783 22.28 343.855 22.728 344.687 23.624C345.519 24.52 345.935 25.824 345.935 27.536V34.424C345.935 34.584 345.879 34.72 345.767 34.832C345.671 34.944 345.535 35 345.359 35H343.367C343.207 35 343.071 34.944 342.959 34.832C342.847 34.72 342.791 34.584 342.791 34.424V27.728C342.791 26.72 342.575 25.992 342.143 25.544C341.727 25.096 341.175 24.872 340.487 24.872C339.863 24.872 339.327 25.104 338.879 25.568C338.447 26.016 338.231 26.736 338.231 27.728V34.424C338.231 34.584 338.175 34.72 338.063 34.832C337.967 34.944 337.831 35 337.655 35H335.639C335.479 35 335.343 34.944 335.231 34.832C335.119 34.72 335.063 34.584 335.063 34.424V27.728C335.063 26.736 334.847 26.016 334.415 25.568C333.983 25.104 333.431 24.872 332.759 24.872C332.135 24.872 331.599 25.104 331.151 25.568C330.719 26.016 330.503 26.736 330.503 27.728V34.424C330.503 34.584 330.447 34.72 330.335 34.832C330.239 34.944 330.103 35 329.927 35H327.887ZM354.39 35.24C352.598 35.24 351.174 34.728 350.118 33.704C349.078 32.68 348.526 31.224 348.462 29.336L348.438 28.736C348.438 26.736 348.958 25.16 349.998 24.008C351.054 22.856 352.51 22.28 354.366 22.28C356.27 22.28 357.734 22.856 358.758 24.008C359.798 25.16 360.318 26.696 360.318 28.616V29.12C360.318 29.28 360.262 29.416 360.15 29.528C360.038 29.64 359.894 29.696 359.718 29.696H351.75V29.888C351.782 30.784 352.022 31.528 352.47 32.12C352.934 32.696 353.566 32.984 354.366 32.984C355.278 32.984 356.022 32.616 356.598 31.88C356.742 31.704 356.854 31.6 356.934 31.568C357.014 31.52 357.15 31.496 357.342 31.496H359.454C359.598 31.496 359.718 31.536 359.814 31.616C359.926 31.696 359.982 31.808 359.982 31.952C359.982 32.336 359.75 32.792 359.286 33.32C358.838 33.832 358.19 34.28 357.342 34.664C356.494 35.048 355.51 35.24 354.39 35.24ZM357.006 27.656V27.608C357.006 26.664 356.766 25.912 356.286 25.352C355.822 24.776 355.182 24.488 354.366 24.488C353.55 24.488 352.91 24.776 352.446 25.352C351.982 25.912 351.75 26.664 351.75 27.608V27.656H357.006ZM364.606 39.56C364.478 39.56 364.358 39.512 364.246 39.416C364.15 39.32 364.102 39.208 364.102 39.08C364.102 38.968 364.134 38.84 364.198 38.696L366.094 34.256L361.486 23.384C361.422 23.24 361.39 23.128 361.39 23.048C361.406 22.904 361.462 22.784 361.558 22.688C361.654 22.576 361.774 22.52 361.918 22.52H363.91C364.198 22.52 364.406 22.672 364.534 22.976L367.726 30.8L370.966 22.976C371.126 22.672 371.35 22.52 371.638 22.52H373.582C373.726 22.52 373.846 22.568 373.942 22.664C374.038 22.76 374.086 22.872 374.086 23C374.086 23.112 374.054 23.24 373.99 23.384L367.198 39.104C367.07 39.408 366.846 39.56 366.526 39.56H364.606ZM376.634 20.48C376.474 20.48 376.338 20.424 376.226 20.312C376.114 20.2 376.058 20.064 376.058 19.904V18.152C376.058 17.976 376.114 17.832 376.226 17.72C376.338 17.608 376.474 17.552 376.634 17.552H378.842C379.018 17.552 379.162 17.608 379.274 17.72C379.386 17.832 379.442 17.976 379.442 18.152V19.904C379.442 20.064 379.378 20.2 379.25 20.312C379.138 20.424 379.002 20.48 378.842 20.48H376.634ZM376.73 35C376.57 35 376.434 34.944 376.322 34.832C376.21 34.72 376.154 34.584 376.154 34.424V23.096C376.154 22.92 376.21 22.784 376.322 22.688C376.434 22.576 376.57 22.52 376.73 22.52H378.77C378.93 22.52 379.066 22.576 379.178 22.688C379.29 22.8 379.346 22.936 379.346 23.096V34.424C379.346 34.584 379.29 34.72 379.178 34.832C379.066 34.944 378.93 35 378.77 35H376.73ZM394.903 35.24C393.239 35.24 391.967 34.672 391.087 33.536V34.424C391.087 34.584 391.031 34.72 390.919 34.832C390.807 34.944 390.663 35 390.487 35H388.567C388.407 35 388.271 34.944 388.159 34.832C388.047 34.72 387.991 34.584 387.991 34.424V18.536C387.991 18.36 388.047 18.224 388.159 18.128C388.271 18.016 388.407 17.96 388.567 17.96H390.655C390.831 17.96 390.967 18.016 391.063 18.128C391.175 18.224 391.231 18.36 391.231 18.536V23.864C392.127 22.808 393.351 22.28 394.903 22.28C396.519 22.28 397.759 22.808 398.623 23.864C399.503 24.904 399.967 26.272 400.015 27.968C400.031 28.16 400.039 28.424 400.039 28.76C400.039 29.08 400.031 29.344 400.015 29.552C399.951 31.28 399.487 32.664 398.623 33.704C397.759 34.728 396.519 35.24 394.903 35.24ZM393.991 32.648C395.703 32.648 396.615 31.592 396.727 29.48C396.743 29.32 396.751 29.08 396.751 28.76C396.751 28.44 396.743 28.2 396.727 28.04C396.615 25.928 395.703 24.872 393.991 24.872C393.111 24.872 392.439 25.152 391.975 25.712C391.511 26.272 391.263 26.952 391.231 27.752C391.215 27.944 391.207 28.256 391.207 28.688C391.207 29.104 391.215 29.408 391.231 29.6C391.263 30.448 391.503 31.168 391.951 31.76C392.399 32.352 393.079 32.648 393.991 32.648ZM403.285 35C403.125 35 402.989 34.944 402.877 34.832C402.765 34.72 402.709 34.584 402.709 34.424V23.096C402.709 22.92 402.765 22.784 402.877 22.688C402.989 22.576 403.125 22.52 403.285 22.52H405.325C405.485 22.52 405.621 22.576 405.733 22.688C405.845 22.8 405.901 22.936 405.901 23.096V34.424C405.901 34.584 405.845 34.72 405.733 34.832C405.621 34.944 405.485 35 405.325 35H403.285ZM409.637 35C409.477 35 409.341 34.944 409.229 34.832C409.117 34.72 409.061 34.584 409.061 34.424V23.12C409.061 22.944 409.117 22.8 409.229 22.688C409.341 22.576 409.477 22.52 409.637 22.52H411.605C411.781 22.52 411.925 22.576 412.037 22.688C412.149 22.8 412.205 22.944 412.205 23.12V24.104C413.005 23.048 414.157 22.52 415.661 22.52H416.669C416.845 22.52 416.981 22.576 417.077 22.688C417.189 22.784 417.245 22.92 417.245 23.096V24.848C417.245 25.008 417.189 25.144 417.077 25.256C416.981 25.368 416.845 25.424 416.669 25.424H414.773C414.021 25.424 413.429 25.64 412.997 26.072C412.565 26.504 412.349 27.096 412.349 27.848V34.424C412.349 34.584 412.293 34.72 412.181 34.832C412.069 34.944 411.933 35 411.773 35H409.637ZM422.552 35.24C421.736 35.24 420.984 35.08 420.296 34.76C419.624 34.424 419.088 33.976 418.688 33.416C418.304 32.856 418.112 32.24 418.112 31.568C418.112 30.48 418.552 29.6 419.432 28.928C420.312 28.256 421.52 27.8 423.056 27.56L426.344 27.08V26.576C426.344 25.888 426.168 25.368 425.816 25.016C425.464 24.664 424.904 24.488 424.136 24.488C423.608 24.488 423.184 24.584 422.864 24.776C422.544 24.968 422.28 25.168 422.072 25.376C421.88 25.568 421.752 25.696 421.688 25.76C421.624 25.952 421.504 26.048 421.328 26.048H419.456C419.312 26.048 419.184 26 419.072 25.904C418.976 25.808 418.928 25.68 418.928 25.52C418.944 25.12 419.136 24.672 419.504 24.176C419.888 23.664 420.472 23.224 421.256 22.856C422.04 22.472 423.008 22.28 424.16 22.28C426.048 22.28 427.424 22.704 428.288 23.552C429.152 24.4 429.584 25.512 429.584 26.888V34.424C429.584 34.584 429.528 34.72 429.416 34.832C429.32 34.944 429.184 35 429.008 35H427.016C426.856 35 426.72 34.944 426.608 34.832C426.496 34.72 426.44 34.584 426.44 34.424V33.488C426.088 34 425.592 34.424 424.952 34.76C424.312 35.08 423.512 35.24 422.552 35.24ZM423.368 32.936C424.248 32.936 424.968 32.648 425.528 32.072C426.088 31.496 426.368 30.664 426.368 29.576V29.096L423.968 29.48C422.128 29.768 421.208 30.384 421.208 31.328C421.208 31.84 421.416 32.24 421.832 32.528C422.264 32.8 422.776 32.936 423.368 32.936ZM433.262 35C433.102 35 432.966 34.944 432.854 34.832C432.742 34.72 432.686 34.584 432.686 34.424V18.536C432.686 18.36 432.742 18.224 432.854 18.128C432.966 18.016 433.102 17.96 433.262 17.96H435.254C435.414 17.96 435.55 18.016 435.662 18.128C435.774 18.24 435.83 18.376 435.83 18.536V26.744L439.814 22.928C439.862 22.896 439.934 22.84 440.03 22.76C440.142 22.664 440.246 22.6 440.342 22.568C440.438 22.536 440.558 22.52 440.702 22.52H442.982C443.142 22.52 443.27 22.568 443.366 22.664C443.462 22.76 443.51 22.888 443.51 23.048C443.51 23.192 443.43 23.336 443.27 23.48L438.374 28.112L443.87 34.064C444.014 34.208 444.086 34.344 444.086 34.472C444.086 34.632 444.038 34.76 443.942 34.856C443.846 34.952 443.726 35 443.582 35H441.254C441.03 35 440.862 34.976 440.75 34.928C440.654 34.864 440.526 34.752 440.366 34.592L435.83 29.768V34.424C435.83 34.584 435.774 34.72 435.662 34.832C435.55 34.944 435.414 35 435.254 35H433.262ZM446.48 35C446.32 35 446.184 34.944 446.072 34.832C445.96 34.72 445.904 34.584 445.904 34.424V23.096C445.904 22.92 445.96 22.784 446.072 22.688C446.184 22.576 446.32 22.52 446.48 22.52H448.376C448.552 22.52 448.688 22.576 448.784 22.688C448.896 22.784 448.952 22.92 448.952 23.096V23.912C449.816 22.824 450.976 22.28 452.432 22.28C454.208 22.28 455.448 22.992 456.152 24.416C456.536 23.776 457.08 23.264 457.784 22.88C458.488 22.48 459.248 22.28 460.064 22.28C461.376 22.28 462.448 22.728 463.28 23.624C464.112 24.52 464.528 25.824 464.528 27.536V34.424C464.528 34.584 464.472 34.72 464.36 34.832C464.264 34.944 464.128 35 463.952 35H461.96C461.8 35 461.664 34.944 461.552 34.832C461.44 34.72 461.384 34.584 461.384 34.424V27.728C461.384 26.72 461.168 25.992 460.736 25.544C460.32 25.096 459.768 24.872 459.08 24.872C458.456 24.872 457.92 25.104 457.472 25.568C457.04 26.016 456.824 26.736 456.824 27.728V34.424C456.824 34.584 456.768 34.72 456.656 34.832C456.56 34.944 456.424 35 456.248 35H454.232C454.072 35 453.936 34.944 453.824 34.832C453.712 34.72 453.656 34.584 453.656 34.424V27.728C453.656 26.736 453.44 26.016 453.008 25.568C452.576 25.104 452.024 24.872 451.352 24.872C450.728 24.872 450.192 25.104 449.744 25.568C449.312 26.016 449.096 26.736 449.096 27.728V34.424C449.096 34.584 449.04 34.72 448.928 34.832C448.832 34.944 448.696 35 448.52 35H446.48ZM471.208 35.24C470.392 35.24 469.64 35.08 468.952 34.76C468.28 34.424 467.744 33.976 467.344 33.416C466.96 32.856 466.768 32.24 466.768 31.568C466.768 30.48 467.208 29.6 468.088 28.928C468.968 28.256 470.176 27.8 471.712 27.56L475 27.08V26.576C475 25.888 474.824 25.368 474.472 25.016C474.12 24.664 473.56 24.488 472.792 24.488C472.264 24.488 471.84 24.584 471.52 24.776C471.2 24.968 470.936 25.168 470.728 25.376C470.536 25.568 470.408 25.696 470.344 25.76C470.28 25.952 470.16 26.048 469.984 26.048H468.112C467.968 26.048 467.84 26 467.728 25.904C467.632 25.808 467.584 25.68 467.584 25.52C467.6 25.12 467.792 24.672 468.16 24.176C468.544 23.664 469.128 23.224 469.912 22.856C470.696 22.472 471.664 22.28 472.816 22.28C474.704 22.28 476.08 22.704 476.944 23.552C477.808 24.4 478.24 25.512 478.24 26.888V34.424C478.24 34.584 478.184 34.72 478.072 34.832C477.976 34.944 477.84 35 477.664 35H475.672C475.512 35 475.376 34.944 475.264 34.832C475.152 34.72 475.096 34.584 475.096 34.424V33.488C474.744 34 474.248 34.424 473.608 34.76C472.968 35.08 472.168 35.24 471.208 35.24ZM472.024 32.936C472.904 32.936 473.624 32.648 474.184 32.072C474.744 31.496 475.024 30.664 475.024 29.576V29.096L472.624 29.48C470.784 29.768 469.864 30.384 469.864 31.328C469.864 31.84 470.072 32.24 470.488 32.528C470.92 32.8 471.432 32.936 472.024 32.936ZM485.95 35.24C484.334 35.24 483.094 34.728 482.23 33.704C481.366 32.664 480.894 31.28 480.814 29.552L480.79 28.76L480.814 27.968C480.878 26.272 481.342 24.904 482.206 23.864C483.086 22.808 484.334 22.28 485.95 22.28C487.486 22.28 488.71 22.808 489.622 23.864V18.536C489.622 18.36 489.678 18.224 489.79 18.128C489.902 18.016 490.038 17.96 490.198 17.96H492.286C492.462 17.96 492.598 18.016 492.694 18.128C492.806 18.224 492.862 18.36 492.862 18.536V34.424C492.862 34.584 492.806 34.72 492.694 34.832C492.598 34.944 492.462 35 492.286 35H490.342C490.182 35 490.046 34.944 489.934 34.832C489.822 34.72 489.766 34.584 489.766 34.424V33.536C488.886 34.672 487.614 35.24 485.95 35.24ZM486.862 32.648C487.774 32.648 488.446 32.36 488.878 31.784C489.326 31.192 489.574 30.464 489.622 29.6C489.638 29.408 489.646 29.104 489.646 28.688C489.646 28.256 489.638 27.944 489.622 27.752C489.59 26.952 489.342 26.272 488.878 25.712C488.414 25.152 487.742 24.872 486.862 24.872C485.15 24.872 484.238 25.928 484.126 28.04L484.102 28.76L484.126 29.48C484.238 31.592 485.15 32.648 486.862 32.648ZM496.637 35C496.477 35 496.341 34.944 496.229 34.832C496.117 34.72 496.061 34.584 496.061 34.424V23.096C496.061 22.92 496.117 22.784 496.229 22.688C496.341 22.576 496.477 22.52 496.637 22.52H498.677C498.837 22.52 498.973 22.576 499.085 22.688C499.197 22.8 499.253 22.936 499.253 23.096V34.424C499.253 34.584 499.197 34.72 499.085 34.832C498.973 34.944 498.837 35 498.677 35H496.637ZM508.052 40.28C506.628 40.28 505.476 40.04 504.596 39.56C503.716 39.096 503.092 38.56 502.724 37.952C502.356 37.344 502.172 36.824 502.172 36.392C502.172 36.232 502.228 36.096 502.34 35.984C502.452 35.888 502.588 35.84 502.748 35.84H504.884C505.028 35.84 505.148 35.872 505.244 35.936C505.356 36.016 505.444 36.152 505.508 36.344C505.684 36.76 505.948 37.112 506.3 37.4C506.652 37.704 507.196 37.856 507.932 37.856C508.892 37.856 509.596 37.64 510.044 37.208C510.492 36.792 510.716 36.056 510.716 35V33.368C509.852 34.392 508.628 34.904 507.044 34.904C505.38 34.904 504.124 34.4 503.276 33.392C502.444 32.384 501.996 31.008 501.932 29.264L501.908 28.616L501.932 27.968C501.996 26.256 502.452 24.88 503.3 23.84C504.148 22.8 505.396 22.28 507.044 22.28C507.892 22.28 508.636 22.44 509.276 22.76C509.916 23.08 510.444 23.512 510.86 24.056V23.12C510.86 22.944 510.916 22.8 511.028 22.688C511.156 22.576 511.3 22.52 511.46 22.52H513.428C513.588 22.52 513.724 22.576 513.836 22.688C513.948 22.8 514.004 22.944 514.004 23.12L514.028 34.688C514.028 36.464 513.532 37.84 512.54 38.816C511.548 39.792 510.052 40.28 508.052 40.28ZM507.956 32.36C508.852 32.36 509.524 32.072 509.972 31.496C510.42 30.92 510.668 30.216 510.716 29.384C510.732 29.256 510.74 29 510.74 28.616C510.74 28.232 510.732 27.976 510.716 27.848C510.668 27.016 510.42 26.312 509.972 25.736C509.524 25.16 508.852 24.872 507.956 24.872C506.228 24.872 505.316 25.928 505.22 28.04L505.196 28.616C505.196 31.112 506.116 32.36 507.956 32.36ZM507.956 20.84C506.868 20.84 506.052 20.544 505.508 19.952C504.98 19.344 504.716 18.576 504.716 17.648C504.716 17.52 504.756 17.416 504.836 17.336C504.916 17.24 505.028 17.192 505.172 17.192H506.324C506.468 17.192 506.58 17.24 506.66 17.336C506.74 17.416 506.78 17.52 506.78 17.648C506.78 18.64 507.172 19.136 507.956 19.136C508.756 19.136 509.156 18.64 509.156 17.648C509.156 17.52 509.196 17.416 509.276 17.336C509.356 17.24 509.468 17.192 509.612 17.192H510.764C510.908 17.192 511.02 17.24 511.1 17.336C511.18 17.416 511.22 17.52 511.22 17.648C511.22 18.576 510.948 19.344 510.404 19.952C509.876 20.544 509.06 20.84 507.956 20.84ZM517.777 35C517.617 35 517.481 34.944 517.369 34.832C517.257 34.72 517.201 34.584 517.201 34.424V23.096C517.201 22.92 517.257 22.784 517.369 22.688C517.481 22.576 517.617 22.52 517.777 22.52H519.817C519.977 22.52 520.113 22.576 520.225 22.688C520.337 22.8 520.393 22.936 520.393 23.096V34.424C520.393 34.584 520.337 34.72 520.225 34.832C520.113 34.944 519.977 35 519.817 35H517.777ZM524.129 35C523.969 35 523.833 34.944 523.721 34.832C523.609 34.72 523.553 34.584 523.553 34.424V23.096C523.553 22.92 523.609 22.784 523.721 22.688C523.833 22.576 523.969 22.52 524.129 22.52H526.025C526.201 22.52 526.337 22.576 526.433 22.688C526.545 22.784 526.601 22.92 526.601 23.096V23.912C527.465 22.824 528.625 22.28 530.081 22.28C531.857 22.28 533.097 22.992 533.801 24.416C534.185 23.776 534.729 23.264 535.433 22.88C536.137 22.48 536.897 22.28 537.713 22.28C539.025 22.28 540.097 22.728 540.929 23.624C541.761 24.52 542.177 25.824 542.177 27.536V34.424C542.177 34.584 542.121 34.72 542.009 34.832C541.913 34.944 541.777 35 541.601 35H539.609C539.449 35 539.313 34.944 539.201 34.832C539.089 34.72 539.033 34.584 539.033 34.424V27.728C539.033 26.72 538.817 25.992 538.385 25.544C537.969 25.096 537.417 24.872 536.729 24.872C536.105 24.872 535.569 25.104 535.121 25.568C534.689 26.016 534.473 26.736 534.473 27.728V34.424C534.473 34.584 534.417 34.72 534.305 34.832C534.209 34.944 534.073 35 533.897 35H531.881C531.721 35 531.585 34.944 531.473 34.832C531.361 34.72 531.305 34.584 531.305 34.424V27.728C531.305 26.736 531.089 26.016 530.657 25.568C530.225 25.104 529.673 24.872 529.001 24.872C528.377 24.872 527.841 25.104 527.393 25.568C526.961 26.016 526.745 26.736 526.745 27.728V34.424C526.745 34.584 526.689 34.72 526.577 34.832C526.481 34.944 526.345 35 526.169 35H524.129ZM555.445 35.24C554.229 35.24 553.213 35.056 552.397 34.688C551.581 34.32 550.973 33.896 550.573 33.416C550.189 32.92 549.997 32.496 549.997 32.144C549.997 31.984 550.045 31.856 550.141 31.76C550.253 31.664 550.381 31.616 550.525 31.616H552.493C552.621 31.616 552.733 31.68 552.829 31.808C552.909 31.872 553.085 32.024 553.357 32.264C553.645 32.504 553.965 32.696 554.317 32.84C554.685 32.968 555.085 33.032 555.517 33.032C556.157 33.032 556.677 32.912 557.077 32.672C557.477 32.416 557.677 32.056 557.677 31.592C557.677 31.272 557.581 31.016 557.389 30.824C557.213 30.616 556.885 30.432 556.405 30.272C555.941 30.096 555.237 29.904 554.293 29.696C552.933 29.408 551.925 28.968 551.269 28.376C550.629 27.784 550.309 27 550.309 26.024C550.309 25.384 550.501 24.784 550.885 24.224C551.269 23.648 551.837 23.184 552.589 22.832C553.357 22.464 554.269 22.28 555.325 22.28C556.413 22.28 557.349 22.456 558.133 22.808C558.917 23.144 559.509 23.552 559.909 24.032C560.325 24.512 560.533 24.936 560.533 25.304C560.533 25.448 560.477 25.576 560.365 25.688C560.269 25.784 560.149 25.832 560.005 25.832H558.205C558.029 25.832 557.893 25.768 557.797 25.64C557.685 25.56 557.501 25.416 557.245 25.208C557.005 24.984 556.733 24.808 556.429 24.68C556.125 24.552 555.757 24.488 555.325 24.488C554.733 24.488 554.277 24.616 553.957 24.872C553.637 25.128 553.477 25.464 553.477 25.88C553.477 26.168 553.549 26.408 553.693 26.6C553.853 26.792 554.165 26.976 554.629 27.152C555.093 27.312 555.789 27.48 556.717 27.656C559.597 28.216 561.037 29.472 561.037 31.424C561.037 32.56 560.541 33.48 559.549 34.184C558.573 34.888 557.205 35.24 555.445 35.24ZM568.122 35.24C566.65 35.24 565.49 34.76 564.642 33.8C563.794 32.84 563.37 31.52 563.37 29.84V23.096C563.37 22.92 563.426 22.784 563.538 22.688C563.65 22.576 563.786 22.52 563.946 22.52H566.106C566.266 22.52 566.402 22.576 566.514 22.688C566.626 22.8 566.682 22.936 566.682 23.096V29.696C566.682 31.664 567.538 32.648 569.25 32.648C570.082 32.648 570.738 32.384 571.218 31.856C571.714 31.328 571.962 30.608 571.962 29.696V23.096C571.962 22.92 572.018 22.784 572.13 22.688C572.242 22.576 572.378 22.52 572.538 22.52H574.674C574.85 22.52 574.986 22.576 575.082 22.688C575.194 22.784 575.25 22.92 575.25 23.096V34.424C575.25 34.584 575.194 34.72 575.082 34.832C574.986 34.944 574.85 35 574.674 35H572.682C572.522 35 572.386 34.944 572.274 34.832C572.162 34.72 572.106 34.584 572.106 34.424V33.44C571.226 34.64 569.898 35.24 568.122 35.24ZM566.154 20.264C565.994 20.264 565.866 20.216 565.77 20.12C565.674 20.024 565.626 19.896 565.626 19.736V17.96C565.626 17.8 565.674 17.672 565.77 17.576C565.866 17.464 565.994 17.408 566.154 17.408H567.93C568.09 17.408 568.218 17.464 568.314 17.576C568.426 17.672 568.482 17.8 568.482 17.96V19.736C568.482 19.896 568.426 20.024 568.314 20.12C568.218 20.216 568.09 20.264 567.93 20.264H566.154ZM570.69 20.264C570.53 20.264 570.402 20.216 570.306 20.12C570.21 20.024 570.162 19.896 570.162 19.736V17.96C570.162 17.8 570.21 17.672 570.306 17.576C570.402 17.464 570.53 17.408 570.69 17.408H572.466C572.626 17.408 572.754 17.464 572.85 17.576C572.962 17.672 573.018 17.8 573.018 17.96V19.736C573.018 19.896 572.962 20.024 572.85 20.12C572.754 20.216 572.626 20.264 572.466 20.264H570.69ZM578.996 35C578.836 35 578.7 34.944 578.588 34.832C578.476 34.72 578.42 34.584 578.42 34.424V23.12C578.42 22.944 578.476 22.8 578.588 22.688C578.7 22.576 578.836 22.52 578.996 22.52H580.964C581.14 22.52 581.284 22.576 581.396 22.688C581.508 22.8 581.564 22.944 581.564 23.12V24.104C582.364 23.048 583.516 22.52 585.02 22.52H586.028C586.204 22.52 586.34 22.576 586.436 22.688C586.548 22.784 586.604 22.92 586.604 23.096V24.848C586.604 25.008 586.548 25.144 586.436 25.256C586.34 25.368 586.204 25.424 586.028 25.424H584.132C583.38 25.424 582.788 25.64 582.356 26.072C581.924 26.504 581.708 27.096 581.708 27.848V34.424C581.708 34.584 581.652 34.72 581.54 34.832C581.428 34.944 581.292 35 581.132 35H578.996ZM593.711 35.24C591.919 35.24 590.495 34.728 589.439 33.704C588.399 32.68 587.847 31.224 587.783 29.336L587.759 28.736C587.759 26.736 588.279 25.16 589.319 24.008C590.375 22.856 591.831 22.28 593.687 22.28C595.591 22.28 597.055 22.856 598.079 24.008C599.119 25.16 599.639 26.696 599.639 28.616V29.12C599.639 29.28 599.583 29.416 599.471 29.528C599.359 29.64 599.215 29.696 599.039 29.696H591.071V29.888C591.103 30.784 591.343 31.528 591.791 32.12C592.255 32.696 592.887 32.984 593.687 32.984C594.599 32.984 595.343 32.616 595.919 31.88C596.063 31.704 596.175 31.6 596.255 31.568C596.335 31.52 596.471 31.496 596.663 31.496H598.775C598.919 31.496 599.039 31.536 599.135 31.616C599.247 31.696 599.303 31.808 599.303 31.952C599.303 32.336 599.071 32.792 598.607 33.32C598.159 33.832 597.511 34.28 596.663 34.664C595.815 35.048 594.831 35.24 593.711 35.24ZM596.327 27.656V27.608C596.327 26.664 596.087 25.912 595.607 25.352C595.143 24.776 594.503 24.488 593.687 24.488C592.871 24.488 592.231 24.776 591.767 25.352C591.303 25.912 591.071 26.664 591.071 27.608V27.656H596.327ZM607.586 35.24C605.826 35.24 604.418 34.752 603.362 33.776C602.322 32.8 601.77 31.448 601.706 29.72L601.682 28.76L601.706 27.8C601.77 26.072 602.322 24.72 603.362 23.744C604.418 22.768 605.826 22.28 607.586 22.28C608.85 22.28 609.914 22.504 610.778 22.952C611.658 23.4 612.306 23.952 612.722 24.608C613.154 25.248 613.386 25.864 613.418 26.456C613.434 26.616 613.378 26.752 613.25 26.864C613.138 26.976 613.002 27.032 612.842 27.032H610.706C610.53 27.032 610.402 27 610.322 26.936C610.242 26.856 610.162 26.72 610.082 26.528C609.842 25.92 609.522 25.48 609.122 25.208C608.738 24.936 608.242 24.8 607.634 24.8C606.818 24.8 606.178 25.056 605.714 25.568C605.266 26.08 605.026 26.864 604.994 27.92L604.97 28.808L604.994 29.6C605.09 31.68 605.97 32.72 607.634 32.72C608.258 32.72 608.762 32.592 609.146 32.336C609.53 32.064 609.842 31.616 610.082 30.992C610.146 30.816 610.218 30.688 610.298 30.608C610.394 30.528 610.53 30.488 610.706 30.488H612.842C613.002 30.488 613.138 30.544 613.25 30.656C613.378 30.768 613.434 30.904 613.418 31.064C613.386 31.624 613.162 32.232 612.746 32.888C612.33 33.528 611.69 34.08 610.826 34.544C609.962 35.008 608.882 35.24 607.586 35.24ZM621.32 35.24C619.528 35.24 618.104 34.728 617.048 33.704C616.008 32.68 615.456 31.224 615.392 29.336L615.368 28.736C615.368 26.736 615.888 25.16 616.928 24.008C617.984 22.856 619.44 22.28 621.296 22.28C623.2 22.28 624.664 22.856 625.688 24.008C626.728 25.16 627.248 26.696 627.248 28.616V29.12C627.248 29.28 627.192 29.416 627.08 29.528C626.968 29.64 626.824 29.696 626.648 29.696H618.68V29.888C618.712 30.784 618.952 31.528 619.4 32.12C619.864 32.696 620.496 32.984 621.296 32.984C622.208 32.984 622.952 32.616 623.528 31.88C623.672 31.704 623.784 31.6 623.864 31.568C623.944 31.52 624.08 31.496 624.272 31.496H626.384C626.528 31.496 626.648 31.536 626.744 31.616C626.856 31.696 626.912 31.808 626.912 31.952C626.912 32.336 626.68 32.792 626.216 33.32C625.768 33.832 625.12 34.28 624.272 34.664C623.424 35.048 622.44 35.24 621.32 35.24ZM623.936 27.656V27.608C623.936 26.664 623.696 25.912 623.216 25.352C622.752 24.776 622.112 24.488 621.296 24.488C620.48 24.488 619.84 24.776 619.376 25.352C618.912 25.912 618.68 26.664 618.68 27.608V27.656H623.936ZM640.896 40.28C639.472 40.28 638.32 40.04 637.44 39.56C636.56 39.096 635.936 38.56 635.568 37.952C635.2 37.344 635.016 36.824 635.016 36.392C635.016 36.232 635.072 36.096 635.184 35.984C635.296 35.888 635.432 35.84 635.592 35.84H637.728C637.872 35.84 637.992 35.872 638.088 35.936C638.2 36.016 638.288 36.152 638.352 36.344C638.528 36.76 638.792 37.112 639.144 37.4C639.496 37.704 640.04 37.856 640.776 37.856C641.736 37.856 642.44 37.64 642.888 37.208C643.336 36.792 643.56 36.056 643.56 35V33.368C642.696 34.392 641.472 34.904 639.888 34.904C638.224 34.904 636.968 34.4 636.12 33.392C635.288 32.384 634.84 31.008 634.776 29.264L634.752 28.616L634.776 27.968C634.84 26.256 635.296 24.88 636.144 23.84C636.992 22.8 638.24 22.28 639.888 22.28C640.736 22.28 641.48 22.44 642.12 22.76C642.76 23.08 643.288 23.512 643.704 24.056V23.12C643.704 22.944 643.76 22.8 643.872 22.688C644 22.576 644.144 22.52 644.304 22.52H646.272C646.432 22.52 646.568 22.576 646.68 22.688C646.792 22.8 646.848 22.944 646.848 23.12L646.872 34.688C646.872 36.464 646.376 37.84 645.384 38.816C644.392 39.792 642.896 40.28 640.896 40.28ZM640.8 32.36C641.696 32.36 642.368 32.072 642.816 31.496C643.264 30.92 643.512 30.216 643.56 29.384C643.576 29.256 643.584 29 643.584 28.616C643.584 28.232 643.576 27.976 643.56 27.848C643.512 27.016 643.264 26.312 642.816 25.736C642.368 25.16 641.696 24.872 640.8 24.872C639.072 24.872 638.16 25.928 638.064 28.04L638.04 28.616C638.04 31.112 638.96 32.36 640.8 32.36ZM654.677 35.24C653.205 35.24 652.045 34.76 651.197 33.8C650.349 32.84 649.925 31.52 649.925 29.84V23.096C649.925 22.92 649.981 22.784 650.093 22.688C650.205 22.576 650.341 22.52 650.501 22.52H652.661C652.821 22.52 652.957 22.576 653.069 22.688C653.181 22.8 653.237 22.936 653.237 23.096V29.696C653.237 31.664 654.093 32.648 655.805 32.648C656.637 32.648 657.293 32.384 657.773 31.856C658.269 31.328 658.517 30.608 658.517 29.696V23.096C658.517 22.92 658.573 22.784 658.685 22.688C658.797 22.576 658.933 22.52 659.093 22.52H661.229C661.405 22.52 661.541 22.576 661.637 22.688C661.749 22.784 661.805 22.92 661.805 23.096V34.424C661.805 34.584 661.749 34.72 661.637 34.832C661.541 34.944 661.405 35 661.229 35H659.237C659.077 35 658.941 34.944 658.829 34.832C658.717 34.72 658.661 34.584 658.661 34.424V33.44C657.781 34.64 656.453 35.24 654.677 35.24ZM652.709 20.264C652.549 20.264 652.421 20.216 652.325 20.12C652.229 20.024 652.181 19.896 652.181 19.736V17.96C652.181 17.8 652.229 17.672 652.325 17.576C652.421 17.464 652.549 17.408 652.709 17.408H654.485C654.645 17.408 654.773 17.464 654.869 17.576C654.981 17.672 655.037 17.8 655.037 17.96V19.736C655.037 19.896 654.981 20.024 654.869 20.12C654.773 20.216 654.645 20.264 654.485 20.264H652.709ZM657.245 20.264C657.085 20.264 656.957 20.216 656.861 20.12C656.765 20.024 656.717 19.896 656.717 19.736V17.96C656.717 17.8 656.765 17.672 656.861 17.576C656.957 17.464 657.085 17.408 657.245 17.408H659.021C659.181 17.408 659.309 17.464 659.405 17.576C659.517 17.672 659.573 17.8 659.573 17.96V19.736C659.573 19.896 659.517 20.024 659.405 20.12C659.309 20.216 659.181 20.264 659.021 20.264H657.245ZM665.551 35C665.391 35 665.255 34.944 665.143 34.832C665.031 34.72 664.975 34.584 664.975 34.424V23.096C664.975 22.92 665.031 22.784 665.143 22.688C665.255 22.576 665.391 22.52 665.551 22.52H667.543C667.719 22.52 667.855 22.576 667.951 22.688C668.063 22.784 668.119 22.92 668.119 23.096V24.08C669.095 22.88 670.431 22.28 672.127 22.28C673.599 22.28 674.767 22.76 675.631 23.72C676.495 24.68 676.927 26 676.927 27.68V34.424C676.927 34.584 676.871 34.72 676.759 34.832C676.663 34.944 676.527 35 676.351 35H674.191C674.031 35 673.895 34.944 673.783 34.832C673.671 34.72 673.615 34.584 673.615 34.424V27.824C673.615 26.896 673.383 26.176 672.919 25.664C672.471 25.136 671.823 24.872 670.975 24.872C670.159 24.872 669.503 25.136 669.007 25.664C668.511 26.192 668.263 26.912 668.263 27.824V34.424C668.263 34.584 668.207 34.72 668.095 34.832C667.999 34.944 667.863 35 667.687 35H665.551ZM685.375 35.24C683.615 35.24 682.207 34.752 681.151 33.776C680.111 32.8 679.559 31.448 679.495 29.72L679.471 28.76L679.495 27.8C679.559 26.072 680.111 24.72 681.151 23.744C682.207 22.768 683.615 22.28 685.375 22.28C686.639 22.28 687.703 22.504 688.567 22.952C689.447 23.4 690.095 23.952 690.511 24.608C690.943 25.248 691.175 25.864 691.207 26.456C691.223 26.616 691.167 26.752 691.039 26.864C690.927 26.976 690.791 27.032 690.631 27.032H688.495C688.319 27.032 688.191 27 688.111 26.936C688.031 26.856 687.951 26.72 687.871 26.528C687.631 25.92 687.311 25.48 686.911 25.208C686.527 24.936 686.031 24.8 685.423 24.8C684.607 24.8 683.967 25.056 683.503 25.568C683.055 26.08 682.815 26.864 682.783 27.92L682.759 28.808L682.783 29.6C682.879 31.68 683.759 32.72 685.423 32.72C686.047 32.72 686.551 32.592 686.935 32.336C687.319 32.064 687.631 31.616 687.871 30.992C687.935 30.816 688.007 30.688 688.087 30.608C688.183 30.528 688.319 30.488 688.495 30.488H690.631C690.791 30.488 690.927 30.544 691.039 30.656C691.167 30.768 691.223 30.904 691.207 31.064C691.175 31.624 690.951 32.232 690.535 32.888C690.119 33.528 689.479 34.08 688.615 34.544C687.751 35.008 686.671 35.24 685.375 35.24ZM699.109 35.24C697.317 35.24 695.893 34.728 694.837 33.704C693.797 32.68 693.245 31.224 693.181 29.336L693.157 28.736C693.157 26.736 693.677 25.16 694.717 24.008C695.773 22.856 697.229 22.28 699.085 22.28C700.989 22.28 702.453 22.856 703.477 24.008C704.517 25.16 705.037 26.696 705.037 28.616V29.12C705.037 29.28 704.981 29.416 704.869 29.528C704.757 29.64 704.613 29.696 704.437 29.696H696.469V29.888C696.501 30.784 696.741 31.528 697.189 32.12C697.653 32.696 698.285 32.984 699.085 32.984C699.997 32.984 700.741 32.616 701.317 31.88C701.461 31.704 701.573 31.6 701.653 31.568C701.733 31.52 701.869 31.496 702.061 31.496H704.173C704.317 31.496 704.437 31.536 704.533 31.616C704.645 31.696 704.701 31.808 704.701 31.952C704.701 32.336 704.469 32.792 704.005 33.32C703.557 33.832 702.909 34.28 702.061 34.664C701.213 35.048 700.229 35.24 699.109 35.24ZM701.725 27.656V27.608C701.725 26.664 701.485 25.912 701.005 25.352C700.541 24.776 699.901 24.488 699.085 24.488C698.269 24.488 697.629 24.776 697.165 25.352C696.701 25.912 696.469 26.664 696.469 27.608V27.656H701.725ZM708.184 35C708.024 35 707.888 34.944 707.776 34.832C707.664 34.72 707.608 34.584 707.608 34.424V18.536C707.608 18.36 707.664 18.224 707.776 18.128C707.888 18.016 708.024 17.96 708.184 17.96H710.2C710.376 17.96 710.512 18.016 710.608 18.128C710.72 18.224 710.776 18.36 710.776 18.536V34.424C710.776 34.584 710.72 34.72 710.608 34.832C710.512 34.944 710.376 35 710.2 35H708.184ZM714.559 35C714.399 35 714.263 34.944 714.151 34.832C714.039 34.72 713.983 34.584 713.983 34.424V18.536C713.983 18.36 714.039 18.224 714.151 18.128C714.263 18.016 714.399 17.96 714.559 17.96H716.575C716.751 17.96 716.887 18.016 716.983 18.128C717.095 18.224 717.151 18.36 717.151 18.536V34.424C717.151 34.584 717.095 34.72 716.983 34.832C716.887 34.944 716.751 35 716.575 35H714.559ZM725.734 35.24C723.942 35.24 722.518 34.728 721.462 33.704C720.422 32.68 719.87 31.224 719.806 29.336L719.782 28.736C719.782 26.736 720.302 25.16 721.342 24.008C722.398 22.856 723.854 22.28 725.71 22.28C727.614 22.28 729.078 22.856 730.102 24.008C731.142 25.16 731.662 26.696 731.662 28.616V29.12C731.662 29.28 731.606 29.416 731.494 29.528C731.382 29.64 731.238 29.696 731.062 29.696H723.094V29.888C723.126 30.784 723.366 31.528 723.814 32.12C724.278 32.696 724.91 32.984 725.71 32.984C726.622 32.984 727.366 32.616 727.942 31.88C728.086 31.704 728.198 31.6 728.278 31.568C728.358 31.52 728.494 31.496 728.686 31.496H730.798C730.942 31.496 731.062 31.536 731.158 31.616C731.27 31.696 731.326 31.808 731.326 31.952C731.326 32.336 731.094 32.792 730.63 33.32C730.182 33.832 729.534 34.28 728.686 34.664C727.838 35.048 726.854 35.24 725.734 35.24ZM728.35 27.656V27.608C728.35 26.664 728.11 25.912 727.63 25.352C727.166 24.776 726.526 24.488 725.71 24.488C724.894 24.488 724.254 24.776 723.79 25.352C723.326 25.912 723.094 26.664 723.094 27.608V27.656H728.35ZM734.785 35C734.625 35 734.489 34.944 734.377 34.832C734.265 34.72 734.209 34.584 734.209 34.424V23.096C734.209 22.92 734.265 22.784 734.377 22.688C734.489 22.576 734.625 22.52 734.785 22.52H736.681C736.857 22.52 736.993 22.576 737.089 22.688C737.201 22.784 737.257 22.92 737.257 23.096V23.912C738.121 22.824 739.281 22.28 740.737 22.28C742.513 22.28 743.753 22.992 744.457 24.416C744.841 23.776 745.385 23.264 746.089 22.88C746.793 22.48 747.553 22.28 748.369 22.28C749.681 22.28 750.753 22.728 751.585 23.624C752.417 24.52 752.833 25.824 752.833 27.536V34.424C752.833 34.584 752.777 34.72 752.665 34.832C752.569 34.944 752.433 35 752.257 35H750.265C750.105 35 749.969 34.944 749.857 34.832C749.745 34.72 749.689 34.584 749.689 34.424V27.728C749.689 26.72 749.473 25.992 749.041 25.544C748.625 25.096 748.073 24.872 747.385 24.872C746.761 24.872 746.225 25.104 745.777 25.568C745.345 26.016 745.129 26.736 745.129 27.728V34.424C745.129 34.584 745.073 34.72 744.961 34.832C744.865 34.944 744.729 35 744.553 35H742.537C742.377 35 742.241 34.944 742.129 34.832C742.017 34.72 741.961 34.584 741.961 34.424V27.728C741.961 26.736 741.745 26.016 741.313 25.568C740.881 25.104 740.329 24.872 739.657 24.872C739.033 24.872 738.497 25.104 738.049 25.568C737.617 26.016 737.401 26.736 737.401 27.728V34.424C737.401 34.584 737.345 34.72 737.233 34.832C737.137 34.944 737.001 35 736.825 35H734.785ZM761.289 35.24C759.497 35.24 758.073 34.728 757.017 33.704C755.977 32.68 755.425 31.224 755.361 29.336L755.337 28.736C755.337 26.736 755.857 25.16 756.897 24.008C757.953 22.856 759.409 22.28 761.265 22.28C763.169 22.28 764.633 22.856 765.657 24.008C766.697 25.16 767.217 26.696 767.217 28.616V29.12C767.217 29.28 767.161 29.416 767.049 29.528C766.937 29.64 766.793 29.696 766.617 29.696H758.649V29.888C758.681 30.784 758.921 31.528 759.369 32.12C759.833 32.696 760.465 32.984 761.265 32.984C762.177 32.984 762.921 32.616 763.497 31.88C763.641 31.704 763.753 31.6 763.833 31.568C763.913 31.52 764.049 31.496 764.241 31.496H766.353C766.497 31.496 766.617 31.536 766.713 31.616C766.825 31.696 766.881 31.808 766.881 31.952C766.881 32.336 766.649 32.792 766.185 33.32C765.737 33.832 765.089 34.28 764.241 34.664C763.393 35.048 762.409 35.24 761.289 35.24ZM763.905 27.656V27.608C763.905 26.664 763.665 25.912 763.185 25.352C762.721 24.776 762.081 24.488 761.265 24.488C760.449 24.488 759.809 24.776 759.345 25.352C758.881 25.912 758.649 26.664 758.649 27.608V27.656H763.905ZM778.849 35.24C778.033 35.24 777.281 35.08 776.593 34.76C775.921 34.424 775.385 33.976 774.985 33.416C774.601 32.856 774.409 32.24 774.409 31.568C774.409 30.48 774.849 29.6 775.729 28.928C776.609 28.256 777.817 27.8 779.353 27.56L782.641 27.08V26.576C782.641 25.888 782.465 25.368 782.113 25.016C781.761 24.664 781.201 24.488 780.433 24.488C779.905 24.488 779.481 24.584 779.161 24.776C778.841 24.968 778.577 25.168 778.369 25.376C778.177 25.568 778.049 25.696 777.985 25.76C777.921 25.952 777.801 26.048 777.625 26.048H775.753C775.609 26.048 775.481 26 775.369 25.904C775.273 25.808 775.225 25.68 775.225 25.52C775.241 25.12 775.433 24.672 775.801 24.176C776.185 23.664 776.769 23.224 777.553 22.856C778.337 22.472 779.305 22.28 780.457 22.28C782.345 22.28 783.721 22.704 784.585 23.552C785.449 24.4 785.881 25.512 785.881 26.888V34.424C785.881 34.584 785.825 34.72 785.713 34.832C785.617 34.944 785.481 35 785.305 35H783.313C783.153 35 783.017 34.944 782.905 34.832C782.793 34.72 782.737 34.584 782.737 34.424V33.488C782.385 34 781.889 34.424 781.249 34.76C780.609 35.08 779.809 35.24 778.849 35.24ZM779.665 32.936C780.545 32.936 781.265 32.648 781.825 32.072C782.385 31.496 782.665 30.664 782.665 29.576V29.096L780.265 29.48C778.425 29.768 777.505 30.384 777.505 31.328C777.505 31.84 777.713 32.24 778.129 32.528C778.561 32.8 779.073 32.936 779.665 32.936ZM789.559 35C789.399 35 789.263 34.944 789.151 34.832C789.039 34.72 788.983 34.584 788.983 34.424V18.536C788.983 18.36 789.039 18.224 789.151 18.128C789.263 18.016 789.399 17.96 789.559 17.96H791.575C791.751 17.96 791.887 18.016 791.983 18.128C792.095 18.224 792.151 18.36 792.151 18.536V34.424C792.151 34.584 792.095 34.72 791.983 34.832C791.887 34.944 791.751 35 791.575 35H789.559ZM798.958 35.24C798.142 35.24 797.39 35.08 796.702 34.76C796.03 34.424 795.494 33.976 795.094 33.416C794.71 32.856 794.518 32.24 794.518 31.568C794.518 30.48 794.958 29.6 795.838 28.928C796.718 28.256 797.926 27.8 799.462 27.56L802.75 27.08V26.576C802.75 25.888 802.574 25.368 802.222 25.016C801.87 24.664 801.31 24.488 800.542 24.488C800.014 24.488 799.59 24.584 799.27 24.776C798.95 24.968 798.686 25.168 798.478 25.376C798.286 25.568 798.158 25.696 798.094 25.76C798.03 25.952 797.91 26.048 797.734 26.048H795.862C795.718 26.048 795.59 26 795.478 25.904C795.382 25.808 795.334 25.68 795.334 25.52C795.35 25.12 795.542 24.672 795.91 24.176C796.294 23.664 796.878 23.224 797.662 22.856C798.446 22.472 799.414 22.28 800.566 22.28C802.454 22.28 803.83 22.704 804.694 23.552C805.558 24.4 805.99 25.512 805.99 26.888V34.424C805.99 34.584 805.934 34.72 805.822 34.832C805.726 34.944 805.59 35 805.414 35H803.422C803.262 35 803.126 34.944 803.014 34.832C802.902 34.72 802.846 34.584 802.846 34.424V33.488C802.494 34 801.998 34.424 801.358 34.76C800.718 35.08 799.918 35.24 798.958 35.24ZM799.774 32.936C800.654 32.936 801.374 32.648 801.934 32.072C802.494 31.496 802.774 30.664 802.774 29.576V29.096L800.374 29.48C798.534 29.768 797.614 30.384 797.614 31.328C797.614 31.84 797.822 32.24 798.238 32.528C798.67 32.8 799.182 32.936 799.774 32.936ZM814.468 35.24C812.708 35.24 811.3 34.752 810.244 33.776C809.204 32.8 808.652 31.448 808.588 29.72L808.564 28.76L808.588 27.8C808.652 26.072 809.204 24.72 810.244 23.744C811.3 22.768 812.708 22.28 814.468 22.28C815.732 22.28 816.796 22.504 817.66 22.952C818.54 23.4 819.188 23.952 819.604 24.608C820.036 25.248 820.268 25.864 820.3 26.456C820.316 26.616 820.26 26.752 820.132 26.864C820.02 26.976 819.884 27.032 819.724 27.032H817.588C817.412 27.032 817.284 27 817.204 26.936C817.124 26.856 817.044 26.72 816.964 26.528C816.724 25.92 816.404 25.48 816.004 25.208C815.62 24.936 815.124 24.8 814.516 24.8C813.7 24.8 813.06 25.056 812.596 25.568C812.148 26.08 811.908 26.864 811.876 27.92L811.852 28.808L811.876 29.6C811.972 31.68 812.852 32.72 814.516 32.72C815.14 32.72 815.644 32.592 816.028 32.336C816.412 32.064 816.724 31.616 816.964 30.992C817.028 30.816 817.1 30.688 817.18 30.608C817.276 30.528 817.412 30.488 817.588 30.488H819.724C819.884 30.488 820.02 30.544 820.132 30.656C820.26 30.768 820.316 30.904 820.3 31.064C820.268 31.624 820.044 32.232 819.628 32.888C819.212 33.528 818.572 34.08 817.708 34.544C816.844 35.008 815.764 35.24 814.468 35.24ZM826.427 35.24C825.611 35.24 824.859 35.08 824.171 34.76C823.499 34.424 822.963 33.976 822.563 33.416C822.179 32.856 821.987 32.24 821.987 31.568C821.987 30.48 822.427 29.6 823.307 28.928C824.187 28.256 825.395 27.8 826.931 27.56L830.219 27.08V26.576C830.219 25.888 830.043 25.368 829.691 25.016C829.339 24.664 828.779 24.488 828.011 24.488C827.483 24.488 827.059 24.584 826.739 24.776C826.419 24.968 826.155 25.168 825.947 25.376C825.755 25.568 825.627 25.696 825.563 25.76C825.499 25.952 825.379 26.048 825.203 26.048H823.331C823.187 26.048 823.059 26 822.947 25.904C822.851 25.808 822.803 25.68 822.803 25.52C822.819 25.12 823.011 24.672 823.379 24.176C823.763 23.664 824.347 23.224 825.131 22.856C825.915 22.472 826.883 22.28 828.035 22.28C829.923 22.28 831.299 22.704 832.163 23.552C833.027 24.4 833.459 25.512 833.459 26.888V34.424C833.459 34.584 833.403 34.72 833.291 34.832C833.195 34.944 833.059 35 832.883 35H830.891C830.731 35 830.595 34.944 830.483 34.832C830.371 34.72 830.315 34.584 830.315 34.424V33.488C829.963 34 829.467 34.424 828.827 34.76C828.187 35.08 827.387 35.24 826.427 35.24ZM827.243 32.936C828.123 32.936 828.843 32.648 829.403 32.072C829.963 31.496 830.243 30.664 830.243 29.576V29.096L827.843 29.48C826.003 29.768 825.083 30.384 825.083 31.328C825.083 31.84 825.291 32.24 825.707 32.528C826.139 32.8 826.651 32.936 827.243 32.936ZM837.137 35C836.977 35 836.841 34.944 836.729 34.832C836.617 34.72 836.561 34.584 836.561 34.424V18.536C836.561 18.36 836.617 18.224 836.729 18.128C836.841 18.016 836.977 17.96 837.137 17.96H839.129C839.289 17.96 839.425 18.016 839.537 18.128C839.649 18.24 839.705 18.376 839.705 18.536V26.744L843.689 22.928C843.737 22.896 843.809 22.84 843.905 22.76C844.017 22.664 844.121 22.6 844.217 22.568C844.313 22.536 844.433 22.52 844.577 22.52H846.857C847.017 22.52 847.145 22.568 847.241 22.664C847.337 22.76 847.385 22.888 847.385 23.048C847.385 23.192 847.305 23.336 847.145 23.48L842.249 28.112L847.745 34.064C847.889 34.208 847.961 34.344 847.961 34.472C847.961 34.632 847.913 34.76 847.817 34.856C847.721 34.952 847.601 35 847.457 35H845.129C844.905 35 844.737 34.976 844.625 34.928C844.529 34.864 844.401 34.752 844.241 34.592L839.705 29.768V34.424C839.705 34.584 839.649 34.72 839.537 34.832C839.425 34.944 839.289 35 839.129 35H837.137ZM855.443 35C853.987 35 852.891 34.624 852.155 33.872C851.419 33.104 851.051 31.984 851.051 30.512V25.088H849.155C848.995 25.088 848.859 25.032 848.747 24.92C848.635 24.808 848.579 24.672 848.579 24.512V23.096C848.579 22.936 848.635 22.8 848.747 22.688C848.859 22.576 848.995 22.52 849.155 22.52H851.051V18.536C851.051 18.36 851.107 18.224 851.219 18.128C851.331 18.016 851.467 17.96 851.627 17.96H853.619C853.795 17.96 853.931 18.016 854.027 18.128C854.139 18.224 854.195 18.36 854.195 18.536V22.52H857.195C857.355 22.52 857.491 22.576 857.603 22.688C857.715 22.8 857.771 22.936 857.771 23.096V24.512C857.771 24.672 857.715 24.808 857.603 24.92C857.491 25.032 857.355 25.088 857.195 25.088H854.195V30.248C854.195 30.936 854.315 31.456 854.555 31.808C854.795 32.16 855.187 32.336 855.731 32.336H857.411C857.587 32.336 857.723 32.392 857.819 32.504C857.931 32.6 857.987 32.736 857.987 32.912V34.424C857.987 34.584 857.931 34.72 857.819 34.832C857.723 34.944 857.587 35 857.411 35H855.443ZM860.691 35C860.531 35 860.395 34.944 860.283 34.832C860.171 34.72 860.115 34.584 860.115 34.424V23.096C860.115 22.92 860.171 22.784 860.283 22.688C860.395 22.576 860.531 22.52 860.691 22.52H862.731C862.891 22.52 863.027 22.576 863.139 22.688C863.251 22.8 863.307 22.936 863.307 23.096V34.424C863.307 34.584 863.251 34.72 863.139 34.832C863.027 34.944 862.891 35 862.731 35H860.691ZM867.043 35C866.883 35 866.747 34.944 866.635 34.832C866.523 34.72 866.467 34.584 866.467 34.424V23.12C866.467 22.944 866.523 22.8 866.635 22.688C866.747 22.576 866.883 22.52 867.043 22.52H869.011C869.187 22.52 869.331 22.576 869.443 22.688C869.555 22.8 869.611 22.944 869.611 23.12V24.104C870.411 23.048 871.563 22.52 873.067 22.52H874.075C874.251 22.52 874.387 22.576 874.483 22.688C874.595 22.784 874.651 22.92 874.651 23.096V24.848C874.651 25.008 874.595 25.144 874.483 25.256C874.387 25.368 874.251 25.424 874.075 25.424H872.179C871.427 25.424 870.835 25.64 870.403 26.072C869.971 26.504 869.755 27.096 869.755 27.848V34.424C869.755 34.584 869.699 34.72 869.587 34.832C869.475 34.944 869.339 35 869.179 35H867.043ZM875.664 35C875.504 35 875.368 34.944 875.256 34.832C875.144 34.72 875.088 34.584 875.088 34.424V32C875.088 31.84 875.144 31.704 875.256 31.592C875.368 31.48 875.504 31.424 875.664 31.424H878.088C878.248 31.424 878.384 31.48 878.496 31.592C878.608 31.704 878.664 31.84 878.664 32V34.424C878.664 34.584 878.608 34.72 878.496 34.832C878.4 34.944 878.264 35 878.088 35H875.664Z" fill="white"/>
</g>
<defs>
<filter id="filter0_d" x="0" y="0" width="908" height="58" filterUnits="userSpaceOnUse" color-interpolation-filters="sRGB">
<feFlood flood-opacity="0" result="BackgroundImageFix"/>
<feColorMatrix in="SourceAlpha" type="matrix" values="0 0 0 0 0 0 0 0 0 0 0 0 0 0 0 0 0 0 127 0" result="hardAlpha"/>
<feOffset dx="4" dy="4"/>
<feComposite in2="hardAlpha" operator="out"/>
<feColorMatrix type="matrix" values="0 0 0 0 0.783732 0 0 0 0 0.783732 0 0 0 0 0.783732 0 0 0 1 0"/>
<feBlend mode="normal" in2="BackgroundImageFix" result="effect1_dropShadow"/>
<feBlend mode="normal" in="SourceGraphic" in2="effect1_dropShadow" result="shape"/>
</filter>
<linearGradient id="paint0_linear" x1="0" y1="27" x2="904" y2="27" gradientUnits="userSpaceOnUse">
<stop stop-color="#FF512F"/>
<stop offset="1" stop-color="#DD2476"/>
</linearGradient>
</defs>
</svg>
