<svg width="19506" height="1246" viewBox="0 0 19506 1246" fill="none" xmlns="http://www.w3.org/2000/svg">
<g filter="url(#filter0_d)">
<rect width="19419.3" height="1160" fill="url(#paint0_linear)"/>
<path d="M660.772 766.415C611.966 766.415 573.643 754.557 545.803 730.842C518.306 707.126 504.558 671.553 504.558 624.122V413.775C504.558 409.994 505.761 406.901 508.167 404.495C510.573 401.745 513.666 400.371 517.447 400.371H588.078C591.859 400.371 594.952 401.745 597.358 404.495C600.108 406.901 601.483 409.994 601.483 413.775V623.091C601.483 644.4 606.466 660.382 616.434 671.037C626.745 681.692 641.352 687.02 660.256 687.02C679.16 687.02 693.595 681.692 703.563 671.037C713.874 660.039 719.029 644.057 719.029 623.091V413.775C719.029 409.994 720.232 406.901 722.638 404.495C725.388 401.745 728.653 400.371 732.434 400.371H802.549C806.33 400.371 809.423 401.745 811.829 404.495C814.579 406.901 815.954 409.994 815.954 413.775V624.122C815.954 671.553 802.206 707.126 774.709 730.842C747.213 754.557 709.234 766.415 660.772 766.415ZM988.427 761.26C984.99 761.26 981.897 760.057 979.147 757.651C976.741 754.901 975.538 751.808 975.538 748.371V638.557L856.445 416.868C855.414 415.15 854.898 413.259 854.898 411.197C854.898 408.448 855.929 406.042 857.992 403.979C860.398 401.574 862.975 400.371 865.725 400.371H933.778C938.59 400.371 942.543 401.574 945.636 403.979C948.73 406.385 950.964 408.963 952.338 411.713L1024 541.117L1095.66 411.713C1097.04 408.963 1099.27 406.385 1102.37 403.979C1105.46 401.574 1109.41 400.371 1114.22 400.371H1182.28C1185.03 400.371 1187.43 401.574 1189.49 403.979C1191.9 406.042 1193.1 408.448 1193.1 411.197C1193.1 413.259 1192.59 415.15 1191.56 416.868L1072.46 638.557V748.371C1072.46 752.151 1071.09 755.245 1068.34 757.651C1065.93 760.057 1062.84 761.26 1059.06 761.26H988.427ZM1173.27 761.26C1170.52 761.26 1167.95 760.228 1165.54 758.166C1163.48 755.76 1162.45 753.182 1162.45 750.433C1162.45 748.371 1162.62 746.824 1162.96 745.793L1283.09 415.322C1286.52 405.354 1293.4 400.371 1303.71 400.371H1384.14C1394.45 400.371 1401.32 405.354 1404.76 415.322L1524.88 745.793C1525.23 746.824 1525.4 748.371 1525.4 750.433C1525.4 753.182 1524.2 755.76 1521.79 758.166C1519.73 760.228 1517.32 761.26 1514.57 761.26H1447.55C1439.3 761.26 1433.46 757.479 1430.02 749.917L1411.46 699.908H1276.39L1257.83 749.917C1254.39 757.479 1248.55 761.26 1240.3 761.26H1173.27ZM1298.04 622.575H1389.81L1343.92 491.108L1298.04 622.575ZM1577.33 761.26C1573.89 761.26 1570.8 760.057 1568.05 757.651C1565.64 754.901 1564.44 751.808 1564.44 748.371V413.775C1564.44 409.994 1565.64 406.901 1568.05 404.495C1570.45 401.745 1573.55 400.371 1577.33 400.371H1719.11C1764.48 400.371 1799.88 410.682 1825.31 431.304C1851.09 451.926 1863.98 480.969 1863.98 518.433C1863.98 542.492 1858.31 562.942 1846.96 579.784C1835.97 596.625 1820.67 609.686 1801.08 618.966L1870.68 744.762C1871.71 746.824 1872.23 748.714 1872.23 750.433C1872.23 753.182 1871.2 755.76 1869.13 758.166C1867.07 760.228 1864.49 761.26 1861.4 761.26H1788.71C1778.74 761.26 1771.69 756.62 1767.57 747.34L1710.86 635.464H1661.36V748.371C1661.36 752.151 1659.99 755.245 1657.24 757.651C1654.83 760.057 1651.74 761.26 1647.96 761.26H1577.33ZM1718.59 559.677C1733.37 559.677 1744.54 556.068 1752.1 548.851C1760.01 541.289 1763.96 530.978 1763.96 517.917C1763.96 504.857 1760.01 494.374 1752.1 486.468C1744.54 478.563 1733.37 474.611 1718.59 474.611H1661.36V559.677H1718.59ZM1935.8 761.26C1932.36 761.26 1929.27 760.057 1926.52 757.651C1924.11 754.901 1922.91 751.808 1922.91 748.371V413.259C1922.91 409.479 1924.11 406.385 1926.52 403.979C1929.27 401.574 1932.36 400.371 1935.8 400.371H2009.53C2013.31 400.371 2016.4 401.574 2018.81 403.979C2021.21 406.385 2022.41 409.479 2022.41 413.259V748.371C2022.41 751.808 2021.21 754.901 2018.81 757.651C2016.4 760.057 2013.31 761.26 2009.53 761.26H1935.8ZM2207.53 580.815C2204.09 580.815 2201 579.612 2198.25 577.206C2195.85 574.457 2194.64 571.363 2194.64 567.926V502.966C2194.64 499.185 2195.85 496.092 2198.25 493.686C2201 491.28 2204.09 490.077 2207.53 490.077H2275.58C2279.37 490.077 2282.46 491.28 2284.86 493.686C2287.61 496.092 2288.99 499.185 2288.99 502.966V567.926C2288.99 571.707 2287.61 574.8 2284.86 577.206C2282.46 579.612 2279.37 580.815 2275.58 580.815H2207.53ZM2207.53 761.26C2204.09 761.26 2201 760.057 2198.25 757.651C2195.85 754.901 2194.64 751.808 2194.64 748.371V683.411C2194.64 679.63 2195.85 676.537 2198.25 674.131C2201 671.725 2204.09 670.522 2207.53 670.522H2275.58C2279.37 670.522 2282.46 671.725 2284.86 674.131C2287.61 676.537 2288.99 679.63 2288.99 683.411V748.371C2288.99 752.151 2287.61 755.245 2284.86 757.651C2282.46 760.057 2279.37 761.26 2275.58 761.26H2207.53ZM2497.28 761.26C2493.84 761.26 2490.92 760.057 2488.52 757.651C2486.11 755.245 2484.91 752.323 2484.91 748.886V413.259C2484.91 409.479 2485.94 406.385 2488 403.979C2490.41 401.574 2493.5 400.371 2497.28 400.371H2646.79C2687.01 400.371 2717.08 409.307 2737.01 427.179C2756.95 444.708 2766.92 468.768 2766.92 499.357C2766.92 517.23 2762.45 532.525 2753.51 545.242C2744.92 557.615 2734.78 566.551 2723.09 572.051C2737.53 578.581 2749.73 589.236 2759.7 604.015C2769.67 618.794 2774.65 635.636 2774.65 654.54C2774.65 686.504 2763.82 712.282 2742.17 731.873C2720.52 751.464 2690.27 761.26 2651.43 761.26H2497.28ZM2637.51 548.335C2655.04 548.335 2668.45 544.039 2677.73 535.446C2687.35 526.854 2692.16 515.339 2692.16 500.904C2692.16 486.468 2687.52 475.298 2678.24 467.393C2668.96 459.488 2655.38 455.535 2637.51 455.535H2557.6V548.335H2637.51ZM2642.67 706.095C2660.54 706.095 2674.46 701.283 2684.43 691.66C2694.4 681.692 2699.38 669.147 2699.38 654.024C2699.38 638.901 2694.22 626.528 2683.91 616.904C2673.94 606.937 2660.2 601.953 2642.67 601.953H2557.6V706.095H2642.67ZM2932.16 766.415C2900.54 766.415 2875.63 756.104 2857.41 735.482C2839.19 714.86 2830.08 686.504 2830.08 650.415V505.544C2830.08 501.763 2831.29 498.842 2833.69 496.779C2836.1 494.374 2839.02 493.171 2842.46 493.171H2888.86C2892.3 493.171 2895.22 494.374 2897.62 496.779C2900.03 499.185 2901.23 502.107 2901.23 505.544V647.322C2901.23 689.597 2919.62 710.735 2956.4 710.735C2974.27 710.735 2988.36 705.064 2998.67 693.722C3009.33 682.38 3014.65 666.913 3014.65 647.322V505.544C3014.65 501.763 3015.86 498.842 3018.26 496.779C3020.67 494.374 3023.59 493.171 3027.03 493.171H3072.91C3076.69 493.171 3079.61 494.374 3081.68 496.779C3084.08 498.842 3085.28 501.763 3085.28 505.544V748.886C3085.28 752.323 3084.08 755.245 3081.68 757.651C3079.61 760.057 3076.69 761.26 3072.91 761.26H3030.12C3026.68 761.26 3023.76 760.057 3021.36 757.651C3018.95 755.245 3017.75 752.323 3017.75 748.886V727.748C2998.84 753.526 2970.32 766.415 2932.16 766.415ZM3283.06 761.26C3279.62 761.26 3276.7 760.057 3274.29 757.651C3271.89 755.245 3270.68 752.323 3270.68 748.886V506.059C3270.68 502.279 3271.89 499.185 3274.29 496.779C3276.7 494.374 3279.62 493.171 3283.06 493.171H3325.33C3329.11 493.171 3332.21 494.374 3334.61 496.779C3337.02 499.185 3338.22 502.279 3338.22 506.059V527.197C3355.41 504.513 3380.15 493.171 3412.46 493.171H3434.11C3437.9 493.171 3440.82 494.374 3442.88 496.779C3445.28 498.842 3446.49 501.763 3446.49 505.544V543.179C3446.49 546.617 3445.28 549.538 3442.88 551.944C3440.82 554.35 3437.9 555.553 3434.11 555.553H3393.39C3377.23 555.553 3364.51 560.193 3355.23 569.473C3345.95 578.753 3341.31 591.47 3341.31 607.624V748.886C3341.31 752.323 3340.11 755.245 3337.71 757.651C3335.3 760.057 3332.38 761.26 3328.94 761.26H3283.06ZM3599.15 766.415C3560.65 766.415 3530.06 755.417 3507.38 733.42C3485.04 711.422 3473.18 680.145 3471.81 639.588L3471.29 626.7C3471.29 583.737 3482.46 549.882 3504.8 525.135C3527.49 500.388 3558.76 488.015 3598.63 488.015C3639.53 488.015 3670.98 500.388 3692.98 525.135C3715.32 549.882 3726.49 582.877 3726.49 624.122V634.948C3726.49 638.385 3725.29 641.307 3722.88 643.713C3720.48 646.119 3717.38 647.322 3713.6 647.322H3542.44V651.446C3543.12 670.694 3548.28 686.676 3557.9 699.393C3567.87 711.766 3581.45 717.953 3598.63 717.953C3618.22 717.953 3634.21 710.048 3646.58 694.237C3649.67 690.457 3652.08 688.222 3653.8 687.535C3655.52 686.504 3658.44 685.988 3662.56 685.988H3707.93C3711.02 685.988 3713.6 686.848 3715.66 688.566C3718.07 690.285 3719.27 692.691 3719.27 695.784C3719.27 704.033 3714.29 713.828 3704.32 725.171C3694.7 736.169 3680.78 745.793 3662.56 754.042C3644.35 762.291 3623.21 766.415 3599.15 766.415ZM3655.34 603.499V602.468C3655.34 582.19 3650.19 566.036 3639.88 554.006C3629.91 541.633 3616.16 535.446 3598.63 535.446C3581.1 535.446 3567.36 541.633 3557.39 554.006C3547.42 566.036 3542.44 582.19 3542.44 602.468V603.499H3655.34ZM3794.09 859.215C3790.66 859.215 3787.73 858.012 3785.33 855.606C3782.92 853.544 3781.72 850.622 3781.72 846.842V505.544C3781.72 501.763 3782.92 498.842 3785.33 496.779C3787.73 494.374 3790.66 493.171 3794.09 493.171H3835.34C3839.12 493.171 3842.21 494.374 3844.62 496.779C3847.02 499.185 3848.23 502.107 3848.23 505.544V526.166C3866.44 500.732 3893.77 488.015 3930.2 488.015C3964.91 488.015 3991.55 499.014 4010.11 521.011C4028.67 542.664 4038.64 571.879 4040.01 608.655C4040.36 612.78 4040.53 618.966 4040.53 627.215C4040.53 635.464 4040.36 641.651 4040.01 645.775C4038.98 681.864 4029.01 711.079 4010.11 733.42C3991.55 755.417 3964.91 766.415 3930.2 766.415C3895.83 766.415 3869.54 754.214 3851.32 729.811V846.842C3851.32 850.622 3850.12 853.544 3847.71 855.606C3845.65 858.012 3842.73 859.215 3838.95 859.215H3794.09ZM3910.61 710.735C3947.38 710.735 3966.98 688.051 3969.38 642.682C3969.73 639.245 3969.9 634.089 3969.9 627.215C3969.9 620.341 3969.73 615.185 3969.38 611.748C3966.98 566.379 3947.38 543.695 3910.61 543.695C3891.02 543.695 3876.41 550.054 3866.79 562.771C3857.16 575.488 3852.01 590.954 3851.32 609.171C3850.98 613.295 3850.8 619.825 3850.8 628.762C3850.8 637.698 3850.98 644.4 3851.32 648.868C3852.01 666.054 3857.33 680.661 3867.3 692.691C3877.27 704.72 3891.7 710.735 3910.61 710.735ZM4216.98 766.415C4176.42 766.415 4145.15 756.104 4123.15 735.482C4101.15 714.86 4089.3 686.332 4087.58 649.9L4087.06 627.215L4087.58 604.531C4089.3 568.442 4101.33 540.086 4123.67 519.464C4146.01 498.498 4177.11 488.015 4216.98 488.015C4256.51 488.015 4287.44 498.498 4309.78 519.464C4332.12 540.086 4344.15 568.442 4345.87 604.531C4346.21 608.655 4346.39 616.217 4346.39 627.215C4346.39 638.214 4346.21 645.775 4345.87 649.9C4344.15 686.332 4332.29 714.86 4310.3 735.482C4288.3 756.104 4257.19 766.415 4216.98 766.415ZM4216.98 714.344C4235.2 714.344 4249.12 708.673 4258.74 697.331C4268.71 685.988 4274.04 669.319 4274.72 647.322C4275.07 643.885 4275.24 637.182 4275.24 627.215C4275.24 617.248 4275.07 610.545 4274.72 607.108C4274.04 585.111 4268.71 568.442 4258.74 557.099C4248.77 545.414 4234.85 539.571 4216.98 539.571C4198.77 539.571 4184.67 545.414 4174.71 557.099C4164.74 568.442 4159.41 585.111 4158.72 607.108L4158.21 627.215L4158.72 647.322C4159.41 669.319 4164.74 685.988 4174.71 697.331C4184.67 708.673 4198.77 714.344 4216.98 714.344ZM4669.8 766.415C4634.06 766.415 4606.73 754.214 4587.83 729.811V748.886C4587.83 752.323 4586.62 755.245 4584.22 757.651C4581.81 760.057 4578.72 761.26 4574.94 761.26H4533.69C4530.26 761.26 4527.34 760.057 4524.93 757.651C4522.52 755.245 4521.32 752.323 4521.32 748.886V407.588C4521.32 403.808 4522.52 400.886 4524.93 398.824C4527.34 396.418 4530.26 395.215 4533.69 395.215H4578.55C4582.33 395.215 4585.25 396.418 4587.31 398.824C4589.72 400.886 4590.92 403.808 4590.92 407.588V522.042C4610.17 499.357 4636.46 488.015 4669.8 488.015C4704.51 488.015 4731.15 499.357 4749.71 522.042C4768.62 544.382 4778.58 573.769 4779.61 610.202C4779.96 614.326 4780.13 619.997 4780.13 627.215C4780.13 634.089 4779.96 639.76 4779.61 644.228C4778.24 681.348 4768.27 711.079 4749.71 733.42C4731.15 755.417 4704.51 766.415 4669.8 766.415ZM4650.21 710.735C4686.99 710.735 4706.58 688.051 4708.98 642.682C4709.33 639.245 4709.5 634.089 4709.5 627.215C4709.5 620.341 4709.33 615.185 4708.98 611.748C4706.58 566.379 4686.99 543.695 4650.21 543.695C4631.31 543.695 4616.87 549.71 4606.9 561.739C4596.94 573.769 4591.61 588.377 4590.92 605.562C4590.58 609.686 4590.4 616.388 4590.4 625.668C4590.4 634.605 4590.58 641.135 4590.92 645.26C4591.61 663.476 4596.76 678.942 4606.39 691.66C4616.01 704.377 4630.62 710.735 4650.21 710.735ZM4953.49 766.415C4914.99 766.415 4884.4 755.417 4861.72 733.42C4839.38 711.422 4827.52 680.145 4826.15 639.588L4825.63 626.7C4825.63 583.737 4836.8 549.882 4859.14 525.135C4881.83 500.388 4913.1 488.015 4952.97 488.015C4993.87 488.015 5025.32 500.388 5047.32 525.135C5069.66 549.882 5080.83 582.877 5080.83 624.122V634.948C5080.83 638.385 5079.63 641.307 5077.22 643.713C5074.82 646.119 5071.72 647.322 5067.94 647.322H4896.78V651.446C4897.47 670.694 4902.62 686.676 4912.24 699.393C4922.21 711.766 4935.79 717.953 4952.97 717.953C4972.56 717.953 4988.55 710.048 5000.92 694.237C5004.01 690.457 5006.42 688.222 5008.14 687.535C5009.86 686.504 5012.78 685.988 5016.9 685.988H5062.27C5065.36 685.988 5067.94 686.848 5070 688.566C5072.41 690.285 5073.61 692.691 5073.61 695.784C5073.61 704.033 5068.63 713.828 5058.66 725.171C5049.04 736.169 5035.12 745.793 5016.9 754.042C4998.69 762.291 4977.55 766.415 4953.49 766.415ZM5009.68 603.499V602.468C5009.68 582.19 5004.53 566.036 4994.22 554.006C4984.25 541.633 4970.5 535.446 4952.97 535.446C4935.44 535.446 4921.7 541.633 4911.73 554.006C4901.76 566.036 4896.78 582.19 4896.78 602.468V603.499H5009.68ZM5147.92 761.26C5144.48 761.26 5141.56 760.057 5139.15 757.651C5136.75 755.245 5135.54 752.323 5135.54 748.886V505.544C5135.54 501.763 5136.75 498.842 5139.15 496.779C5141.56 494.374 5144.48 493.171 5147.92 493.171H5190.71C5194.49 493.171 5197.41 494.374 5199.47 496.779C5201.88 498.842 5203.08 501.763 5203.08 505.544V526.682C5224.05 500.904 5252.75 488.015 5289.18 488.015C5320.8 488.015 5345.89 498.326 5364.45 518.948C5383.01 539.571 5392.29 567.926 5392.29 604.015V748.886C5392.29 752.323 5391.09 755.245 5388.68 757.651C5386.62 760.057 5383.7 761.26 5379.92 761.26H5333.52C5330.08 761.26 5327.16 760.057 5324.75 757.651C5322.35 755.245 5321.14 752.323 5321.14 748.886V607.108C5321.14 587.174 5316.16 571.707 5306.19 560.708C5296.57 549.366 5282.65 543.695 5264.43 543.695C5246.9 543.695 5232.81 549.366 5222.16 560.708C5211.5 572.051 5206.18 587.517 5206.18 607.108V748.886C5206.18 752.323 5204.97 755.245 5202.57 757.651C5200.5 760.057 5197.58 761.26 5193.8 761.26H5147.92ZM5694.17 766.415C5653.61 766.415 5622.33 756.104 5600.34 735.482C5578.34 714.86 5566.48 686.332 5564.76 649.9L5564.25 627.215L5564.76 604.531C5566.48 568.442 5578.51 540.086 5600.85 519.464C5623.19 498.498 5654.3 488.015 5694.17 488.015C5733.69 488.015 5764.63 498.498 5786.97 519.464C5809.31 540.086 5821.34 568.442 5823.06 604.531C5823.4 608.655 5823.57 616.217 5823.57 627.215C5823.57 638.214 5823.4 645.775 5823.06 649.9C5821.34 686.332 5809.48 714.86 5787.48 735.482C5765.49 756.104 5734.38 766.415 5694.17 766.415ZM5694.17 714.344C5712.39 714.344 5726.31 708.673 5735.93 697.331C5745.9 685.988 5751.22 669.319 5751.91 647.322C5752.25 643.885 5752.43 637.182 5752.43 627.215C5752.43 617.248 5752.25 610.545 5751.91 607.108C5751.22 585.111 5745.9 568.442 5735.93 557.099C5725.96 545.414 5712.04 539.571 5694.17 539.571C5675.95 539.571 5661.86 545.414 5651.89 557.099C5641.93 568.442 5636.6 585.111 5635.91 607.108L5635.4 627.215L5635.91 647.322C5636.6 669.319 5641.93 685.988 5651.89 697.331C5661.86 708.673 5675.95 714.344 5694.17 714.344ZM5626.12 444.708C5622.68 444.708 5619.93 443.677 5617.87 441.615C5615.8 439.553 5614.77 436.803 5614.77 433.366V395.215C5614.77 391.778 5615.8 389.028 5617.87 386.966C5619.93 384.56 5622.68 383.357 5626.12 383.357H5664.27C5667.7 383.357 5670.45 384.56 5672.52 386.966C5674.92 389.028 5676.12 391.778 5676.12 395.215V433.366C5676.12 436.803 5674.92 439.553 5672.52 441.615C5670.45 443.677 5667.7 444.708 5664.27 444.708H5626.12ZM5723.56 444.708C5720.12 444.708 5717.37 443.677 5715.31 441.615C5713.24 439.553 5712.21 436.803 5712.21 433.366V395.215C5712.21 391.778 5713.24 389.028 5715.31 386.966C5717.37 384.56 5720.12 383.357 5723.56 383.357H5761.71C5765.14 383.357 5767.89 384.56 5769.96 386.966C5772.36 389.028 5773.56 391.778 5773.56 395.215V433.366C5773.56 436.803 5772.36 439.553 5769.96 441.615C5767.89 443.677 5765.14 444.708 5761.71 444.708H5723.56ZM6001.84 874.682C5971.25 874.682 5946.5 869.526 5927.6 859.215C5908.7 849.248 5895.29 837.734 5887.39 824.673C5879.48 811.612 5875.53 800.442 5875.53 791.162C5875.53 787.725 5876.73 784.803 5879.14 782.397C5881.54 780.335 5884.46 779.304 5887.9 779.304H5933.79C5936.88 779.304 5939.46 779.991 5941.52 781.366C5943.92 783.085 5945.82 786.006 5947.19 790.131C5950.97 799.067 5956.64 806.628 5964.2 812.815C5971.76 819.345 5983.45 822.611 5999.26 822.611C6019.88 822.611 6035.01 817.971 6044.63 808.691C6054.25 799.754 6059.07 783.944 6059.07 761.26V726.202C6040.51 748.199 6014.21 759.197 5980.19 759.197C5944.44 759.197 5917.46 748.371 5899.24 726.717C5881.37 705.064 5871.75 675.505 5870.37 638.042L5869.86 624.122L5870.37 610.202C5871.75 573.425 5881.54 543.867 5899.76 521.526C5917.98 499.185 5944.78 488.015 5980.19 488.015C5998.4 488.015 6014.38 491.452 6028.13 498.326C6041.88 505.2 6053.22 514.48 6062.16 526.166V506.059C6062.16 502.279 6063.36 499.185 6065.77 496.779C6068.52 494.374 6071.61 493.171 6075.05 493.171H6117.32C6120.76 493.171 6123.68 494.374 6126.09 496.779C6128.49 499.185 6129.7 502.279 6129.7 506.059L6130.21 754.557C6130.21 792.708 6119.56 822.267 6098.25 843.233C6076.94 864.199 6044.8 874.682 6001.84 874.682ZM5999.78 704.548C6019.02 704.548 6033.46 698.362 6043.08 685.988C6052.71 673.615 6058.03 658.492 6059.07 640.62C6059.41 637.87 6059.58 632.371 6059.58 624.122C6059.58 615.873 6059.41 610.374 6059.07 607.624C6058.03 589.751 6052.71 574.628 6043.08 562.255C6033.46 549.882 6019.02 543.695 5999.78 543.695C5962.66 543.695 5943.07 566.379 5941 611.748L5940.49 624.122C5940.49 677.74 5960.25 704.548 5999.78 704.548ZM5999.78 457.082C5976.4 457.082 5958.88 450.723 5947.19 438.006C5935.85 424.945 5930.18 408.448 5930.18 388.513C5930.18 385.763 5931.04 383.529 5932.75 381.811C5934.47 379.748 5936.88 378.717 5939.97 378.717H5964.72C5967.81 378.717 5970.22 379.748 5971.94 381.811C5973.66 383.529 5974.51 385.763 5974.51 388.513C5974.51 409.822 5982.94 420.477 5999.78 420.477C6016.96 420.477 6025.55 409.822 6025.55 388.513C6025.55 385.763 6026.41 383.529 6028.13 381.811C6029.85 379.748 6032.26 378.717 6035.35 378.717H6060.1C6063.19 378.717 6065.6 379.748 6067.31 381.811C6069.03 383.529 6069.89 385.763 6069.89 388.513C6069.89 408.448 6064.05 424.945 6052.36 438.006C6041.02 450.723 6023.49 457.082 5999.78 457.082ZM6210.75 761.26C6207.31 761.26 6204.39 760.057 6201.98 757.651C6199.58 755.245 6198.37 752.323 6198.37 748.886V506.059C6198.37 502.279 6199.58 499.185 6201.98 496.779C6204.39 494.374 6207.31 493.171 6210.75 493.171H6253.02C6256.8 493.171 6259.9 494.374 6262.3 496.779C6264.71 499.185 6265.91 502.279 6265.91 506.059V527.197C6283.1 504.513 6307.84 493.171 6340.15 493.171H6361.81C6365.59 493.171 6368.51 494.374 6370.57 496.779C6372.98 498.842 6374.18 501.763 6374.18 505.544V543.179C6374.18 546.617 6372.98 549.538 6370.57 551.944C6368.51 554.35 6365.59 555.553 6361.81 555.553H6321.08C6304.92 555.553 6292.21 560.193 6282.93 569.473C6273.65 578.753 6269.01 591.47 6269.01 607.624V748.886C6269.01 752.323 6267.8 755.245 6265.4 757.651C6262.99 760.057 6260.07 761.26 6256.63 761.26H6210.75ZM6526.84 766.415C6488.34 766.415 6457.76 755.417 6435.07 733.42C6412.73 711.422 6400.87 680.145 6399.5 639.588L6398.98 626.7C6398.98 583.737 6410.15 549.882 6432.49 525.135C6455.18 500.388 6486.45 488.015 6526.32 488.015C6567.22 488.015 6598.67 500.388 6620.67 525.135C6643.01 549.882 6654.18 582.877 6654.18 624.122V634.948C6654.18 638.385 6652.98 641.307 6650.57 643.713C6648.17 646.119 6645.07 647.322 6641.29 647.322H6470.13V651.446C6470.82 670.694 6475.97 686.676 6485.6 699.393C6495.56 711.766 6509.14 717.953 6526.32 717.953C6545.92 717.953 6561.9 710.048 6574.27 694.237C6577.36 690.457 6579.77 688.222 6581.49 687.535C6583.21 686.504 6586.13 685.988 6590.25 685.988H6635.62C6638.72 685.988 6641.29 686.848 6643.36 688.566C6645.76 690.285 6646.96 692.691 6646.96 695.784C6646.96 704.033 6641.98 713.828 6632.01 725.171C6622.39 736.169 6608.47 745.793 6590.25 754.042C6572.04 762.291 6550.9 766.415 6526.84 766.415ZM6583.04 603.499V602.468C6583.04 582.19 6577.88 566.036 6567.57 554.006C6557.6 541.633 6543.85 535.446 6526.32 535.446C6508.8 535.446 6495.05 541.633 6485.08 554.006C6475.11 566.036 6470.13 582.19 6470.13 602.468V603.499H6583.04ZM6721.27 761.26C6717.83 761.26 6714.91 760.057 6712.5 757.651C6710.1 755.245 6708.9 752.323 6708.9 748.886V505.544C6708.9 501.763 6710.1 498.842 6712.5 496.779C6714.91 494.374 6717.83 493.171 6721.27 493.171H6764.06C6767.84 493.171 6770.76 494.374 6772.82 496.779C6775.23 498.842 6776.43 501.763 6776.43 505.544V526.682C6797.4 500.904 6826.1 488.015 6862.53 488.015C6894.15 488.015 6919.24 498.326 6937.8 518.948C6956.36 539.571 6965.64 567.926 6965.64 604.015V748.886C6965.64 752.323 6964.44 755.245 6962.03 757.651C6959.97 760.057 6957.05 761.26 6953.27 761.26H6906.87C6903.43 761.26 6900.51 760.057 6898.1 757.651C6895.7 755.245 6894.5 752.323 6894.5 748.886V607.108C6894.5 587.174 6889.51 571.707 6879.54 560.708C6869.92 549.366 6856 543.695 6837.78 543.695C6820.26 543.695 6806.16 549.366 6795.51 560.708C6784.85 572.051 6779.53 587.517 6779.53 607.108V748.886C6779.53 752.323 6778.32 755.245 6775.92 757.651C6773.86 760.057 6770.93 761.26 6767.15 761.26H6721.27ZM7043.49 761.26C7040.05 761.26 7037.13 760.057 7034.73 757.651C7032.32 755.245 7031.12 752.323 7031.12 748.886V505.544C7031.12 501.763 7032.32 498.842 7034.73 496.779C7037.13 494.374 7040.05 493.171 7043.49 493.171H7084.22C7088 493.171 7090.92 494.374 7092.98 496.779C7095.39 498.842 7096.59 501.763 7096.59 505.544V523.073C7115.15 499.701 7140.07 488.015 7171.35 488.015C7209.5 488.015 7236.14 503.31 7251.26 533.899C7259.51 520.151 7271.19 509.153 7286.32 500.904C7301.44 492.311 7317.77 488.015 7335.3 488.015C7363.48 488.015 7386.51 497.639 7404.38 516.886C7422.25 536.134 7431.19 564.145 7431.19 600.922V748.886C7431.19 752.323 7429.99 755.245 7427.58 757.651C7425.52 760.057 7422.6 761.26 7418.82 761.26H7376.02C7372.59 761.26 7369.67 760.057 7367.26 757.651C7364.85 755.245 7363.65 752.323 7363.65 748.886V605.046C7363.65 583.393 7359.01 567.754 7349.73 558.131C7340.79 548.507 7328.94 543.695 7314.16 543.695C7300.75 543.695 7289.24 548.679 7279.62 558.646C7270.34 568.27 7265.7 583.737 7265.7 605.046V748.886C7265.7 752.323 7264.49 755.245 7262.09 757.651C7260.02 760.057 7257.1 761.26 7253.32 761.26H7210.02C7206.58 761.26 7203.66 760.057 7201.25 757.651C7198.84 755.245 7197.64 752.323 7197.64 748.886V605.046C7197.64 583.737 7193 568.27 7183.72 558.646C7174.44 548.679 7162.58 543.695 7148.15 543.695C7134.74 543.695 7123.23 548.679 7113.61 558.646C7104.33 568.27 7099.69 583.737 7099.69 605.046V748.886C7099.69 752.323 7098.48 755.245 7096.08 757.651C7094.02 760.057 7091.09 761.26 7087.31 761.26H7043.49ZM7612.83 766.415C7574.33 766.415 7543.74 755.417 7521.06 733.42C7498.72 711.422 7486.86 680.145 7485.49 639.588L7484.97 626.7C7484.97 583.737 7496.14 549.882 7518.48 525.135C7541.17 500.388 7572.44 488.015 7612.31 488.015C7653.21 488.015 7684.66 500.388 7706.66 525.135C7729 549.882 7740.17 582.877 7740.17 624.122V634.948C7740.17 638.385 7738.97 641.307 7736.56 643.713C7734.16 646.119 7731.06 647.322 7727.28 647.322H7556.12V651.446C7556.81 670.694 7561.96 686.676 7571.58 699.393C7581.55 711.766 7595.13 717.953 7612.31 717.953C7631.9 717.953 7647.89 710.048 7660.26 694.237C7663.35 690.457 7665.76 688.222 7667.48 687.535C7669.2 686.504 7672.12 685.988 7676.24 685.988H7721.61C7724.7 685.988 7727.28 686.848 7729.34 688.566C7731.75 690.285 7732.95 692.691 7732.95 695.784C7732.95 704.033 7727.97 713.828 7718 725.171C7708.38 736.169 7694.46 745.793 7676.24 754.042C7658.03 762.291 7636.89 766.415 7612.83 766.415ZM7669.02 603.499V602.468C7669.02 582.19 7663.87 566.036 7653.56 554.006C7643.59 541.633 7629.84 535.446 7612.31 535.446C7594.78 535.446 7581.04 541.633 7571.07 554.006C7561.1 566.036 7556.12 582.19 7556.12 602.468V603.499H7669.02ZM7832.27 859.215C7829.52 859.215 7826.94 858.184 7824.54 856.122C7822.48 854.06 7821.44 851.654 7821.44 848.904C7821.44 846.498 7822.13 843.748 7823.51 840.655L7864.24 745.277L7765.25 511.731C7763.87 508.637 7763.19 506.231 7763.19 504.513C7763.53 501.419 7764.73 498.842 7766.8 496.779C7768.86 494.374 7771.44 493.171 7774.53 493.171H7817.32C7823.51 493.171 7827.97 496.436 7830.72 502.966L7899.29 671.037L7968.89 502.966C7972.33 496.436 7977.14 493.171 7983.33 493.171H8025.09C8028.18 493.171 8030.76 494.202 8032.82 496.264C8034.88 498.326 8035.92 500.732 8035.92 503.482C8035.92 505.888 8035.23 508.637 8033.85 511.731L7887.95 849.42C7885.2 855.95 7880.39 859.215 7873.52 859.215H7832.27ZM8090.66 449.348C8087.23 449.348 8084.31 448.145 8081.9 445.739C8079.49 443.334 8078.29 440.412 8078.29 436.975V399.339C8078.29 395.559 8079.49 392.465 8081.9 390.059C8084.31 387.654 8087.23 386.451 8090.66 386.451H8138.1C8141.88 386.451 8144.97 387.654 8147.38 390.059C8149.78 392.465 8150.98 395.559 8150.98 399.339V436.975C8150.98 440.412 8149.61 443.334 8146.86 445.739C8144.45 448.145 8141.53 449.348 8138.1 449.348H8090.66ZM8092.73 761.26C8089.29 761.26 8086.37 760.057 8083.96 757.651C8081.56 755.245 8080.35 752.323 8080.35 748.886V505.544C8080.35 501.763 8081.56 498.842 8083.96 496.779C8086.37 494.374 8089.29 493.171 8092.73 493.171H8136.55C8139.99 493.171 8142.91 494.374 8145.31 496.779C8147.72 499.185 8148.92 502.107 8148.92 505.544V748.886C8148.92 752.323 8147.72 755.245 8145.31 757.651C8142.91 760.057 8139.99 761.26 8136.55 761.26H8092.73ZM8483.1 766.415C8447.35 766.415 8420.03 754.214 8401.13 729.811V748.886C8401.13 752.323 8399.92 755.245 8397.52 757.651C8395.11 760.057 8392.02 761.26 8388.24 761.26H8346.99C8343.56 761.26 8340.63 760.057 8338.23 757.651C8335.82 755.245 8334.62 752.323 8334.62 748.886V407.588C8334.62 403.808 8335.82 400.886 8338.23 398.824C8340.63 396.418 8343.56 395.215 8346.99 395.215H8391.85C8395.63 395.215 8398.55 396.418 8400.61 398.824C8403.02 400.886 8404.22 403.808 8404.22 407.588V522.042C8423.47 499.357 8449.76 488.015 8483.1 488.015C8517.81 488.015 8544.45 499.357 8563.01 522.042C8581.91 544.382 8591.88 573.769 8592.91 610.202C8593.26 614.326 8593.43 619.997 8593.43 627.215C8593.43 634.089 8593.26 639.76 8592.91 644.228C8591.54 681.348 8581.57 711.079 8563.01 733.42C8544.45 755.417 8517.81 766.415 8483.1 766.415ZM8463.51 710.735C8500.28 710.735 8519.88 688.051 8522.28 642.682C8522.63 639.245 8522.8 634.089 8522.8 627.215C8522.8 620.341 8522.63 615.185 8522.28 611.748C8519.88 566.379 8500.28 543.695 8463.51 543.695C8444.6 543.695 8430.17 549.71 8420.2 561.739C8410.23 573.769 8404.91 588.377 8404.22 605.562C8403.88 609.686 8403.7 616.388 8403.7 625.668C8403.7 634.605 8403.88 641.135 8404.22 645.26C8404.91 663.476 8410.06 678.942 8419.69 691.66C8429.31 704.377 8443.92 710.735 8463.51 710.735ZM8663.16 761.26C8659.72 761.26 8656.8 760.057 8654.4 757.651C8651.99 755.245 8650.79 752.323 8650.79 748.886V505.544C8650.79 501.763 8651.99 498.842 8654.4 496.779C8656.8 494.374 8659.72 493.171 8663.16 493.171H8706.98C8710.42 493.171 8713.34 494.374 8715.75 496.779C8718.15 499.185 8719.36 502.107 8719.36 505.544V748.886C8719.36 752.323 8718.15 755.245 8715.75 757.651C8713.34 760.057 8710.42 761.26 8706.98 761.26H8663.16ZM8799.6 761.26C8796.17 761.26 8793.24 760.057 8790.84 757.651C8788.43 755.245 8787.23 752.323 8787.23 748.886V506.059C8787.23 502.279 8788.43 499.185 8790.84 496.779C8793.24 494.374 8796.17 493.171 8799.6 493.171H8841.88C8845.66 493.171 8848.75 494.374 8851.16 496.779C8853.56 499.185 8854.77 502.279 8854.77 506.059V527.197C8871.95 504.513 8896.7 493.171 8929.01 493.171H8950.66C8954.44 493.171 8957.36 494.374 8959.42 496.779C8961.83 498.842 8963.03 501.763 8963.03 505.544V543.179C8963.03 546.617 8961.83 549.538 8959.42 551.944C8957.36 554.35 8954.44 555.553 8950.66 555.553H8909.93C8893.78 555.553 8881.06 560.193 8871.78 569.473C8862.5 578.753 8857.86 591.47 8857.86 607.624V748.886C8857.86 752.323 8856.66 755.245 8854.25 757.651C8851.85 760.057 8848.92 761.26 8845.49 761.26H8799.6ZM9077.04 766.415C9059.51 766.415 9043.36 762.978 9028.58 756.104C9014.14 748.886 9002.63 739.262 8994.04 727.233C8985.79 715.203 8981.66 701.971 8981.66 687.535C8981.66 664.163 8991.11 645.26 9010.02 630.824C9028.92 616.388 9054.87 606.593 9087.87 601.437L9158.5 591.126V580.299C9158.5 565.52 9154.72 554.35 9147.16 546.788C9139.59 539.227 9127.56 535.446 9111.07 535.446C9099.72 535.446 9090.62 537.508 9083.74 541.633C9076.87 545.757 9071.2 550.054 9066.73 554.522C9062.6 558.646 9059.85 561.396 9058.48 562.771C9057.1 566.895 9054.53 568.957 9050.75 568.957H9010.53C9007.44 568.957 9004.69 567.926 9002.28 565.864C9000.22 563.802 8999.19 561.052 8999.19 557.615C8999.53 549.022 9003.66 539.399 9011.56 528.744C9019.81 517.745 9032.36 508.294 9049.2 500.388C9066.04 492.139 9086.84 488.015 9111.58 488.015C9152.14 488.015 9181.7 497.123 9200.26 515.339C9218.82 533.556 9228.1 557.443 9228.1 587.002V748.886C9228.1 752.323 9226.89 755.245 9224.49 757.651C9222.43 760.057 9219.5 761.26 9215.72 761.26H9172.93C9169.5 761.26 9166.57 760.057 9164.17 757.651C9161.76 755.245 9160.56 752.323 9160.56 748.886V728.78C9153 739.778 9142.34 748.886 9128.6 756.104C9114.85 762.978 9097.66 766.415 9077.04 766.415ZM9094.57 716.922C9113.47 716.922 9128.94 710.735 9140.97 698.362C9153 685.988 9159.01 668.116 9159.01 644.744V634.433L9107.46 642.682C9067.93 648.868 9048.17 662.101 9048.17 682.38C9048.17 693.378 9052.64 701.971 9061.57 708.157C9070.85 714 9081.85 716.922 9094.57 716.922ZM9307.11 761.26C9303.68 761.26 9300.76 760.057 9298.35 757.651C9295.94 755.245 9294.74 752.323 9294.74 748.886V407.588C9294.74 403.808 9295.94 400.886 9298.35 398.824C9300.76 396.418 9303.68 395.215 9307.11 395.215H9349.9C9353.34 395.215 9356.26 396.418 9358.67 398.824C9361.08 401.23 9362.28 404.151 9362.28 407.588V583.908L9447.86 501.935C9448.89 501.248 9450.44 500.045 9452.5 498.326C9454.91 496.264 9457.14 494.889 9459.2 494.202C9461.26 493.514 9463.84 493.171 9466.94 493.171H9515.91C9519.35 493.171 9522.1 494.202 9524.16 496.264C9526.22 498.326 9527.26 501.076 9527.26 504.513C9527.26 507.606 9525.54 510.699 9522.1 513.793L9416.93 613.295L9534.99 741.153C9538.08 744.246 9539.63 747.168 9539.63 749.917C9539.63 753.354 9538.6 756.104 9536.54 758.166C9534.47 760.228 9531.9 761.26 9528.8 761.26H9478.79C9473.98 761.26 9470.37 760.744 9467.97 759.713C9465.9 758.338 9463.16 755.932 9459.72 752.495L9362.28 648.868V748.886C9362.28 752.323 9361.08 755.245 9358.67 757.651C9356.26 760.057 9353.34 761.26 9349.9 761.26H9307.11ZM9591.06 761.26C9587.62 761.26 9584.7 760.057 9582.3 757.651C9579.89 755.245 9578.69 752.323 9578.69 748.886V505.544C9578.69 501.763 9579.89 498.842 9582.3 496.779C9584.7 494.374 9587.62 493.171 9591.06 493.171H9631.79C9635.57 493.171 9638.49 494.374 9640.55 496.779C9642.96 498.842 9644.16 501.763 9644.16 505.544V523.073C9662.72 499.701 9687.64 488.015 9718.92 488.015C9757.07 488.015 9783.71 503.31 9798.83 533.899C9807.08 520.151 9818.76 509.153 9833.89 500.904C9849.01 492.311 9865.34 488.015 9882.86 488.015C9911.05 488.015 9934.08 497.639 9951.95 516.886C9969.82 536.134 9978.76 564.145 9978.76 600.922V748.886C9978.76 752.323 9977.56 755.245 9975.15 757.651C9973.09 760.057 9970.17 761.26 9966.38 761.26H9923.59C9920.16 761.26 9917.24 760.057 9914.83 757.651C9912.42 755.245 9911.22 752.323 9911.22 748.886V605.046C9911.22 583.393 9906.58 567.754 9897.3 558.131C9888.36 548.507 9876.51 543.695 9861.73 543.695C9848.32 543.695 9836.81 548.679 9827.18 558.646C9817.9 568.27 9813.26 583.737 9813.26 605.046V748.886C9813.26 752.323 9812.06 755.245 9809.66 757.651C9807.59 760.057 9804.67 761.26 9800.89 761.26H9757.58C9754.15 761.26 9751.23 760.057 9748.82 757.651C9746.41 755.245 9745.21 752.323 9745.21 748.886V605.046C9745.21 583.737 9740.57 568.27 9731.29 558.646C9722.01 548.679 9710.15 543.695 9695.72 543.695C9682.31 543.695 9670.8 548.679 9661.18 558.646C9651.9 568.27 9647.26 583.737 9647.26 605.046V748.886C9647.26 752.323 9646.05 755.245 9643.65 757.651C9641.58 760.057 9638.66 761.26 9634.88 761.26H9591.06ZM10122.2 766.415C10104.7 766.415 10088.6 762.978 10073.8 756.104C10059.3 748.886 10047.8 739.262 10039.2 727.233C10031 715.203 10026.9 701.971 10026.9 687.535C10026.9 664.163 10036.3 645.26 10055.2 630.824C10074.1 616.388 10100.1 606.593 10133.1 601.437L10203.7 591.126V580.299C10203.7 565.52 10199.9 554.35 10192.4 546.788C10184.8 539.227 10172.8 535.446 10156.3 535.446C10144.9 535.446 10135.8 537.508 10128.9 541.633C10122.1 545.757 10116.4 550.054 10111.9 554.522C10107.8 558.646 10105.1 561.396 10103.7 562.771C10102.3 566.895 10099.7 568.957 10096 568.957H10055.7C10052.6 568.957 10049.9 567.926 10047.5 565.864C10045.4 563.802 10044.4 561.052 10044.4 557.615C10044.7 549.022 10048.9 539.399 10056.8 528.744C10065 517.745 10077.6 508.294 10094.4 500.388C10111.2 492.139 10132 488.015 10156.8 488.015C10197.3 488.015 10226.9 497.123 10245.5 515.339C10264 533.556 10273.3 557.443 10273.3 587.002V748.886C10273.3 752.323 10272.1 755.245 10269.7 757.651C10267.6 760.057 10264.7 761.26 10260.9 761.26H10218.1C10214.7 761.26 10211.8 760.057 10209.4 757.651C10207 755.245 10205.8 752.323 10205.8 748.886V728.78C10198.2 739.778 10187.6 748.886 10173.8 756.104C10160.1 762.978 10142.9 766.415 10122.2 766.415ZM10139.8 716.922C10158.7 716.922 10174.1 710.735 10186.2 698.362C10198.2 685.988 10204.2 668.116 10204.2 644.744V634.433L10152.7 642.682C10113.1 648.868 10093.4 662.101 10093.4 682.38C10093.4 693.378 10097.8 701.971 10106.8 708.157C10116.1 714 10127.1 716.922 10139.8 716.922ZM10438.9 766.415C10404.2 766.415 10377.6 755.417 10359 733.42C10340.5 711.079 10330.3 681.348 10328.6 644.228L10328.1 627.215L10328.6 610.202C10330 573.769 10339.9 544.382 10358.5 522.042C10377.4 499.357 10404.2 488.015 10438.9 488.015C10471.9 488.015 10498.2 499.357 10517.8 522.042V407.588C10517.8 403.808 10519 400.886 10521.4 398.824C10523.8 396.418 10526.8 395.215 10530.2 395.215H10575C10578.8 395.215 10581.7 396.418 10583.8 398.824C10586.2 400.886 10587.4 403.808 10587.4 407.588V748.886C10587.4 752.323 10586.2 755.245 10583.8 757.651C10581.7 760.057 10578.8 761.26 10575 761.26H10533.3C10529.8 761.26 10526.9 760.057 10524.5 757.651C10522.1 755.245 10520.9 752.323 10520.9 748.886V729.811C10502 754.214 10474.7 766.415 10438.9 766.415ZM10458.5 710.735C10478.1 710.735 10492.6 704.548 10501.8 692.175C10511.5 679.458 10516.8 663.82 10517.8 645.26C10518.2 641.135 10518.3 634.605 10518.3 625.668C10518.3 616.388 10518.2 609.686 10517.8 605.562C10517.1 588.377 10511.8 573.769 10501.8 561.739C10491.9 549.71 10477.4 543.695 10458.5 543.695C10421.8 543.695 10402.2 566.379 10399.8 611.748L10399.2 627.215L10399.8 642.682C10402.2 688.051 10421.8 710.735 10458.5 710.735ZM10668.5 761.26C10665.1 761.26 10662.1 760.057 10659.7 757.651C10657.3 755.245 10656.1 752.323 10656.1 748.886V505.544C10656.1 501.763 10657.3 498.842 10659.7 496.779C10662.1 494.374 10665.1 493.171 10668.5 493.171H10712.3C10715.8 493.171 10718.7 494.374 10721.1 496.779C10723.5 499.185 10724.7 502.107 10724.7 505.544V748.886C10724.7 752.323 10723.5 755.245 10721.1 757.651C10718.7 760.057 10715.8 761.26 10712.3 761.26H10668.5ZM10913.7 874.682C10883.1 874.682 10858.4 869.526 10839.5 859.215C10820.6 849.248 10807.2 837.734 10799.3 824.673C10791.4 811.612 10787.4 800.442 10787.4 791.162C10787.4 787.725 10788.6 784.803 10791 782.397C10793.4 780.335 10796.3 779.304 10799.8 779.304H10845.7C10848.8 779.304 10851.3 779.991 10853.4 781.366C10855.8 783.085 10857.7 786.006 10859.1 790.131C10862.8 799.067 10868.5 806.628 10876.1 812.815C10883.6 819.345 10895.3 822.611 10911.1 822.611C10931.8 822.611 10946.9 817.971 10956.5 808.691C10966.1 799.754 10970.9 783.944 10970.9 761.26V726.202C10952.4 748.199 10926.1 759.197 10892.1 759.197C10856.3 759.197 10829.3 748.371 10811.1 726.717C10793.2 705.064 10783.6 675.505 10782.2 638.042L10781.7 624.122L10782.2 610.202C10783.6 573.425 10793.4 543.867 10811.6 521.526C10829.9 499.185 10856.7 488.015 10892.1 488.015C10910.3 488.015 10926.3 491.452 10940 498.326C10953.8 505.2 10965.1 514.48 10974 526.166V506.059C10974 502.279 10975.2 499.185 10977.6 496.779C10980.4 494.374 10983.5 493.171 10986.9 493.171H11029.2C11032.6 493.171 11035.6 494.374 11038 496.779C11040.4 499.185 11041.6 502.279 11041.6 506.059L11042.1 754.557C11042.1 792.708 11031.4 822.267 11010.1 843.233C10988.8 864.199 10956.7 874.682 10913.7 874.682ZM10911.7 704.548C10930.9 704.548 10945.3 698.362 10955 685.988C10964.6 673.615 10969.9 658.492 10970.9 640.62C10971.3 637.87 10971.5 632.371 10971.5 624.122C10971.5 615.873 10971.3 610.374 10970.9 607.624C10969.9 589.751 10964.6 574.628 10955 562.255C10945.3 549.882 10930.9 543.695 10911.7 543.695C10874.5 543.695 10854.9 566.379 10852.9 611.748L10852.4 624.122C10852.4 677.74 10872.1 704.548 10911.7 704.548ZM10911.7 457.082C10888.3 457.082 10870.8 450.723 10859.1 438.006C10847.7 424.945 10842.1 408.448 10842.1 388.513C10842.1 385.763 10842.9 383.529 10844.6 381.811C10846.3 379.748 10848.8 378.717 10851.8 378.717H10876.6C10879.7 378.717 10882.1 379.748 10883.8 381.811C10885.5 383.529 10886.4 385.763 10886.4 388.513C10886.4 409.822 10894.8 420.477 10911.7 420.477C10928.8 420.477 10937.4 409.822 10937.4 388.513C10937.4 385.763 10938.3 383.529 10940 381.811C10941.7 379.748 10944.1 378.717 10947.2 378.717H10972C10975.1 378.717 10977.5 379.748 10979.2 381.811C10980.9 383.529 10981.8 385.763 10981.8 388.513C10981.8 408.448 10975.9 424.945 10964.2 438.006C10952.9 450.723 10935.4 457.082 10911.7 457.082ZM11122.6 761.26C11119.2 761.26 11116.3 760.057 11113.9 757.651C11111.5 755.245 11110.3 752.323 11110.3 748.886V505.544C11110.3 501.763 11111.5 498.842 11113.9 496.779C11116.3 494.374 11119.2 493.171 11122.6 493.171H11166.4C11169.9 493.171 11172.8 494.374 11175.2 496.779C11177.6 499.185 11178.8 502.107 11178.8 505.544V748.886C11178.8 752.323 11177.6 755.245 11175.2 757.651C11172.8 760.057 11169.9 761.26 11166.4 761.26H11122.6ZM11259.1 761.26C11255.6 761.26 11252.7 760.057 11250.3 757.651C11247.9 755.245 11246.7 752.323 11246.7 748.886V505.544C11246.7 501.763 11247.9 498.842 11250.3 496.779C11252.7 494.374 11255.6 493.171 11259.1 493.171H11299.8C11303.6 493.171 11306.5 494.374 11308.6 496.779C11311 498.842 11312.2 501.763 11312.2 505.544V523.073C11330.7 499.701 11355.6 488.015 11386.9 488.015C11425.1 488.015 11451.7 503.31 11466.8 533.899C11475.1 520.151 11486.8 509.153 11501.9 500.904C11517 492.311 11533.3 488.015 11550.9 488.015C11579.1 488.015 11602.1 497.639 11620 516.886C11637.8 536.134 11646.8 564.145 11646.8 600.922V748.886C11646.8 752.323 11645.6 755.245 11643.2 757.651C11641.1 760.057 11638.2 761.26 11634.4 761.26H11591.6C11588.2 761.26 11585.2 760.057 11582.8 757.651C11580.4 755.245 11579.2 752.323 11579.2 748.886V605.046C11579.2 583.393 11574.6 567.754 11565.3 558.131C11556.4 548.507 11544.5 543.695 11529.7 543.695C11516.3 543.695 11504.8 548.679 11495.2 558.646C11485.9 568.27 11481.3 583.737 11481.3 605.046V748.886C11481.3 752.323 11480.1 755.245 11477.7 757.651C11475.6 760.057 11472.7 761.26 11468.9 761.26H11425.6C11422.2 761.26 11419.2 760.057 11416.8 757.651C11414.4 755.245 11413.2 752.323 11413.2 748.886V605.046C11413.2 583.737 11408.6 568.27 11399.3 558.646C11390 548.679 11378.2 543.695 11363.7 543.695C11350.3 543.695 11338.8 548.679 11329.2 558.646C11319.9 568.27 11315.3 583.737 11315.3 605.046V748.886C11315.3 752.323 11314.1 755.245 11311.7 757.651C11309.6 760.057 11306.7 761.26 11302.9 761.26H11259.1ZM11931.8 766.415C11905.7 766.415 11883.8 762.462 11866.3 754.557C11848.8 746.652 11835.7 737.544 11827.1 727.233C11818.9 716.578 11814.8 707.47 11814.8 699.908C11814.8 696.471 11815.8 693.722 11817.9 691.66C11820.3 689.597 11823 688.566 11826.1 688.566H11868.4C11871.1 688.566 11873.5 689.941 11875.6 692.691C11877.3 694.065 11881.1 697.331 11886.9 702.486C11893.1 707.642 11900 711.766 11907.6 714.86C11915.5 717.609 11924.1 718.984 11933.3 718.984C11947.1 718.984 11958.3 716.406 11966.8 711.251C11975.4 705.751 11979.7 698.018 11979.7 688.051C11979.7 681.177 11977.7 675.677 11973.6 671.553C11969.8 667.085 11962.7 663.132 11952.4 659.695C11942.4 655.914 11927.3 651.79 11907 647.322C11877.8 641.135 11856.2 631.683 11842.1 618.966C11828.3 606.249 11821.5 589.408 11821.5 568.442C11821.5 554.694 11825.6 541.805 11833.8 529.775C11842.1 517.402 11854.3 507.434 11870.4 499.873C11886.9 491.968 11906.5 488.015 11929.2 488.015C11952.6 488.015 11972.7 491.796 11989.5 499.357C12006.4 506.575 12019.1 515.339 12027.7 525.651C12036.6 535.962 12041.1 545.07 12041.1 552.975C12041.1 556.068 12039.9 558.818 12037.5 561.224C12035.4 563.286 12032.8 564.317 12029.7 564.317H11991.1C11987.3 564.317 11984.4 562.942 11982.3 560.193C11979.9 558.474 11976 555.381 11970.5 550.913C11965.3 546.101 11959.5 542.32 11952.9 539.571C11946.4 536.821 11938.5 535.446 11929.2 535.446C11916.5 535.446 11906.7 538.196 11899.8 543.695C11893 549.194 11889.5 556.412 11889.5 565.348C11889.5 571.535 11891.1 576.691 11894.2 580.815C11897.6 584.939 11904.3 588.892 11914.3 592.673C11924.2 596.11 11939.2 599.719 11959.1 603.499C12021 615.529 12051.9 642.51 12051.9 684.442C12051.9 708.845 12041.3 728.608 12020 743.731C11999 758.854 11969.6 766.415 11931.8 766.415ZM12204.1 766.415C12172.5 766.415 12147.6 756.104 12129.4 735.482C12111.1 714.86 12102 686.504 12102 650.415V505.544C12102 501.763 12103.2 498.842 12105.6 496.779C12108 494.374 12111 493.171 12114.4 493.171H12160.8C12164.2 493.171 12167.2 494.374 12169.6 496.779C12172 499.185 12173.2 502.107 12173.2 505.544V647.322C12173.2 689.597 12191.6 710.735 12228.3 710.735C12246.2 710.735 12260.3 705.064 12270.6 693.722C12281.3 682.38 12286.6 666.913 12286.6 647.322V505.544C12286.6 501.763 12287.8 498.842 12290.2 496.779C12292.6 494.374 12295.5 493.171 12299 493.171H12344.9C12348.6 493.171 12351.6 494.374 12353.6 496.779C12356 498.842 12357.2 501.763 12357.2 505.544V748.886C12357.2 752.323 12356 755.245 12353.6 757.651C12351.6 760.057 12348.6 761.26 12344.9 761.26H12302.1C12298.6 761.26 12295.7 760.057 12293.3 757.651C12290.9 755.245 12289.7 752.323 12289.7 748.886V727.748C12270.8 753.526 12242.3 766.415 12204.1 766.415ZM12161.8 444.708C12158.4 444.708 12155.6 443.677 12153.6 441.615C12151.5 439.553 12150.5 436.803 12150.5 433.366V395.215C12150.5 391.778 12151.5 389.028 12153.6 386.966C12155.6 384.56 12158.4 383.357 12161.8 383.357H12200C12203.4 383.357 12206.2 384.56 12208.2 386.966C12210.6 389.028 12211.8 391.778 12211.8 395.215V433.366C12211.8 436.803 12210.6 439.553 12208.2 441.615C12206.2 443.677 12203.4 444.708 12200 444.708H12161.8ZM12259.3 444.708C12255.8 444.708 12253.1 443.677 12251 441.615C12249 439.553 12247.9 436.803 12247.9 433.366V395.215C12247.9 391.778 12249 389.028 12251 386.966C12253.1 384.56 12255.8 383.357 12259.3 383.357H12297.4C12300.9 383.357 12303.6 384.56 12305.7 386.966C12308.1 389.028 12309.3 391.778 12309.3 395.215V433.366C12309.3 436.803 12308.1 439.553 12305.7 441.615C12303.6 443.677 12300.9 444.708 12297.4 444.708H12259.3ZM12437.7 761.26C12434.3 761.26 12431.3 760.057 12428.9 757.651C12426.5 755.245 12425.3 752.323 12425.3 748.886V506.059C12425.3 502.279 12426.5 499.185 12428.9 496.779C12431.3 494.374 12434.3 493.171 12437.7 493.171H12480C12483.7 493.171 12486.8 494.374 12489.2 496.779C12491.7 499.185 12492.9 502.279 12492.9 506.059V527.197C12510 504.513 12534.8 493.171 12567.1 493.171H12588.8C12592.5 493.171 12595.5 494.374 12597.5 496.779C12599.9 498.842 12601.1 501.763 12601.1 505.544V543.179C12601.1 546.617 12599.9 549.538 12597.5 551.944C12595.5 554.35 12592.5 555.553 12588.8 555.553H12548C12531.9 555.553 12519.2 560.193 12509.9 569.473C12500.6 578.753 12496 591.47 12496 607.624V748.886C12496 752.323 12494.7 755.245 12492.3 757.651C12489.9 760.057 12487 761.26 12483.6 761.26H12437.7ZM12753.8 766.415C12715.3 766.415 12684.7 755.417 12662 733.42C12639.7 711.422 12627.8 680.145 12626.4 639.588L12625.9 626.7C12625.9 583.737 12637.1 549.882 12659.4 525.135C12682.1 500.388 12713.4 488.015 12753.3 488.015C12794.2 488.015 12825.6 500.388 12847.6 525.135C12870 549.882 12881.1 582.877 12881.1 624.122V634.948C12881.1 638.385 12879.9 641.307 12877.5 643.713C12875.1 646.119 12872 647.322 12868.2 647.322H12697.1V651.446C12697.8 670.694 12702.9 686.676 12712.5 699.393C12722.5 711.766 12736.1 717.953 12753.3 717.953C12772.9 717.953 12788.8 710.048 12801.2 694.237C12804.3 690.457 12806.7 688.222 12808.4 687.535C12810.2 686.504 12813.1 685.988 12817.2 685.988H12862.6C12865.7 685.988 12868.2 686.848 12870.3 688.566C12872.7 690.285 12873.9 692.691 12873.9 695.784C12873.9 704.033 12868.9 713.828 12859 725.171C12849.3 736.169 12835.4 745.793 12817.2 754.042C12799 762.291 12777.8 766.415 12753.8 766.415ZM12810 603.499V602.468C12810 582.19 12804.8 566.036 12794.5 554.006C12784.5 541.633 12770.8 535.446 12753.3 535.446C12735.7 535.446 12722 541.633 12712 554.006C12702.1 566.036 12697.1 582.19 12697.1 602.468V603.499H12810ZM13051.8 766.415C13014 766.415 12983.8 755.932 12961.1 734.966C12938.8 714 12926.9 684.957 12925.5 647.837L12925 627.215L12925.5 606.593C12926.9 569.473 12938.8 540.43 12961.1 519.464C12983.8 498.498 13014 488.015 13051.8 488.015C13079 488.015 13101.8 492.827 13120.4 502.451C13139.3 512.074 13153.2 523.932 13162.2 538.024C13171.4 551.772 13176.4 565.005 13177.1 577.722C13177.5 581.159 13176.3 584.08 13173.5 586.486C13171.1 588.892 13168.2 590.095 13164.7 590.095H13118.9C13115.1 590.095 13112.3 589.408 13110.6 588.033C13108.9 586.314 13107.2 583.393 13105.5 579.268C13100.3 566.208 13093.4 556.756 13084.8 550.913C13076.6 545.07 13065.9 542.148 13052.9 542.148C13035.3 542.148 13021.6 547.648 13011.6 558.646C13002 569.645 12996.8 586.486 12996.2 609.171L12995.6 628.246L12996.2 645.26C12998.2 689.941 13017.1 712.282 13052.9 712.282C13066.3 712.282 13077.1 709.532 13085.4 704.033C13093.6 698.19 13100.3 688.566 13105.5 675.162C13106.8 671.381 13108.4 668.631 13110.1 666.913C13112.2 665.194 13115.1 664.335 13118.9 664.335H13164.7C13168.2 664.335 13171.1 665.538 13173.5 667.944C13176.3 670.35 13177.5 673.271 13177.1 676.708C13176.4 688.738 13171.6 701.799 13162.7 715.891C13153.7 729.639 13140 741.497 13121.4 751.464C13102.9 761.431 13079.7 766.415 13051.8 766.415ZM13346.9 766.415C13308.4 766.415 13277.8 755.417 13255.1 733.42C13232.8 711.422 13220.9 680.145 13219.5 639.588L13219 626.7C13219 583.737 13230.2 549.882 13252.5 525.135C13275.2 500.388 13306.5 488.015 13346.4 488.015C13387.3 488.015 13418.7 500.388 13440.7 525.135C13463 549.882 13474.2 582.877 13474.2 624.122V634.948C13474.2 638.385 13473 641.307 13470.6 643.713C13468.2 646.119 13465.1 647.322 13461.3 647.322H13290.2V651.446C13290.9 670.694 13296 686.676 13305.6 699.393C13315.6 711.766 13329.2 717.953 13346.4 717.953C13366 717.953 13381.9 710.048 13394.3 694.237C13397.4 690.457 13399.8 688.222 13401.5 687.535C13403.2 686.504 13406.2 685.988 13410.3 685.988H13455.7C13458.8 685.988 13461.3 686.848 13463.4 688.566C13465.8 690.285 13467 692.691 13467 695.784C13467 704.033 13462 713.828 13452 725.171C13442.4 736.169 13428.5 745.793 13410.3 754.042C13392.1 762.291 13370.9 766.415 13346.9 766.415ZM13403.1 603.499V602.468C13403.1 582.19 13397.9 566.036 13387.6 554.006C13377.6 541.633 13363.9 535.446 13346.4 535.446C13328.8 535.446 13315.1 541.633 13305.1 554.006C13295.1 566.036 13290.2 582.19 13290.2 602.468V603.499H13403.1ZM13767.4 874.682C13736.8 874.682 13712.1 869.526 13693.2 859.215C13674.3 849.248 13660.8 837.734 13652.9 824.673C13645 811.612 13641.1 800.442 13641.1 791.162C13641.1 787.725 13642.3 784.803 13644.7 782.397C13647.1 780.335 13650 779.304 13653.5 779.304H13699.3C13702.4 779.304 13705 779.991 13707.1 781.366C13709.5 783.085 13711.4 786.006 13712.7 790.131C13716.5 799.067 13722.2 806.628 13729.8 812.815C13737.3 819.345 13749 822.611 13764.8 822.611C13785.4 822.611 13800.6 817.971 13810.2 808.691C13819.8 799.754 13824.6 783.944 13824.6 761.26V726.202C13806.1 748.199 13779.8 759.197 13745.7 759.197C13710 759.197 13683 748.371 13664.8 726.717C13646.9 705.064 13637.3 675.505 13635.9 638.042L13635.4 624.122L13635.9 610.202C13637.3 573.425 13647.1 543.867 13665.3 521.526C13683.5 499.185 13710.3 488.015 13745.7 488.015C13764 488.015 13779.9 491.452 13793.7 498.326C13807.4 505.2 13818.8 514.48 13827.7 526.166V506.059C13827.7 502.279 13828.9 499.185 13831.3 496.779C13834.1 494.374 13837.2 493.171 13840.6 493.171H13882.9C13886.3 493.171 13889.2 494.374 13891.6 496.779C13894 499.185 13895.3 502.279 13895.3 506.059L13895.8 754.557C13895.8 792.708 13885.1 822.267 13863.8 843.233C13842.5 864.199 13810.4 874.682 13767.4 874.682ZM13765.3 704.548C13784.6 704.548 13799 698.362 13808.6 685.988C13818.3 673.615 13823.6 658.492 13824.6 640.62C13825 637.87 13825.1 632.371 13825.1 624.122C13825.1 615.873 13825 610.374 13824.6 607.624C13823.6 589.751 13818.3 574.628 13808.6 562.255C13799 549.882 13784.6 543.695 13765.3 543.695C13728.2 543.695 13708.6 566.379 13706.6 611.748L13706 624.122C13706 677.74 13725.8 704.548 13765.3 704.548ZM14063.4 766.415C14031.8 766.415 14006.9 756.104 13988.7 735.482C13970.5 714.86 13961.4 686.504 13961.4 650.415V505.544C13961.4 501.763 13962.6 498.842 13965 496.779C13967.4 494.374 13970.3 493.171 13973.7 493.171H14020.1C14023.6 493.171 14026.5 494.374 14028.9 496.779C14031.3 499.185 14032.5 502.107 14032.5 505.544V647.322C14032.5 689.597 14050.9 710.735 14087.7 710.735C14105.5 710.735 14119.6 705.064 14129.9 693.722C14140.6 682.38 14145.9 666.913 14145.9 647.322V505.544C14145.9 501.763 14147.1 498.842 14149.5 496.779C14151.9 494.374 14154.9 493.171 14158.3 493.171H14204.2C14208 493.171 14210.9 494.374 14212.9 496.779C14215.4 498.842 14216.6 501.763 14216.6 505.544V748.886C14216.6 752.323 14215.4 755.245 14212.9 757.651C14210.9 760.057 14208 761.26 14204.2 761.26H14161.4C14158 761.26 14155 760.057 14152.6 757.651C14150.2 755.245 14149 752.323 14149 748.886V727.748C14130.1 753.526 14101.6 766.415 14063.4 766.415ZM14021.2 444.708C14017.7 444.708 14015 443.677 14012.9 441.615C14010.8 439.553 14009.8 436.803 14009.8 433.366V395.215C14009.8 391.778 14010.8 389.028 14012.9 386.966C14015 384.56 14017.7 383.357 14021.2 383.357H14059.3C14062.7 383.357 14065.5 384.56 14067.6 386.966C14070 389.028 14071.2 391.778 14071.2 395.215V433.366C14071.2 436.803 14070 439.553 14067.6 441.615C14065.5 443.677 14062.7 444.708 14059.3 444.708H14021.2ZM14118.6 444.708C14115.2 444.708 14112.4 443.677 14110.3 441.615C14108.3 439.553 14107.3 436.803 14107.3 433.366V395.215C14107.3 391.778 14108.3 389.028 14110.3 386.966C14112.4 384.56 14115.2 383.357 14118.6 383.357H14156.7C14160.2 383.357 14162.9 384.56 14165 386.966C14167.4 389.028 14168.6 391.778 14168.6 395.215V433.366C14168.6 436.803 14167.4 439.553 14165 441.615C14162.9 443.677 14160.2 444.708 14156.7 444.708H14118.6ZM14297 761.26C14293.6 761.26 14290.7 760.057 14288.3 757.651C14285.8 755.245 14284.6 752.323 14284.6 748.886V505.544C14284.6 501.763 14285.8 498.842 14288.3 496.779C14290.7 494.374 14293.6 493.171 14297 493.171H14339.8C14343.6 493.171 14346.5 494.374 14348.6 496.779C14351 498.842 14352.2 501.763 14352.2 505.544V526.682C14373.1 500.904 14401.8 488.015 14438.3 488.015C14469.9 488.015 14495 498.326 14513.5 518.948C14532.1 539.571 14541.4 567.926 14541.4 604.015V748.886C14541.4 752.323 14540.2 755.245 14537.8 757.651C14535.7 760.057 14532.8 761.26 14529 761.26H14482.6C14479.2 761.26 14476.3 760.057 14473.9 757.651C14471.4 755.245 14470.2 752.323 14470.2 748.886V607.108C14470.2 587.174 14465.3 571.707 14455.3 560.708C14445.7 549.366 14431.7 543.695 14413.5 543.695C14396 543.695 14381.9 549.366 14371.3 560.708C14360.6 572.051 14355.3 587.517 14355.3 607.108V748.886C14355.3 752.323 14354.1 755.245 14351.7 757.651C14349.6 760.057 14346.7 761.26 14342.9 761.26H14297ZM14722.9 766.415C14685.1 766.415 14654.8 755.932 14632.1 734.966C14609.8 714 14597.9 684.957 14596.6 647.837L14596 627.215L14596.6 606.593C14597.9 569.473 14609.8 540.43 14632.1 519.464C14654.8 498.498 14685.1 488.015 14722.9 488.015C14750 488.015 14772.9 492.827 14791.4 502.451C14810.3 512.074 14824.3 523.932 14833.2 538.024C14842.5 551.772 14847.5 565.005 14848.1 577.722C14848.5 581.159 14847.3 584.08 14844.5 586.486C14842.1 588.892 14839.2 590.095 14835.8 590.095H14789.9C14786.1 590.095 14783.4 589.408 14781.6 588.033C14779.9 586.314 14778.2 583.393 14776.5 579.268C14771.3 566.208 14764.5 556.756 14755.9 550.913C14747.6 545.07 14737 542.148 14723.9 542.148C14706.4 542.148 14692.6 547.648 14682.7 558.646C14673 569.645 14667.9 586.486 14667.2 609.171L14666.7 628.246L14667.2 645.26C14669.2 689.941 14688.2 712.282 14723.9 712.282C14737.3 712.282 14748.1 709.532 14756.4 704.033C14764.6 698.19 14771.3 688.566 14776.5 675.162C14777.9 671.381 14779.4 668.631 14781.1 666.913C14783.2 665.194 14786.1 664.335 14789.9 664.335H14835.8C14839.2 664.335 14842.1 665.538 14844.5 667.944C14847.3 670.35 14848.5 673.271 14848.1 676.708C14847.5 688.738 14842.6 701.799 14833.7 715.891C14824.8 729.639 14811 741.497 14792.5 751.464C14773.9 761.431 14750.7 766.415 14722.9 766.415ZM15017.9 766.415C14979.4 766.415 14948.8 755.417 14926.1 733.42C14903.8 711.422 14891.9 680.145 14890.6 639.588L14890 626.7C14890 583.737 14901.2 549.882 14923.6 525.135C14946.2 500.388 14977.5 488.015 15017.4 488.015C15058.3 488.015 15089.7 500.388 15111.7 525.135C15134.1 549.882 15145.2 582.877 15145.2 624.122V634.948C15145.2 638.385 15144 641.307 15141.6 643.713C15139.2 646.119 15136.1 647.322 15132.4 647.322H14961.2V651.446C14961.9 670.694 14967 686.676 14976.7 699.393C14986.6 711.766 15000.2 717.953 15017.4 717.953C15037 717.953 15053 710.048 15065.3 694.237C15068.4 690.457 15070.8 688.222 15072.5 687.535C15074.3 686.504 15077.2 685.988 15081.3 685.988H15126.7C15129.8 685.988 15132.4 686.848 15134.4 688.566C15136.8 690.285 15138 692.691 15138 695.784C15138 704.033 15133 713.828 15123.1 725.171C15113.4 736.169 15099.5 745.793 15081.3 754.042C15063.1 762.291 15042 766.415 15017.9 766.415ZM15074.1 603.499V602.468C15074.1 582.19 15068.9 566.036 15058.6 554.006C15048.7 541.633 15034.9 535.446 15017.4 535.446C14999.9 535.446 14986.1 541.633 14976.1 554.006C14966.2 566.036 14961.2 582.19 14961.2 602.468V603.499H15074.1ZM15212.8 761.26C15209.4 761.26 15206.5 760.057 15204.1 757.651C15201.7 755.245 15200.5 752.323 15200.5 748.886V407.588C15200.5 403.808 15201.7 400.886 15204.1 398.824C15206.5 396.418 15209.4 395.215 15212.8 395.215H15256.2C15259.9 395.215 15262.9 396.418 15264.9 398.824C15267.3 400.886 15268.5 403.808 15268.5 407.588V748.886C15268.5 752.323 15267.3 755.245 15264.9 757.651C15262.9 760.057 15259.9 761.26 15256.2 761.26H15212.8ZM15349.8 761.26C15346.4 761.26 15343.4 760.057 15341 757.651C15338.6 755.245 15337.4 752.323 15337.4 748.886V407.588C15337.4 403.808 15338.6 400.886 15341 398.824C15343.4 396.418 15346.4 395.215 15349.8 395.215H15393.1C15396.9 395.215 15399.8 396.418 15401.9 398.824C15404.3 400.886 15405.5 403.808 15405.5 407.588V748.886C15405.5 752.323 15404.3 755.245 15401.9 757.651C15399.8 760.057 15396.9 761.26 15393.1 761.26H15349.8ZM15589.8 766.415C15551.3 766.415 15520.8 755.417 15498.1 733.42C15475.7 711.422 15463.9 680.145 15462.5 639.588L15462 626.7C15462 583.737 15473.2 549.882 15495.5 525.135C15518.2 500.388 15549.5 488.015 15589.3 488.015C15630.2 488.015 15661.7 500.388 15683.7 525.135C15706 549.882 15717.2 582.877 15717.2 624.122V634.948C15717.2 638.385 15716 641.307 15713.6 643.713C15711.2 646.119 15708.1 647.322 15704.3 647.322H15533.1V651.446C15533.8 670.694 15539 686.676 15548.6 699.393C15558.6 711.766 15572.1 717.953 15589.3 717.953C15608.9 717.953 15624.9 710.048 15637.3 694.237C15640.4 690.457 15642.8 688.222 15644.5 687.535C15646.2 686.504 15649.1 685.988 15653.3 685.988H15698.6C15701.7 685.988 15704.3 686.848 15706.4 688.566C15708.8 690.285 15710 692.691 15710 695.784C15710 704.033 15705 713.828 15695 725.171C15685.4 736.169 15671.5 745.793 15653.3 754.042C15635 762.291 15613.9 766.415 15589.8 766.415ZM15646 603.499V602.468C15646 582.19 15640.9 566.036 15630.6 554.006C15620.6 541.633 15606.9 535.446 15589.3 535.446C15571.8 535.446 15558.1 541.633 15548.1 554.006C15538.1 566.036 15533.1 582.19 15533.1 602.468V603.499H15646ZM15784.3 761.26C15780.8 761.26 15777.9 760.057 15775.5 757.651C15773.1 755.245 15771.9 752.323 15771.9 748.886V505.544C15771.9 501.763 15773.1 498.842 15775.5 496.779C15777.9 494.374 15780.8 493.171 15784.3 493.171H15825C15828.8 493.171 15831.7 494.374 15833.8 496.779C15836.2 498.842 15837.4 501.763 15837.4 505.544V523.073C15855.9 499.701 15880.9 488.015 15912.1 488.015C15950.3 488.015 15976.9 503.31 15992 533.899C16000.3 520.151 16012 509.153 16027.1 500.904C16042.2 492.311 16058.5 488.015 16076.1 488.015C16104.3 488.015 16127.3 497.639 16145.2 516.886C16163 536.134 16172 564.145 16172 600.922V748.886C16172 752.323 16170.8 755.245 16168.4 757.651C16166.3 760.057 16163.4 761.26 16159.6 761.26H16116.8C16113.4 761.26 16110.4 760.057 16108 757.651C16105.6 755.245 16104.4 752.323 16104.4 748.886V605.046C16104.4 583.393 16099.8 567.754 16090.5 558.131C16081.6 548.507 16069.7 543.695 16054.9 543.695C16041.5 543.695 16030 548.679 16020.4 558.646C16011.1 568.27 16006.5 583.737 16006.5 605.046V748.886C16006.5 752.323 16005.3 755.245 16002.9 757.651C16000.8 760.057 15997.9 761.26 15994.1 761.26H15950.8C15947.4 761.26 15944.4 760.057 15942 757.651C15939.6 755.245 15938.4 752.323 15938.4 748.886V605.046C15938.4 583.737 15933.8 568.27 15924.5 558.646C15915.2 548.679 15903.4 543.695 15888.9 543.695C15875.5 543.695 15864 548.679 15854.4 558.646C15845.1 568.27 15840.5 583.737 15840.5 605.046V748.886C15840.5 752.323 15839.3 755.245 15836.9 757.651C15834.8 760.057 15831.9 761.26 15828.1 761.26H15784.3ZM16353.6 766.415C16315.1 766.415 16284.5 755.417 16261.8 733.42C16239.5 711.422 16227.6 680.145 16226.3 639.588L16225.8 626.7C16225.8 583.737 16236.9 549.882 16259.3 525.135C16281.9 500.388 16313.2 488.015 16353.1 488.015C16394 488.015 16425.4 500.388 16447.4 525.135C16469.8 549.882 16481 582.877 16481 624.122V634.948C16481 638.385 16479.8 641.307 16477.3 643.713C16474.9 646.119 16471.8 647.322 16468.1 647.322H16296.9V651.446C16297.6 670.694 16302.7 686.676 16312.4 699.393C16322.3 711.766 16335.9 717.953 16353.1 717.953C16372.7 717.953 16388.7 710.048 16401 694.237C16404.1 690.457 16406.5 688.222 16408.3 687.535C16410 686.504 16412.9 685.988 16417 685.988H16462.4C16465.5 685.988 16468.1 686.848 16470.1 688.566C16472.5 690.285 16473.7 692.691 16473.7 695.784C16473.7 704.033 16468.8 713.828 16458.8 725.171C16449.2 736.169 16435.2 745.793 16417 754.042C16398.8 762.291 16377.7 766.415 16353.6 766.415ZM16409.8 603.499V602.468C16409.8 582.19 16404.7 566.036 16394.3 554.006C16384.4 541.633 16370.6 535.446 16353.1 535.446C16335.6 535.446 16321.8 541.633 16311.9 554.006C16301.9 566.036 16296.9 582.19 16296.9 602.468V603.499H16409.8ZM16730.8 766.415C16713.3 766.415 16697.1 762.978 16682.4 756.104C16667.9 748.886 16656.4 739.262 16647.8 727.233C16639.6 715.203 16635.4 701.971 16635.4 687.535C16635.4 664.163 16644.9 645.26 16663.8 630.824C16682.7 616.388 16708.7 606.593 16741.7 601.437L16812.3 591.126V580.299C16812.3 565.52 16808.5 554.35 16800.9 546.788C16793.4 539.227 16781.3 535.446 16764.9 535.446C16753.5 535.446 16744.4 537.508 16737.5 541.633C16730.7 545.757 16725 550.054 16720.5 554.522C16716.4 558.646 16713.6 561.396 16712.3 562.771C16710.9 566.895 16708.3 568.957 16704.5 568.957H16664.3C16661.2 568.957 16658.5 567.926 16656.1 565.864C16654 563.802 16653 561.052 16653 557.615C16653.3 549.022 16657.4 539.399 16665.3 528.744C16673.6 517.745 16686.1 508.294 16703 500.388C16719.8 492.139 16740.6 488.015 16765.4 488.015C16805.9 488.015 16835.5 497.123 16854 515.339C16872.6 533.556 16881.9 557.443 16881.9 587.002V748.886C16881.9 752.323 16880.7 755.245 16878.3 757.651C16876.2 760.057 16873.3 761.26 16869.5 761.26H16826.7C16823.3 761.26 16820.4 760.057 16818 757.651C16815.5 755.245 16814.3 752.323 16814.3 748.886V728.78C16806.8 739.778 16796.1 748.886 16782.4 756.104C16768.6 762.978 16751.4 766.415 16730.8 766.415ZM16748.4 716.922C16767.3 716.922 16782.7 710.735 16794.8 698.362C16806.8 685.988 16812.8 668.116 16812.8 644.744V634.433L16761.2 642.682C16721.7 648.868 16702 662.101 16702 682.38C16702 693.378 16706.4 701.971 16715.4 708.157C16724.6 714 16735.6 716.922 16748.4 716.922ZM16960.9 761.26C16957.5 761.26 16954.5 760.057 16952.1 757.651C16949.7 755.245 16948.5 752.323 16948.5 748.886V407.588C16948.5 403.808 16949.7 400.886 16952.1 398.824C16954.5 396.418 16957.5 395.215 16960.9 395.215H17004.2C17008 395.215 17010.9 396.418 17013 398.824C17015.4 400.886 17016.6 403.808 17016.6 407.588V748.886C17016.6 752.323 17015.4 755.245 17013 757.651C17010.9 760.057 17008 761.26 17004.2 761.26H16960.9ZM17162.8 766.415C17145.3 766.415 17129.1 762.978 17114.3 756.104C17099.9 748.886 17088.4 739.262 17079.8 727.233C17071.5 715.203 17067.4 701.971 17067.4 687.535C17067.4 664.163 17076.9 645.26 17095.8 630.824C17114.7 616.388 17140.6 606.593 17173.6 601.437L17244.3 591.126V580.299C17244.3 565.52 17240.5 554.35 17232.9 546.788C17225.4 539.227 17213.3 535.446 17196.8 535.446C17185.5 535.446 17176.4 537.508 17169.5 541.633C17162.6 545.757 17157 550.054 17152.5 554.522C17148.4 558.646 17145.6 561.396 17144.2 562.771C17142.9 566.895 17140.3 568.957 17136.5 568.957H17096.3C17093.2 568.957 17090.5 567.926 17088 565.864C17086 563.802 17085 561.052 17085 557.615C17085.3 549.022 17089.4 539.399 17097.3 528.744C17105.6 517.745 17118.1 508.294 17135 500.388C17151.8 492.139 17172.6 488.015 17197.3 488.015C17237.9 488.015 17267.5 497.123 17286 515.339C17304.6 533.556 17313.9 557.443 17313.9 587.002V748.886C17313.9 752.323 17312.7 755.245 17310.3 757.651C17308.2 760.057 17305.3 761.26 17301.5 761.26H17258.7C17255.3 761.26 17252.3 760.057 17249.9 757.651C17247.5 755.245 17246.3 752.323 17246.3 748.886V728.78C17238.8 739.778 17228.1 748.886 17214.4 756.104C17200.6 762.978 17183.4 766.415 17162.8 766.415ZM17180.3 716.922C17199.2 716.922 17214.7 710.735 17226.7 698.362C17238.8 685.988 17244.8 668.116 17244.8 644.744V634.433L17193.2 642.682C17153.7 648.868 17133.9 662.101 17133.9 682.38C17133.9 693.378 17138.4 701.971 17147.3 708.157C17156.6 714 17167.6 716.922 17180.3 716.922ZM17496 766.415C17458.2 766.415 17427.9 755.932 17405.3 734.966C17382.9 714 17371.1 684.957 17369.7 647.837L17369.2 627.215L17369.7 606.593C17371.1 569.473 17382.9 540.43 17405.3 519.464C17427.9 498.498 17458.2 488.015 17496 488.015C17523.1 488.015 17546 492.827 17564.6 502.451C17583.5 512.074 17597.4 523.932 17606.3 538.024C17615.6 551.772 17620.6 565.005 17621.3 577.722C17621.6 581.159 17620.4 584.08 17617.7 586.486C17615.3 588.892 17612.3 590.095 17608.9 590.095H17563C17559.2 590.095 17556.5 589.408 17554.8 588.033C17553 586.314 17551.3 583.393 17549.6 579.268C17544.5 566.208 17537.6 556.756 17529 550.913C17520.7 545.07 17510.1 542.148 17497 542.148C17479.5 542.148 17465.7 547.648 17455.8 558.646C17446.2 569.645 17441 586.486 17440.3 609.171L17439.8 628.246L17440.3 645.26C17442.4 689.941 17461.3 712.282 17497 712.282C17510.4 712.282 17521.3 709.532 17529.5 704.033C17537.7 698.19 17544.5 688.566 17549.6 675.162C17551 671.381 17552.5 668.631 17554.2 666.913C17556.3 665.194 17559.2 664.335 17563 664.335H17608.9C17612.3 664.335 17615.3 665.538 17617.7 667.944C17620.4 670.35 17621.6 673.271 17621.3 676.708C17620.6 688.738 17615.8 701.799 17606.8 715.891C17597.9 729.639 17584.1 741.497 17565.6 751.464C17547 761.431 17523.8 766.415 17496 766.415ZM17752.9 766.415C17735.3 766.415 17719.2 762.978 17704.4 756.104C17690 748.886 17678.5 739.262 17669.9 727.233C17661.6 715.203 17657.5 701.971 17657.5 687.535C17657.5 664.163 17666.9 645.26 17685.9 630.824C17704.8 616.388 17730.7 606.593 17763.7 601.437L17834.3 591.126V580.299C17834.3 565.52 17830.6 554.35 17823 546.788C17815.4 539.227 17803.4 535.446 17786.9 535.446C17775.6 535.446 17766.4 537.508 17759.6 541.633C17752.7 545.757 17747 550.054 17742.6 554.522C17738.4 558.646 17735.7 561.396 17734.3 562.771C17732.9 566.895 17730.4 568.957 17726.6 568.957H17686.4C17683.3 568.957 17680.5 567.926 17678.1 565.864C17676.1 563.802 17675 561.052 17675 557.615C17675.4 549.022 17679.5 539.399 17687.4 528.744C17695.6 517.745 17708.2 508.294 17725 500.388C17741.9 492.139 17762.7 488.015 17787.4 488.015C17828 488.015 17857.5 497.123 17876.1 515.339C17894.7 533.556 17903.9 557.443 17903.9 587.002V748.886C17903.9 752.323 17902.7 755.245 17900.3 757.651C17898.3 760.057 17895.3 761.26 17891.6 761.26H17848.8C17845.3 761.26 17842.4 760.057 17840 757.651C17837.6 755.245 17836.4 752.323 17836.4 748.886V728.78C17828.8 739.778 17818.2 748.886 17804.4 756.104C17790.7 762.978 17773.5 766.415 17752.9 766.415ZM17770.4 716.922C17789.3 716.922 17804.8 710.735 17816.8 698.362C17828.8 685.988 17834.8 668.116 17834.8 644.744V634.433L17783.3 642.682C17743.8 648.868 17724 662.101 17724 682.38C17724 693.378 17728.5 701.971 17737.4 708.157C17746.7 714 17757.7 716.922 17770.4 716.922ZM17982.9 761.26C17979.5 761.26 17976.6 760.057 17974.2 757.651C17971.8 755.245 17970.6 752.323 17970.6 748.886V407.588C17970.6 403.808 17971.8 400.886 17974.2 398.824C17976.6 396.418 17979.5 395.215 17982.9 395.215H18025.7C18029.2 395.215 18032.1 396.418 18034.5 398.824C18036.9 401.23 18038.1 404.151 18038.1 407.588V583.908L18123.7 501.935C18124.7 501.248 18126.3 500.045 18128.3 498.326C18130.7 496.264 18133 494.889 18135 494.202C18137.1 493.514 18139.7 493.171 18142.8 493.171H18191.7C18195.2 493.171 18197.9 494.202 18200 496.264C18202.1 498.326 18203.1 501.076 18203.1 504.513C18203.1 507.606 18201.4 510.699 18197.9 513.793L18092.8 613.295L18210.8 741.153C18213.9 744.246 18215.5 747.168 18215.5 749.917C18215.5 753.354 18214.4 756.104 18212.4 758.166C18210.3 760.228 18207.7 761.26 18204.6 761.26H18154.6C18149.8 761.26 18146.2 760.744 18143.8 759.713C18141.7 758.338 18139 755.932 18135.6 752.495L18038.1 648.868V748.886C18038.1 752.323 18036.9 755.245 18034.5 757.651C18032.1 760.057 18029.2 761.26 18025.7 761.26H17982.9ZM18376.2 761.26C18344.9 761.26 18321.4 753.182 18305.6 737.028C18289.8 720.531 18281.8 696.471 18281.8 664.851V548.335H18241.1C18237.7 548.335 18234.8 547.132 18232.4 544.726C18229.9 542.32 18228.7 539.399 18228.7 535.962V505.544C18228.7 502.107 18229.9 499.185 18232.4 496.779C18234.8 494.374 18237.7 493.171 18241.1 493.171H18281.8V407.588C18281.8 403.808 18283 400.886 18285.5 398.824C18287.9 396.418 18290.8 395.215 18294.2 395.215H18337C18340.8 395.215 18343.7 396.418 18345.8 398.824C18348.2 400.886 18349.4 403.808 18349.4 407.588V493.171H18413.8C18417.3 493.171 18420.2 494.374 18422.6 496.779C18425 499.185 18426.2 502.107 18426.2 505.544V535.962C18426.2 539.399 18425 542.32 18422.6 544.726C18420.2 547.132 18417.3 548.335 18413.8 548.335H18349.4V659.18C18349.4 673.959 18352 685.129 18357.1 692.691C18362.3 700.252 18370.7 704.033 18382.4 704.033H18418.5C18422.2 704.033 18425.2 705.236 18427.2 707.642C18429.6 709.704 18430.8 712.625 18430.8 716.406V748.886C18430.8 752.323 18429.6 755.245 18427.2 757.651C18425.2 760.057 18422.2 761.26 18418.5 761.26H18376.2ZM18488.9 761.26C18485.5 761.26 18482.6 760.057 18480.2 757.651C18477.8 755.245 18476.6 752.323 18476.6 748.886V505.544C18476.6 501.763 18477.8 498.842 18480.2 496.779C18482.6 494.374 18485.5 493.171 18488.9 493.171H18532.7C18536.2 493.171 18539.1 494.374 18541.5 496.779C18543.9 499.185 18545.1 502.107 18545.1 505.544V748.886C18545.1 752.323 18543.9 755.245 18541.5 757.651C18539.1 760.057 18536.2 761.26 18532.7 761.26H18488.9ZM18625.4 761.26C18621.9 761.26 18619 760.057 18616.6 757.651C18614.2 755.245 18613 752.323 18613 748.886V506.059C18613 502.279 18614.2 499.185 18616.6 496.779C18619 494.374 18621.9 493.171 18625.4 493.171H18667.6C18671.4 493.171 18674.5 494.374 18676.9 496.779C18679.3 499.185 18680.5 502.279 18680.5 506.059V527.197C18697.7 504.513 18722.5 493.171 18754.8 493.171H18776.4C18780.2 493.171 18783.1 494.374 18785.2 496.779C18787.6 498.842 18788.8 501.763 18788.8 505.544V543.179C18788.8 546.617 18787.6 549.538 18785.2 551.944C18783.1 554.35 18780.2 555.553 18776.4 555.553H18735.7C18719.5 555.553 18706.8 560.193 18697.5 569.473C18688.3 578.753 18683.6 591.47 18683.6 607.624V748.886C18683.6 752.323 18682.4 755.245 18680 757.651C18677.6 760.057 18674.7 761.26 18671.3 761.26H18625.4ZM18810.6 761.26C18807.1 761.26 18804.2 760.057 18801.8 757.651C18799.4 755.245 18798.2 752.323 18798.2 748.886V696.815C18798.2 693.378 18799.4 690.457 18801.8 688.051C18804.2 685.645 18807.1 684.442 18810.6 684.442H18862.6C18866.1 684.442 18869 685.645 18871.4 688.051C18873.8 690.457 18875 693.378 18875 696.815V748.886C18875 752.323 18873.8 755.245 18871.4 757.651C18869.3 760.057 18866.4 761.26 18862.6 761.26H18810.6Z" fill="white"/>
</g>
<defs>
<filter id="filter0_d" x="0" y="0" width="19505.2" height="1245.93" filterUnits="userSpaceOnUse" color-interpolation-filters="sRGB">
<feFlood flood-opacity="0" result="BackgroundImageFix"/>
<feColorMatrix in="SourceAlpha" type="matrix" values="0 0 0 0 0 0 0 0 0 0 0 0 0 0 0 0 0 0 127 0" result="hardAlpha"/>
<feOffset dx="85.9259" dy="85.9259"/>
<feComposite in2="hardAlpha" operator="out"/>
<feColorMatrix type="matrix" values="0 0 0 0 0.783732 0 0 0 0 0.783732 0 0 0 0 0.783732 0 0 0 1 0"/>
<feBlend mode="normal" in2="BackgroundImageFix" result="effect1_dropShadow"/>
<feBlend mode="normal" in="SourceGraphic" in2="effect1_dropShadow" result="shape"/>
</filter>
<linearGradient id="paint0_linear" x1="0" y1="580" x2="19419.3" y2="580" gradientUnits="userSpaceOnUse">
<stop stop-color="#FF512F"/>
<stop offset="1" stop-color="#DD2476"/>
</linearGradient>
</defs>
</svg>
