<svg width="22" height="22" viewBox="0 0 22 22" fill="none" xmlns="http://www.w3.org/2000/svg">
<path d="M0.645508 18.8335V21.3669H11.0003H21.3551V18.8335H11.0003H0.645508Z" fill="#DFE7F4"/>
<path d="M11.0013 3.63281H0.646484V6.16617H11.0013H21.3561V3.63281H11.0013Z" fill="#DFE7F4"/>
<path d="M11 3.63281H21.3548V6.16617H11V3.63281Z" fill="#C7CFE1"/>
<path d="M11 18.8335H21.3548V21.3669H11V18.8335Z" fill="#C7CFE1"/>
<path d="M10.9984 6.1665H1.28809V18.8333H10.9984H20.7087V6.1665H10.9984Z" fill="#FF641A"/>
<path d="M11 6.1665H20.7103V18.8333H11V6.1665Z" fill="#F03800"/>
<path d="M0 18.1997V21.9997H10.9993H21.9986V18.1997H10.9993H0ZM3.48025 20.7331H1.28898V19.4664H3.48025V20.7331ZM6.91753 20.7331H4.76923V19.4664H6.91753V20.7331ZM10.3548 20.7331H8.20651V19.4664H10.3548V20.7331ZM18.5184 19.4664H20.7096V20.7331H18.5184V19.4664ZM15.0811 19.4664H17.2294V20.7331H15.0811V19.4664ZM11.6438 19.4664H13.7921V20.7331H11.6438V19.4664Z" fill="#404A80"/>
<path d="M11.0003 3.00098H0.000976562V6.80101H11.0003H21.9996V3.00098H11.0003ZM3.48122 5.53433H1.28996V4.26765H3.48122V5.53433ZM6.9185 5.53433H4.7702V4.26765H6.9185V5.53433ZM10.3558 5.53433H8.20748V4.26765H10.3558V5.53433ZM13.7931 5.53433H11.6448V4.26765H13.7931V5.53433ZM17.2304 5.53433H15.082V4.26765H17.2304V5.53433ZM20.7106 5.53433H18.5151V4.26765H20.7106V5.53433Z" fill="#404A80"/>
<path d="M13.7918 5.53336H11.6435V4.26668H13.7918V5.53336ZM17.2291 5.53336H15.0808V4.26668H17.2291V5.53336ZM10.999 3V6.80004H21.9983V3H10.999ZM20.7093 5.53336H18.5138V4.26668H20.7093V5.53336Z" fill="#283366"/>
<path d="M21.9973 18.1997H10.998V21.9997H21.9973V18.1997ZM13.7908 20.7331H11.6425V19.4664H13.7908V20.7331ZM17.2281 20.7331H15.0798V19.4664H17.2281V20.7331ZM20.7084 20.7331H18.5171V19.4664H20.7084V20.7331Z" fill="#283366"/>
<path d="M10.9999 10.0498L9.06641 8.7832V16.2162L10.9999 14.9496L14.7397 12.4997L10.9999 10.0498Z" fill="#F0F7FF"/>
<path d="M11 10.0503V14.9501L14.7398 12.5002L11 10.0503Z" fill="#DFE7F4"/>
</svg>
