<svg width="22" height="22" viewBox="0 0 22 22" fill="none" xmlns="http://www.w3.org/2000/svg">
<g clip-path="url(#clip0)">
<path d="M11 22C17.0751 22 22 17.0751 22 11C22 4.92487 17.0751 0 11 0C4.92487 0 0 4.92487 0 11C0 17.0751 4.92487 22 11 22Z" fill="#24ACF2"/>
<path d="M17.4115 5.56037L14.3759 4.33374L9.0289 9.51496L5.79838 7.06423L4.573 7.67692L4.58872 14.1512L12.3545 21.9169C17.7906 21.2494 22.0001 16.6165 22.0001 11C22.0001 10.7015 21.9878 10.4059 21.9645 10.1133L17.4115 5.56037Z" fill="#0488CB"/>
<path d="M17.4115 5.56037L14.3759 4.33374L9.0289 9.51495L5.79838 7.06423L4.573 7.67692L4.58872 14.1512L5.81411 14.7639L9.04463 12.3132L14.3917 17.4944L17.4272 16.2678L17.4115 5.56037ZM6.12048 12.2853V9.54284L7.63646 10.9141H7.65218L6.12048 12.2853ZM14.0714 13.1974L11.0237 10.9141H11.008L14.0714 8.63074V13.1974Z" fill="white"/>
</g>
<defs>
<clipPath id="clip0">
<rect width="22" height="22" fill="white"/>
</clipPath>
</defs>
</svg>
