<svg width="26" height="26" viewBox="0 0 26 26" fill="none" xmlns="http://www.w3.org/2000/svg">
<path d="M26 11.7336V22.4402C26 24.3515 24.4504 25.9011 22.5391 25.9011H3.46094C1.54959 25.9011 0 24.3515 0 22.4402V11.7336C0 9.8223 1.54959 8.27271 3.46094 8.27271H22.5391C24.4504 8.27271 26 9.8223 26 11.7336Z" fill="#D32E2A"/>
<path d="M3.46093 24.5879C2.27671 24.5879 1.31319 23.6244 1.31319 22.4402V11.7336C1.31319 10.5494 2.27666 9.58588 3.46093 9.58588H22.5391C23.7233 9.58588 24.6868 10.5494 24.6868 11.7336V22.4402C24.6868 23.6244 23.7234 24.5879 22.5391 24.5879H3.46093Z" fill="#F14336"/>
<path d="M16.8588 17.1361L10.2061 20.9772V13.295L16.8588 17.1361Z" fill="#F2F2F2"/>
</svg>
